<svg width="25" height="17" viewBox="0 0 25 17" fill="none" xmlns="http://www.w3.org/2000/svg">
<path d="M24.9281 8.15575C24.8917 8.07181 24.0094 6.07538 22.0479 4.07469C19.4344 1.40887 16.1333 0 12.5 0C8.86666 0 5.56562 1.40887 2.95208 4.07469C0.990616 6.07538 0.104157 8.075 0.0718651 8.15575C0.0244829 8.26446 0 8.3821 0 8.50106C0 8.62003 0.0244829 8.73767 0.0718651 8.84637C0.108323 8.93031 0.990616 10.9257 2.95208 12.9264C5.56562 15.5911 8.86666 17 12.5 17C16.1333 17 19.4344 15.5911 22.0479 12.9264C24.0094 10.9257 24.8917 8.93031 24.9281 8.84637C24.9755 8.73767 25 8.62003 25 8.50106C25 8.3821 24.9755 8.26446 24.9281 8.15575ZM12.5 12.75C11.6759 12.75 10.8703 12.5007 10.1851 12.0337C9.49992 11.5668 8.96586 10.903 8.6505 10.1264C8.33513 9.34982 8.25262 8.49529 8.41339 7.67087C8.57416 6.84645 8.971 6.08917 9.55372 5.4948C10.1364 4.90042 10.8789 4.49565 11.6871 4.33166C12.4954 4.16768 13.3332 4.25184 14.0945 4.57351C14.8559 4.89518 15.5066 5.43992 15.9645 6.13883C16.4223 6.83774 16.6667 7.65943 16.6667 8.5C16.6667 9.62717 16.2277 10.7082 15.4463 11.5052C14.6649 12.3022 13.6051 12.75 12.5 12.75Z" fill="#92E3A9"/>
</svg>
