<svg width="317" height="309" viewBox="0 0 317 309" fill="none" xmlns="http://www.w3.org/2000/svg">
<g clip-path="url(#clip0_383_1871)">
<path d="M174.423 2.78897C203.331 8.45128 236.181 24.0986 249.611 51.2389C269.909 92.2404 306.415 91.8263 315.796 169.474C317.259 181.582 317.352 192.965 316.262 203.61C315.677 209.33 314.739 214.844 313.483 220.124C302.147 268.108 264.743 298.044 221.886 306.729C165.521 318.157 132.105 283.807 112.133 261.21C92.1611 238.613 25.7759 217.976 15.9362 141.713C14.4403 130.084 14.1677 118.294 15.4442 106.626C18.3429 79.9969 29.7717 51.6077 50.2357 32.9577C51.7715 31.5599 53.3605 30.201 54.9894 28.8873C86.8224 3.23549 135.011 -4.93117 174.423 2.78897Z" fill="#92E3A9"/>
<path opacity="0.7" d="M174.423 2.78897C203.331 8.45128 236.181 24.0986 249.611 51.2389C269.909 92.2404 306.415 91.8263 315.796 169.474C317.259 181.582 317.352 192.965 316.262 203.61C315.677 209.33 314.739 214.844 313.483 220.124C302.147 268.108 264.743 298.044 221.886 306.729C165.521 318.157 132.105 283.807 112.133 261.21C92.1611 238.613 25.7759 217.976 15.9362 141.713C14.4403 130.084 14.1677 118.294 15.4442 106.626C18.3429 79.9969 29.7717 51.6077 50.2357 32.9577C51.7715 31.5599 53.3605 30.201 54.9894 28.8873C86.8224 3.23549 135.011 -4.93117 174.423 2.78897Z" fill="white"/>
<path d="M154.219 33.9673V40.9432" stroke="#263238" stroke-width="2" stroke-miterlimit="10"/>
<path d="M154.219 10.4768V29.4763" stroke="#263238" stroke-width="2" stroke-miterlimit="10"/>
<path d="M78.4658 24.6099L93.4382 42.2633" stroke="#263238" stroke-width="2" stroke-miterlimit="10"/>
<path d="M3.62988 72.2898L29.938 82.4431" stroke="#263238" stroke-width="2" stroke-miterlimit="10"/>
<path d="M18.0977 128.796H26.3085" stroke="#263238" stroke-width="2" stroke-miterlimit="10"/>
<path d="M0 128.796H12.938" stroke="#263238" stroke-width="2" stroke-miterlimit="10"/>
<path d="M228.601 24.6099L213.636 42.2633" stroke="#263238" stroke-width="2" stroke-miterlimit="10"/>
<path d="M291.137 77.0266L277.136 82.443" stroke="#263238" stroke-width="2" stroke-miterlimit="10"/>
<path d="M303.444 72.2898L296.29 75.0465" stroke="#263238" stroke-width="2" stroke-miterlimit="10"/>
<path d="M154.218 286.849V256.383" stroke="#263238" stroke-width="2" stroke-miterlimit="10"/>
<path d="M87.5273 262.032L93.4379 255.062" stroke="#263238" stroke-width="2" stroke-miterlimit="10"/>
<path d="M78.4648 272.722L84.1958 265.96" stroke="#263238" stroke-width="2" stroke-miterlimit="10"/>
<path d="M3.62988 225.036L29.938 214.883" stroke="#263238" stroke-width="2" stroke-miterlimit="10"/>
<path d="M222.511 265.539L213.636 255.062" stroke="#263238" stroke-width="2" stroke-miterlimit="10"/>
<path d="M228.601 272.722L224.712 268.128" stroke="#263238" stroke-width="2" stroke-miterlimit="10"/>
<path d="M303.444 225.036L277.136 214.883" stroke="#263238" stroke-width="2" stroke-miterlimit="10"/>
<path d="M307.074 128.796H280.766" stroke="#263238" stroke-width="2" stroke-miterlimit="10"/>
<path d="M178.452 259.003C178.452 259.003 178.452 252.636 176.338 248.332C174.224 244.029 168.26 236.16 164.603 231.294C160.946 226.427 161.911 218.934 161.911 218.934C161.911 218.934 155.754 217.251 148.055 207.512C140.356 197.773 138.82 184.669 138.82 184.669L168.832 178.864C168.832 178.864 178.126 167.365 182.94 177.292C187.747 187.218 186.537 224.182 188.072 230.55C189.608 236.917 189.994 257.14 189.994 257.14" fill="#263238"/>
<path d="M178.452 259.003C178.452 259.003 178.452 252.636 176.338 248.332C174.224 244.029 168.26 236.16 164.603 231.294C160.946 226.427 161.911 218.934 161.911 218.934C161.911 218.934 155.754 217.251 148.055 207.512C140.356 197.773 138.82 184.669 138.82 184.669L168.832 178.864C168.832 178.864 178.126 167.365 182.94 177.292C187.747 187.218 186.537 224.182 188.072 230.55C189.608 236.917 189.994 257.14 189.994 257.14" stroke="#263238" stroke-miterlimit="10"/>
<path d="M165.368 174.923C165.368 174.923 167.097 184.099 168.253 190.467C169.41 196.835 173.06 202.639 173.06 202.639C173.06 202.639 171.139 209.382 173.253 216.307C175.367 223.237 177.488 236.904 187.68 237.843C197.879 238.781 202.108 232.601 202.108 232.601C202.108 232.601 213.071 236.723 221.734 230.356C230.39 223.988 236.161 212.003 233.661 203.39C231.161 194.777 228.083 190.842 214.999 186.164C201.915 181.485 183.445 185.601 180.56 187.477C177.674 189.348 175.367 194.22 175.367 194.22L170.747 182.236L168.825 174.186L165.361 174.936L165.368 174.923Z" fill="#707070" stroke="#263238" stroke-miterlimit="10"/>
<path d="M37.0457 117.621C37.0457 117.621 37.8169 135.222 47.8229 145.524C57.8289 155.827 69.1779 161.068 77.4486 162.007C85.7193 162.945 91.4902 164.252 91.4902 164.252C91.4902 164.252 95.3397 188.597 109.574 193.463C123.809 198.329 125.544 198.142 131.315 194.589C137.086 191.036 141.513 187.846 141.513 187.846C141.513 187.846 115.345 185.413 108.231 170.995C101.111 156.577 89.1832 145.712 76.6774 139.344C64.1716 132.977 42.0454 122.862 41.2742 121.367C40.5029 119.866 37.0391 117.621 37.0391 117.621H37.0457Z" fill="#263238" stroke="#263238" stroke-miterlimit="10"/>
<path d="M54.1654 84.0999C54.1654 84.0999 51.4727 87.096 49.7375 89.3415C48.0089 91.587 47.2377 93.4637 47.2377 93.4637C47.2377 93.4637 40.1171 97.9612 38.3885 103.015C36.6599 108.069 35.6959 111.253 36.4671 116.314C37.2383 121.368 39.1597 125.865 39.1597 125.865C39.1597 125.865 39.3526 130.731 47.4305 133.728C55.5084 136.724 79.177 145.525 80.3272 146.463C81.4774 147.401 90.1404 153.206 90.1404 153.206L92.0618 162.757C92.0618 162.757 93.2186 174.554 95.14 177.738C97.0615 180.922 100.14 189.348 106.296 192.531C112.453 195.715 120.152 195.528 124.959 194.402C129.765 193.276 133.036 191.781 144.006 188.222C154.976 184.662 159.012 183.731 159.783 183.543C160.555 183.355 186.524 188.785 193.644 187.477C200.765 186.164 203.65 183.543 203.65 183.543C203.65 183.543 207.307 190.286 212.692 193.47C218.077 196.654 232.511 203.772 234.24 205.079C235.968 206.393 238.089 210.508 243.089 209.758C248.089 209.007 250.788 202.639 251.36 201.895C251.931 201.151 259.059 192.719 261.173 188.597C263.287 184.475 264.058 181.291 264.058 181.291C264.058 181.291 270.6 174.736 269.251 163.689C267.901 152.643 266.365 143.279 263.48 135.222C260.594 127.166 259.052 124.176 259.052 124.176C259.052 124.176 257.131 106.387 248.275 98.1488C239.426 89.911 234.233 87.4778 234.233 87.4778C234.233 87.4778 228.077 78.3017 219.613 74.9302C211.15 71.5587 198.451 62.0072 192.487 59.7616C186.524 57.5161 183.06 59.1987 183.06 59.1987C183.06 59.1987 166.704 54.1446 154.584 54.1446H142.464C142.464 54.1446 130.537 51.7115 118.416 54.1446C106.296 56.5778 93.5976 54.7076 84.7484 58.4545C75.8993 62.2013 66.4717 71.0021 66.4717 71.0021C66.4717 71.0021 56.4658 77.1821 54.1587 84.1128L54.1654 84.0999Z" fill="#92E3A9"/>
<path opacity="0.2" d="M263.494 135.222C260.608 127.172 259.066 124.176 259.066 124.176C259.066 124.176 257.144 106.387 248.289 98.1487C244.193 94.3371 240.896 91.781 238.515 90.1179C229.719 192.272 116.888 148.113 86.3115 150.624C88.3593 152.015 90.141 153.206 90.141 153.206L92.0625 162.757C92.0625 162.757 93.2193 174.554 95.1407 177.738C97.0621 180.922 100.14 189.347 106.297 192.531C112.453 195.715 120.152 195.527 124.959 194.401C129.766 193.275 133.037 191.781 144.007 188.221C154.97 184.662 159.013 183.724 159.784 183.543C160.555 183.355 186.524 188.784 193.645 187.477C200.765 186.164 203.651 183.543 203.651 183.543C203.651 183.543 207.307 190.286 212.693 193.47C218.078 196.653 232.512 203.772 234.24 205.079C235.969 206.393 238.09 210.508 243.09 209.758C248.089 209.007 250.789 202.639 251.36 201.895C251.932 201.151 259.059 192.719 261.173 188.597C263.288 184.475 264.059 181.291 264.059 181.291C264.059 181.291 270.601 174.735 269.251 163.689C267.902 152.643 266.366 143.279 263.48 135.222H263.494Z" fill="black"/>
<path opacity="0.2" d="M143.189 95.1719C143.189 95.1719 141.627 89.9496 137.379 100.174C133.13 110.399 131.342 118.669 126.429 122.584C121.509 126.499 110.785 124.978 109.442 127.153C108.099 129.327 108.551 131.068 108.551 131.068C108.551 131.068 113.916 130.634 116.376 130.634C118.836 130.634 126.655 131.501 126.655 131.501L132.465 129.327C132.465 129.327 131.574 126.065 132.02 125.412C132.465 124.758 136.042 122.804 137.159 117.142C138.276 111.486 138.948 102.128 139.619 100.828C140.291 99.5205 143.196 95.1719 143.196 95.1719H143.189Z" fill="black"/>
<path opacity="0.2" d="M129.107 148.042C129.107 148.042 136.035 143.907 140.284 143.907C144.532 143.907 152.803 145.427 161.073 141.732C169.344 138.031 179.849 130.421 179.849 130.421C179.849 130.421 191.47 133.902 198.624 127.373C205.778 120.843 205.552 109.532 209.8 108.878C214.049 108.224 212.932 121.063 210.026 124.545C207.121 128.026 202.201 136.077 198.85 137.384C195.499 138.691 190.134 140.212 185.886 140.212C181.637 140.212 177.169 141.732 177.169 141.732L168.008 146.521L157.058 148.482C157.058 148.482 146.779 151.53 144.539 151.53C142.298 151.53 130.903 147.395 129.114 148.048L129.107 148.042Z" fill="black"/>
<path opacity="0.2" d="M189.456 65.8057C189.456 65.8057 189.901 71.6815 186.55 75.5966C183.199 79.5117 184.762 80.8189 182.082 83.4268C179.403 86.0346 176.943 85.8211 174.257 88.8626C171.578 91.9105 170.906 93.8648 169.789 94.7384C168.672 95.6056 163.533 92.3441 159.511 98.8735C155.488 105.403 160.854 109.098 157.948 116.061C155.043 123.024 154.146 125.198 154.146 125.198L165.548 122.37C165.548 122.37 162.197 117.368 161.745 112.58C161.299 107.791 160.854 102.135 163.979 99.5271C167.103 96.9192 170.015 96.9192 170.015 96.9192C170.015 96.9192 174.264 90.8298 176.498 89.3026C178.732 87.7819 188.844 83.0967 190.134 82.5596C191.424 82.0225 192.813 82.126 192.813 82.126V71.9015L191.251 68.8536L189.462 65.8057H189.456Z" fill="black"/>
<path opacity="0.2" d="M202.866 71.2415C202.866 71.2415 206.888 74.0694 208.451 80.1588C210.013 86.2482 207.779 86.6882 207.779 86.6882L212.473 88.429C212.473 88.429 212.699 82.7731 210.459 77.7709C208.225 72.7687 202.859 71.2415 202.859 71.2415H202.866Z" fill="black"/>
<path opacity="0.2" d="M142.291 63.6313C142.291 63.6313 138.043 68.42 134.692 71.4615C131.341 74.503 124.187 78.4245 120.384 76.8973C116.582 75.3766 115.465 73.6358 115.465 73.6358C115.465 73.6358 121.721 79.9453 120.604 83.6403C119.487 87.3418 115.684 95.3855 109.202 96.9127C102.719 98.4335 92.4408 95.392 87.0755 96.9127C81.7102 98.4335 79.2502 106.484 78.8048 107.571C78.3593 108.658 75.6733 107.351 72.0965 106.484C68.5196 105.617 66.5117 105.83 66.5117 105.83C66.5117 105.83 70.5341 110.619 69.6432 113.227C68.7523 115.835 66.7378 116.275 66.7378 116.275C66.7378 116.275 71.2056 114.534 73.22 114.1C75.2345 113.667 78.8048 114.754 78.8048 114.754C78.8048 114.754 84.3895 104.529 88.4185 103.876C92.4408 103.222 95.7917 105.183 95.7917 105.183C95.7917 105.183 103.165 100.181 105.851 100.181C108.537 100.181 113.45 104.316 113.45 104.316C113.45 104.316 115.012 101.708 116.355 101.054C117.698 100.401 119.706 99.9672 119.706 99.9672C119.706 99.9672 120.152 88.6555 123.283 84.5204C126.415 80.3853 138.482 74.2959 138.482 74.2959C138.482 74.2959 135.35 71.688 142.285 63.6378L142.291 63.6313Z" fill="black"/>
<path opacity="0.2" d="M109.434 115.628C109.434 115.628 105.412 124.545 102.507 125.632C99.6013 126.719 97.3674 123.238 97.3674 123.238C97.3674 123.238 98.0389 129.327 95.579 130.201C93.1191 131.068 89.3228 128.46 89.3228 128.46C89.3228 128.46 89.0967 130.201 86.6434 130.634C84.1835 131.068 77.0297 127.153 73.4595 123.671C69.8826 120.19 68.9917 117.582 68.9917 117.582C68.9917 117.582 66.5317 120.843 67.8747 123.238C69.2177 125.632 76.5909 129.981 79.0509 131.068C81.5108 132.155 95.1468 137.597 95.1468 137.597C95.1468 137.597 99.6146 134.116 101.629 133.249C103.644 132.382 106.768 131.288 106.768 131.288C106.768 131.288 105.878 130.201 106.323 127.586C106.768 124.978 109.454 115.621 109.454 115.621L109.434 115.628Z" fill="black"/>
<path opacity="0.2" d="M95.1336 139.991C95.1336 139.991 93.3452 141.079 89.9943 142.386C86.6435 143.693 68.7591 135.856 60.0429 131.728C51.3267 127.593 42.83 118.675 41.9391 115.414C41.0482 112.152 41.2676 110.412 41.2676 110.412C41.2676 110.412 38.5882 122.377 41.0415 127.166C43.5015 131.954 58.0284 136.303 63.3937 138.477C68.7591 140.652 84.6623 150.598 86.3177 150.63C87.9732 150.663 91.5567 154.144 91.5567 154.144C91.5567 154.144 92.1418 147.472 92.4476 145.44C92.7535 143.408 95.127 140.004 95.127 140.004L95.1336 139.991Z" fill="black"/>
<path opacity="0.2" d="M223.204 121.717C223.204 121.717 229.24 124.111 234.825 122.584C240.41 121.063 243.767 115.187 246.001 117.148C248.235 119.109 251.586 128.026 251.367 137.164C251.147 146.301 250.024 147.608 250.921 149.129C251.812 150.65 254.724 151.523 252.264 151.737C249.804 151.957 247.57 151.303 247.57 151.303C247.57 151.303 248.913 143.473 246.679 136.51C244.445 129.547 245.283 125.917 242.657 124.545C240.031 123.173 241.095 124.111 233.715 125.852C226.342 127.593 221.934 125.011 223.21 121.717H223.204Z" fill="black"/>
<path opacity="0.2" d="M218.064 136.944C218.064 136.944 217.818 145.648 220.969 148.042C224.121 150.43 226.108 147.175 225.663 148.262C225.218 149.349 220.524 156.312 222.532 161.094C224.539 165.876 237.058 167.404 237.058 167.404C237.058 167.404 247.563 170.012 251.811 173.713C256.06 177.415 255.614 183.284 255.614 183.284L244.438 178.062C244.438 178.062 243.993 173.273 240.416 173.273C236.839 173.273 233.262 173.493 228.794 172.406C224.327 171.319 220.118 169.546 218.961 165.876C217.798 162.214 216.282 159.347 215.158 159.133C214.041 158.913 211.355 157.826 211.355 157.826C211.355 157.826 203.53 155.218 202.194 154.778C200.851 154.345 195.04 153.911 195.04 153.911C195.04 153.911 205.99 151.95 209.567 149.123C213.144 146.295 218.064 136.937 218.064 136.937V136.944Z" fill="black"/>
<path opacity="0.2" d="M257.623 148.909C257.623 148.909 259.185 155.652 252.929 157.179C246.673 158.7 237.505 157.833 235.271 155.218C233.037 152.61 238.402 141.079 238.402 141.079C238.402 141.079 236.388 140.859 234.599 137.597C232.811 134.336 231.022 129.547 231.022 129.547C231.022 129.547 229.905 134.336 229.905 136.51C229.905 138.684 231.92 157.833 231.92 157.833C231.92 157.833 238.628 158.7 243.322 161.314C248.016 163.922 252.264 166.317 252.264 166.317C252.264 166.317 253.607 162.401 254.943 161.094C256.28 159.787 260.528 154.351 257.623 148.909Z" fill="black"/>
<path opacity="0.2" d="M112.566 153.044C112.566 153.044 112.34 164.576 121.282 165.443C130.224 166.31 136.706 161.308 142.291 161.308C147.876 161.308 148.102 163.702 151.905 162.395C155.708 161.088 161.066 157.606 166.658 158.48C172.242 159.347 179.396 163.482 182.302 163.482C185.207 163.482 188.338 162.175 191.244 162.615C194.149 163.055 202.865 165.443 204.428 164.789C205.99 164.136 203.982 167.183 201.522 168.051C199.062 168.918 196.829 169.358 196.829 169.358C196.829 169.358 194.595 166.53 189.003 166.53C183.412 166.53 174.031 165.443 170.899 165.009C167.768 164.576 163.746 162.181 161.286 163.048C158.826 163.916 147.876 168.484 145.642 168.484C143.408 168.484 135.363 165.876 129.1 168.264C122.844 170.658 119.487 171.746 119.041 173.486C118.596 175.227 121.947 179.362 124.626 180.016C127.305 180.669 130.437 180.883 139.379 177.622C148.321 174.36 153.46 169.791 165.308 172.186C177.156 174.58 188.332 178.275 191.683 179.362C195.033 180.449 200.399 181.757 203.75 180.669C207.1 179.582 208.443 177.622 208.443 177.622C208.443 177.622 209.115 181.103 206.881 181.757C204.647 182.41 202.187 184.585 198.61 183.931C195.033 183.277 171.504 173.797 165.361 174.917C159.218 176.036 149.438 176.748 149.438 177.401C149.438 178.055 168.213 176.968 173.353 179.362C178.492 181.757 186.317 184.365 188.997 185.238C191.676 186.105 196.15 186.759 196.15 186.759C196.15 186.759 183.631 187.626 174.915 185.892C166.199 184.151 158.374 184.585 158.374 184.585C158.374 184.585 129.985 193.288 128.422 193.502C126.86 193.722 115.458 196.33 108.085 192.415C100.711 188.5 95.7914 180.669 94.4484 175.661C93.1055 170.659 90.6455 156.079 90.6455 156.079C90.6455 156.079 90.8716 149.989 92.8794 151.51C94.8872 153.031 97.3472 161.955 100.705 168.478C104.056 175.007 111.209 187.186 115.677 188.927C120.145 190.667 123.496 188.357 121.488 186.532C119.48 184.714 114.56 177.395 112.772 168.911C110.983 160.428 112.546 153.031 112.546 153.031L112.566 153.044Z" fill="black"/>
<path opacity="0.2" d="M201.297 170.665C201.297 170.665 208.225 165.009 210.458 170.445C212.692 175.881 218.284 189.153 233.256 193.508C248.229 197.857 252.922 196.77 251.36 191.988L249.798 187.199C249.798 187.199 252.849 191.645 256.28 189.593C259.711 187.542 264.065 181.291 264.065 181.291C264.065 181.291 258.959 194.382 256.28 196.77C253.601 199.164 253.607 198.737 251.367 201.889C249.126 205.04 251.367 206.127 245.33 207.428C239.293 208.735 236.348 205.972 234.247 205.066C232.146 204.16 220.744 200.077 216.721 196.764C212.699 193.457 205.1 186.105 204.874 185.232C204.648 184.365 203.657 183.53 203.657 183.53C203.657 183.53 210.02 181.97 209.794 179.142C209.568 176.314 201.304 170.659 201.304 170.659L201.297 170.665Z" fill="black"/>
<path opacity="0.2" d="M217.393 93.4313C217.393 93.4313 223.429 97.7799 224.101 104.089C224.772 110.399 220.75 113.227 219.407 116.488C218.064 119.75 217.552 124.131 221.422 124.972L225.284 125.813C225.284 125.813 222.086 120.403 224.101 118.229C226.115 116.055 233.934 110.612 234.379 109.525C234.825 108.438 232.365 105.824 233.934 104.303C235.496 102.782 237.285 103.436 239.745 104.523C242.205 105.61 249.132 110.179 249.132 110.179C249.132 110.179 250.921 107.784 243.548 102.782C236.175 97.7799 233.043 99.3007 229.24 98.6471C225.437 97.9935 217.393 93.4248 217.393 93.4248V93.4313Z" fill="black"/>
<path opacity="0.2" d="M89.3162 82.7731C89.3162 82.7731 97.3609 79.7252 101.164 80.5988C104.967 81.4659 109.654 84.5139 109.654 84.5139L114.122 82.5531C114.122 82.5531 110.319 87.7754 110.099 88.6425C109.873 89.5096 103.843 86.6817 100.04 85.8146C96.2373 84.9474 89.3096 82.7667 89.3096 82.7667L89.3162 82.7731Z" fill="black"/>
<path opacity="0.2" d="M66.5184 105.837C66.5184 105.837 68.3068 111.492 64.956 111.712C61.6051 111.932 55.5683 110.192 54.8968 107.364C54.2253 104.536 58.2476 99.5336 60.2621 98.4464C62.2766 97.3592 68.9783 95.3985 68.9783 95.3985C68.9783 95.3985 66.7444 91.2634 60.4815 93.8777C54.2186 96.4921 54.4447 103.669 52.2108 104.322C49.9769 104.976 48.1885 101.274 48.1885 101.274C48.1885 101.274 46.5463 104.225 47.9624 106.93C49.3852 109.635 53.9793 111.939 55.1162 112.366C56.2531 112.8 63.4933 116.598 66.7377 116.281C69.9822 115.964 70.9861 112.8 69.8692 110.192C68.7522 107.584 66.5184 105.843 66.5184 105.843V105.837Z" fill="black"/>
<path opacity="0.2" d="M126.508 147.938C126.508 147.938 123.576 145.084 119.906 145.44C116.243 145.796 111.476 149.006 107.44 148.294C103.404 147.582 99.0098 145.084 99.0098 145.084C99.0098 145.084 104.209 152.798 106.343 152.934C108.477 153.07 123.942 151.866 126.508 147.938Z" fill="black"/>
<path opacity="0.2" d="M181.504 101.184C181.504 101.184 184.071 107.966 181.504 112.961C178.938 117.957 169.77 120.099 166.472 118.313C163.175 116.527 161.738 112.573 161.738 112.573C161.738 112.573 161.3 119.277 165.541 122.364C165.541 122.364 173.812 121.167 175.281 121.523C176.751 121.879 179.683 121.879 179.683 121.879C179.683 121.879 182.183 117.892 184.815 113.673C187.448 109.448 188.113 107.603 188.851 105.105C189.582 102.607 189.948 101.177 193.252 99.7537L196.55 98.3235C196.55 98.3235 193.984 95.1138 189.582 97.6117C185.181 100.11 185.181 102.607 181.518 101.177L181.504 101.184Z" fill="black"/>
<path opacity="0.2" d="M82.5077 73.3511C82.5077 73.3511 79.5757 73.707 79.9414 76.9232C80.3071 80.1329 78.4721 80.4888 72.6081 81.2071C66.7442 81.9254 63.0742 82.6373 59.7765 85.1351L56.4789 87.633L51.7119 95.1267C51.7119 95.1267 61.9772 84.4233 70.4141 84.0609C78.8444 83.705 79.5824 85.847 79.5824 86.9147C79.5824 87.9825 79.2167 92.6223 79.2167 92.6223C79.2167 92.6223 81.0517 87.6265 84.715 83.6985L82.5144 73.3511H82.5077Z" fill="black"/>
<path d="M54.1654 84.0999C54.1654 84.0999 51.4727 87.096 49.7375 89.3415C48.0089 91.587 47.2377 93.4637 47.2377 93.4637C47.2377 93.4637 40.1171 97.9612 38.3885 103.015C36.6599 108.069 35.6959 111.253 36.4671 116.314C37.2383 121.368 39.1597 125.865 39.1597 125.865C39.1597 125.865 39.3526 130.731 47.4305 133.728C55.5084 136.724 79.177 145.525 80.3272 146.463C81.4774 147.401 90.1404 153.206 90.1404 153.206L92.0618 162.757C92.0618 162.757 93.2186 174.554 95.14 177.738C97.0615 180.922 100.14 189.348 106.296 192.531C112.453 195.715 120.152 195.528 124.959 194.402C129.765 193.276 133.036 191.781 144.006 188.222C154.976 184.662 159.012 183.731 159.783 183.543C160.555 183.355 186.524 188.785 193.644 187.477C200.765 186.164 203.65 183.543 203.65 183.543C203.65 183.543 207.307 190.286 212.692 193.47C218.077 196.654 232.511 203.772 234.24 205.079C235.968 206.393 238.089 210.508 243.089 209.758C248.089 209.007 250.788 202.639 251.36 201.895C251.931 201.151 259.059 192.719 261.173 188.597C263.287 184.475 264.058 181.291 264.058 181.291C264.058 181.291 270.6 174.736 269.251 163.689C267.901 152.643 266.365 143.279 263.48 135.222C260.594 127.166 259.052 124.176 259.052 124.176C259.052 124.176 257.131 106.387 248.275 98.1488C239.426 89.911 234.233 87.4778 234.233 87.4778C234.233 87.4778 228.077 78.3017 219.613 74.9302C211.15 71.5587 198.451 62.0072 192.487 59.7616C186.524 57.5161 183.06 59.1987 183.06 59.1987C183.06 59.1987 166.704 54.1446 154.584 54.1446H142.464C142.464 54.1446 130.537 51.7115 118.416 54.1446C106.296 56.5778 93.5976 54.7076 84.7484 58.4545C75.8993 62.2013 66.4717 71.0021 66.4717 71.0021C66.4717 71.0021 56.4658 77.1821 54.1587 84.1128L54.1654 84.0999Z" stroke="#263238" stroke-miterlimit="10"/>
<path d="M102.413 137.986C102.413 137.986 102.413 134.731 107.845 133.715C113.277 132.699 117.246 134.53 117.246 134.53C117.246 134.53 103.876 136.361 102.413 137.986Z" fill="white"/>
<path d="M131.234 135.753C131.234 135.753 131.234 132.498 136.666 131.482C142.098 130.466 146.067 132.297 146.067 132.297C146.067 132.297 132.697 134.129 131.234 135.753Z" fill="white"/>
<path d="M152.543 130.874C152.543 130.874 152.543 127.619 157.975 126.603C163.407 125.587 167.376 127.418 167.376 127.418C167.376 127.418 154.006 129.249 152.543 130.874Z" fill="white"/>
<path d="M146.898 97.0875C146.898 97.0875 145.269 94.2466 149.511 90.7845C153.746 87.3225 158.127 87.0442 158.127 87.0442C158.127 87.0442 147.364 94.9714 146.898 97.0875Z" fill="white"/>
<path d="M125.797 88.9598C125.797 88.9598 124.168 86.119 128.409 82.6569C132.651 79.1948 137.026 78.9165 137.026 78.9165C137.026 78.9165 126.262 86.8437 125.797 88.9598Z" fill="white"/>
<path d="M81.3249 116.165C81.3249 116.165 79.6961 113.324 83.9378 109.862C88.1729 106.4 92.5543 106.121 92.5543 106.121C92.5543 106.121 81.7903 114.049 81.3249 116.165Z" fill="white"/>
<path d="M96.2168 108.127C96.2168 108.127 96.2567 104.872 101.702 103.921C107.147 102.97 111.089 104.84 111.089 104.84C111.089 104.84 97.6994 106.516 96.2168 108.127Z" fill="white"/>
<path d="M190.639 89.717C190.639 89.717 193.511 85.6919 203.783 90.7588C214.055 95.8322 219.287 102.724 219.287 102.724C219.287 102.724 194.595 89.4063 190.639 89.7105V89.717Z" fill="white"/>
<path d="M85.4665 78.5086C85.4665 78.5086 84.9346 75.2989 90.1338 73.4546C95.3262 71.6103 99.548 72.801 99.548 72.801C99.548 72.801 86.6499 76.6773 85.4732 78.5086H85.4665Z" fill="white"/>
<path d="M168.306 69.7144C168.306 69.7144 167.774 66.5047 172.974 64.6604C178.166 62.8161 182.388 64.0068 182.388 64.0068C182.388 64.0068 169.49 67.8831 168.313 69.7144H168.306Z" fill="white"/>
<path d="M141.919 69.6431C141.919 69.6431 141.387 66.4334 146.579 64.5891C151.772 62.7448 155.994 63.9355 155.994 63.9355C155.994 63.9355 143.095 67.8118 141.919 69.6431Z" fill="white"/>
<path opacity="0.35" d="M183.851 189.257C183.851 189.257 194.083 204.341 205.239 209.169C216.396 213.996 214.847 209.473 209.581 205.551C204.315 201.63 192.222 190.467 197.181 193.178C202.141 195.896 205.239 199.21 215.777 204.645C226.315 210.075 233.755 208.871 233.755 208.871C233.755 208.871 233.442 214.605 231.275 217.62C229.108 220.636 226.003 220.94 222.904 220.338C219.806 219.736 212.367 218.228 212.367 218.228C212.367 218.228 213.603 220.338 217.639 222.454C221.668 224.564 227.871 225.172 227.871 225.172C227.871 225.172 227.406 227.715 221.748 230.368C216.09 233.022 211.13 229.094 205.552 225.476C199.974 221.859 190.054 210.689 190.985 214.009C191.916 217.329 196.876 222.156 200.592 225.476C204.309 228.796 214.541 233.921 214.541 233.921C214.541 233.921 208.344 233.617 205.864 233.319C203.385 233.015 206.137 234.931 202.128 232.614C198.119 230.297 193.159 225.172 189.13 219.743C185.101 214.313 183.24 215.517 186.032 218.837C188.824 222.156 191.923 227.586 193.472 229.695C195.021 231.805 196.882 233.015 196.882 234.219C196.882 235.422 200.293 234.523 196.882 235.422C193.472 236.328 186.963 230.899 183.552 225.767C180.141 220.636 176.112 205.855 177.974 214.909C179.836 223.962 183.246 231.501 186.032 233.915C188.818 236.328 190.679 237.234 190.679 237.234C190.679 237.234 185.719 236.633 182.621 232.711C179.523 228.789 175.182 214.307 175.182 208.276C175.182 202.245 175.8 198.925 177.349 200.73C178.898 202.542 180.76 208.878 181.691 208.276C182.621 207.674 178.28 192.285 180.141 195.003C182.003 197.721 194.402 215.219 192.228 209.486C190.061 203.752 185.407 197.721 184.17 194.401C182.934 191.082 183.858 189.27 183.858 189.27L183.851 189.257Z" fill="black"/>
<path d="M92.0355 149.026C92.0355 149.026 91.6765 144.806 92.7602 143.396C93.8439 141.991 95.2867 142.166 95.2867 142.166C95.2867 142.166 93.1192 136.361 102.514 132.492C111.908 128.622 126.907 131.786 126.907 131.786C126.907 131.786 133.954 129.502 141.002 129.327C148.049 129.152 151.3 127.392 152.563 126.337C153.827 125.283 158.348 122.293 166.479 122.293C174.61 122.293 179.849 122.468 179.849 122.468C179.849 122.468 186.351 114.553 187.435 109.454C188.518 104.355 192.853 100.834 192.853 100.834" stroke="#263238" stroke-width="2" stroke-linecap="round" stroke-linejoin="round"/>
<path d="M182.195 101.714C182.195 101.714 187.434 105.235 187.434 109.454" stroke="#263238" stroke-width="2" stroke-linecap="round" stroke-linejoin="round"/>
<path d="M169.55 97.6699C169.55 97.6699 161.06 96.9646 160.335 106.988C159.61 117.012 165.215 121.937 166.478 122.286" stroke="#263238" stroke-width="2" stroke-linecap="round" stroke-linejoin="round"/>
<path d="M176.478 90.2668C184.097 84.1451 190.286 81.7249 195.206 82.7149C200.445 83.7698 210.205 88.5196 214.899 90.9787C219.593 93.4377 223.21 95.7285 224.473 98.3623L225.736 101.003" stroke="#263238" stroke-width="2" stroke-linecap="round" stroke-linejoin="round"/>
<path d="M170.992 104.174C170.992 104.174 167.675 99.8637 172.408 94.072" stroke="#263238" stroke-width="2" stroke-linecap="round" stroke-linejoin="round"/>
<path d="M191.417 82.0161L190.872 73.3965C190.872 73.3965 193.219 72.6911 190.513 67.2423C187.8 61.7871 179.669 60.5576 177.143 61.0882C174.616 61.6189 170.454 61.9683 167.928 65.3075C165.401 68.6466 165.215 71.6363 165.215 72.1669C165.215 72.6976 162.503 75.5061 161.419 78.677C160.335 81.8414 159.976 83.7763 159.976 83.7763C159.976 83.7763 153.288 81.8414 145.343 91.6906" stroke="#263238" stroke-width="2" stroke-linecap="round" stroke-linejoin="round"/>
<path d="M143.348 95.2043C143.348 95.2043 140.276 98.0193 138.833 105.934C137.391 113.848 137.205 117.368 134.858 121.413C132.511 125.457 130.882 128.622 134.678 129.858" stroke="#263238" stroke-width="2" stroke-linecap="round" stroke-linejoin="round"/>
<path d="M142.444 73.5713C142.444 73.5713 126.727 78.8453 123.29 85.8795C119.859 92.9137 119.135 100.123 119.859 103.468C120.032 104.264 120.158 105.261 120.258 106.348" stroke="#263238" stroke-width="2" stroke-linecap="round" stroke-linejoin="round"/>
<path d="M118.955 100.485C118.955 100.485 116.608 97.8446 114.075 104.355C111.549 110.865 108.291 118.779 106.669 122.642C105.04 126.512 105.944 128.272 106.669 128.971" stroke="#263238" stroke-width="2" stroke-linecap="round" stroke-linejoin="round"/>
<path d="M114.075 104.355C114.075 104.355 108.836 100.66 104.136 100.834C99.4351 101.009 95.6454 103.999 94.9208 104.879C94.9208 104.879 89.3161 102.944 84.0771 107.163C78.838 111.382 78.4724 116.307 78.4724 116.307C78.4724 116.307 75.7598 110.852 69.9823 115.958C64.2047 121.063 69.6232 126.687 75.4008 129.146C81.185 131.605 94.7811 137.778 94.7811 137.778" stroke="#263238" stroke-width="2" stroke-linecap="round" stroke-linejoin="round"/>
<path d="M78.4785 116.313C78.4785 116.313 83.4183 122.642 88.1986 125.302" stroke="#263238" stroke-width="2" stroke-linecap="round" stroke-linejoin="round"/>
<path d="M94.9276 104.879C94.9276 104.879 94.7016 115.99 97.0884 122.636" stroke="#263238" stroke-width="2" stroke-linecap="round" stroke-linejoin="round"/>
<path d="M78.6651 92.5705C78.6651 92.5705 80.653 88.8755 79.7488 85.8858C78.8446 82.8961 66.013 82.5466 60.2355 87.1153C54.4579 91.684 51.9248 93.2694 49.2123 98.3687C46.4997 103.468 46.6858 106.988 46.6858 106.988C46.6858 106.988 43.6142 107.338 41.9854 111.564" stroke="#263238" stroke-width="2" stroke-linecap="round" stroke-linejoin="round"/>
<path d="M68.1799 96.4404C68.1799 96.4404 66.3715 95.7351 61.1325 98.55C55.8935 101.365 55.3483 104.704 55.1688 107.519C54.9893 110.334 56.2525 112.793 56.2525 112.793C56.2525 112.793 60.7669 115.252 64.3836 115.433C68.0004 115.608 69.9883 115.608 70.5268 113.149C71.072 110.69 65.4673 104.18 65.4673 104.18" stroke="#263238" stroke-width="2" stroke-linecap="round" stroke-linejoin="round"/>
<path d="M49.3916 109.629C49.3916 109.629 53.1879 113.324 56.2595 112.793" stroke="#263238" stroke-width="2" stroke-linecap="round" stroke-linejoin="round"/>
<path d="M79.3828 94.3244C79.3828 94.3244 79.7418 85.1806 86.6097 83.9511C93.4776 82.7215 106.303 87.4714 106.303 87.4714" stroke="#263238" stroke-width="2" stroke-linecap="round" stroke-linejoin="round"/>
<path d="M84.8082 84.4752C84.8082 84.4752 84.4492 79.7253 82.9998 76.5609C81.5571 73.3965 82.4546 71.9858 85.3467 71.2869C88.2388 70.5815 93.8368 70.4068 97.8126 68.4719" stroke="#263238" stroke-width="2" stroke-linecap="round" stroke-linejoin="round"/>
<path d="M122.572 62.3179C122.572 62.3179 115.165 64.078 115.704 71.287C116.249 78.4959 122.931 82.0162 123.476 83.071" stroke="#263238" stroke-width="2" stroke-linecap="round" stroke-linejoin="round"/>
<path d="M138.109 75.3313C138.109 75.3313 137.025 69.876 140.456 66.5369C143.886 63.1978 144.431 60.2081 157.263 61.6123C170.095 63.0166 168.645 63.0166 168.645 63.0166" stroke="#263238" stroke-width="2" stroke-linecap="round" stroke-linejoin="round"/>
<path d="M145.882 61.6123C145.882 61.6123 139.918 60.2081 133.236 59.8522C126.548 59.5027 109.202 61.6123 102.155 62.4924C95.1071 63.3725 84.2634 64.0779 76.1323 67.9476C68.0012 71.8174 65.6543 73.927 65.6543 73.927" stroke="#263238" stroke-width="2" stroke-linecap="round" stroke-linejoin="round"/>
<path d="M81.4108 65.7475C81.4108 65.7475 81.1914 63.8968 84.8082 60.5576" stroke="#263238" stroke-width="2" stroke-linecap="round" stroke-linejoin="round"/>
<path d="M205.559 126.182C207.992 120.72 208.929 115.382 210.565 112.437" stroke="#263238" stroke-width="2" stroke-linecap="round" stroke-linejoin="round"/>
<path d="M130.815 148.87C133.907 148.586 137.205 148.411 138.288 148.67C140.456 149.2 148.766 151.659 153.287 149.375C157.802 147.091 164.849 145.855 164.849 145.855C164.849 145.855 166.657 146.204 172.076 143.745C177.494 141.286 182.195 138.471 182.733 138.29C183.272 138.109 195.379 140.574 201.343 133.191C201.874 132.53 202.366 131.864 202.819 131.178" stroke="#263238" stroke-width="2" stroke-linecap="round" stroke-linejoin="round"/>
<path d="M99.083 146.036C99.083 146.036 105.951 153.419 108.477 153.07C110.479 152.792 119.042 151.083 122.798 150.203" stroke="#263238" stroke-width="2" stroke-linecap="round" stroke-linejoin="round"/>
<path d="M112.632 152.19C112.632 152.19 109.016 159.224 112.273 168.899C115.531 178.573 119.5 184.727 119.5 184.727" stroke="#263238" stroke-width="2" stroke-linecap="round" stroke-linejoin="round"/>
<path d="M146.2 167.714C147.962 168.102 149.179 168.212 151.838 166.964C157.077 164.504 161.412 163.094 164.67 163.094C167.927 163.094 170.813 165.378 175.513 165.909C180.214 166.439 191.776 165.029 194.123 167.313C196.469 169.597 199.182 176.107 201.895 177.162" stroke="#263238" stroke-width="2" stroke-linecap="round" stroke-linejoin="round"/>
<path d="M121.668 172.594C121.668 172.594 128.536 166.964 137.751 166.789C138.954 166.763 139.998 166.789 140.909 166.854" stroke="#263238" stroke-width="2" stroke-linecap="round" stroke-linejoin="round"/>
<path d="M203.517 165.734C200.991 166.789 197.374 169.073 197.374 169.073C197.374 169.073 208.935 175.402 209.122 179.447C209.301 183.491 200.811 183.491 200.811 183.491C200.811 183.491 198.61 184.281 185.48 180.158C172.355 176.036 169.816 174.386 159.225 176.036C148.64 177.686 148.215 178.508 142.291 181.809" stroke="#263238" stroke-width="2" stroke-linecap="round" stroke-linejoin="round"/>
<path d="M233.396 172.671C238.129 172.839 242.258 172.555 243.089 174.179C244.352 176.638 243.993 178.398 243.993 178.398C243.993 178.398 260.076 185.258 259.71 187.542" stroke="#263238" stroke-width="2" stroke-linecap="round" stroke-linejoin="round"/>
<path d="M179.849 157.82C179.849 157.82 188.525 154.655 195.386 154.481C202.254 154.306 216.708 159.23 217.792 162.22C218.875 165.21 218.875 169.785 225.923 171.72C226.534 171.888 227.166 172.031 227.804 172.141" stroke="#263238" stroke-width="2" stroke-linecap="round" stroke-linejoin="round"/>
<path d="M259.537 182.967C259.537 182.967 262.968 181.032 260.98 177.162C258.992 173.292 253.753 166.433 245.981 162.039C238.209 157.645 231.707 157.645 231.707 157.645C231.707 157.645 232.97 148.145 231.707 143.402C230.444 138.652 229.898 135.837 229.898 135.837" stroke="#263238" stroke-width="2" stroke-linecap="round" stroke-linejoin="round"/>
<path d="M232.432 147.091C232.432 147.091 234.779 142.515 238.575 140.581" stroke="#263238" stroke-width="2" stroke-linecap="round" stroke-linejoin="round"/>
<path d="M217.432 132.317C217.432 132.317 218.696 140.937 218.516 142.166C218.337 143.396 215.624 144.981 214.54 150.08C213.457 155.18 212.193 157.289 212.193 157.289C212.193 157.289 212.918 158.694 215.81 158.169C218.702 157.639 224.121 150.43 224.121 150.43" stroke="#263238" stroke-width="2" stroke-linecap="round" stroke-linejoin="round"/>
<path d="M257.862 153.905C257.636 156.94 256.911 159.489 255.741 160.81C253.394 163.45 252.49 166.614 252.49 166.614" stroke="#263238" stroke-width="2" stroke-linecap="round" stroke-linejoin="round"/>
<path d="M225.278 125.82C223.283 124.331 222 121.465 224.48 118.423C227.91 114.204 233.874 110.858 234.419 110.159C234.964 109.454 234.24 105.235 236.587 104.18C238.934 103.125 245.801 107.519 249.053 112.094C252.304 116.669 253.028 121.769 252.669 124.053C252.31 126.337 255.382 137.597 257.004 144.101C257.396 145.686 257.669 147.33 257.809 148.954" stroke="#263238" stroke-width="2" stroke-linecap="round" stroke-linejoin="round"/>
<path d="M244.718 123.697C244.718 123.697 243.275 121.413 240.018 123.167C237.704 124.416 233.934 125.93 230.909 126.577" stroke="#263238" stroke-width="2" stroke-linecap="round" stroke-linejoin="round"/>
<path d="M245.802 126.862C245.802 126.862 248.328 134.776 248.873 141.286C249.418 147.796 247.969 150.43 247.969 150.43L243.993 150.255" stroke="#263238" stroke-width="2" stroke-linecap="round" stroke-linejoin="round"/>
<path d="M247.969 150.43L252.669 153.07" stroke="#263238" stroke-width="2" stroke-linecap="round" stroke-linejoin="round"/>
<path d="M190.692 77.2662C190.692 77.2662 191.238 68.2971 202.075 70.9373C212.918 73.5776 212.553 89.4061 212.553 89.4061" stroke="#263238" stroke-width="2" stroke-linecap="round" stroke-linejoin="round"/>
<path d="M211.109 82.1909C211.109 82.1909 214.001 79.2012 219.965 80.0813C225.929 80.9614 228.455 83.2457 228.455 83.2457" stroke="#263238" stroke-width="2" stroke-linecap="round" stroke-linejoin="round"/>
<path d="M223.755 83.4204L232.431 91.16C232.431 91.16 233.874 90.4546 236.586 90.6293" stroke="#263238" stroke-width="2" stroke-linecap="round" stroke-linejoin="round"/>
<path d="M54.1654 84.0999C54.1654 84.0999 51.4727 87.096 49.7375 89.3415C48.0089 91.587 47.2377 93.4637 47.2377 93.4637C47.2377 93.4637 40.1171 97.9612 38.3885 103.015C36.6599 108.069 35.6959 111.253 36.4671 116.314C37.2383 121.368 39.1597 125.865 39.1597 125.865C39.1597 125.865 39.3526 130.731 47.4305 133.728C55.5084 136.724 79.177 145.525 80.3272 146.463C81.4774 147.401 90.1404 153.206 90.1404 153.206L92.0618 162.757C92.0618 162.757 93.2186 174.554 95.14 177.738C97.0615 180.922 100.14 189.348 106.296 192.531C112.453 195.715 120.152 195.528 124.959 194.402C129.765 193.276 133.036 191.781 144.006 188.222C154.976 184.662 159.012 183.731 159.783 183.543C160.555 183.355 186.524 188.785 193.644 187.477C200.765 186.164 203.65 183.543 203.65 183.543C203.65 183.543 207.307 190.286 212.692 193.47C218.077 196.654 232.511 203.772 234.24 205.079C235.968 206.393 238.089 210.508 243.089 209.758C248.089 209.007 250.788 202.639 251.36 201.895C251.931 201.151 259.059 192.719 261.173 188.597C263.287 184.475 264.058 181.291 264.058 181.291C264.058 181.291 270.6 174.736 269.251 163.689C267.901 152.643 266.365 143.279 263.48 135.222C260.594 127.166 259.052 124.176 259.052 124.176C259.052 124.176 257.131 106.387 248.275 98.1488C239.426 89.911 234.233 87.4778 234.233 87.4778C234.233 87.4778 228.077 78.3017 219.613 74.9302C211.15 71.5587 198.451 62.0072 192.487 59.7616C186.524 57.5161 183.06 59.1987 183.06 59.1987C183.06 59.1987 166.704 54.1446 154.584 54.1446H142.464C142.464 54.1446 130.537 51.7115 118.416 54.1446C106.296 56.5778 93.5976 54.7076 84.7484 58.4545C75.8993 62.2013 66.4717 71.0021 66.4717 71.0021C66.4717 71.0021 56.4658 77.1821 54.1587 84.1128L54.1654 84.0999Z" stroke="#263238" stroke-width="2" stroke-miterlimit="10"/>
</g>
<defs>
<clipPath id="clip0_383_1871">
<rect width="317" height="309" fill="white"/>
</clipPath>
</defs>
</svg>
