<svg width="1440" height="657" viewBox="0 0 1440 657" fill="none" xmlns="http://www.w3.org/2000/svg">
<path d="M1540.02 656.666L1540.02 74.7783C1449.02 63.2734 1354.84 67.6841 1264.75 84.6093C1112.94 113.146 971.549 175.479 841.371 250.142C660.131 354.191 492.423 485.209 285.472 539.943C184.191 566.753 76.2351 574.352 -20.5644 611.922C-50.2461 623.449 -78.0077 638.503 -103.08 656.666L1540.02 656.666Z" fill="url(#paint0_linear_653_12445)" fill-opacity="0.15"/>
<path d="M1519.3 22.5944C1463.43 9.57495 1406.65 1.09905 1348.8 0.0628529C1293.28 -0.652605 1237.88 4.76536 1183.88 16.191C1128.61 27.6161 1075.93 45.0727 1023.6 64.2564C976.121 81.6115 929.921 101.587 885.276 124.066C795.07 170.051 711.229 225.157 635.443 288.27C625.7 296.294 616.097 304.425 606.634 312.661C595.812 321.7 584.47 330.241 572.654 338.249L556.866 349.408C552.535 352.706 548.749 356.525 545.62 360.753C540.959 366.28 533.591 370.611 527.577 375.075L509.925 388.36C465.48 421.785 420.663 454.821 375.476 487.467C352.604 503.514 328.399 518.018 303.064 530.856C277.985 543.955 252.635 557.028 226.924 569.17C175.472 593.482 119.419 608.68 63.9069 623.932C49.9237 627.784 35.9406 631.61 21.9874 635.596C19.702 636.234 20.6642 639.449 22.9797 638.784C78.4915 623.002 134.845 609.185 188.673 589.098C213.771 579.421 238.103 568.262 261.506 555.699C285.984 542.866 311.033 531.015 335.03 517.385C359.027 503.754 380.528 488.158 402.45 472.216C424.372 456.273 446.414 440.092 468.246 423.858C490.86 407.048 513.403 390.131 535.877 373.109C540.651 369.955 545.009 366.336 548.867 362.321C550.661 359.696 552.671 357.192 554.882 354.828C557.761 352.565 560.772 350.436 563.903 348.451C575.541 340.241 587.599 332.323 598.876 323.741C608.95 316.062 618.031 307.188 627.684 299.057C637.337 290.927 646.99 283.115 656.823 275.144C676.31 259.574 696.267 244.518 716.696 229.975C757.294 200.943 799.832 174.094 844.078 149.573C888.034 125.212 933.716 103.37 980.842 84.1841C1031.24 63.2235 1083.22 45.37 1136.4 30.7514C1190.68 16.0084 1246.76 7.02647 1303.45 3.99522C1361.43 1.4254 1419.54 5.71459 1476.24 16.749C1490.31 19.4059 1504.26 22.4615 1518.16 25.7031C1518.64 25.8229 1519.15 25.7698 1519.58 25.5555C1520.02 25.3413 1520.34 24.9834 1520.47 24.5606C1520.61 24.1378 1520.55 23.6847 1520.31 23.301C1520.06 22.9174 1519.66 22.6345 1519.18 22.5147L1519.3 22.5944Z" fill="url(#paint1_linear_653_12445)"/>
<path d="M1540.59 656.947L1540.59 288.87C1510.33 262.825 1475.42 241.369 1437.26 225.367C1338.51 184.103 1223.52 179.108 1116.64 199.195C1009.77 219.282 910.203 263.176 818.545 315.732C690.953 388.933 572.893 481.132 427.167 519.712C355.838 538.63 279.847 543.944 211.675 570.514C166.568 588.077 124.018 619.005 102.216 657L1540.59 656.947Z" fill="url(#paint2_linear_653_12445)" fill-opacity="0.25"/>
<defs>
<linearGradient id="paint0_linear_653_12445" x1="-79.5945" y1="1896.3" x2="1037.9" y2="-327.076" gradientUnits="userSpaceOnUse">
<stop stop-color="#A0DBB8" stop-opacity="0.3"/>
<stop offset="1" stop-color="#92E3A9"/>
</linearGradient>
<linearGradient id="paint1_linear_653_12445" x1="438.566" y1="846.563" x2="986.546" y2="-243.69" gradientUnits="userSpaceOnUse">
<stop stop-color="#A0DBB8" stop-opacity="0.21"/>
<stop offset="1" stop-color="#92E3A9"/>
</linearGradient>
<linearGradient id="paint2_linear_653_12445" x1="264.33" y1="1522.05" x2="1051.1" y2="-43.2994" gradientUnits="userSpaceOnUse">
<stop stop-color="#A0DBB8" stop-opacity="0.2"/>
<stop offset="1" stop-color="#92E3A9"/>
</linearGradient>
</defs>
</svg>
