<svg width="58" height="58" viewBox="0 0 58 58" fill="none" xmlns="http://www.w3.org/2000/svg">
<path d="M29 58C45.0163 58 58 45.0163 58 29C58 12.9837 45.0163 0 29 0C12.9837 0 0 12.9837 0 29C0 45.0163 12.9837 58 29 58Z" fill="#4467AD"/>
<path d="M31.2424 25.0433C31.7193 24.5062 32.1103 23.9649 32.6001 23.5052C34.1038 22.0874 35.8824 21.3742 37.9618 21.3914C39.1047 21.4 40.2303 21.4816 41.3301 21.7996C43.8478 22.5256 45.3085 24.2613 46.0088 26.7188C46.533 28.5619 46.6275 30.4566 46.6318 32.3556C46.6404 36.3597 46.6189 40.3682 46.6318 44.3723C46.6318 44.7461 46.5287 44.8449 46.1592 44.8449C44.097 44.8277 42.0304 44.8277 39.9682 44.8449C39.603 44.8449 39.5257 44.7375 39.5257 44.3938C39.5386 40.583 39.5386 36.7722 39.5257 32.957C39.5257 32.0033 39.4613 31.0452 39.1949 30.1172C38.7008 28.4073 37.4764 27.5351 35.6848 27.6296C33.2359 27.7585 31.9642 28.9701 31.6549 31.4576C31.5818 32.0505 31.5432 32.6477 31.5475 33.2449C31.5475 36.9526 31.5475 40.6603 31.5561 44.368C31.5561 44.7375 31.4658 44.8449 31.0878 44.8449C29.0084 44.8277 26.929 44.8277 24.8496 44.8449C24.5144 44.8449 24.4199 44.759 24.4199 44.4196C24.4285 37.0815 24.4285 29.7391 24.4199 22.401C24.4199 22.0359 24.5402 21.9542 24.8839 21.9542C26.8559 21.9671 28.8322 21.9714 30.8042 21.9542C31.1694 21.9542 31.2596 22.0702 31.2553 22.4139C31.2338 23.2904 31.2467 24.1668 31.2467 25.0476L31.2424 25.0433Z" fill="#FEFEFE"/>
<path d="M19.9352 33.4297C19.9352 37.06 19.9309 40.6904 19.9438 44.3208C19.9438 44.7246 19.845 44.8449 19.4282 44.8406C17.366 44.8191 15.3038 44.8234 13.2372 44.8406C12.9064 44.8406 12.8076 44.759 12.8076 44.4196C12.8162 37.0686 12.8162 29.7177 12.8076 22.3624C12.8076 22.0574 12.8807 21.95 13.2029 21.95C15.2952 21.9628 17.3875 21.9671 19.4798 21.95C19.8836 21.95 19.9352 22.1003 19.9352 22.4483C19.9266 26.1088 19.9309 29.7692 19.9309 33.4297H19.9352Z" fill="#FEFEFE"/>
<path d="M20.5063 14.6677C20.5063 16.949 18.6589 18.805 16.3819 18.805C14.1349 18.805 12.2703 16.949 12.2617 14.702C12.2532 12.4336 14.1177 10.5647 16.3905 10.5647C18.646 10.5647 20.502 12.4164 20.5063 14.6634V14.6677Z" fill="#FEFEFE"/>
</svg>
