<svg width="353" height="338" viewBox="0 0 353 338" fill="none" xmlns="http://www.w3.org/2000/svg">
<g clip-path="url(#clip0_383_1978)">
<path d="M334.34 157.375C346.337 83.9792 282.319 10.0058 198.274 0.811248C197.227 0.694305 196.18 0.591981 195.133 0.489656C136.403 -5.08703 82.7237 37.8235 67.3726 70.5528C52.0214 103.282 11.8517 134.418 26.7444 195.074C41.6294 255.738 82.0819 288.058 176.917 297.626C271.751 307.193 289.25 281.246 314.427 224.573C323.154 204.934 330.405 181.487 334.348 157.382L334.34 157.375Z" fill="#92E3A9"/>
<path opacity="0.7" d="M334.34 157.375C346.337 83.9792 282.319 10.0058 198.274 0.811248C197.227 0.694305 196.18 0.591981 195.133 0.489656C136.403 -5.08703 82.7237 37.8235 67.3726 70.5528C52.0214 103.282 11.8517 134.418 26.7444 195.074C41.6294 255.738 82.0819 288.058 176.917 297.626C271.751 307.193 289.25 281.246 314.427 224.573C323.154 204.934 330.405 181.487 334.348 157.382L334.34 157.375Z" fill="white"/>
<path opacity="0.15" d="M182.647 337.993C264.382 337.993 330.641 329.089 330.641 318.105C330.641 307.122 264.382 298.218 182.647 298.218C100.912 298.218 34.6523 307.122 34.6523 318.105C34.6523 329.089 100.912 337.993 182.647 337.993Z" fill="black"/>
<path d="M343.685 272.921C341.943 272.139 339.177 269.004 339.177 268.997C339.146 268.967 341.913 267.9 342.096 267.849C344.205 267.286 348.637 267.389 349.989 269.333C350.967 270.736 350.287 272.527 348.79 273.272C347.254 274.032 345.175 273.579 343.693 272.921H343.685Z" fill="#92E3A9"/>
<path d="M333.316 279.653C331.91 278.513 330.214 275.07 330.084 274.793C328.067 275.706 325.912 276.481 323.688 277.153C322.42 277.541 321.128 277.892 319.829 278.228C320.448 278.155 320.999 278.096 321.075 278.096C323.268 278.089 327.509 279.288 328.281 281.502C328.831 283.095 327.685 284.652 326.026 285.003C324.338 285.354 322.45 284.396 321.205 283.381C319.944 282.357 318.431 279.441 318.041 278.666C317.545 278.791 317.04 278.922 316.544 279.039C314.144 279.631 311.745 280.208 309.407 280.837C308.582 281.064 307.779 281.312 306.977 281.553C307.527 281.495 307.986 281.444 308.062 281.444C310.255 281.436 314.496 282.635 315.268 284.85C315.818 286.443 314.672 288 313.013 288.351C311.317 288.701 309.437 287.744 308.192 286.728C306.985 285.749 305.571 283.074 305.105 282.153C304.287 282.43 303.477 282.701 302.698 283.008C302.171 283.227 301.651 283.402 301.139 283.644C300.627 283.878 300.115 284.111 299.611 284.338C298.656 284.813 297.67 285.295 296.745 285.785C296.104 286.121 295.5 286.45 294.889 286.779C295.706 286.545 297.311 286.129 297.456 286.107C299.618 285.785 304.005 286.363 305.12 288.438C305.922 289.937 305.028 291.64 303.447 292.217C301.827 292.809 299.817 292.129 298.426 291.311C296.891 290.404 294.743 287.379 294.476 286.998C293.467 287.547 292.489 288.087 291.58 288.614C290.762 289.081 289.991 289.535 289.265 289.973L288.248 288.877C289.058 288.409 289.922 287.927 290.839 287.43C291.863 286.867 292.963 286.289 294.102 285.705C293.995 285.427 293.421 283.856 293.078 282.321C291.228 282.27 287.905 280.961 287.477 280.793C286.957 281.78 286.46 282.745 286.002 283.658C285.689 284.287 285.391 284.893 285.108 285.485L284.03 284.323C284.244 283.907 284.458 283.49 284.688 283.059C285.215 282.058 285.796 280.991 286.407 279.909C286.032 279.638 282.961 277.416 282.097 275.911C281.318 274.544 280.722 272.6 281.44 271.102C282.143 269.64 283.992 268.894 285.52 269.742C287.645 270.919 287.996 275.107 287.522 277.139C287.492 277.256 287.041 278.527 286.743 279.324C286.995 278.886 287.232 278.447 287.5 278.001C288.019 277.102 288.562 276.225 289.142 275.275C289.44 274.822 289.738 274.369 290.044 273.915C290.334 273.455 290.701 273.002 291.037 272.541C291.832 271.482 292.688 270.451 293.574 269.428C292.749 268.997 289.83 267.418 288.837 266.175C287.843 264.933 286.949 263.098 287.415 261.512C287.874 259.963 289.586 258.962 291.228 259.583C293.513 260.438 294.529 264.531 294.392 266.607C294.384 266.738 294.109 268.215 293.941 269.026C294.476 268.412 295.011 267.805 295.576 267.199C297.211 265.459 298.915 263.756 300.612 262.039C301.131 261.512 301.643 260.986 302.155 260.46C301.857 260.306 298.35 258.508 297.234 257.112C296.241 255.87 295.347 254.035 295.813 252.449C296.272 250.9 297.976 249.898 299.626 250.52C301.911 251.375 302.927 255.468 302.79 257.544C302.782 257.697 302.377 259.831 302.247 260.365C303.378 259.203 304.494 258.041 305.548 256.842C307 255.197 308.329 253.509 309.491 251.784C309.353 251.711 305.678 249.847 304.539 248.422C303.546 247.18 302.652 245.345 303.118 243.759C303.577 242.21 305.281 241.208 306.931 241.829C309.216 242.685 310.232 246.778 310.095 248.853C310.087 249.014 309.651 251.302 309.544 251.718C309.613 251.616 309.697 251.514 309.766 251.411C310.981 249.555 311.913 247.603 312.685 245.747C313.136 244.665 313.51 243.606 313.846 242.568C313.128 242.29 309.842 240.967 308.666 239.79C307.535 238.665 306.434 236.925 306.717 235.303C306.992 233.717 308.574 232.54 310.286 232.986C312.654 233.6 314.137 237.561 314.244 239.637C314.244 239.746 314.175 240.901 314.099 241.742C314.244 241.274 314.404 240.792 314.526 240.338C315.015 238.635 315.352 237.057 315.634 235.646C315.787 234.842 315.917 234.119 316.024 233.439C315.466 232.81 313.258 230.267 312.792 228.732C312.341 227.241 312.196 225.216 313.235 223.901C314.251 222.614 316.223 222.264 317.529 223.404C319.333 224.982 318.729 229.149 317.812 231.034C317.736 231.195 316.185 233.614 316.154 233.578C316.154 233.578 316.123 233.548 316.123 233.541C316.032 234.199 315.932 234.901 315.795 235.668C315.543 237.086 315.245 238.679 314.794 240.397C314.351 242.114 313.816 243.964 313.067 245.871C312.318 247.779 311.432 249.752 310.24 251.667C310.224 251.689 310.209 251.711 310.194 251.733C310.729 251.273 312.265 250.045 312.387 249.957C314.205 248.802 318.446 247.582 320.372 249.029C321.763 250.074 321.709 251.974 320.525 253.129C319.317 254.306 317.193 254.496 315.566 254.298C313.732 254.079 310.316 252.091 310.049 251.938C308.895 253.758 307.558 255.534 306.098 257.259C305.265 258.245 304.394 259.217 303.508 260.182C303.982 259.802 304.409 259.459 304.471 259.422C306.289 258.267 310.53 257.047 312.456 258.494C313.846 259.539 313.793 261.439 312.608 262.594C311.401 263.771 309.277 263.961 307.649 263.763C305.999 263.566 303.049 261.929 302.278 261.483C301.934 261.849 301.59 262.221 301.246 262.579C299.588 264.326 297.922 266.066 296.348 267.82C295.79 268.434 295.271 269.062 294.743 269.691C295.164 269.355 295.523 269.07 295.584 269.033C297.403 267.878 301.643 266.658 303.569 268.105C304.96 269.15 304.906 271.05 303.722 272.205C302.514 273.382 300.39 273.572 298.763 273.375C297.189 273.192 294.453 271.701 293.528 271.175C293.009 271.832 292.489 272.49 292.015 273.148C291.702 273.601 291.374 274.025 291.083 274.5C290.793 274.968 290.503 275.421 290.212 275.882C289.693 276.781 289.15 277.702 288.669 278.586C288.325 279.2 288.012 279.792 287.698 280.384C288.241 279.763 289.341 278.571 289.44 278.476C290.51 277.541 292.634 276.437 294.568 276.13C294.728 275.991 294.896 275.867 295.08 275.757C296.516 274.902 298.488 275.253 299.275 276.759C300.36 278.849 298.22 282.525 296.646 283.973C296.554 284.06 295.439 284.879 294.72 285.383C295.187 285.149 295.637 284.908 296.119 284.674C297.074 284.199 298.037 283.746 299.076 283.256C299.588 283.037 300.1 282.818 300.619 282.591C301.131 282.357 301.697 282.175 302.247 281.963C303.523 281.495 304.837 281.086 306.175 280.698C305.731 279.901 304.218 277.066 304.111 275.509C304.004 273.959 304.325 271.957 305.632 270.882C306.916 269.83 308.925 269.888 309.942 271.27C311.348 273.177 309.819 277.124 308.498 278.783C308.413 278.886 307.321 279.975 306.709 280.559C307.512 280.333 308.314 280.099 309.139 279.894C311.508 279.302 313.93 278.776 316.345 278.235C317.086 278.067 317.82 277.899 318.553 277.731C318.393 277.453 316.513 274.113 316.391 272.366C316.284 270.817 316.605 268.814 317.919 267.739C319.203 266.687 321.212 266.745 322.221 268.127C323.627 270.034 322.099 273.981 320.777 275.633C320.678 275.757 319.103 277.321 318.683 277.702C320.303 277.329 321.915 276.941 323.482 276.496C325.652 275.889 327.746 275.173 329.717 274.347C329.641 274.215 327.662 270.736 327.539 268.953C327.432 267.403 327.753 265.401 329.068 264.326C330.351 263.274 332.361 263.332 333.37 264.714C334.776 266.621 333.247 270.568 331.925 272.22C331.818 272.351 330.13 274.032 329.801 274.318C329.916 274.266 330.046 274.23 330.16 274.179C332.254 273.265 334.164 272.132 335.899 270.985C336.907 270.32 337.832 269.632 338.711 268.945C338.275 268.332 336.296 265.518 335.998 263.917C335.715 262.382 335.799 260.357 336.976 259.159C338.13 257.982 340.132 257.829 341.301 259.093C342.921 260.847 341.859 264.926 340.736 266.709C340.675 266.804 339.941 267.725 339.391 268.39C339.781 268.076 340.193 267.754 340.568 267.447C341.958 266.285 343.166 265.138 344.22 264.114C344.816 263.53 345.343 262.989 345.825 262.477C345.725 261.666 345.359 258.384 345.863 256.864C346.352 255.38 347.414 253.626 349.042 253.071C350.639 252.53 352.488 253.275 352.916 254.905C353.504 257.171 350.578 260.321 348.713 261.41C348.553 261.505 345.855 262.704 345.848 262.66C345.848 262.66 345.848 262.623 345.848 262.609C345.389 263.113 344.893 263.639 344.335 264.209C343.303 265.254 342.126 266.431 340.751 267.623C339.383 268.821 337.855 270.086 336.128 271.277C334.394 272.476 332.506 273.652 330.397 274.624C330.374 274.639 330.344 274.646 330.321 274.654C331.031 274.551 333.033 274.325 333.186 274.325C335.379 274.317 339.62 275.516 340.392 277.731C340.942 279.324 339.796 280.881 338.138 281.232C336.441 281.583 334.562 280.625 333.316 279.609V279.653Z" fill="#92E3A9"/>
<path d="M314.244 242.348C314.198 242.334 315.879 240.002 316.009 239.863C317.446 238.292 321.19 236.055 323.452 236.969C325.079 237.627 325.561 239.476 324.743 240.887C323.91 242.326 321.908 243.035 320.288 243.262C318.386 243.525 314.252 242.348 314.252 242.348H314.244Z" fill="#92E3A9"/>
<path d="M9.31481 272.921C11.057 272.139 13.8231 269.004 13.8231 268.997C13.8537 268.967 11.0876 267.9 10.9042 267.849C8.79521 267.286 4.36332 267.389 3.01083 269.333C2.03276 270.736 2.71282 272.527 4.21049 273.272C5.74637 274.032 7.82478 273.579 9.30717 272.921H9.31481Z" fill="#92E3A9"/>
<path d="M19.6835 279.653C21.0894 278.513 22.7858 275.07 22.9157 274.793C24.933 275.706 27.0878 276.481 29.3114 277.153C30.5798 277.541 31.8712 277.892 33.1702 278.228C32.5512 278.155 32.001 278.096 31.9246 278.096C29.7316 278.089 25.4831 279.288 24.719 281.502C24.1688 283.095 25.315 284.652 26.9731 285.003C28.6618 285.354 30.5492 284.396 31.7947 283.381C33.0555 282.357 34.5685 279.441 34.9582 278.666C35.4549 278.791 35.9592 278.922 36.4559 279.039C38.8552 279.631 41.2545 280.208 43.5927 280.837C44.418 281.064 45.2203 281.312 46.0226 281.553C45.4725 281.495 45.014 281.444 44.9376 281.444C42.7446 281.436 38.5037 282.635 37.7319 284.85C37.1818 286.443 38.328 288 39.9861 288.351C41.6824 288.701 43.5622 287.744 44.8077 286.728C46.015 285.749 47.4286 283.074 47.8947 282.153C48.7123 282.43 49.5223 282.701 50.3017 283.008C50.8289 283.227 51.3485 283.402 51.8605 283.644C52.3725 283.878 52.8844 284.111 53.3887 284.338C54.3439 284.813 55.3296 285.295 56.2542 285.785C56.896 286.121 57.4997 286.45 58.111 286.779C57.2934 286.545 55.6887 286.129 55.5436 286.107C53.3811 285.785 48.9951 286.363 47.8794 288.438C47.0771 289.937 47.9711 291.64 49.5529 292.217C51.1728 292.809 53.1824 292.129 54.5731 291.311C56.109 290.404 58.2562 287.379 58.5236 286.998C59.5323 287.547 60.5103 288.087 61.4196 288.614C62.2372 289.081 63.009 289.535 63.7349 289.973L64.7512 288.877C63.9412 288.409 63.0778 287.927 62.1608 287.43C61.1369 286.867 60.0366 286.289 58.898 285.705C59.005 285.427 59.5781 283.856 59.922 282.321C61.7711 282.27 65.095 280.961 65.5229 280.793C66.0425 281.78 66.5392 282.745 66.9977 283.658C67.311 284.287 67.609 284.893 67.8917 285.485L68.9691 284.323C68.7552 283.907 68.5412 283.49 68.312 283.059C67.7847 282.058 67.204 280.991 66.5927 279.909C66.9671 279.638 70.0389 277.416 70.9024 275.911C71.6817 274.544 72.2778 272.6 71.5595 271.102C70.8565 269.64 69.0073 268.894 67.4791 269.742C65.3548 270.919 65.0033 275.107 65.4771 277.139C65.5077 277.256 65.9585 278.527 66.2565 279.324C66.0043 278.886 65.7675 278.447 65.5 278.001C64.9804 277.102 64.4379 276.225 63.8572 275.275C63.5592 274.822 63.2612 274.369 62.9555 273.915C62.6651 273.455 62.2984 273.002 61.9622 272.541C61.1675 271.482 60.3117 270.451 59.4253 269.428C60.2505 268.997 63.1695 267.418 64.1628 266.175C65.1562 264.933 66.0502 263.098 65.5841 261.512C65.1256 259.963 63.4216 258.962 61.7711 259.583C59.4864 260.438 58.4701 264.531 58.6077 266.607C58.6153 266.738 58.8904 268.215 59.0585 269.026C58.5236 268.412 57.9887 267.805 57.4233 267.199C55.7881 265.459 54.0841 263.756 52.3877 262.039C51.8681 261.512 51.3562 260.986 50.8442 260.46C51.1422 260.306 54.6495 258.508 55.7652 257.112C56.7585 255.87 57.6525 254.035 57.1864 252.449C56.7279 250.9 55.024 249.898 53.3735 250.52C51.0887 251.375 50.0725 255.468 50.21 257.544C50.2176 257.697 50.6226 259.831 50.7525 260.365C49.6216 259.203 48.506 258.041 47.4515 256.842C45.9997 255.197 44.6701 253.509 43.5087 251.784C43.6462 251.711 47.3216 249.847 48.4602 248.422C49.4535 247.18 50.3475 245.345 49.8814 243.759C49.423 242.21 47.719 241.208 46.0685 241.829C43.7838 242.685 42.7675 246.778 42.905 248.853C42.9127 249.014 43.3482 251.302 43.4552 251.718C43.3864 251.616 43.3024 251.514 43.2336 251.411C42.0187 249.555 41.0864 247.603 40.3147 245.747C39.8638 244.665 39.4894 243.606 39.1532 242.568C39.8715 242.29 43.1572 240.967 44.3339 239.79C45.4648 238.665 46.5652 236.925 46.2824 235.303C46.0074 233.717 44.4256 232.54 42.7216 232.986C40.3529 233.6 38.8705 237.561 38.7635 239.637C38.7635 239.746 38.8323 240.901 38.9087 241.742C38.7635 241.274 38.603 240.792 38.4808 240.338C37.9917 238.635 37.6555 237.057 37.3728 235.646C37.22 234.842 37.0901 234.119 36.9831 233.439C37.5409 232.81 39.7492 230.267 40.2153 228.732C40.6662 227.241 40.8113 225.216 39.7721 223.901C38.7559 222.614 36.7844 222.264 35.4778 223.404C33.6745 224.982 34.2781 229.149 35.1951 231.034C35.2715 231.195 36.8226 233.614 36.8532 233.578C36.8532 233.578 36.8838 233.548 36.8838 233.541C36.9755 234.199 37.0748 234.901 37.2123 235.668C37.4645 237.086 37.7625 238.679 38.2133 240.397C38.6565 242.114 39.1914 243.964 39.9402 245.871C40.6891 247.779 41.5755 249.752 42.7675 251.667C42.7828 251.689 42.798 251.711 42.8133 251.733C42.2785 251.273 40.7426 250.045 40.6203 249.957C38.8017 248.802 34.5608 247.582 32.6353 249.029C31.2446 250.074 31.2981 251.974 32.4824 253.129C33.6898 254.306 35.814 254.496 37.4416 254.298C39.2755 254.079 42.6911 252.091 42.9585 251.938C44.1123 253.758 45.4495 255.534 46.909 257.259C47.7419 258.245 48.613 259.217 49.4994 260.182C49.0256 259.802 48.5977 259.459 48.5366 259.422C46.718 258.267 42.4771 257.047 40.5515 258.494C39.1608 259.539 39.2143 261.439 40.3987 262.594C41.606 263.771 43.7303 263.961 45.3578 263.763C47.0083 263.566 49.9578 261.929 50.7296 261.483C51.0735 261.849 51.4173 262.221 51.7612 262.579C53.4193 264.326 55.0851 266.066 56.6592 267.82C57.217 268.434 57.7366 269.062 58.2638 269.691C57.8436 269.355 57.4844 269.07 57.4233 269.033C55.6047 267.878 51.3638 266.658 49.4382 268.105C48.0475 269.15 48.101 271.05 49.2854 272.205C50.4927 273.382 52.617 273.572 54.2446 273.375C55.8186 273.192 58.5542 271.701 59.4788 271.175C59.9984 271.832 60.518 272.49 60.9917 273.148C61.305 273.601 61.6336 274.025 61.924 274.5C62.2143 274.968 62.5047 275.421 62.795 275.882C63.3146 276.781 63.8572 277.702 64.3386 278.586C64.6824 279.2 64.9957 279.792 65.309 280.384C64.7665 279.763 63.6661 278.571 63.5668 278.476C62.497 277.541 60.3728 276.437 58.4396 276.13C58.2791 275.991 58.111 275.867 57.9276 275.757C56.4911 274.902 54.5196 275.253 53.7326 276.759C52.6475 278.849 54.7871 282.525 56.3612 283.973C56.4529 284.06 57.5685 284.879 58.2867 285.383C57.8206 285.149 57.3698 284.908 56.8884 284.674C55.9333 284.199 54.9705 283.746 53.9313 283.256C53.4193 283.037 52.9073 282.818 52.3877 282.591C51.8758 282.357 51.3103 282.175 50.7602 281.963C49.4841 281.495 48.1698 281.086 46.8326 280.698C47.2758 279.901 48.7887 277.066 48.8957 275.509C49.0027 273.959 48.6818 271.957 47.3751 270.882C46.0914 269.83 44.0818 269.888 43.0655 271.27C41.6595 273.177 43.1878 277.124 44.5097 278.783C44.5937 278.886 45.6864 279.975 46.2977 280.559C45.4954 280.333 44.6931 280.099 43.8678 279.894C41.4991 279.302 39.0768 278.776 36.6622 278.235C35.921 278.067 35.1874 277.899 34.4539 277.731C34.6143 277.453 36.4941 274.113 36.6163 272.366C36.7233 270.817 36.4024 268.814 35.0881 267.739C33.8044 266.687 31.7947 266.745 30.7861 268.127C29.3801 270.034 30.9084 273.981 32.2303 275.633C32.3296 275.757 33.9037 277.321 34.324 277.702C32.704 277.329 31.0917 276.941 29.5253 276.496C27.3552 275.889 25.2615 275.173 23.2901 274.347C23.3665 274.215 25.3456 270.736 25.4678 268.953C25.5748 267.403 25.2539 265.401 23.9396 264.326C22.6559 263.274 20.6462 263.332 19.6376 264.714C18.2316 266.621 19.7599 270.568 21.0818 272.22C21.1888 272.351 22.8775 274.032 23.206 274.318C23.0914 274.266 22.9615 274.23 22.8469 274.179C20.7532 273.265 18.8429 272.132 17.1084 270.985C16.0997 270.32 15.1752 269.632 14.2964 268.945C14.732 268.332 16.711 265.518 17.009 263.917C17.2918 262.382 17.2077 260.357 16.031 259.159C14.8771 257.982 12.8752 257.829 11.7061 259.093C10.0861 260.847 11.1482 264.926 12.2715 266.709C12.3326 266.804 13.0662 267.725 13.6163 268.39C13.2266 268.076 12.814 267.754 12.4396 267.447C11.0489 266.285 9.8416 265.138 8.78712 264.114C8.1911 263.53 7.66386 262.989 7.18247 262.477C7.2818 261.666 7.64858 258.384 7.14426 256.864C6.65523 255.38 5.5931 253.626 3.96553 253.071C2.36852 252.53 0.519351 253.275 0.0914449 254.905C-0.496927 257.171 2.42965 260.321 4.2941 261.41C4.45456 261.505 7.1519 262.704 7.15954 262.66C7.15954 262.66 7.15954 262.623 7.15954 262.609C7.61802 263.113 8.11469 263.639 8.6725 264.209C9.70406 265.254 10.8808 266.431 12.2562 267.623C13.624 268.821 15.1522 270.086 16.8791 271.277C18.6137 272.476 20.5011 273.652 22.61 274.624C22.633 274.639 22.6635 274.646 22.6864 274.654C21.9758 274.551 19.9738 274.325 19.821 274.325C17.628 274.317 13.3871 275.516 12.6154 277.731C12.0652 279.324 13.2114 280.881 14.8695 281.232C16.5658 281.583 18.4456 280.625 19.6911 279.609L19.6835 279.653Z" fill="#92E3A9"/>
<path d="M38.7561 242.348C38.8019 242.334 37.1208 240.002 36.9909 239.863C35.5544 238.292 31.8102 236.055 29.5484 236.969C27.9209 237.627 27.4395 239.476 28.2571 240.887C29.09 242.326 31.092 243.035 32.7119 243.262C34.6145 243.525 38.7484 242.348 38.7484 242.348H38.7561Z" fill="#92E3A9"/>
<g opacity="0.2">
<path d="M165.821 21.6563L182.747 159.933L195.568 21.0862" fill="white"/>
<path d="M165.821 21.6563L182.747 159.933L195.568 21.0862" stroke="black" stroke-linecap="round" stroke-linejoin="round"/>
<path d="M100.581 45.0227L182.747 159.933L126.645 31.2893" fill="white"/>
<path d="M100.581 45.0227L182.747 159.933L126.645 31.2893" stroke="black" stroke-linecap="round" stroke-linejoin="round"/>
<path d="M54.1611 94.7088L182.747 159.933L70.5668 70.9695" fill="white"/>
<path d="M54.1611 94.7088L182.747 159.933L70.5668 70.9695" stroke="black" stroke-linecap="round" stroke-linejoin="round"/>
<path d="M37.1973 159.341L182.747 159.933L40.1926 131.027" fill="white"/>
<path d="M37.1973 159.341L182.747 159.933L40.1926 131.027" stroke="black" stroke-linecap="round" stroke-linejoin="round"/>
<path d="M53.5802 224.105L182.747 159.933L42.4775 197.706" fill="white"/>
<path d="M53.5802 224.105L182.747 159.933L42.4775 197.706" stroke="black" stroke-linecap="round" stroke-linejoin="round"/>
<path d="M99.5573 274.171L182.747 159.933L76.8936 255.731" fill="white"/>
<path d="M99.5573 274.171L182.747 159.933L76.8936 255.731" stroke="black" stroke-linecap="round" stroke-linejoin="round"/>
<path d="M164.591 298.064L182.747 159.933L135.562 291.808" fill="white"/>
<path d="M164.591 298.064L182.747 159.933L135.562 291.808" stroke="black" stroke-linecap="round" stroke-linejoin="round"/>
<path d="M233.783 290.317L182.747 159.933L205.044 297.677" fill="white"/>
<path d="M233.783 290.317L182.747 159.933L205.044 297.677" stroke="black" stroke-linecap="round" stroke-linejoin="round"/>
<path d="M291.283 252.698L182.747 159.933L269.413 271.993" fill="white"/>
<path d="M291.283 252.698L182.747 159.933L269.413 271.993" stroke="black" stroke-linecap="round" stroke-linejoin="round"/>
<path d="M323.926 193.825L182.747 159.933L313.931 220.634" fill="white"/>
<path d="M323.926 193.825L182.747 159.933L313.931 220.634" stroke="black" stroke-linecap="round" stroke-linejoin="round"/>
<path d="M324.216 127.189L182.747 159.933L328.396 155.365" fill="white"/>
<path d="M324.216 127.189L182.747 159.933L328.396 155.365" stroke="black" stroke-linecap="round" stroke-linejoin="round"/>
<path d="M292.108 68.0532L182.747 159.933L309.491 91.1493" fill="white"/>
<path d="M292.108 68.0532L182.747 159.933L309.491 91.1493" stroke="black" stroke-linecap="round" stroke-linejoin="round"/>
<path d="M234.944 29.9666L182.747 159.933L261.558 42.6913" fill="white"/>
<path d="M234.944 29.9666L182.747 159.933L261.558 42.6913" stroke="black" stroke-linecap="round" stroke-linejoin="round"/>
</g>
<path d="M316.78 68.4919C316.78 68.4919 308.719 56.5857 304.333 63.0248C299.947 69.4567 318.079 82.0499 318.079 82.0499C318.079 82.0499 329.488 72.8187 330.076 64.7059C330.664 56.593 319.118 60.9418 316.78 68.4919Z" stroke="#263238" stroke-linecap="round" stroke-linejoin="round"/>
<path d="M50.1644 62.7909C50.1644 62.7909 40.6358 48.7213 35.4475 56.3225C30.2591 63.9311 51.7003 78.812 51.7003 78.812C51.7003 78.812 65.187 67.8998 65.8823 58.3032C66.5777 48.714 52.9305 53.8521 50.1644 62.7836V62.7909Z" stroke="#263238" stroke-linecap="round" stroke-linejoin="round"/>
<path d="M213.945 42.8741C213.945 42.8741 207.664 33.5991 204.248 38.613C200.825 43.6269 214.961 53.4428 214.961 53.4428C214.961 53.4428 223.856 46.2435 224.307 39.9213C224.765 33.5991 215.771 36.9904 213.945 42.8741Z" stroke="#263238" stroke-linecap="round" stroke-linejoin="round"/>
<path d="M141.049 233.388C141.049 233.388 134.768 224.113 131.352 229.127C127.936 234.141 142.065 243.956 142.065 243.956C142.065 243.956 150.959 236.757 151.41 230.435C151.869 224.113 142.875 227.504 141.049 233.388Z" stroke="#263238" stroke-linecap="round" stroke-linejoin="round"/>
<path d="M214.526 128.176L214.664 138.928C214.664 138.928 216.582 146.924 216.444 153.874C216.307 160.825 216.582 178.264 216.582 178.264C216.582 178.264 216.169 184.689 215.756 186.655C215.344 188.621 215.069 189.673 213.838 191.508C212.608 193.342 211.233 194.658 209.727 195.177C208.222 195.696 206.709 195.966 206.984 195.045C207.259 194.124 207.809 194.124 208.627 193.474C209.452 192.816 211.095 189.805 211.095 188.752C211.095 187.7 210.27 185.346 210.27 185.346C210.27 185.346 209.857 188.102 209.307 189.542C208.757 190.982 207.252 191.113 207.389 189.542C207.527 187.97 207.664 187.181 207.527 185.873C207.389 184.564 207.252 181.151 207.939 179.974C208.627 178.798 210.27 175.911 210.407 175.121C210.545 174.332 206.021 158.472 205.059 154.408C204.096 150.344 203.141 141.69 202.591 138.803C202.04 135.916 201.49 126.744 201.49 126.744L214.511 128.184L214.526 128.176Z" fill="#878787" stroke="#263238" stroke-linecap="round" stroke-linejoin="round"/>
<path d="M186.651 291.04C186.651 291.04 186.758 293.525 187.202 294.79C187.645 296.054 189.41 298.174 189.41 300.286C189.41 302.398 188.523 305.782 189.853 308.53C191.175 311.279 196.921 313.815 199.351 312.967C201.781 312.119 204.876 311.907 203.989 307.047C203.103 302.186 200.451 297.538 199.794 294.79C199.129 292.042 198.686 289.081 198.686 289.081C198.686 289.081 189.196 285.178 186.651 291.04Z" fill="white" stroke="#263238" stroke-linecap="round" stroke-linejoin="round"/>
<path d="M175.869 285.756C175.869 285.756 175.762 288.241 175.319 289.505C174.876 290.77 173.111 292.89 173.111 295.002C173.111 297.114 173.997 300.498 172.667 303.246C171.345 305.994 165.599 308.531 163.169 307.683C160.739 306.835 157.645 306.623 158.531 301.763C159.417 296.902 162.069 292.254 162.726 289.505C163.391 286.757 163.834 283.797 163.834 283.797C163.834 283.797 173.324 279.894 175.869 285.756Z" fill="white" stroke="#263238" stroke-linecap="round" stroke-linejoin="round"/>
<path d="M205.724 166.27L156.644 165.159L154.765 168.821L155.727 206.323L159.372 244.278L161.153 266.168C160.794 268.39 160.297 271.474 160.037 273.229C159.594 276.189 160.923 282.314 161.359 283.585C161.802 284.85 162.903 287.81 162.903 287.81C162.903 287.81 167.823 290.711 172.844 288.87C177.864 287.02 176.603 280.625 176.603 280.625C176.603 280.625 177.321 251.989 177.711 248.291C178.101 244.592 180.37 200.337 180.37 200.337L183.182 194.146C183.182 194.146 184.122 240.836 184.122 241.946C184.122 242.436 185.444 250.608 186.109 258.852C186.376 262.141 184.374 277.387 184.565 280.618C185.085 289.513 186.399 291.574 186.552 292.027C186.942 293.138 187.882 295.776 192.52 295.411C197.158 295.038 199.809 294.775 199.809 294.775C199.809 294.775 204.578 246.843 205.357 239.447C206.129 232.05 207.558 185.851 207.558 185.851L205.747 166.256L205.724 166.27Z" fill="#263238" stroke="#263238" stroke-linecap="round" stroke-linejoin="round"/>
<path d="M168.854 88.5837C168.854 88.5837 155.857 95.4906 152.571 100.015C149.285 104.539 151.127 116.211 152.044 122.745C152.961 129.272 154.932 148.743 154.932 148.743L152.9 178.98C152.9 178.98 172.721 187.897 175.747 188.145C178.765 188.394 180.996 188.65 180.996 188.65L183.831 184.118L186.505 188.394C186.505 188.394 191.098 188.145 194.911 186.26C198.716 184.374 204.89 179.733 205.28 179.353C205.677 178.973 206.854 177.343 206.854 177.343C206.854 177.343 203.247 142.962 203.247 141.953C203.247 140.945 203.66 133.197 203.66 133.197L203.645 129.901C203.645 129.901 204.692 131.034 207.977 130.778C211.263 130.529 214.938 129.272 214.938 129.272C214.938 129.272 215.855 119.354 215.855 112.316C215.855 105.277 212.837 101.016 211.263 99.2547C209.689 97.4932 201.941 93.2248 197.868 91.9677C193.795 90.7106 185.268 88.3279 184.87 88.3279C184.473 88.3279 179.751 85.5651 168.854 88.5764V88.5837Z" fill="#92E3A9" stroke="#263238" stroke-linecap="round" stroke-linejoin="round"/>
<path d="M204.271 124.69C204.271 124.69 207.977 120.948 211.263 114.26" stroke="#263238" stroke-linecap="round" stroke-linejoin="round"/>
<path d="M214.152 113.281C214.152 113.281 211.89 117.213 209.422 120.758" stroke="#263238" stroke-linecap="round" stroke-linejoin="round"/>
<path d="M180.882 107.85L183.052 176.875" stroke="#263238" stroke-linecap="round" stroke-linejoin="round"/>
<path d="M169.488 86.4715C169.488 86.4715 166.577 89.8409 166.203 90.908C165.828 91.9751 165.087 101.769 165.087 103.37C165.087 104.97 166.394 105.328 167.326 104.619C168.258 103.903 171.544 100.731 171.544 100.731L178.619 106.257C178.619 106.257 180.323 108.391 180.881 107.857C181.439 107.324 185.879 103.406 186.627 102.332C187.376 101.265 189.05 99.8395 189.05 99.8395C189.05 99.8395 192.404 104.649 193.703 105.365C195.01 106.081 195.377 105.19 195.193 104.298C195.01 103.406 193.413 91.6243 191.694 89.4097C189.974 87.1951 190.54 87.7286 187.369 86.1207C184.205 84.52 174.7 80.7779 169.488 86.4788V86.4715Z" fill="white" stroke="#263238" stroke-linecap="round" stroke-linejoin="round"/>
<path d="M203.453 129.031C203.453 129.031 206.67 130.318 209.467 129.623C212.264 128.929 214.342 128.037 214.854 127.54C215.374 127.043 215.893 126.648 215.993 128.132C216.1 129.616 215.886 132.101 215.993 132.89C216.1 133.687 217.032 135.171 214.228 136.559C211.423 137.948 207.801 138.248 206.143 137.751C204.485 137.254 203.347 136.662 203.347 136.362C203.347 136.062 202.728 129.916 203.453 129.024V129.031Z" fill="white" stroke="#263238" stroke-linecap="round" stroke-linejoin="round"/>
<path d="M205.188 115.678C205.188 115.678 205.394 117.381 204.561 121.686C203.721 125.991 203.645 129.894 203.645 129.894" stroke="#263238" stroke-linecap="round" stroke-linejoin="round"/>
<path d="M170.558 93.0422C170.558 93.0422 173.844 100.643 175.808 103.406C177.772 106.169 181.325 107.17 183.556 104.912C185.787 102.653 188.148 97.3764 188.416 95.4907C188.676 93.605 188.943 92.0994 188.943 92.0994C188.943 92.0994 189.203 95.1106 183.426 95.4907C177.649 95.8708 170.956 90.9665 170.558 90.4695C170.161 89.9652 168.984 89.9652 170.558 93.0422Z" fill="#878787" stroke="#263238" stroke-linecap="round" stroke-linejoin="round"/>
<path d="M165.577 75.7128C165.577 75.7128 163.873 73.9514 162.948 77.0942C162.031 80.2371 163.865 82.1154 164.79 83.1241C165.707 84.1254 166.234 84.5055 166.234 84.5055C166.234 84.5055 169.122 91.5366 170.566 93.0423C172.011 94.5479 175.816 99.1963 178.972 99.5691C182.12 99.9492 184.878 99.0648 186.193 97.4349C187.507 95.805 191.312 91.5293 191.71 89.3951C192.107 87.2609 193.414 83.7453 193.414 83.7453C193.414 83.7453 196.562 78.9726 195.645 76.4584C194.728 73.9441 194.071 75.077 194.071 75.077C194.071 75.077 194.468 63.2731 193.543 59.3775C192.626 55.4818 183.961 51.4692 177.657 51.842C171.353 52.2221 165.447 56.9875 164.4 59.5017C163.353 62.016 162.956 65.4073 163.353 67.2857C163.75 69.1714 165.584 75.6982 165.584 75.6982L165.577 75.7128Z" fill="#878787" stroke="#263238" stroke-linecap="round" stroke-linejoin="round"/>
<path d="M164.492 75.2232L165.577 75.7129C165.577 75.7129 165.088 75.2086 164.492 75.2232Z" stroke="#263238" stroke-linecap="round" stroke-linejoin="round"/>
<path d="M193.536 59.3848C192.619 55.4891 183.954 51.4766 177.65 51.8493C171.346 52.2294 165.439 56.9948 164.393 59.509C163.346 62.0233 162.948 65.4146 163.346 67.293C163.743 69.1787 165.577 75.7056 165.577 75.7056C165.577 75.7056 165.837 78.3441 166.761 77.964C167.678 77.5839 167.418 76.5826 167.159 75.2012C166.899 73.8199 166.761 73.1913 166.899 72.5627C167.036 71.9342 167.159 69.0471 168.74 67.2857C170.314 65.5243 170.444 65.5243 172.156 66.1528C173.86 66.7814 177.535 68.5355 181.348 67.6585C185.154 66.7814 187.912 64.7714 189.096 65.2758C190.281 65.7801 190.281 69.1714 190.8 71.4299C191.328 73.6883 192.902 74.9454 192.902 74.9454C192.902 74.9454 192.642 79.7181 193.299 78.7095C193.956 77.7082 194.086 75.0697 194.086 75.0697C194.086 75.0697 194.484 63.2658 193.559 59.3702L193.536 59.3848Z" fill="#263238" stroke="#263238" stroke-linecap="round" stroke-linejoin="round"/>
<path d="M176.602 87.3266C176.602 87.3266 176.075 88.9565 176.602 89.3366C177.13 89.7167 179.361 90.5937 180.675 90.3379C181.99 90.0821 183.166 89.205 183.434 88.8323C183.694 88.4522 183.304 87.2024 183.304 87.2024" stroke="#263238" stroke-linecap="round" stroke-linejoin="round"/>
<path d="M175.159 92.0995C175.159 92.0995 178.048 93.2323 180.409 92.9765C182.77 92.728 184.741 91.2151 184.741 91.2151" stroke="#263238" stroke-linecap="round" stroke-linejoin="round"/>
<path d="M185.528 83.0584C186.148 83.0584 186.651 82.3319 186.651 81.4358C186.651 80.5397 186.148 79.8132 185.528 79.8132C184.907 79.8132 184.404 80.5397 184.404 81.4358C184.404 82.3319 184.907 83.0584 185.528 83.0584Z" fill="#263238"/>
<path d="M175.235 81.4358C175.235 82.3275 174.73 83.0584 174.112 83.0584C173.493 83.0584 172.988 82.3348 172.988 81.4358C172.988 80.5368 173.493 79.8132 174.112 79.8132C174.73 79.8132 175.235 80.5368 175.235 81.4358Z" fill="#263238"/>
<path d="M170.299 78.5342C170.299 78.5342 173.057 76.6485 175.678 78.7827" stroke="#263238" stroke-linecap="round" stroke-linejoin="round"/>
<path d="M182.77 78.9142C182.77 78.9142 185.918 76.1514 189.731 78.9142" stroke="#263238" stroke-linecap="round" stroke-linejoin="round"/>
<path d="M157.828 95.3665C157.828 95.3665 148.246 98.6335 146.015 103.406C143.784 108.179 142.867 112.075 144.311 115.714C145.755 119.354 153.106 133.292 155.208 135.931C157.309 138.569 160.067 141.208 162.031 143.591C163.995 145.973 165.707 149.116 165.707 149.116C165.707 149.116 166.623 152.507 167.678 154.137C168.725 155.767 169.909 156.9 170.169 157.777C170.429 158.654 170.566 162.674 171.873 163.427C173.187 164.18 173.577 163.427 173.577 162.55C173.577 161.673 173.05 156.644 173.05 156.644C173.05 156.644 175.235 160.35 175.808 161.541C177.184 164.392 178.169 164.933 178.826 164.428C179.484 163.924 179.086 162.418 178.697 160.664C178.307 158.91 177.382 157.653 177.382 156.644C177.382 155.636 177.252 154.262 177.252 154.262C177.252 154.262 180.271 162.871 180.928 163.427C181.486 163.902 181.677 164.18 182.769 163.675C183.22 163.471 182.899 161.994 182.639 161.293C182.143 159.97 180.821 155.087 180.821 155.087C180.821 155.087 184.214 160.54 184.733 161.037C185.26 161.541 186.307 161.665 186.575 160.533C186.834 159.4 185.658 158.15 185.13 157.017C184.603 155.884 183.029 152.369 183.029 152.369C183.029 152.369 183.671 154.547 186.445 154.883C187.224 154.978 188.806 154.883 189.203 154.13C189.601 153.377 188.806 152.5 188.416 152.369C188.019 152.244 185.176 152.215 184.298 150.848C183.419 149.482 182.242 147.976 181.195 147.472C180.148 146.967 174.104 144.205 174.104 144.205C174.104 144.205 172.53 134.783 171.086 131.268C169.642 127.752 168.327 127.124 167.54 126.247C166.753 125.369 166.494 120.97 164.652 117.958C162.811 114.947 162.023 112.308 162.023 112.308C162.023 112.308 163.07 110.299 162.811 107.412" fill="#92E3A9"/>
<path d="M157.828 95.3665C157.828 95.3665 148.246 98.6335 146.015 103.406C143.784 108.179 142.867 112.075 144.311 115.714C145.755 119.354 153.106 133.292 155.208 135.931C157.309 138.569 160.067 141.208 162.031 143.591C163.995 145.973 165.707 149.116 165.707 149.116C165.707 149.116 166.623 152.507 167.678 154.137C168.725 155.767 169.909 156.9 170.169 157.777C170.429 158.654 170.566 162.674 171.873 163.427C173.187 164.18 173.577 163.427 173.577 162.55C173.577 161.673 173.05 156.644 173.05 156.644C173.05 156.644 175.235 160.35 175.808 161.541C177.184 164.392 178.169 164.933 178.826 164.428C179.484 163.924 179.086 162.418 178.697 160.664C178.307 158.91 177.382 157.653 177.382 156.644C177.382 155.636 177.252 154.262 177.252 154.262C177.252 154.262 180.271 162.871 180.928 163.427C181.486 163.902 181.677 164.18 182.769 163.675C183.22 163.471 182.899 161.994 182.639 161.293C182.143 159.97 180.821 155.087 180.821 155.087C180.821 155.087 184.213 160.54 184.733 161.037C185.26 161.541 186.307 161.665 186.575 160.533C186.834 159.4 185.658 158.15 185.13 157.017C184.603 155.884 183.029 152.369 183.029 152.369C183.029 152.369 183.671 154.547 186.445 154.883C187.224 154.978 188.806 154.883 189.203 154.13C189.601 153.377 188.806 152.5 188.416 152.369C188.019 152.244 185.176 152.215 184.298 150.848C183.419 149.482 182.242 147.976 181.195 147.472C180.148 146.967 174.104 144.205 174.104 144.205C174.104 144.205 172.53 134.783 171.086 131.268C169.642 127.752 168.327 127.124 167.54 126.247C166.753 125.369 166.494 120.97 164.652 117.958C162.811 114.947 162.023 112.308 162.023 112.308C162.023 112.308 163.07 110.299 162.811 107.412" stroke="#263238" stroke-linecap="round" stroke-linejoin="round"/>
<path d="M152.847 101.272C152.847 101.272 159.632 102.646 161.283 106.191" stroke="#263238" stroke-linecap="round" stroke-linejoin="round"/>
<path d="M160.457 101.469C160.457 101.469 164.163 106.388 164.369 108.749" stroke="#263238" stroke-linecap="round" stroke-linejoin="round"/>
<path d="M182.64 161.293C182.143 159.97 180.821 155.087 180.821 155.087C180.821 155.087 184.214 160.54 184.733 161.037C185.261 161.541 186.308 161.665 186.575 160.533C186.835 159.4 185.658 158.15 185.131 157.017C184.726 156.147 183.702 153.867 183.251 152.858C183.618 153.523 184.512 154.649 186.445 154.875C187.224 154.97 188.806 154.875 189.204 154.123C189.601 153.37 188.806 152.493 188.417 152.361C188.019 152.237 185.177 152.208 184.298 150.841C183.419 149.474 182.242 147.969 181.196 147.464C180.149 146.96 174.105 144.197 174.105 144.197C174.105 144.197 172.53 134.776 171.086 131.26C169.642 127.745 168.328 127.116 167.541 126.239C166.899 125.523 166.609 122.497 165.539 119.764C163.155 119.391 160.748 119.449 158.616 120.334C154.108 122.197 151.624 125.34 150.325 127.686C152.335 131.385 154.276 134.747 155.208 135.909C157.309 138.547 160.068 141.186 162.032 143.569C163.995 145.951 165.707 149.094 165.707 149.094C165.707 149.094 166.624 152.485 167.678 154.115C168.725 155.745 169.91 156.878 170.169 157.755C170.429 158.632 170.567 162.652 171.873 163.405C173.188 164.158 173.577 163.405 173.577 162.528C173.577 161.651 173.05 156.622 173.05 156.622C173.05 156.622 175.235 160.328 175.809 161.519C177.184 164.37 178.17 164.911 178.827 164.406C179.484 163.902 179.087 162.396 178.697 160.642C178.3 158.881 177.383 157.631 177.383 156.622C177.383 155.614 177.253 154.24 177.253 154.24C177.253 154.24 180.271 162.849 180.928 163.405C181.486 163.88 181.677 164.158 182.77 163.653C183.221 163.449 182.9 161.972 182.64 161.271V161.293Z" fill="#878787" stroke="#263238" stroke-linecap="round" stroke-linejoin="round"/>
<path d="M147.169 124.193C147.169 124.193 148.636 128.6 149.477 130.201C150.317 131.801 151.15 132.408 151.991 132.203L152.831 132.006C152.831 132.006 151.257 129.704 151.578 128.403C151.891 127.102 156.293 124.397 160.274 123.396C164.255 122.395 166.348 123.798 166.769 124.295C167.189 124.799 166.983 127.219 167.556 126.261C168.129 125.296 168.549 125.099 168.129 123.893C167.708 122.694 167.395 120.984 166.876 119.683C166.348 118.382 164.469 117.081 159.96 116.877C155.46 116.679 151.899 119.281 149.591 120.882C147.284 122.482 147.184 124.185 147.184 124.185L147.169 124.193Z" fill="white" stroke="#263238" stroke-linecap="round" stroke-linejoin="round"/>
<path d="M292.994 134.659L298.687 155.066C298.687 155.066 302.637 171.313 304.853 178.111C307.069 184.915 307.054 192.911 306.259 193.964C305.472 195.023 304.838 197.289 304.998 198.956C305.159 200.622 305.312 203.187 304.998 205.153C304.685 207.12 306.893 206.213 307.367 204.547C307.841 202.88 308.154 199.409 308.475 200.768C308.788 202.128 308.788 206.213 308.788 207.419C308.788 208.625 306.893 211.351 306.733 212.411C306.573 213.471 308.475 212.864 309.262 211.658C310.049 210.452 311.631 208.033 312.426 205.914C313.213 203.794 313.686 198.963 313.686 197.296C313.686 195.63 313.373 189.586 313.373 189.586C313.373 189.586 314.84 169.669 311.799 155.672C310.661 150.424 308.796 146.755 308.796 146.755L305.48 130.581L292.994 134.659Z" fill="#B5B5B5" stroke="#263238" stroke-linecap="round" stroke-linejoin="round"/>
<path d="M224.758 128.79C224.758 128.79 215.436 134.082 214.962 134.381C214.489 134.681 191.129 144.029 186.705 145.842C182.281 147.654 177.383 149.467 176.435 149.774C175.488 150.074 168.848 157.784 167.587 159.597C166.326 161.41 170.277 161.263 172.325 159.444C174.38 157.631 181.333 154.759 181.333 154.759C181.333 154.759 178.178 158.698 177.857 158.99C176.779 159.977 176.993 163.566 180.462 159.685C182.235 157.697 184.153 156.176 185.261 155.592C186.178 155.109 186.927 154.378 187.454 153.509L188.914 151.126C188.914 151.126 208.253 148.064 211.256 147.004C214.259 145.944 223.658 143.898 226.501 142.085C229.343 140.272 235.349 137.246 235.349 137.246L224.758 128.783V128.79Z" fill="#B5B5B5" stroke="#263238" stroke-linecap="round" stroke-linejoin="round"/>
<path d="M171.354 154.992C171.354 154.992 176.535 150.848 177.185 150.688" stroke="#263238" stroke-linecap="round" stroke-linejoin="round"/>
<path d="M167.579 159.597L173.914 154.89L177.49 152.836" stroke="#263238" stroke-linecap="round" stroke-linejoin="round"/>
<path d="M246.421 75.2962C246.421 75.2962 244.419 80.2517 244.579 82.8098C244.748 85.3679 245.58 87.2828 244.411 89.6801C243.242 92.0775 240.568 93.8389 241.401 94.7964C242.234 95.7538 244.908 96.7113 244.908 96.7113C244.908 96.7113 246.91 104.225 248.583 105.182C250.257 106.14 254.1 105.022 255.269 104.7C256.439 104.378 256.316 105.445 256.484 108.318C256.653 111.198 256.958 113.324 254.78 113.968C252.603 114.611 240.728 116.847 237.381 119.566C234.042 122.285 223.513 128.995 223.513 128.995L237.213 142.904L245.901 137.312C245.901 137.312 248.744 144.029 249.745 146.902C250.746 149.774 252.251 155.212 252.251 155.212C252.251 155.212 250.578 159.21 252.083 160.167C253.588 161.125 265.287 163.844 275.649 162.886C286.01 161.929 293.032 158.888 293.529 157.609C294.033 156.33 293.529 154.729 293.529 153.772C293.529 152.814 293.025 145.14 293.193 144.183C293.361 143.225 294.866 139.71 294.866 139.71L310.691 134.864C310.691 134.864 300.765 113.558 296.41 112.17C294.285 111.49 280.669 111.731 278.827 111.417C276.986 111.095 275.985 109.502 275.152 105.979C274.319 102.463 273.478 97.8296 273.478 97.8296C273.478 97.8296 274.479 83.1241 267.297 75.7713C260.114 68.4186 252.259 71.2983 249.753 72.7308C247.246 74.1707 246.413 75.2889 246.413 75.2889L246.421 75.2962Z" fill="#B5B5B5" stroke="#263238" stroke-linecap="round" stroke-linejoin="round"/>
<path d="M255.277 104.707L260.894 102.515L256.806 106.783L255.277 104.707Z" fill="#263238" stroke="#263238" stroke-linecap="round" stroke-linejoin="round"/>
<path d="M246.643 97.5812C246.643 97.5812 249.348 97.9759 250.906 95.542" stroke="#263238" stroke-linecap="round" stroke-linejoin="round"/>
<path d="M249.378 89.0954C249.378 89.819 249.042 90.411 248.622 90.411C248.201 90.411 247.865 89.8263 247.865 89.0954C247.865 88.3645 248.201 87.7798 248.622 87.7798C249.042 87.7798 249.378 88.3645 249.378 89.0954Z" fill="#263238"/>
<path d="M246.803 86.2159C246.803 86.2159 248.767 84.0232 250.325 85.9016" stroke="#263238" stroke-linecap="round" stroke-linejoin="round"/>
<path d="M261.818 60.4665C262.559 60.4665 247.659 60.6419 245.244 62.608C242.829 64.5741 245.244 66.5256 245.244 66.5256C245.244 66.5256 235.746 70.0923 237.045 71.3348C238.344 72.5774 244.312 72.0438 244.312 72.0438C244.312 72.0438 233.324 78.9946 238.168 79.17C243.013 79.3454 245.993 76.4949 245.993 76.4949C245.993 76.4949 249.722 85.4045 251.953 83.6211C254.192 81.8377 254.75 79.8789 254.75 79.8789C254.75 79.8789 255.498 94.1313 258.104 92.7061C260.71 91.2808 261.833 90.2137 261.833 90.2137C261.833 90.2137 258.478 102.865 260.901 102.507C263.323 102.149 266.12 98.7651 266.12 98.7651C266.12 98.7651 264.072 112.484 269.474 112.842C274.876 113.2 278.231 106.249 278.231 106.249C278.231 106.249 278.98 113.551 280.837 112.667C282.701 111.775 284.191 108.925 284.191 108.925C284.191 108.925 286.797 111.6 287.92 108.925C289.036 106.249 289.227 102.156 289.227 102.156C289.227 102.156 291.832 103.406 292.764 101.623C293.697 99.8395 293.322 92.8961 293.322 92.8961C293.322 92.8961 295.187 95.213 296.119 92.1798C297.051 89.1539 295.003 82.7367 295.003 82.7367C295.003 82.7367 297.609 83.8038 297.051 78.1029C296.493 72.4019 295.821 67.5415 288.791 63.4047C279.637 58.018 278.422 62.2499 278.422 62.2499C278.422 62.2499 276.374 56.3735 273.02 57.0825C269.665 57.7988 271.53 60.1084 271.53 60.1084C271.53 60.1084 264.637 55.8327 263.147 57.2579C261.657 58.6831 261.841 60.4665 261.841 60.4665H261.818Z" fill="#263238" stroke="#263238" stroke-linecap="round" stroke-linejoin="round"/>
<path d="M233.47 290.536C233.47 290.536 232.178 293.759 230.36 297.224C228.541 300.688 229.068 301.434 224.407 305.147C219.746 308.86 216.124 310.599 215.605 313.566C215.085 316.541 219.226 317.528 224.927 316.044C230.627 314.56 233.989 311.337 235.54 310.351C237.092 309.357 238.131 311.834 238.91 305.644C239.69 299.453 240.981 294.001 240.981 294.001L233.47 290.536Z" fill="white" stroke="#263238" stroke-linecap="round" stroke-linejoin="round"/>
<path d="M224.927 316.044C230.627 314.56 233.989 311.337 235.54 310.35C237.091 309.356 238.131 311.834 238.91 305.644C238.91 305.644 236.136 307.398 234.684 308.092C233.233 308.786 226.692 313.42 222.581 314.341C221.45 314.597 220.411 314.655 219.501 314.597C217.102 314.458 215.597 313.566 215.597 313.566C215.077 316.541 219.219 317.528 224.919 316.044H224.927Z" fill="white" stroke="#263238" stroke-linecap="round" stroke-linejoin="round"/>
<path d="M309.744 290.536C309.744 290.536 311.035 293.759 312.854 297.224C314.665 300.688 314.145 301.434 318.806 305.147C323.467 308.86 327.089 310.599 327.609 313.566C328.128 316.541 323.987 317.528 318.287 316.044C312.586 314.56 309.224 311.337 307.673 310.351C306.122 309.357 305.083 311.834 304.303 305.644C303.524 299.453 302.232 294.001 302.232 294.001L309.744 290.536Z" fill="white" stroke="#263238" stroke-linecap="round" stroke-linejoin="round"/>
<path d="M318.286 316.044C312.586 314.56 309.224 311.337 307.673 310.35C306.121 309.356 305.082 311.834 304.303 305.644C304.303 305.644 307.076 307.398 308.528 308.092C309.98 308.786 316.521 313.42 320.632 314.341C321.763 314.597 322.802 314.655 323.711 314.597C326.111 314.458 327.616 313.566 327.616 313.566C328.136 316.541 323.994 317.528 318.294 316.044H318.286Z" fill="white" stroke="#263238" stroke-linecap="round" stroke-linejoin="round"/>
<path d="M311.294 253.633C311.294 248.371 308.704 232.584 308.704 232.584L305.678 201.806C305.678 201.806 304.57 189.863 302.362 183.212C300.146 176.561 294.3 165.978 294.3 165.978L293.552 157.624L252.106 160.182L252.427 165.525C252.427 165.525 248.476 177.168 247.368 183.059C246.26 188.957 243.731 196.968 243.731 196.968L242.47 201.806L239.773 232.891C239.773 232.891 233.95 248.371 233.622 260.131C233.301 271.898 230.382 294.497 230.382 294.497C230.382 294.497 235.563 296.354 238.153 296.047C240.743 295.74 242.363 294.812 242.363 294.812L274.403 202.267L277.551 202.727L288.654 246.515L300.306 294.191C300.306 294.191 303.867 296.668 305.159 296.354C306.45 296.047 310.339 296.354 312.28 292.641C314.221 288.928 311.31 258.896 311.31 253.633H311.294Z" fill="#263238" stroke="#263238" stroke-linecap="round" stroke-linejoin="round"/>
<path d="M273.661 166.102L274.196 169.186L275.006 187.707C275.006 187.707 277.696 184.36 277.963 183.081C278.231 181.794 278.231 176.393 278.231 176.393" stroke="#B5B5B5" stroke-linecap="round" stroke-linejoin="round"/>
<path d="M284.956 163.529L285.223 166.614C285.223 166.614 282.533 167.9 279.844 167.644" stroke="#B5B5B5" stroke-linecap="round" stroke-linejoin="round"/>
<path d="M258.868 164.56L259.136 167.388C259.136 167.388 262.635 167.9 265.592 167.9" stroke="#B5B5B5" stroke-linecap="round" stroke-linejoin="round"/>
<path d="M277.215 165.671C277.215 166.204 276.764 166.636 276.206 166.636C275.648 166.636 275.197 166.204 275.197 165.671C275.197 165.137 275.648 164.706 276.206 164.706C276.764 164.706 277.215 165.137 277.215 165.671Z" stroke="#B5B5B5" stroke-linecap="round" stroke-linejoin="round"/>
<path d="M286.224 168.916C286.224 168.916 291.649 173.411 296.707 173.411" stroke="#B5B5B5" stroke-linecap="round" stroke-linejoin="round"/>
<path d="M258.754 169.435C258.754 169.435 254.78 175.662 249.897 177.387" stroke="#B5B5B5" stroke-linecap="round" stroke-linejoin="round"/>
<path d="M294.882 139.717L310.706 134.871C310.706 134.871 302.714 114.72 296.425 112.177C294.675 111.468 285.873 111.673 280.7 111.526C278.338 114.713 274.189 119.084 268.695 120.019C259.847 121.532 254.788 113.975 254.788 113.975C252.618 114.611 240.736 116.855 237.389 119.573C234.05 122.292 223.521 129.002 223.521 129.002L237.221 142.911L245.909 137.319C245.909 137.319 248.752 144.036 249.753 146.909C250.754 149.781 252.259 155.219 252.259 155.219C252.259 155.219 250.586 159.217 252.091 160.174C253.596 161.132 265.295 163.851 275.656 162.893C286.018 161.936 293.04 158.895 293.537 157.616C294.041 156.337 293.537 154.737 293.537 153.779C293.537 152.822 293.032 145.147 293.201 144.19C293.369 143.232 294.874 139.717 294.874 139.717H294.882Z" fill="#92E3A9" stroke="#263238" stroke-linecap="round" stroke-linejoin="round"/>
<path d="M245.917 137.32L247.017 132.167" stroke="#263238" stroke-linecap="round" stroke-linejoin="round"/>
<path d="M294.881 139.717C294.881 139.717 293.46 133.073 291.764 128.739" stroke="#263238" stroke-linecap="round" stroke-linejoin="round"/>
<path d="M286.476 140.294C286.476 140.294 286.285 144.446 278.545 150.585" stroke="#263238" stroke-linecap="round" stroke-linejoin="round"/>
<path d="M281.188 144.994C281.188 144.994 280.814 148.064 273.822 152.398" stroke="#263238" stroke-linecap="round" stroke-linejoin="round"/>
<path d="M265.707 163.047C265.707 163.047 262.307 162.323 260.802 159.977" stroke="#263238" stroke-linecap="round" stroke-linejoin="round"/>
<path d="M283.268 161.066C283.268 161.066 286.851 159.444 287.608 157.273" stroke="#263238" stroke-linecap="round" stroke-linejoin="round"/>
<path d="M252.496 116.094C252.496 116.094 258.915 122.234 263.82 122.417" stroke="#263238" stroke-linecap="round" stroke-linejoin="round"/>
<path d="M282.893 112.849C282.893 112.849 281.197 116.643 278.553 118.631" stroke="#263238" stroke-linecap="round" stroke-linejoin="round"/>
<path d="M121.716 205.957C121.716 205.957 118.079 207.975 117.376 208.201C116.673 208.428 116.207 207.975 116.788 207.302C117.376 206.63 117.842 206.067 117.842 206.067C117.842 206.067 116.2 206.849 116.085 205.957C115.97 205.058 118.431 204.386 118.431 204.386C118.431 204.386 115.069 203.195 116.788 202.931C118.354 202.69 118.095 203.26 119.394 202.157C120.005 201.638 119.569 198.817 119.684 198.48C119.799 198.144 121.831 200.578 121.831 200.578C121.831 200.578 122.183 204.276 121.716 205.965V205.957Z" fill="white" stroke="#263238" stroke-linecap="round" stroke-linejoin="round"/>
<path d="M119.791 175.501L122.489 187.502C122.489 187.502 124.483 193.561 124.483 195.243C124.483 196.924 123.314 206.235 123.077 207.017C122.84 207.799 122.023 210.379 121.32 210.379C120.617 210.379 120.265 209.933 120.502 208.472C120.739 207.017 121.09 204.437 121.09 204.437L119.364 198.363C119.364 198.363 118.515 198.042 118.042 199.387C117.568 200.732 116.872 203.984 116.162 204.32C115.459 204.656 114.404 204.094 114.993 202.186C115.581 200.278 115.933 197.026 116.284 195.571C116.636 194.117 118.042 188.73 118.042 188.73L111.707 178.746L119.799 175.494L119.791 175.501Z" fill="white" stroke="#263238" stroke-linecap="round" stroke-linejoin="round"/>
<path d="M113.472 149.489L118.851 171.584L110.087 173.871C110.087 173.871 107.818 155.884 108.054 153.165C108.291 150.446 111.279 144.731 113.472 149.489Z" fill="#92E3A9" stroke="#263238" stroke-linecap="round" stroke-linejoin="round"/>
<path d="M108.88 171.013C108.88 171.013 117.912 167.534 118.844 168.097C119.784 168.66 121.19 174.938 121.19 176.057C121.19 177.175 111.34 179.872 110.523 179.536C109.705 179.199 108.88 171.013 108.88 171.013Z" fill="white" stroke="#263238" stroke-linecap="round" stroke-linejoin="round"/>
<path d="M113.632 246.463C113.632 246.463 114.747 264.684 113.364 279.214C112.294 290.47 115.977 300.549 115.977 300.549C115.977 300.549 127.393 308.34 129.892 308.735C132.383 309.13 136.517 310.051 134.439 312.828C132.36 315.613 131.948 315.159 129.449 315.554C126.958 315.949 115.328 314.757 111.171 314.363C107.014 313.968 104.523 314.757 101.62 313.566C98.7084 312.375 99.9615 307.609 102.04 304.028C104.042 300.586 102.491 296.631 101.803 292.867C100.565 286.019 99.037 278.79 97.0579 272.095C95.7895 267.798 94.4064 261.724 94.5974 257.01C94.842 250.9 93.2373 241.946 93.2373 241.946C93.2373 241.946 113.211 241.69 113.632 246.456V246.463Z" fill="white" stroke="#263238" stroke-linecap="round" stroke-linejoin="round"/>
<path d="M129.892 308.735C129.426 308.662 128.647 308.326 127.691 307.836L125.346 309.758C125.346 309.758 114.648 310.781 106.884 307.2C104.668 306.177 102.926 305.453 101.551 304.934C99.7857 308.37 98.9529 312.477 101.62 313.573C104.531 314.765 107.022 313.968 111.171 314.37C115.328 314.765 126.958 315.956 129.449 315.561C131.94 315.167 132.36 315.613 134.439 312.835C136.517 310.051 132.383 309.137 129.892 308.742V308.735Z" fill="#263238" stroke="#263238" stroke-linecap="round" stroke-linejoin="round"/>
<path d="M134.485 312.755C133.025 313.179 130.886 313.72 128.639 313.997C124.582 314.502 116.276 312.981 110.277 312.477C105.784 312.097 101.696 311.059 99.916 310.555C99.9237 311.951 100.413 313.069 101.62 313.566C104.531 314.758 107.022 313.961 111.171 314.363C115.328 314.758 126.958 315.949 129.449 315.554C131.94 315.16 132.361 315.605 134.439 312.828C134.454 312.806 134.469 312.777 134.485 312.755Z" fill="white" stroke="#263238" stroke-linecap="round" stroke-linejoin="round"/>
<path d="M66.7232 249.993C66.7232 249.993 60.6332 259.056 59.5329 265.744C55.4066 290.887 51.3492 296.485 49.2784 301.251C47.2076 306.016 50.9365 308.406 53.0149 308.801C55.0933 309.195 58.8299 312.375 63.8196 313.172C68.8016 313.968 74.5554 314.787 77.4591 313.595C80.3704 312.404 80.3704 310.811 77.8717 308.428C75.3807 306.045 68.3814 300.454 67.1359 298.466C66.8226 297.969 66.6163 297.223 66.4787 296.383C65.9591 293.174 68.0375 285.31 69.6422 282.445L85.2302 250.673L66.7232 249.986V249.993Z" fill="white" stroke="#263238" stroke-linecap="round" stroke-linejoin="round"/>
<path d="M77.8713 308.428C76.8779 307.478 77.3288 308.165 75.556 306.63C75.1663 307.215 74.3258 307.829 72.6447 308.304C68.0982 309.583 61.5191 307.076 55.2534 301.565C53.5341 300.052 52.663 297.669 51.578 295.981C50.6839 298.196 49.9198 299.782 49.278 301.251C47.1996 306.016 49.0487 306.93 53.0145 308.801C54.9172 309.7 58.8294 312.375 63.8191 313.171C68.8012 313.968 74.555 314.787 77.4587 313.595C80.37 312.404 80.37 310.811 77.8713 308.428Z" fill="#263238" stroke="#263238" stroke-linecap="round" stroke-linejoin="round"/>
<path d="M57.1258 309.269C52.9537 307.332 49.8743 305.059 48.4607 303.918C48.1398 306.469 49.9354 307.354 53.0148 308.801C54.9175 309.7 58.8298 312.375 63.8195 313.172C68.8015 313.968 74.5554 314.787 77.459 313.595C78.9949 312.967 79.7055 312.229 79.6902 311.315C77.7952 312.097 75.671 312.901 74.7922 312.981C73.0271 313.15 62.9637 311.966 57.1334 309.269H57.1258Z" fill="white" stroke="#263238" stroke-linecap="round" stroke-linejoin="round"/>
<path d="M101.704 101.016L106.663 105.884C106.663 105.884 113.372 110.503 113.082 111.336C112.791 112.177 105.777 110.993 105.777 110.993L101.712 101.016H101.704Z" fill="#92E3A9" stroke="#263238" stroke-linecap="round" stroke-linejoin="round"/>
<path d="M114.603 136.391L117.866 159.1C117.866 159.1 114.244 161.008 112.425 161.008H110.614L114.603 136.391Z" fill="#92E3A9" stroke="#263238" stroke-linecap="round" stroke-linejoin="round"/>
<path d="M106.129 95.8343C106.129 95.8343 102.033 102.99 102.033 104.861C102.033 106.732 105.77 110.993 105.77 110.993C105.77 110.993 114.672 123.601 115.566 132.627C116.46 141.654 112.356 153.238 112.356 158.691C112.356 164.143 114.313 195.491 114.313 195.491C114.313 195.491 118.584 227.175 118.232 231.78C117.881 236.384 119.126 255.461 119.126 255.461C119.126 255.461 107.344 259.758 92.5581 259.926C77.7724 260.094 73.9365 258.845 67.5255 258.165C61.1146 257.485 58.2109 253.414 58.2109 253.414C58.2109 253.414 60.5262 204.006 61.9475 193.276C63.3687 182.547 66.2189 169.252 70.8495 161.761C75.48 154.269 79.5757 149.664 79.9348 148.816C80.294 147.961 77.9787 130.076 78.3302 121.05C78.6893 112.023 85.9867 106.228 90.0823 102.478C94.178 98.7286 97.5631 90.3818 97.5631 90.3818L106.114 95.8343H106.129Z" fill="#B5B5B5" stroke="#263238" stroke-linecap="round" stroke-linejoin="round"/>
<path d="M90.9607 244.76C90.3571 246.098 89.7611 247.289 89.165 248.305" stroke="#263238" stroke-linecap="round" stroke-linejoin="round"/>
<path d="M103.454 202.003C103.454 202.003 98.3038 225.691 92.7334 240.426" stroke="#263238" stroke-linecap="round" stroke-linejoin="round"/>
<path d="M103.744 211.205C103.744 211.205 100.535 227.387 97.9141 233.797" stroke="#263238" stroke-linecap="round" stroke-linejoin="round"/>
<path d="M97.1721 193.905C97.1949 195.52 97.1569 197.033 97.043 198.371" stroke="#263238" stroke-linecap="round" stroke-linejoin="round"/>
<path d="M94.4141 169.639C94.4141 169.639 96.4925 180.917 97.0503 190.557" stroke="#263238" stroke-linecap="round" stroke-linejoin="round"/>
<path d="M96.4551 165.459C96.4551 165.459 99.374 175.501 99.374 181.641" stroke="#263238" stroke-linecap="round" stroke-linejoin="round"/>
<path d="M102.032 104.861C102.032 104.861 106.663 110.481 107.733 113.887C108.802 117.293 111.332 124.003 111.332 136.442C111.332 148.882 108.802 164.487 108.802 164.487C108.802 164.487 89.5695 162.769 83.3343 159.875C77.0991 156.981 72.5449 153.18 72.5449 153.18C72.5449 153.18 76.0293 127.518 78.3446 118.148C80.6599 108.778 82.9751 105.54 87.6057 102.99C92.2363 100.432 102.032 104.861 102.032 104.861Z" fill="#92E3A9" stroke="#263238" stroke-linecap="round" stroke-linejoin="round"/>
<path d="M81.4395 135.894C81.4395 135.894 84.0145 135.894 90.372 134.009" stroke="#263238" stroke-linecap="round" stroke-linejoin="round"/>
<path d="M91.5788 137.195C91.5788 137.195 84.4649 141.537 78.1074 143.276" stroke="#263238" stroke-linecap="round" stroke-linejoin="round"/>
<path d="M116.772 69.1568C116.772 69.1568 118.186 73.6079 118.186 76.4437C118.186 79.2796 116.772 80.0836 116.917 81.8377C117.063 83.5918 119.317 86.1573 119.454 87.3705C119.592 88.5838 117.055 90.0675 116.635 90.2064C116.214 90.3453 113.387 96.0096 112.547 97.7638C111.699 99.5179 103.232 96.609 101.681 95.6661C100.13 94.7233 98.1202 91.5805 98.1202 91.5805C98.1202 91.5805 97.3102 82.247 99.2893 75.6324C101.261 69.0179 108.596 64.9761 108.596 64.9761L116.78 69.1568H116.772Z" fill="white" stroke="#263238" stroke-linecap="round" stroke-linejoin="round"/>
<path d="M114.656 81.2969C114.656 81.2969 114.236 78.7023 110.851 80.0471" stroke="#263238" stroke-linecap="round" stroke-linejoin="round"/>
<path d="M114.373 81.5673C114.373 82.2324 113.945 82.7806 113.425 82.7806C112.905 82.7806 112.478 82.2397 112.478 81.5673C112.478 80.8949 112.905 80.354 113.425 80.354C113.945 80.354 114.373 80.8949 114.373 81.5673Z" fill="#263238"/>
<path d="M111.141 77.7739C111.141 77.7739 114.38 76.1367 116.191 78.5924" stroke="#263238" stroke-linecap="round" stroke-linejoin="round"/>
<path d="M109.903 88.708C109.903 88.708 111.523 90.8934 114.664 90.6229" stroke="#263238" stroke-linecap="round" stroke-linejoin="round"/>
<path d="M146.168 145.791L160.19 149.525C160.19 149.525 170.307 146.258 171.285 145.907C172.263 145.557 177.337 145.754 179.537 145.988C181.731 146.222 182.625 147.537 183.603 148.005C184.581 148.473 184.214 149.291 184.214 149.291C184.214 149.291 185.192 149.642 184.214 150.578C183.236 151.513 183.259 151.418 183.259 151.418C183.259 151.418 182.09 152.573 180.638 152.792C178.735 153.078 178.07 152.595 177.337 152.712C176.603 152.829 173.516 154.671 171.079 155.139C168.641 155.606 168.229 155.416 166.769 155.299C165.31 155.182 163.384 154.488 163.384 154.488C163.384 154.488 144.22 153.611 143.731 153.611C143.242 153.611 146.168 145.798 146.168 145.798V145.791Z" fill="white" stroke="#263238" stroke-linecap="round" stroke-linejoin="round"/>
<path d="M170.566 147.201C170.566 147.201 176.404 146.88 177.245 146.799C178.093 146.719 182.655 147.121 182.655 147.121" stroke="#263238" stroke-linecap="round" stroke-linejoin="round"/>
<path d="M171.583 149.065C171.583 149.065 176.573 148.663 178.177 148.663C179.782 148.663 184.206 149.291 184.206 149.291" stroke="#263238" stroke-linecap="round" stroke-linejoin="round"/>
<path d="M172.172 151.411C172.172 151.411 177.33 150.519 177.834 150.519C178.338 150.519 183.672 151.17 183.672 151.17" stroke="#263238" stroke-linecap="round" stroke-linejoin="round"/>
<path d="M84.0449 128.03C84.0449 128.03 99.9768 145.82 105.501 148.714C111.026 151.608 136.586 153.414 137.839 153.414C139.092 153.414 141.759 142.684 141.759 142.684C141.759 142.684 125.384 136.757 122.709 135.054C120.035 133.351 113.96 131.151 113.96 131.151C113.96 131.151 104.172 116.452 102.04 113.894C99.9004 111.336 90.9984 106.571 86.1921 109.809" fill="#92E3A9"/>
<path d="M84.0449 128.03C84.0449 128.03 99.9768 145.82 105.501 148.714C111.026 151.608 136.586 153.414 137.839 153.414C139.092 153.414 141.759 142.684 141.759 142.684C141.759 142.684 125.384 136.757 122.709 135.054C120.035 133.351 113.96 131.151 113.96 131.151C113.96 131.151 104.172 116.452 102.04 113.894C99.9004 111.336 90.9984 106.571 86.1921 109.809" stroke="#263238" stroke-linecap="round" stroke-linejoin="round"/>
<path d="M95.2168 126.912C95.2168 126.912 99.4577 131.838 110.66 131.692" stroke="#263238" stroke-linecap="round" stroke-linejoin="round"/>
<path d="M111.47 68.9155C111.47 68.9155 109.155 71.8098 110.4 72.4895C111.646 73.1693 113.609 73.3447 115.206 72.6577C116.811 71.9779 118.232 69.9314 118.232 69.9314C118.232 69.9314 118.232 73.849 120.548 72.8258C122.863 71.8025 123.933 70.9547 121.969 65.6703C120.013 60.386 112.883 56.812 108.253 55.109C103.622 53.406 89.3715 51.1914 82.7848 58.0033C76.1981 64.8152 74.4101 70.7793 75.3041 75.8882C76.1981 80.9971 75.6632 87.3047 74.4101 88.8322C73.1645 90.3671 62.4745 97.6906 61.4048 105.701C60.335 113.712 65.5004 117.454 66.5702 119.844C67.64 122.227 65.1489 123.25 64.2549 122.058C63.3609 120.867 61.229 127.679 66.2111 129.894C71.2008 132.108 78.4981 131.597 81.5316 127.511C84.5576 123.425 82.2423 114.567 85.2682 112.009C88.2941 109.451 93.108 109.962 95.0642 111.154C97.0203 112.345 104.325 112.345 105.754 110.986C107.175 109.626 106.648 105.877 106.648 105.877C106.648 105.877 104.509 107.923 103.263 104.517C102.018 101.111 102.193 95.4906 104.509 91.5731C106.824 87.6555 105.93 81.5233 104.509 77.7739C103.087 74.0244 111.455 68.9155 111.455 68.9155H111.47Z" fill="#263238" stroke="#263238" stroke-linecap="round" stroke-linejoin="round"/>
<path d="M88.7139 108.289C89.5391 109.348 90.4943 109.568 90.4943 109.568" stroke="#B5B5B5" stroke-linecap="round" stroke-linejoin="round"/>
<path d="M96.8904 84.3301C97.0662 85.9234 96.9745 87.6483 96.3403 89.5121C94.1243 96.0682 88.1413 97.1864 87.6064 102.99C87.5147 104.006 87.5376 104.875 87.6522 105.606" stroke="#B5B5B5" stroke-linecap="round" stroke-linejoin="round"/>
<path d="M94.7129 75.9028C94.9116 77.5839 95.7597 79.4842 96.3557 81.6549" stroke="#B5B5B5" stroke-linecap="round" stroke-linejoin="round"/>
<path d="M76.1827 125.187C74.5704 130.778 70.5359 130.391 69.1299 130.011" stroke="#B5B5B5" stroke-linecap="round" stroke-linejoin="round"/>
<path d="M84.0764 73.5566C83.4727 74.8503 83.0754 76.0344 83.0372 76.9772C82.8385 81.8011 87.4691 88.5472 86.0631 92.7863C84.6495 97.0255 76.993 97.6102 73.5621 106.673C70.6584 114.348 75.7093 118.287 76.3435 122.709" stroke="#B5B5B5" stroke-linecap="round" stroke-linejoin="round"/>
<path d="M108.237 69.8438C108.237 69.8438 105.013 73.1254 101.582 74.0829C98.1508 75.0477 92.9089 74.0829 89.8906 80.0616" stroke="#B5B5B5" stroke-linecap="round" stroke-linejoin="round"/>
<path d="M109.674 61.073L111.867 59.8159" stroke="#B5B5B5" stroke-linecap="round" stroke-linejoin="round"/>
<path d="M87.2705 70.4212C87.2705 70.4212 87.6755 68.3016 93.116 65.2173C97.1964 62.9004 102.301 62.9735 105.877 62.4253" stroke="#B5B5B5" stroke-linecap="round" stroke-linejoin="round"/>
<path d="M139.704 141.244C139.704 141.244 134.584 151.74 135.073 153.604C135.562 155.467 142.019 156.871 143.608 155.818C145.198 154.766 147.635 146.141 147.75 144.972C147.872 143.802 143.967 142.523 143.119 142.056C142.263 141.588 140.682 140.192 139.704 141.237V141.244Z" fill="white" stroke="#263238" stroke-linecap="round" stroke-linejoin="round"/>
</g>
<defs>
<clipPath id="clip0_383_1978">
<rect width="353" height="338" fill="white"/>
</clipPath>
</defs>
</svg>
