<svg width="217" height="117" viewBox="0 0 217 117" fill="none" xmlns="http://www.w3.org/2000/svg">
<g clip-path="url(#clip0_1731_2958)">
<path d="M205.591 65.959C211.811 65.959 216.853 60.8748 216.853 54.6032C216.853 48.3315 211.811 43.2473 205.591 43.2473C199.371 43.2473 194.329 48.3315 194.329 54.6032C194.329 60.8748 199.371 65.959 205.591 65.959Z" fill="#F2F2F2"/>
<path d="M205.591 57.5915C207.228 57.5915 208.555 56.2536 208.555 54.6031C208.555 52.9527 207.228 51.6147 205.591 51.6147C203.954 51.6147 202.627 52.9527 202.627 54.6031C202.627 56.2536 203.954 57.5915 205.591 57.5915Z" fill="#E6E6E6"/>
<path d="M205.05 54.667C206.298 55.694 206.679 57.3125 206.446 58.8753C206.161 60.5895 205.279 62.145 203.959 63.2626C202.474 64.5931 200.663 65.4921 198.916 66.4128C197.311 67.2389 195.768 68.1833 194.3 69.2382C188.68 73.3564 184.435 79.2203 182.005 85.7639C179.58 92.2965 178.929 99.7112 180.772 106.482C181.684 109.831 183.529 113.445 186.966 114.706C189.705 115.711 193.446 115.063 194.841 112.216C196.339 109.158 194.248 105.72 191.555 104.202C188.065 102.234 183.895 103.672 180.755 105.664C177.299 107.858 174.52 111.005 170.911 112.97C169.287 113.883 167.479 114.415 165.623 114.526C163.918 114.594 162.216 114.329 160.611 113.745C157.281 112.522 154.415 110.278 152.413 107.329C150.121 103.969 149.095 99.8506 148.908 95.8162C148.489 86.7894 152.026 78.3446 154.863 69.9734C156.388 65.6142 157.53 61.1284 158.277 56.5677C158.987 51.9838 159.24 47.3398 159.031 42.7051C158.844 38.6069 158.443 34.3215 156.649 30.5786C155.071 27.2874 152.189 24.5937 148.544 23.9146C146.901 23.5895 145.199 23.7866 143.672 24.4789C143.152 24.718 143.603 25.4909 144.121 25.253C147.346 23.7694 151.158 25.2129 153.54 27.6084C156.322 30.4057 157.344 34.5366 157.798 38.3482C158.817 47.3815 158.014 56.5294 155.436 65.2416C152.962 73.7143 149.071 81.8334 148.173 90.7103C147.764 94.7609 147.974 98.9484 149.258 102.833C150.36 106.292 152.425 109.36 155.209 111.668C157.829 113.804 161.053 115.26 164.447 115.422C168.257 115.604 171.597 113.891 174.553 111.613C177.719 109.173 180.631 106.163 184.466 104.795C186.214 104.171 188.205 103.88 190 104.48C191.54 105.011 192.846 106.07 193.691 107.472C194.47 108.779 194.758 110.413 194.046 111.818C193.378 113.138 192.072 113.901 190.659 114.163C189.162 114.43 187.62 114.165 186.295 113.415C184.747 112.523 183.614 111.027 182.82 109.446C181.237 106.294 180.706 102.541 180.625 99.0416C180.554 95.6236 180.989 92.214 181.914 88.925C183.754 82.2717 187.47 76.2997 192.609 71.7332C193.904 70.5958 195.289 69.5674 196.751 68.6584C198.345 67.6675 200.047 66.8757 201.673 65.9407C203.272 65.0206 204.849 63.9213 205.95 62.4074C206.889 61.1098 207.396 59.5457 207.399 57.9395C207.415 57.2008 207.27 56.4675 206.972 55.7921C206.675 55.1167 206.233 54.5161 205.678 54.0331C205.239 53.6714 204.606 54.302 205.05 54.667Z" fill="#CCCCCC"/>
<path d="M99.9105 106.9C103.849 109.467 108.404 110.906 113.09 111.066C113.007 111.266 112.913 111.461 112.809 111.651C112.263 112.667 111.492 113.541 110.556 114.206C109.448 114.993 108.147 115.458 106.794 115.549C105.442 115.641 104.091 115.357 102.888 114.727C101.685 114.098 100.677 113.147 99.9729 111.979C99.2691 110.811 98.8969 109.471 98.897 108.104V106.9H99.9105Z" fill="#19241D"/>
<path d="M127.554 107.252V108.104C127.554 109.762 127.007 111.373 125.998 112.683C124.989 113.992 123.577 114.925 121.983 115.335C120.39 115.745 118.706 115.607 117.199 114.944C115.692 114.282 114.446 113.131 113.66 111.675C113.551 111.48 113.453 111.28 113.366 111.075C113.583 111.081 113.796 111.084 114.012 111.084C118.79 111.089 123.476 109.763 127.554 107.252Z" fill="#19241D"/>
<path d="M137.523 17.1886C137.301 17.1557 137.076 17.1348 136.851 17.1199C139.41 23.0676 139.587 29.7833 137.346 35.86C137.571 35.8331 137.793 35.7972 138.015 35.7554C140.186 35.3313 142.137 34.1444 143.521 32.4059C144.904 30.6674 145.631 28.4902 145.572 26.2618C145.513 24.0333 144.672 21.8984 143.198 20.2369C141.724 18.5754 139.713 17.4952 137.523 17.1886Z" fill="#19241D"/>
<path d="M91.1734 17.1199C90.9483 17.1348 90.723 17.1557 90.5007 17.1886C88.3108 17.4952 86.3 18.5754 84.826 20.2369C83.352 21.8983 82.5106 24.0333 82.4516 26.2618C82.3925 28.4902 83.1197 30.6674 84.5035 32.4059C85.8874 34.1444 87.8382 35.3314 90.0086 35.7554C90.2309 35.7972 90.4532 35.8331 90.6785 35.86C88.4366 29.7833 88.614 23.0676 91.1734 17.1199Z" fill="#19241D"/>
<path d="M137.523 17.1887C135.082 11.3076 130.559 6.55149 124.834 3.8445C119.11 1.13751 112.591 0.672888 106.546 2.5409C100.5 4.40891 95.3589 8.47617 92.121 13.9525C88.8832 19.4289 87.7798 25.9233 89.0252 32.174C90.2707 38.4248 93.776 43.9856 98.8602 47.7761C103.944 51.5667 110.244 53.3163 116.536 52.685C122.828 52.0538 128.663 49.0868 132.907 44.3604C137.151 39.6341 139.501 33.4858 139.5 27.1101C139.499 23.7037 138.827 20.3314 137.523 17.1887ZM137.346 35.8601C135.177 41.7364 130.907 46.5817 125.373 49.4422C119.84 52.3028 113.446 52.9714 107.448 51.3165C101.451 49.6616 96.2846 45.8031 92.9669 40.5004C89.6492 35.1976 88.4202 28.8348 89.5216 22.6642C90.6231 16.4936 93.9753 10.9621 98.9185 7.15862C103.862 3.3551 110.038 1.55497 116.231 2.11253C122.425 2.6701 128.187 5.54497 132.383 10.1713C136.58 14.7977 138.907 20.8404 138.907 27.1101C138.906 30.0972 138.378 33.0602 137.346 35.8601Z" fill="#3F3D56"/>
<path d="M127.052 21.2827H100.972C99.5961 21.2827 98.2769 21.8337 97.3042 22.8145C96.3316 23.7952 95.7852 25.1254 95.7852 26.5124C95.7852 27.8994 96.3316 29.2296 97.3042 30.2103C98.2769 31.1911 99.5961 31.742 100.972 31.742H127.052C128.428 31.742 129.747 31.1911 130.72 30.2103C131.693 29.2296 132.239 27.8994 132.239 26.5124C132.239 25.1254 131.693 23.7952 130.72 22.8145C129.747 21.8337 128.428 21.2827 127.052 21.2827Z" fill="#19241D"/>
<path d="M114.012 57.8904C107.045 57.8936 100.355 60.6459 95.3739 65.5585C90.3928 70.4712 87.5161 77.1542 87.3588 84.178C87.2016 91.2019 89.7765 98.0089 94.5327 103.143C99.2889 108.277 105.849 111.331 112.809 111.651C113.091 111.666 113.375 111.675 113.66 111.675C113.778 111.681 113.894 111.681 114.012 111.681C121.087 111.681 127.871 108.848 132.874 103.804C137.876 98.7599 140.686 91.9189 140.686 84.7858C140.686 77.6527 137.876 70.8117 132.874 65.7679C127.871 60.724 121.087 57.8904 114.012 57.8904ZM127.554 107.252C123.476 109.763 118.79 111.089 114.012 111.084C113.796 111.084 113.583 111.081 113.366 111.075C113.274 111.075 113.183 111.072 113.091 111.066C106.828 110.846 100.853 108.361 96.2567 104.066C91.6609 99.7702 88.7516 93.9504 88.0605 87.6702C87.3694 81.39 88.9427 75.0687 92.4929 69.8617C96.043 64.6547 101.333 60.9097 107.396 59.3113C113.459 57.7128 119.889 58.3676 125.513 61.1559C131.136 63.9443 135.577 68.68 138.023 74.4975C140.469 80.315 140.758 86.8258 138.835 92.84C136.913 98.8541 132.908 103.97 127.554 107.252Z" fill="#3F3D56"/>
<path d="M132.733 78.1614H121.076C120.264 78.1614 119.485 77.8361 118.91 77.257C118.336 76.6779 118.013 75.8924 118.013 75.0734C118.013 74.2544 118.336 73.4689 118.91 72.8898C119.485 72.3107 120.264 71.9854 121.076 71.9854H132.733C133.545 71.9854 134.324 72.3107 134.899 72.8898C135.473 73.4689 135.796 74.2544 135.796 75.0734C135.796 75.8924 135.473 76.6779 134.899 77.257C134.324 77.8361 133.545 78.1614 132.733 78.1614Z" fill="#3F3D56"/>
<path d="M121.853 76.6408C122.712 76.6408 123.407 75.9391 123.407 75.0736C123.407 74.208 122.712 73.5063 121.853 73.5063C120.995 73.5063 120.299 74.208 120.299 75.0736C120.299 75.9391 120.995 76.6408 121.853 76.6408Z" fill="#F2F2F2"/>
<path d="M126.904 76.6408C127.763 76.6408 128.459 75.9391 128.459 75.0736C128.459 74.208 127.763 73.5063 126.904 73.5063C126.046 73.5063 125.35 74.208 125.35 75.0736C125.35 75.9391 126.046 76.6408 126.904 76.6408Z" fill="#F2F2F2"/>
<path d="M131.956 76.6408C132.814 76.6408 133.51 75.9391 133.51 75.0736C133.51 74.208 132.814 73.5063 131.956 73.5063C131.097 73.5063 130.401 74.208 130.401 75.0736C130.401 75.9391 131.097 76.6408 131.956 76.6408Z" fill="#A0DBB8"/>
<path d="M23.4287 114.785C26.0938 112.515 27.7127 108.928 27.2881 105.435C26.8636 101.943 24.2341 98.733 20.8232 97.9914C17.4124 97.2498 13.5243 99.3026 12.4883 102.662C11.9182 96.1851 11.2612 89.4365 7.84589 83.9206C4.75346 78.9261 -0.602703 75.3523 -6.40757 74.713C-12.2124 74.0736 -18.3242 76.4883 -21.9445 81.1082C-25.5648 85.728 -26.4512 92.4443 -23.9156 97.7482C-22.0478 101.655 -18.6066 104.563 -15.001 106.929C-3.49798 114.476 10.7715 117.026 24.3491 115.011L23.4287 114.785Z" fill="#F2F2F2"/>
<path d="M-16.2042 76.6223C-11.4145 80.5561 -7.02041 84.9557 -3.08555 89.7575C0.849941 94.5544 4.31471 99.7249 7.2601 105.196C8.90644 108.266 10.3854 111.423 11.6903 114.655C11.9564 115.312 10.8977 115.598 10.6346 114.948C8.32318 109.251 5.46357 103.795 2.09672 98.66C-1.25377 93.5435 -5.0886 88.7667 -9.35389 84.3968C-11.7664 81.9264 -14.3117 79.5916 -16.9784 77.403C-17.525 76.9542 -16.7463 76.1773 -16.2042 76.6223Z" fill="white"/>
<path d="M22.525 20.443C27.5991 20.443 31.7125 16.2954 31.7125 11.179C31.7125 6.06266 27.5991 1.91504 22.525 1.91504C17.4508 1.91504 13.3374 6.06266 13.3374 11.179C13.3374 16.2954 17.4508 20.443 22.525 20.443Z" fill="#2F2E41"/>
<path d="M56.7905 45.1004C56.6144 45.3674 56.3998 45.6064 56.1537 45.8094C55.7992 46.1041 55.387 46.32 54.944 46.4428C54.5011 46.5656 54.0374 46.5927 53.5833 46.5222C53.1292 46.4518 52.6951 46.2853 52.3092 46.0339C51.9234 45.7824 51.5946 45.4516 51.3444 45.0631C51.2865 44.9725 51.2334 44.879 51.1852 44.7828L36.7075 43.3744C35.5649 43.2588 34.4896 42.7748 33.6414 41.9943C32.7932 41.2137 32.2173 40.1781 31.999 39.0413L31.1772 34.6732L36.8274 33.7869L37.8413 37.2858L51.957 40.782C52.0663 40.6852 52.1822 40.5963 52.3039 40.516C52.9335 40.1039 53.6849 39.9236 54.4311 40.0053C55.1774 40.087 55.8728 40.4259 56.4 40.9646C56.9273 41.5033 57.254 42.209 57.3252 42.9625C57.3963 43.7159 57.2074 44.471 56.7905 45.1004Z" fill="#FFB8B8"/>
<path d="M38.1885 36.7578L31.877 38.477C31.5355 38.5696 31.1716 38.5218 30.865 38.3442C30.5584 38.1665 30.3342 37.8735 30.2416 37.5294L28.031 29.278C27.7942 28.3941 27.8903 27.4531 28.3008 26.6365C28.7113 25.8199 29.4071 25.1854 30.2541 24.8554C31.1011 24.5255 32.0392 24.5234 32.8876 24.8496C33.7361 25.1758 34.4346 25.8072 34.8487 26.622L39.0277 34.8464C39.1183 35.0247 39.1683 35.2211 39.1739 35.4214C39.1796 35.6217 39.1408 35.8207 39.0604 36.0039C38.9799 36.1872 38.8599 36.3499 38.7091 36.4804C38.5582 36.6108 38.3804 36.7056 38.1885 36.7578Z" fill="#2F2E41"/>
<path d="M34.5326 112.525H38.1659L39.8946 98.3933L34.5317 98.3936L34.5326 112.525Z" fill="#FFB8B8"/>
<path d="M45.1733 115.927L33.7539 115.927L33.7537 111.478L40.7611 111.478C41.9312 111.478 43.0535 111.947 43.8809 112.781C44.7084 113.615 45.1733 114.747 45.1733 115.927Z" fill="#2F2E41"/>
<path d="M2.14795 108.954L5.54734 110.248L12.1156 97.644L7.09856 95.7341L2.14795 108.954Z" fill="#FFB8B8"/>
<path d="M10.9111 115.927L0.227824 111.86L1.78631 107.698L8.34199 110.194C9.43671 110.61 10.3224 111.449 10.8042 112.524C11.286 113.599 11.3245 114.823 10.9111 115.927Z" fill="#2F2E41"/>
<path d="M34.4178 109.243C34.1361 109.242 33.8618 109.152 33.6341 108.985C33.4064 108.818 33.2372 108.582 33.1506 108.312L23.8834 79.4547C23.856 79.3692 23.8036 79.294 23.7332 79.2388C23.6628 79.1836 23.5775 79.1511 23.4885 79.1454C23.3996 79.1397 23.3109 79.1611 23.2342 79.2069C23.1574 79.2526 23.096 79.3206 23.0581 79.4019L10.2149 106.955C10.0758 107.253 9.83323 107.489 9.5331 107.619C9.23297 107.749 8.89609 107.763 8.58622 107.659L3.52807 105.959C3.2068 105.85 2.93846 105.622 2.77737 105.322C2.61627 105.021 2.57445 104.67 2.66036 104.34L10.5274 74.2925C11.3506 71.1097 11.9452 67.8711 12.3067 64.6021C12.8584 59.219 15.3613 54.2306 19.3357 50.5935C21.071 48.9904 22.199 46.8284 22.5264 44.4784L22.5476 44.3281L34.0687 46.1623L41.3665 106.207C41.4042 106.529 41.3263 106.853 41.147 107.121C40.9677 107.389 40.6988 107.584 40.3894 107.669L34.766 109.196C34.6525 109.227 34.5354 109.243 34.4178 109.243Z" fill="#2F2E41"/>
<path d="M26.1747 20.3988C30.1949 20.3988 33.454 17.1126 33.454 13.059C33.454 9.00536 30.1949 5.71924 26.1747 5.71924C22.1545 5.71924 18.8955 9.00536 18.8955 13.059C18.8955 17.1126 22.1545 20.3988 26.1747 20.3988Z" fill="#FFB8B8"/>
<path d="M33.3526 47.4428C33.3298 47.4428 33.307 47.4422 33.284 47.441L21.8631 46.8653C21.5443 46.8507 21.2414 46.7208 21.0099 46.4993C20.7784 46.2779 20.6339 45.9796 20.6029 45.6594L19.0427 30.3206C18.9284 29.1973 19.0884 28.0629 19.5085 27.0162C19.9287 25.9696 20.5963 25.0424 21.4533 24.3154C22.3102 23.5885 23.3304 23.0839 24.4251 22.8456C25.5197 22.6074 26.6555 22.6426 27.7336 22.9483C28.6267 23.1949 29.4591 23.6267 30.1774 24.2159C38.2115 30.8687 35.621 42.9226 34.6357 46.4584C34.5584 46.7417 34.391 46.9914 34.1592 47.1693C33.9273 47.3472 33.6439 47.4433 33.3526 47.4428Z" fill="#A0DBB8"/>
<path d="M23.4169 57.7424C23.099 57.7424 22.7828 57.6946 22.4788 57.6005C22.0391 57.4662 21.6325 57.2397 21.2857 56.9359C20.939 56.6321 20.6597 56.2578 20.4664 55.8375C20.2731 55.4173 20.17 54.9607 20.1639 54.4975C20.1578 54.0343 20.2489 53.575 20.4311 53.1498C20.4737 53.051 20.5215 52.9546 20.5743 52.8609L13.7176 39.9268C13.1801 38.9035 12.9841 37.7328 13.1588 36.5884C13.3335 35.4439 13.8695 34.3868 14.6873 33.5738L17.8388 30.4644L21.7004 34.7167L19.373 37.506L24.3053 51.2926C24.4457 51.3307 24.5833 51.3788 24.7171 51.4364C25.4061 51.7368 25.9712 52.2676 26.3171 52.9394C26.6629 53.6111 26.7684 54.3826 26.6156 55.1236C26.4628 55.8647 26.0612 56.5299 25.4784 57.0069C24.8957 57.484 24.1676 57.7438 23.4169 57.7424Z" fill="#FFB8B8"/>
<path d="M20.0012 37.5049L15.0856 33.1587C14.82 32.9233 14.6579 32.5913 14.6347 32.2355C14.6116 31.8798 14.7293 31.5293 14.9621 31.261L20.5508 24.8344C21.1494 24.146 21.9796 23.7055 22.8813 23.5978C23.783 23.49 24.6923 23.7227 25.4339 24.251C26.1755 24.7792 26.6969 25.5656 26.8975 26.4585C27.0981 27.3515 26.9638 28.2877 26.5204 29.0866L22.0444 37.1505C21.9473 37.3254 21.8128 37.4762 21.6506 37.5919C21.4883 37.7075 21.3025 37.7852 21.1066 37.8192C20.9108 37.8531 20.7099 37.8425 20.5187 37.7881C20.3274 37.7338 20.1506 37.637 20.0012 37.5049Z" fill="#2F2E41"/>
<path d="M21.4905 20.1888C22.1547 20.4263 22.9689 20.6357 23.4915 20.1432C24.0017 19.6624 23.9088 18.7832 23.6082 18.1354C23.3077 17.4877 22.8415 16.9113 22.6986 16.2063C22.4938 15.1959 23.0234 14.1462 23.7794 13.4874C24.5354 12.8287 25.487 12.4826 26.416 12.1496L31.5116 10.3232C32.7729 9.87112 34.1321 9.34004 34.8379 8.15031C35.8592 6.42882 34.9256 3.96805 33.2503 2.96353C31.5751 1.959 29.459 2.14614 27.6516 2.85247C26.6519 3.24313 25.701 3.78146 24.6672 4.05646C22.6269 4.5992 20.307 4.11231 18.5141 5.27228C16.9533 6.28203 16.2294 8.34236 16.282 10.2701C16.3345 12.1979 17.0385 14.0339 17.781 15.7969C18.2227 16.8458 18.6946 17.9068 19.4429 18.741C20.1911 19.5753 21.2723 20.1589 22.3524 20.0054L21.4905 20.1888Z" fill="#2F2E41"/>
<path d="M14.8191 12.6732C18.0927 12.6732 20.7465 9.99736 20.7465 6.69649C20.7465 3.39561 18.0927 0.719727 14.8191 0.719727C11.5454 0.719727 8.8916 3.39561 8.8916 6.69649C8.8916 9.99736 11.5454 12.6732 14.8191 12.6732Z" fill="#2F2E41"/>
<path d="M62.8944 41.1974L62.7892 41.1829L63.1853 38.2773C63.2461 37.8313 63.1287 37.3792 62.8589 37.0205C62.5891 36.6618 62.1891 36.4258 61.7467 36.3645L55.6416 35.5183C55.1992 35.457 54.7509 35.5753 54.3951 35.8474C54.0393 36.1194 53.8053 36.5228 53.7445 36.9688L51.5714 52.9089C51.5106 53.355 51.628 53.807 51.8977 54.1658C52.1675 54.5245 52.5676 54.7605 53.0099 54.8218L59.1151 55.668C59.5574 55.7293 60.0058 55.6109 60.3615 55.3389C60.7173 55.0669 60.9513 54.6635 61.0121 54.2175L62.5072 43.2511L62.6124 43.2656L62.8944 41.1974Z" fill="#3F3D56"/>
<path d="M61.5552 37.2168L60.7951 37.1115C60.8183 37.2028 60.8188 37.2984 60.7967 37.3899C60.7746 37.4814 60.7305 37.5661 60.6683 37.6364C60.6061 37.7067 60.5278 37.7605 60.4401 37.7931C60.3524 37.8256 60.2581 37.8359 60.1656 37.8231L56.8295 37.3607C56.7369 37.3479 56.6489 37.3123 56.5732 37.2571C56.4975 37.2019 56.4364 37.1287 56.3953 37.0441C56.3543 36.9595 56.3345 36.866 56.3377 36.7718C56.3409 36.6777 56.367 36.5858 56.4138 36.5042L55.7038 36.4058C55.5478 36.3842 55.3891 36.3937 55.2367 36.434C55.0844 36.4742 54.9414 36.5443 54.8159 36.6402C54.6904 36.7362 54.5849 36.8561 54.5054 36.9931C54.4259 37.1302 54.3739 37.2817 54.3525 37.439L52.2827 52.6213C52.2393 52.939 52.323 53.261 52.5151 53.5165C52.7073 53.7721 52.9923 53.9402 53.3074 53.9838L59.1587 54.7949C59.4738 54.8386 59.7932 54.7542 60.0466 54.5605C60.3001 54.3667 60.4668 54.0794 60.5101 53.7617L62.5799 38.5794C62.6232 38.2617 62.5396 37.9396 62.3474 37.6841C62.1552 37.4286 61.8703 37.2605 61.5552 37.2168Z" fill="white"/>
<path d="M57.6947 50.0857C59.4952 50.0857 60.9548 48.6139 60.9548 46.7984C60.9548 44.983 59.4952 43.5112 57.6947 43.5112C55.8942 43.5112 54.4346 44.983 54.4346 46.7984C54.4346 48.6139 55.8942 50.0857 57.6947 50.0857Z" fill="#A0DBB8"/>
<path d="M57.0818 47.7886C57.0084 47.7887 56.937 47.7648 56.8784 47.7205L56.8747 47.7177L56.1086 47.1263C56.0729 47.0989 56.0429 47.0647 56.0204 47.0257C55.9978 46.9866 55.9831 46.9435 55.9772 46.8987C55.9712 46.8539 55.974 46.8084 55.9856 46.7647C55.9971 46.7211 56.0171 46.6801 56.0443 46.6442C56.0716 46.6084 56.1056 46.5783 56.1444 46.5557C56.1832 46.5331 56.2261 46.5185 56.2705 46.5126C56.3149 46.5068 56.3601 46.5099 56.4034 46.5217C56.4466 46.5335 56.4871 46.5538 56.5226 46.5814L57.0189 46.9651L58.1916 45.4229C58.2188 45.3872 58.2527 45.3572 58.2914 45.3346C58.3301 45.3121 58.3728 45.2974 58.4171 45.2915C58.4615 45.2856 58.5065 45.2886 58.5497 45.3002C58.5928 45.3119 58.6333 45.332 58.6688 45.3594C58.7404 45.4149 58.7874 45.4968 58.7992 45.587C58.811 45.6773 58.7868 45.7685 58.732 45.8408L57.3526 47.6547C57.3207 47.6965 57.2797 47.7303 57.2327 47.7535C57.1857 47.7768 57.1341 47.7888 57.0818 47.7886Z" fill="white"/>
<path d="M206.988 116.103H3.15406C3.07751 116.102 3.00418 116.051 2.95013 115.961C2.89608 115.871 2.86572 115.748 2.86572 115.621C2.86572 115.493 2.89608 115.371 2.95013 115.281C3.00418 115.19 3.07751 115.139 3.15406 115.139H206.988C207.065 115.139 207.139 115.19 207.193 115.28C207.247 115.37 207.278 115.493 207.278 115.621C207.278 115.748 207.247 115.871 207.193 115.961C207.139 116.052 207.065 116.103 206.988 116.103Z" fill="#CCCCCC"/>
</g>
<defs>
<clipPath id="clip0_1731_2958">
<rect width="216.829" height="115.632" fill="white" transform="translate(0 0.470703)"/>
</clipPath>
</defs>
</svg>
