<svg width="336" height="342" viewBox="0 0 336 342" fill="none" xmlns="http://www.w3.org/2000/svg">
<path d="M0.93341 149.188C0.93341 149.188 -4.74908 210.924 41.4505 260.413C87.6501 309.902 158.319 324.707 215.388 338.205C272.456 351.702 320.624 326.525 333.444 278.444C346.265 230.364 304.096 208.562 287.237 148.582C270.378 88.601 274.802 70.5304 228.641 27.6521C182.481 -15.2261 100.872 -7.27697 52.115 44.8255C3.35748 96.9279 0.93341 149.188 0.93341 149.188Z" fill="#92E3A9"/>
<path opacity="0.7" d="M0.93341 149.188C0.93341 149.188 -4.74908 210.924 41.4505 260.413C87.6501 309.902 158.319 324.707 215.388 338.205C272.456 351.702 320.624 326.525 333.444 278.444C346.265 230.364 304.096 208.562 287.237 148.582C270.378 88.601 274.802 70.5304 228.641 27.6521C182.481 -15.2261 100.872 -7.27697 52.115 44.8255C3.35748 96.9279 0.93341 149.188 0.93341 149.188Z" fill="white"/>
</svg>
