<svg width="125" height="227" viewBox="0 0 125 227" fill="none" xmlns="http://www.w3.org/2000/svg">
<path d="M103.314 226.05L99.8736 186.463H18.5667L14.0811 226.05H103.314Z" fill="#263238" stroke="#263238" stroke-miterlimit="10"/>
<path d="M53.5131 66.4776C53.5131 66.4776 29.7479 73.0131 19.3506 80.8793C8.95331 88.7456 1.76433 96.7902 3.43977 112.03C5.11522 127.269 15.9997 168.965 15.9997 168.965C15.9997 168.965 14.4906 185.88 14.4906 186.884C14.4906 187.888 14.3242 190.734 18.0079 190.9C21.6915 191.067 65.9008 192.915 75.7812 193.081C85.6615 193.247 98.7265 192.243 100.23 191.073C100.974 190.455 101.581 189.689 102.014 188.823C102.446 187.958 102.695 187.013 102.743 186.046C102.909 184.038 104.585 159.418 104.585 159.418L104.751 148.367C104.751 148.367 115.641 112.196 116.307 100.474C116.972 88.7516 112.623 84.9016 107.769 81.218C102.915 77.5344 87.8004 71.296 79.637 68.8244C71.4737 66.3528 53.5131 66.4776 53.5131 66.4776Z" fill="#92E3A9" stroke="#263238" stroke-miterlimit="10"/>
<path d="M59.377 122.681C58.1887 138.99 56.0142 169.023 56.2043 174.198C56.4717 181.327 53.5664 183.436 53.5664 186.08" stroke="#263238" stroke-miterlimit="10"/>
<path d="M60.1676 112.16C60.1676 112.16 59.9537 114.935 59.627 119.325" stroke="#263238" stroke-miterlimit="10"/>
<path d="M70.7783 133.109L72.2993 151.052L80.8132 150.446L70.7783 133.109Z" fill="#263238" stroke="#263238" stroke-miterlimit="10"/>
<path d="M62.7109 164.394C62.7109 164.394 83.5055 161.127 85.0681 161.471C86.6306 161.816 97.2775 166.973 98.8281 167.317C99.8367 167.556 100.817 167.903 101.751 168.351L104.086 170.306L103.29 164.394C103.29 164.394 100.195 160.61 93.3146 157.859C86.4346 155.108 82.9945 156.671 81.432 157.176C79.8694 157.681 62.7109 164.394 62.7109 164.394Z" fill="#263238" stroke="#263238" stroke-miterlimit="10"/>
<path d="M30.734 148.706L84.7999 148.534C84.7999 148.534 102.22 146.864 102.885 146.692C103.551 146.52 110.425 148.367 111.096 148.872C111.768 149.377 111.762 150.881 111.429 152.39L111.096 153.893C111.341 155.167 111.508 156.454 111.595 157.749C111.595 158.937 110.258 159.252 110.086 159.757C109.914 160.262 111.096 162.098 109.753 163.274L108.417 164.462C108.417 164.462 108.244 167.647 107.579 168.485C106.913 169.322 104.899 170.826 104.062 170.326C103.224 169.827 103.557 168.485 103.557 167.647C103.557 166.809 103.224 165.972 102.22 165.972C101.216 165.972 101.032 166.809 95.8567 165.466C90.6818 164.124 84.9722 159.608 84.4672 159.436C83.9622 159.264 38.5825 171.497 25.1849 173.172C11.7872 174.848 10.6168 173.006 10.1118 170.796C9.60674 168.586 8.77496 163.429 8.77496 163.429L6.39844 153.216L30.734 148.706Z" fill="white" stroke="#263238" stroke-miterlimit="10"/>
<path d="M65.8888 86.107C65.8888 86.107 68.6872 83.1363 70.4518 84.485C72.2163 85.8337 73.8324 92.8682 76.0366 92.28C78.2408 91.6918 82.6552 78.0208 82.6552 72.5786C82.6552 67.1364 78.829 63.9043 77.9497 63.6072C77.0704 63.3102 54.5706 63.0131 51.9208 64.0528C49.271 65.0926 48.2491 74.3432 47.2212 79.928C46.1934 85.5128 48.5402 86.8377 50.0136 86.107C51.4871 85.3762 57.2145 83.0175 58.5394 83.0175C59.8643 83.0175 65.8888 86.107 65.8888 86.107Z" fill="#92E3A9" stroke="#263238" stroke-miterlimit="10"/>
<path d="M80.951 55.1123C80.951 55.1123 78.8419 65.5334 78.022 68.1059C77.2021 70.6785 71.231 78.527 69.7041 80.1668C68.1772 81.8066 63.7331 89.8808 62.5746 90.1185C61.416 90.3561 58.1364 79.3469 58.1364 79.3469C58.1364 79.3469 53.9181 72.0866 53.0982 70.2151C52.2783 68.3436 51.0068 62.842 51.0068 62.842C51.0068 62.842 57.9106 68.7833 65.266 67.5237C72.6213 66.2641 76.3822 58.8613 76.3822 58.8613L80.951 55.1123Z" fill="white" stroke="#263238" stroke-miterlimit="10"/>
<path d="M52.367 34.3519C52.367 34.3519 50.3053 32.1418 49.1289 35.5402C47.9526 38.9386 50.3172 44.9453 50.3172 44.9453L52.367 34.3519Z" fill="white" stroke="#263238" stroke-miterlimit="10"/>
<path d="M52.7351 27.461C52.7351 27.461 49.3427 51.5768 49.3427 53.0087C49.3427 54.4405 48.4039 59.0926 49.812 62.1404C51.2201 65.1883 55.4266 68.9254 58.825 69.3948C62.2234 69.8641 68.8896 69.1631 72.6385 66.234C76.3875 63.3049 80.7128 56.9893 80.7128 56.9893C80.7128 56.9893 85.4005 56.2823 88.4365 54.999C91.4725 53.7157 93.8193 50.7807 93.7064 47.7387C93.5714 45.791 92.8806 43.9229 91.7161 42.3559L89.9337 39.0763L94.6154 30.295C94.6154 30.295 91.924 25.2628 83.2616 20.4622C74.5992 15.6616 66.8695 14.1406 63.2453 14.1406C59.6211 14.1406 55.0463 15.6616 53.7392 18.5907C52.4321 21.5197 52.7351 27.461 52.7351 27.461Z" fill="white" stroke="#263238" stroke-miterlimit="10"/>
<path d="M63.8573 15.6614C63.8573 15.6614 70.5294 26.6647 75.5676 26.2013C80.6059 25.7378 82.1031 23.391 82.1031 23.391L85.4956 27.9539C85.4956 27.9539 81.8714 29.4749 82.5724 31.3524C83.2735 33.2298 86.4343 37.4363 86.4343 37.4363L83.8558 48.4396C83.8558 48.4396 85.8461 48.7901 86.2026 48.089C86.5591 47.388 88.3058 43.0567 88.3058 43.0567C88.778 42.7539 89.2898 42.518 89.8268 42.3557C90.4455 42.2227 91.0855 42.2227 91.7042 42.3557C91.7042 42.3557 92.9876 38.0245 93.4866 37.9056C93.9857 37.7868 98.6377 36.4975 100.396 31.9346C102.155 27.3717 99.4576 20.1114 93.3678 14.3781C87.278 8.64469 74.4032 7.11777 73.7021 6.06022C73.001 5.00267 76.9817 6.52364 76.1618 4.18276C75.3419 1.84189 70.1908 -1.20006 63.6375 2.07954C57.0842 5.35914 58.017 8.98334 58.7181 10.1538L59.4192 11.342C59.4192 11.342 53.9175 9.47053 50.0557 11.8114C46.1938 14.1523 44.3223 18.834 46.075 19.3034C47.8277 19.7728 50.0557 18.7093 50.0557 18.7093C50.0557 18.7093 47.7148 22.5711 48.4159 23.391C49.1169 24.2109 52.7471 27.4846 52.7471 27.4846C52.7471 27.4846 54.1552 19.2915 57.0783 18.1211C60.0014 16.9506 63.8573 15.6614 63.8573 15.6614Z" fill="#263238" stroke="#263238" stroke-miterlimit="10"/>
<path d="M61.7474 31.4658L62.805 34.8642L56.834 46.0993L63.1555 48.559" stroke="#263238" stroke-miterlimit="10"/>
<path d="M60.5768 30.1753C60.5768 30.1753 57.7725 27.9533 55.4257 28.5415C53.0789 29.1297 54.4929 29.4743 56.1327 30.0625C57.7725 30.6507 61.0462 32.1657 60.5768 30.1753Z" fill="#263238" stroke="#263238" stroke-miterlimit="10"/>
<path d="M69.2464 29.713C69.2464 29.713 66.549 30.4141 67.8383 30.9963C69.1276 31.5786 72.9894 30.4022 74.5104 30.9963C76.0314 31.5904 78.0217 33.5748 77.9088 32.6361C77.7359 31.8288 77.3557 31.0804 76.8057 30.4647C76.2556 29.849 75.5546 29.3872 74.7718 29.1248C72.6389 28.4237 69.2464 29.713 69.2464 29.713Z" fill="#263238" stroke="#263238" stroke-miterlimit="10"/>
<path d="M59.0335 35.3745C58.8256 36.2241 58.2552 36.8123 57.7502 36.6875C57.2452 36.5627 57.0075 35.7844 57.2095 34.9348C57.4116 34.0852 57.9938 33.497 58.4929 33.6158C58.9919 33.7347 59.2355 34.5249 59.0335 35.3745Z" fill="#263238"/>
<path d="M71.8003 38.7137C71.5924 39.5574 71.0161 40.1455 70.517 40.0267C70.0179 39.9079 69.7743 39.1177 69.9763 38.2443C70.1784 37.3709 70.7547 36.8065 71.2597 36.9313C71.7647 37.0561 71.9964 37.8641 71.8003 38.7137Z" fill="#263238"/>
<path d="M53.2041 49.96L58.0047 53.1207" stroke="#263238" stroke-miterlimit="10"/>
<path d="M102.577 78.3643C102.577 78.3643 119.153 84.7333 122.338 94.2751C125.522 103.817 121.5 115.878 119.824 120.904C118.149 125.93 107.77 145.519 106.094 150.207C104.419 154.894 101.906 160.592 101.906 160.592C101.906 160.592 99.5646 146.523 93.1896 137.819C86.8146 129.115 85.3174 121.237 85.3174 121.237C85.3174 121.237 96.8732 100.805 99.8855 94.4414" fill="#92E3A9"/>
<path d="M102.577 78.3643C102.577 78.3643 119.153 84.7333 122.338 94.2751C125.522 103.817 121.5 115.878 119.824 120.904C118.149 125.93 107.77 145.519 106.094 150.207C104.419 154.894 101.906 160.592 101.906 160.592C101.906 160.592 99.5646 146.523 93.1896 137.819C86.8146 129.115 85.3174 121.237 85.3174 121.237C85.3174 121.237 96.8732 100.805 99.8855 94.4414" stroke="#263238" stroke-miterlimit="10"/>
<path d="M87.0872 117.699C87.0872 117.699 90.4797 116.006 91.6086 116.57C92.7374 117.135 107.252 124.888 109.135 133.723C110.496 140.369 109.566 147.279 106.497 153.329C104.798 156.537 101.596 162.752 99.1481 163.507C96.7003 164.261 94.6208 144.096 89.535 133.545C84.4493 122.993 87.0872 117.699 87.0872 117.699Z" fill="#92E3A9" stroke="#263238" stroke-miterlimit="10"/>
<path d="M92.6963 108.007C92.6963 108.007 95.7085 97.7937 96.8849 93.7773" stroke="#263238" stroke-miterlimit="10"/>
<path d="M62.456 71.7363C62.456 71.7363 57.7743 65.2009 54.1382 60.8518C50.5021 56.5028 46.7591 53.9421 45.4758 54.3164C44.1924 54.6907 43.6934 55.9562 44.537 57.4772C45.3807 58.9981 49.2188 62.3966 49.9199 63.3353C50.6209 64.274 51.7023 67.6665 51.7023 67.6665C51.7023 67.6665 48.3098 67.8982 47.7216 68.5993C47.1746 69.4131 46.7052 70.2764 46.3194 71.1778C45.6126 71.5356 45.0015 72.0571 44.537 72.6988C44.1875 73.1883 43.9483 73.7477 43.836 74.3386C43.7171 74.8079 42.0536 75.6278 42.1962 77.7311C42.3388 79.8343 44.3053 82.8822 45.0064 84.2665C45.7075 85.6508 50.8586 91.8714 51.7973 92.9289C52.736 93.9865 58.1189 103.344 59.521 106.505C60.9231 109.666 74.505 146.312 78.4857 151.813C82.4663 157.315 89.8395 162.579 93.8202 164.456C97.8009 166.334 100.611 163.167 102.483 159.186C104.354 155.206 105.994 147.244 102.37 138.113C98.7455 128.981 91.5981 121.138 86.0965 116.457C80.5948 111.775 70.2926 100.07 69.1222 97.9612C67.9517 95.8521 66.4545 91.1703 66.4545 91.1703C66.4545 91.1703 69.4965 82.2584 69.7282 80.167C69.9599 78.0757 68.7954 74.3148 69.1341 72.675C69.4727 71.0352 70.8867 67.7556 71.4749 66.3535C72.0631 64.9513 74.0475 62.6045 72.9959 61.5529C71.9443 60.5013 67.6131 61.7846 66.0921 64.2443C64.7356 66.6689 63.5215 69.1705 62.456 71.7363Z" fill="white" stroke="#263238" stroke-miterlimit="10"/>
<path d="M26.2725 97.0883C26.623 95.2286 26.8666 93.9453 26.8666 93.9453L26.2725 97.0883Z" fill="#92E3A9"/>
<path d="M26.2725 97.0883C26.623 95.2286 26.8666 93.9453 26.8666 93.9453" stroke="#263238" stroke-miterlimit="10"/>
<path d="M25.2092 77.8672C25.2092 77.8672 16.3329 79.0555 7.12384 88.918C-2.08519 98.7806 1.93113 122.243 2.76886 127.103C3.60658 131.963 4.94932 146.881 4.94932 146.881L28.5601 139.009C28.5601 139.009 24.7101 112.719 24.3715 110.372C24.2051 109.184 24.8467 105.025 25.5241 101.163" fill="#92E3A9"/>
<path d="M25.2092 77.8672C25.2092 77.8672 16.3329 79.0555 7.12384 88.918C-2.08519 98.7806 1.93113 122.243 2.76886 127.103C3.60658 131.963 4.94932 146.881 4.94932 146.881L28.5601 139.009C28.5601 139.009 24.7101 112.719 24.3715 110.372C24.2051 109.184 24.8467 105.025 25.5241 101.163" stroke="#263238" stroke-miterlimit="10"/>
<path d="M2.60228 141.671C2.60228 141.671 4.9491 154.231 6.11954 154.896C7.28997 155.562 25.5417 150.547 27.5558 150.209C29.5699 149.87 30.7344 150.375 30.7344 148.706C30.7344 147.036 29.0589 139.158 28.0548 137.821C27.0508 136.484 5.28181 139.324 3.44001 139.829C1.5982 140.334 2.60228 141.671 2.60228 141.671Z" fill="#92E3A9" stroke="#263238" stroke-miterlimit="10"/>
<path d="M15.9521 131.963C20.1115 133.629 24.1477 135.586 28.0308 137.821C28.0308 137.821 22.339 127.127 19.9922 124.923" stroke="#263238" stroke-miterlimit="10"/>
<path d="M12.8154 130.786C13.4868 131.018 14.1522 131.261 14.8058 131.505" stroke="#263238" stroke-miterlimit="10"/>
<path d="M67.7363 185.608C72.0675 184.063 76.0542 182.364 78.4307 180.688" stroke="#263238" stroke-miterlimit="10"/>
<path d="M47.3164 191.572C47.3164 191.572 56.567 189.38 65.3483 186.433" stroke="#263238" stroke-miterlimit="10"/>
<path d="M86.2267 179.991C81.6757 182.261 74.4689 185.576 68.5811 187.049" stroke="#263238" stroke-miterlimit="10"/>
<path d="M90.6886 177.675C90.6886 177.675 89.7558 178.192 88.2051 178.988" stroke="#263238" stroke-miterlimit="10"/>
</svg>
