<svg width="18" height="18" viewBox="0 0 18 18" fill="none" xmlns="http://www.w3.org/2000/svg">
<path d="M8.4 2.4V0.6C8.4 0.44087 8.46321 0.288258 8.57574 0.175736C8.68826 0.0632141 8.84087 0 9 0C9.15913 0 9.31174 0.0632141 9.42426 0.175736C9.53679 0.288258 9.6 0.44087 9.6 0.6V2.4C9.6 2.55913 9.53679 2.71174 9.42426 2.82426C9.31174 2.93679 9.15913 3 9 3C8.84087 3 8.68826 2.93679 8.57574 2.82426C8.46321 2.71174 8.4 2.55913 8.4 2.4ZM13.8 9C13.8 9.94935 13.5185 10.8774 12.9911 11.6667C12.4636 12.4561 11.714 13.0713 10.8369 13.4346C9.9598 13.7979 8.99468 13.893 8.06357 13.7078C7.13246 13.5226 6.27718 13.0654 5.60589 12.3941C4.9346 11.7228 4.47744 10.8675 4.29223 9.93643C4.10702 9.00533 4.20208 8.04021 4.56538 7.16312C4.92868 6.28603 5.54391 5.53638 6.33326 5.00895C7.12262 4.48151 8.05065 4.2 9 4.2C10.2726 4.20139 11.4927 4.70755 12.3926 5.60742C13.2925 6.5073 13.7986 7.72739 13.8 9ZM12.6 9C12.6 8.28799 12.3889 7.59196 11.9933 6.99995C11.5977 6.40793 11.0355 5.94651 10.3777 5.67403C9.71985 5.40156 8.99601 5.33027 8.29768 5.46917C7.59934 5.60808 6.95789 5.95095 6.45442 6.45442C5.95095 6.95789 5.60808 7.59934 5.46917 8.29768C5.33027 8.99601 5.40156 9.71985 5.67403 10.3777C5.94651 11.0355 6.40793 11.5977 6.99995 11.9933C7.59196 12.3889 8.28799 12.6 9 12.6C9.95448 12.599 10.8696 12.2194 11.5445 11.5445C12.2194 10.8696 12.599 9.95448 12.6 9ZM3.7755 4.6245C3.88808 4.73708 4.04078 4.80033 4.2 4.80033C4.35922 4.80033 4.51192 4.73708 4.6245 4.6245C4.73708 4.51192 4.80033 4.35922 4.80033 4.2C4.80033 4.04078 4.73708 3.88808 4.6245 3.7755L3.4245 2.5755C3.31192 2.46292 3.15922 2.39967 3 2.39967C2.84078 2.39967 2.68808 2.46292 2.5755 2.5755C2.46292 2.68808 2.39967 2.84078 2.39967 3C2.39967 3.15922 2.46292 3.31192 2.5755 3.4245L3.7755 4.6245ZM3.7755 13.3755L2.5755 14.5755C2.46292 14.6881 2.39967 14.8408 2.39967 15C2.39967 15.1592 2.46292 15.3119 2.5755 15.4245C2.68808 15.5371 2.84078 15.6003 3 15.6003C3.15922 15.6003 3.31192 15.5371 3.4245 15.4245L4.6245 14.2245C4.68025 14.1688 4.72447 14.1026 4.75464 14.0297C4.78481 13.9569 4.80033 13.8788 4.80033 13.8C4.80033 13.7212 4.78481 13.6431 4.75464 13.5703C4.72447 13.4974 4.68025 13.4312 4.6245 13.3755C4.56875 13.3198 4.50257 13.2755 4.42974 13.2454C4.3569 13.2152 4.27884 13.1997 4.2 13.1997C4.12116 13.1997 4.0431 13.2152 3.97026 13.2454C3.89743 13.2755 3.83125 13.3198 3.7755 13.3755ZM13.8 4.8C13.8788 4.80006 13.9569 4.78459 14.0297 4.75448C14.1025 4.72437 14.1687 4.6802 14.2245 4.6245L15.4245 3.4245C15.5371 3.31192 15.6003 3.15922 15.6003 3C15.6003 2.84078 15.5371 2.68808 15.4245 2.5755C15.3119 2.46292 15.1592 2.39967 15 2.39967C14.8408 2.39967 14.6881 2.46292 14.5755 2.5755L13.3755 3.7755C13.2915 3.85941 13.2343 3.96637 13.2111 4.08282C13.1879 4.19927 13.1998 4.31998 13.2452 4.42967C13.2907 4.53937 13.3677 4.63311 13.4664 4.69903C13.5652 4.76496 13.6813 4.80009 13.8 4.8ZM14.2245 13.3755C14.1119 13.2629 13.9592 13.1997 13.8 13.1997C13.6408 13.1997 13.4881 13.2629 13.3755 13.3755C13.2629 13.4881 13.1997 13.6408 13.1997 13.8C13.1997 13.9592 13.2629 14.1119 13.3755 14.2245L14.5755 15.4245C14.6312 15.4802 14.6974 15.5245 14.7703 15.5546C14.8431 15.5848 14.9212 15.6003 15 15.6003C15.0788 15.6003 15.1569 15.5848 15.2297 15.5546C15.3026 15.5245 15.3688 15.4802 15.4245 15.4245C15.4802 15.3688 15.5245 15.3026 15.5546 15.2297C15.5848 15.1569 15.6003 15.0788 15.6003 15C15.6003 14.9212 15.5848 14.8431 15.5546 14.7703C15.5245 14.6974 15.4802 14.6312 15.4245 14.5755L14.2245 13.3755ZM3 9C3 8.84087 2.93679 8.68826 2.82426 8.57574C2.71174 8.46321 2.55913 8.4 2.4 8.4H0.6C0.44087 8.4 0.288258 8.46321 0.175736 8.57574C0.0632141 8.68826 0 8.84087 0 9C0 9.15913 0.0632141 9.31174 0.175736 9.42426C0.288258 9.53679 0.44087 9.6 0.6 9.6H2.4C2.55913 9.6 2.71174 9.53679 2.82426 9.42426C2.93679 9.31174 3 9.15913 3 9ZM9 15C8.84087 15 8.68826 15.0632 8.57574 15.1757C8.46321 15.2883 8.4 15.4409 8.4 15.6V17.4C8.4 17.5591 8.46321 17.7117 8.57574 17.8243C8.68826 17.9368 8.84087 18 9 18C9.15913 18 9.31174 17.9368 9.42426 17.8243C9.53679 17.7117 9.6 17.5591 9.6 17.4V15.6C9.6 15.4409 9.53679 15.2883 9.42426 15.1757C9.31174 15.0632 9.15913 15 9 15ZM17.4 8.4H15.6C15.4409 8.4 15.2883 8.46321 15.1757 8.57574C15.0632 8.68826 15 8.84087 15 9C15 9.15913 15.0632 9.31174 15.1757 9.42426C15.2883 9.53679 15.4409 9.6 15.6 9.6H17.4C17.5591 9.6 17.7117 9.53679 17.8243 9.42426C17.9368 9.31174 18 9.15913 18 9C18 8.84087 17.9368 8.68826 17.8243 8.57574C17.7117 8.46321 17.5591 8.4 17.4 8.4Z" fill="black"/>
</svg>
