<svg width="298" height="304" viewBox="0 0 298 304" fill="none" xmlns="http://www.w3.org/2000/svg">
<path d="M19.7411 203.953C21.088 214.404 25.0756 224.339 31.3278 232.821C37.5799 241.303 45.8903 248.051 55.4746 252.43C96.6177 271.057 168.881 300.813 194.707 292.81C231.65 281.37 307.405 70.4335 295.039 32.5322C282.673 -5.36918 28.3588 20.2541 16.9856 51.5234C8.30048 75.4177 13.2644 154.746 19.7411 203.953Z" fill="#92E3A9"/>
<path opacity="0.7" d="M19.7411 203.953C21.088 214.404 25.0756 224.339 31.3278 232.821C37.5799 241.303 45.8903 248.051 55.4746 252.43C96.6177 271.057 168.881 300.813 194.707 292.81C231.65 281.37 307.405 70.4335 295.039 32.5322C282.673 -5.36918 28.3588 20.2541 16.9856 51.5234C8.30048 75.4177 13.2644 154.746 19.7411 203.953Z" fill="white"/>
<path d="M262.615 201.623C262.62 201.614 262.623 201.604 262.623 201.593C262.623 201.582 262.62 201.572 262.615 201.562C262.615 201.562 262.561 201.562 262.554 201.562C261.149 204.927 260.037 208.407 259.231 211.963C258.421 215.528 257.81 219.136 257.401 222.769L257.145 225.47C257.104 225.923 257.057 226.375 257.023 226.821L256.949 228.172C256.908 229.084 256.854 229.995 256.827 230.907V233.649L256.861 235C256.861 235.452 256.915 235.911 256.942 236.35C257.016 237.262 257.07 238.174 257.151 239.052C257.327 240.869 257.597 242.672 257.881 244.455C257.884 244.465 257.89 244.474 257.899 244.482C257.907 244.489 257.917 244.493 257.928 244.495C257.941 244.495 257.953 244.49 257.961 244.481C257.97 244.473 257.975 244.461 257.975 244.448C257.975 243.536 257.935 242.631 257.914 241.747C257.894 240.862 257.806 239.937 257.82 239.045C257.833 238.154 257.82 237.235 257.82 236.344V234.993V233.642V230.941L257.894 228.239V226.889C257.894 226.436 257.948 225.984 257.975 225.538L258.137 222.836C258.451 219.226 258.967 215.637 259.684 212.085C260.352 208.518 261.333 205.018 262.615 201.623Z" fill="#263238"/>
<path d="M263 215.813C263.006 215.805 263.009 215.796 263.009 215.786C263.009 215.776 263.006 215.767 263 215.759C262.997 215.755 262.992 215.751 262.987 215.749C262.981 215.746 262.976 215.745 262.97 215.745C262.964 215.745 262.959 215.746 262.953 215.749C262.948 215.751 262.943 215.755 262.94 215.759C262.167 218.019 261.522 220.321 261.008 222.654C260.492 224.992 260.111 227.357 259.867 229.739C259.624 232.109 259.36 234.466 259.326 236.877C259.265 239.267 259.348 241.657 259.576 244.036C259.58 244.047 259.587 244.056 259.596 244.062C259.605 244.068 259.616 244.072 259.627 244.072C259.638 244.072 259.649 244.068 259.658 244.062C259.667 244.056 259.674 244.047 259.678 244.036C259.948 241.659 260.117 239.309 260.285 236.918C260.454 234.527 260.474 232.19 260.63 229.8C260.78 227.433 261.062 225.077 261.474 222.742C261.856 220.406 262.366 218.093 263 215.813Z" fill="#263238"/>
<path d="M270.869 220.81C270.864 220.806 270.859 220.802 270.853 220.8C270.847 220.797 270.841 220.796 270.835 220.796C270.829 220.796 270.822 220.797 270.817 220.8C270.811 220.802 270.805 220.806 270.801 220.81C268.836 222.08 267.064 223.627 265.54 225.403C264.788 226.298 264.111 227.254 263.514 228.259L263.088 229.056L262.757 229.887C262.643 230.164 262.555 230.448 262.467 230.731C262.379 231.015 262.291 231.292 262.21 231.575C261.611 233.846 261.246 236.173 261.123 238.518C261.008 240.851 261.096 243.19 261.386 245.508C261.388 245.519 261.394 245.53 261.403 245.537C261.411 245.545 261.422 245.549 261.434 245.549C261.446 245.547 261.457 245.542 261.466 245.533C261.474 245.525 261.48 245.513 261.481 245.501L262.082 238.586C262.244 236.297 262.538 234.02 262.96 231.764C263.021 231.481 263.102 231.211 263.169 230.934C263.235 230.659 263.316 230.389 263.413 230.123L263.696 229.32L264.054 228.563C264.605 227.56 265.235 226.602 265.938 225.7C267.345 223.868 269.01 222.25 270.882 220.898C270.891 220.893 270.897 220.886 270.902 220.877C270.906 220.869 270.908 220.859 270.906 220.849C270.905 220.84 270.9 220.831 270.894 220.824C270.887 220.817 270.878 220.812 270.869 220.81Z" fill="#263238"/>
<path d="M267.059 229.697C266.039 230.446 265.218 231.434 264.669 232.574C264.088 233.695 263.634 234.878 263.318 236.1C263.223 236.397 263.149 236.701 263.081 237.012L262.865 237.93C262.75 238.548 262.671 239.173 262.629 239.801C262.629 240.429 262.629 241.057 262.629 241.678C262.676 242.306 262.757 242.93 262.872 243.549C262.875 243.559 262.88 243.567 262.887 243.574C262.894 243.582 262.903 243.587 262.913 243.59C262.926 243.592 262.94 243.589 262.951 243.581C262.962 243.574 262.97 243.562 262.973 243.549C263.116 242.943 263.226 242.33 263.304 241.712C263.399 241.098 263.493 240.497 263.568 239.889C263.642 239.281 263.737 238.687 263.784 238.079C263.831 237.471 263.912 236.863 264.04 236.269C264.252 235.073 264.597 233.904 265.067 232.784C265.492 231.635 266.187 230.604 267.093 229.778C267.098 229.775 267.102 229.77 267.105 229.764C267.108 229.758 267.11 229.752 267.11 229.746C267.111 229.74 267.11 229.734 267.109 229.727C267.107 229.721 267.104 229.716 267.1 229.711C267.096 229.706 267.091 229.702 267.085 229.699C267.08 229.696 267.074 229.694 267.067 229.694C267.061 229.693 267.055 229.694 267.049 229.695C267.043 229.697 267.037 229.7 267.032 229.704L267.059 229.697Z" fill="#263238"/>
<path d="M256.023 236.626C255.767 233.56 255.26 230.514 254.781 227.475C254.301 224.436 253.774 221.397 253.214 218.378C252.653 215.359 252.039 212.34 251.384 209.335C251.383 209.329 251.381 209.323 251.378 209.318C251.374 209.313 251.37 209.308 251.365 209.305C251.36 209.302 251.354 209.3 251.348 209.299C251.342 209.298 251.335 209.299 251.33 209.301C251.33 209.301 251.289 209.301 251.289 209.355C251.816 212.381 252.3 215.416 252.741 218.459C253.182 221.503 253.61 224.544 254.024 227.583C254.396 230.629 254.7 233.662 255.071 236.728L256.199 245.872C256.199 245.884 256.203 245.895 256.21 245.903C256.218 245.912 256.228 245.918 256.239 245.919C256.253 245.919 256.266 245.915 256.275 245.906C256.285 245.897 256.292 245.885 256.294 245.872C256.294 245.102 256.293 244.332 256.348 243.556C256.402 242.779 256.314 242.016 256.3 241.246C256.307 239.699 256.145 238.166 256.023 236.626Z" fill="#263238"/>
<path d="M254.187 236.572C254.018 235.356 253.795 234.147 253.566 232.939L253.133 231.169C252.991 230.575 252.856 229.974 252.681 229.386C252.073 226.999 251.29 224.661 250.337 222.389L249.966 221.545L249.554 220.721C249.297 220.161 248.98 219.634 248.683 219.094C248.079 218.02 247.334 217.032 246.467 216.156C246.457 216.149 246.446 216.146 246.434 216.146C246.422 216.146 246.41 216.149 246.4 216.156C246.395 216.16 246.392 216.165 246.389 216.171C246.387 216.177 246.386 216.183 246.386 216.19C246.386 216.196 246.387 216.202 246.389 216.208C246.392 216.214 246.395 216.219 246.4 216.223C247.207 217.13 247.888 218.141 248.426 219.229C248.689 219.776 248.973 220.309 249.203 220.877L249.554 221.714L249.878 222.565C250.722 224.843 251.399 227.179 251.904 229.555C252.181 230.737 252.37 231.939 252.58 233.134L252.863 234.931C252.971 235.532 253.1 236.126 253.181 236.727C253.376 237.929 253.593 239.125 253.802 240.327C254.011 241.529 254.214 242.738 254.477 243.94C254.481 243.951 254.487 243.96 254.495 243.967C254.504 243.974 254.514 243.979 254.525 243.981C254.537 243.981 254.549 243.976 254.558 243.967C254.567 243.958 254.572 243.946 254.572 243.933C254.572 242.704 254.572 241.475 254.491 240.253C254.41 239.03 254.315 237.808 254.187 236.572Z" fill="#263238"/>
<path d="M251.641 236.74C251.073 235.126 250.412 233.552 249.696 232.012C248.972 230.469 248.155 228.972 247.251 227.528C247.248 227.522 247.244 227.516 247.239 227.511C247.234 227.507 247.229 227.504 247.222 227.501C247.216 227.499 247.209 227.499 247.203 227.499C247.196 227.5 247.189 227.502 247.184 227.505C247.178 227.509 247.173 227.513 247.169 227.519C247.165 227.524 247.162 227.531 247.161 227.537C247.16 227.544 247.16 227.55 247.161 227.557C247.163 227.564 247.166 227.57 247.17 227.575C247.956 229.075 248.653 230.619 249.257 232.201C249.878 233.775 250.445 235.369 250.911 236.983C251.377 238.597 251.735 240.252 252.168 241.879C252.6 243.507 252.985 245.141 253.485 246.789C253.488 246.799 253.495 246.807 253.503 246.813C253.512 246.819 253.522 246.822 253.532 246.823C253.544 246.823 253.556 246.818 253.565 246.809C253.574 246.8 253.579 246.788 253.579 246.776C253.601 245.06 253.442 243.346 253.106 241.663C252.75 239.985 252.26 238.339 251.641 236.74Z" fill="#263238"/>
<path d="M251.539 242.11C251.227 241.104 250.772 240.149 250.188 239.273C249.644 238.375 248.983 237.553 248.223 236.829C247.833 236.479 247.415 236.163 246.973 235.883C246.535 235.587 246.055 235.359 245.548 235.208C245.54 235.202 245.531 235.199 245.521 235.199C245.512 235.199 245.502 235.202 245.494 235.208C245.49 235.212 245.486 235.216 245.484 235.221C245.482 235.227 245.48 235.232 245.48 235.238C245.48 235.244 245.482 235.25 245.484 235.255C245.486 235.26 245.49 235.265 245.494 235.268C246.4 235.703 247.202 236.327 247.844 237.099C248.503 237.848 249.055 238.684 249.486 239.584C249.952 240.462 250.195 241.441 250.6 242.346C250.782 242.812 250.958 243.285 251.16 243.751C251.336 244.237 251.544 244.711 251.782 245.169C251.795 245.175 251.809 245.175 251.822 245.169C251.836 245.169 251.848 245.165 251.858 245.156C251.868 245.147 251.875 245.135 251.876 245.122C251.893 244.599 251.873 244.075 251.816 243.555C251.768 243.13 251.66 242.65 251.539 242.11Z" fill="#263238"/>
<path d="M251.729 213.73C250.196 213.299 248.809 212.459 247.717 211.301C246.625 210.142 245.869 208.708 245.529 207.152C244.367 201.749 248.115 204.052 244.759 195.536C241.402 187.02 242.179 185.082 243.341 182.63C244.502 180.178 245.144 180.948 246.177 184.177C247.21 187.405 250.952 192.436 252.37 201.858C253.788 211.279 251.729 213.73 251.729 213.73Z" fill="#92E3A9"/>
<path d="M261.663 204.567C261.663 204.567 258.286 203.412 258.178 197.084C258.07 190.756 260.63 192.052 261.021 184.178C261.413 176.303 261.926 170.751 263.345 170.623C264.763 170.495 268.504 174.5 269.794 183.273C271.084 192.046 268.119 197.86 265.54 200.44C262.96 203.02 261.663 204.567 261.663 204.567Z" fill="#92E3A9"/>
<path d="M249.919 221.349C249.919 221.349 249.149 216.702 247.596 214.507C246.042 212.312 242.693 210.374 240.498 206.119C238.303 201.864 235.851 199.791 235.979 205.863C236.108 211.934 238.823 215.027 242.179 217.087C245.536 219.147 249.919 221.349 249.919 221.349Z" fill="#92E3A9"/>
<path d="M248.5 229.351C246.451 225.569 243.887 222.09 240.882 219.012C236.371 214.622 232.778 212.427 234.047 214.622C235.317 216.817 236.884 216.688 239.079 220.558C241.274 224.428 240.625 227.271 243.725 229.466C246.825 231.661 248.5 229.351 248.5 229.351Z" fill="#92E3A9"/>
<path d="M248.115 236.963C247.986 236.578 247.851 233.741 243.468 231.418C239.085 229.095 234.945 229.993 235.465 231.154C235.985 232.316 238.693 234.254 241.402 235.416C243.565 236.213 245.821 236.733 248.115 236.963Z" fill="#92E3A9"/>
<path d="M261.408 221.607C261.408 221.607 259.469 219.156 260.503 213.996C261.536 208.836 263.879 210.119 266.439 207.411C268.999 204.703 268.506 204.311 271.085 201.475C273.665 198.638 275.995 197.085 277.029 198.247C278.062 199.408 276.509 203.021 274.962 205.088C273.415 207.155 270.957 208.188 269.796 210.768C268.634 213.348 269.12 217.481 266.182 219.412C263.245 221.344 261.408 221.607 261.408 221.607Z" fill="#92E3A9"/>
<path d="M267.863 223.024C267.863 223.024 272.517 217.736 275.893 213.867C279.27 209.997 280.54 207.025 280.668 209.605C280.796 212.185 281.83 214.251 279.115 217.608C276.4 220.965 267.863 223.024 267.863 223.024Z" fill="#92E3A9"/>
<path d="M265.411 231.547C265.411 231.547 265.276 229.481 272.638 224.706C279.999 219.931 283.092 219.026 282.316 220.964C281.539 222.903 278.317 224.834 274.833 228.319C271.348 231.804 265.411 231.547 265.411 231.547Z" fill="#92E3A9"/>
<path d="M252.032 213.184C252.032 213.184 250.31 203.925 248.5 197.34C246.69 190.755 245.528 186.757 245.528 186.757" stroke="#263238" stroke-linecap="round" stroke-linejoin="round"/>
<path d="M261.366 204.667C261.366 204.667 264.507 194.631 265.54 188.566C266.573 182.502 265.412 177.984 264.865 175.269" stroke="#263238" stroke-linecap="round" stroke-linejoin="round"/>
<path d="M249.513 221.153C248.129 218.773 246.548 216.514 244.785 214.4C241.942 211.023 239.747 209.24 238.457 206.012" stroke="#263238" stroke-linecap="round" stroke-linejoin="round"/>
<path d="M261.406 221.606C261.406 221.606 262.44 215.413 264.891 212.184C267.343 208.956 272.246 203.925 274.184 200.703" stroke="#263238" stroke-linecap="round" stroke-linejoin="round"/>
<path d="M247.812 236.829C247.812 236.829 243.469 234 240.383 232.453" stroke="#263238" stroke-linecap="round" stroke-linejoin="round"/>
<path d="M272.679 262.844C272.389 255.01 263.683 249.789 263.683 249.789H250.352C250.352 249.789 241.646 255.01 241.356 262.844C241.065 270.678 251.216 299.381 251.216 299.381H262.819C262.819 299.381 272.969 270.671 272.679 262.844Z" fill="#263238" stroke="#263238" stroke-linecap="round" stroke-linejoin="round"/>
<path d="M265.398 242.089H248.379L250.344 249.788H263.439L265.398 242.089Z" fill="#263238" stroke="#263238" stroke-linecap="round" stroke-linejoin="round"/>
<g opacity="0.3">
<path d="M204.346 267.499L214.746 268.695L217.083 258.456L207.506 255.127C207.416 252.65 206.914 250.205 206.021 247.893L213.146 240.789L206.601 232.576L198.281 237.831C196.203 236.322 193.882 235.18 191.419 234.454L190.332 224.647H179.83L178.743 234.454C176.32 235.172 174.036 236.295 171.989 237.777L163.506 232.421L156.935 240.627L164.168 247.833C163.296 250.062 162.79 252.418 162.669 254.809L152.815 258.233L155.152 268.478L165.688 267.27C166.833 269.229 168.268 271.005 169.943 272.537L166.37 282.668L175.825 287.227L181.525 278.116C183.736 278.473 185.988 278.493 188.204 278.177L193.925 287.321L203.38 282.762L199.875 272.814C201.632 271.285 203.14 269.492 204.346 267.499ZM170.854 255.984C170.853 253.17 171.686 250.418 173.249 248.077C174.812 245.736 177.034 243.911 179.634 242.833C182.234 241.755 185.095 241.472 187.856 242.02C190.617 242.569 193.153 243.923 195.144 245.913C197.135 247.903 198.491 250.438 199.04 253.199C199.59 255.959 199.308 258.821 198.232 261.422C197.155 264.022 195.331 266.245 192.991 267.809C190.65 269.373 187.899 270.207 185.084 270.207C181.311 270.207 177.693 268.709 175.025 266.042C172.356 263.375 170.856 259.757 170.854 255.984Z" stroke="black" stroke-miterlimit="10"/>
<path d="M143.522 250.696L150.776 251.526L152.403 244.388L145.724 242.071C145.662 240.346 145.313 238.643 144.691 237.033L149.655 232.083L145.096 226.362L139.295 230.016C137.851 228.962 136.235 228.167 134.52 227.666L133.763 220.831H126.456L125.7 227.666C124.004 228.161 122.405 228.942 120.972 229.975L115.063 226.247L110.497 231.968L115.542 236.986C114.932 238.544 114.576 240.19 114.489 241.862L107.627 244.246L109.261 251.378L116.603 250.54C117.396 251.906 118.394 253.143 119.561 254.207L117.069 261.279L123.667 264.453L127.638 258.104C128.455 258.237 129.282 258.305 130.11 258.307C130.84 258.303 131.568 258.251 132.291 258.152L136.276 264.52L142.867 261.346L140.429 254.41C141.645 253.338 142.689 252.085 143.522 250.696ZM120.202 242.652C120.202 240.691 120.784 238.774 121.873 237.144C122.962 235.514 124.511 234.243 126.322 233.492C128.134 232.742 130.128 232.546 132.051 232.928C133.974 233.311 135.74 234.255 137.127 235.642C138.514 237.028 139.458 238.795 139.84 240.718C140.223 242.641 140.027 244.634 139.276 246.446C138.526 248.258 137.255 249.806 135.625 250.895C133.994 251.985 132.077 252.566 130.117 252.566C127.487 252.566 124.965 251.522 123.106 249.663C121.247 247.803 120.202 245.281 120.202 242.652Z" stroke="black" stroke-miterlimit="10"/>
</g>
<g opacity="0.3">
<path d="M175.161 204.239C182.757 196.643 182.757 184.328 175.161 176.732C167.565 169.136 155.25 169.136 147.654 176.732C140.058 184.328 140.058 196.643 147.654 204.239C155.25 211.835 167.565 211.835 175.161 204.239Z" stroke="black" stroke-linecap="round" stroke-linejoin="round"/>
<path d="M161.635 204.369V201.768C159.71 201.694 158.258 201.093 157.326 199.925C156.394 198.756 155.867 197.048 155.793 194.751L159.731 194.076C159.749 194.861 159.849 195.642 160.028 196.406C160.128 196.929 160.374 197.414 160.737 197.804C160.9 197.96 161.093 198.082 161.304 198.162C161.515 198.242 161.74 198.279 161.966 198.27C162.197 198.295 162.43 198.257 162.639 198.158C162.849 198.059 163.028 197.904 163.155 197.71C163.376 197.316 163.488 196.871 163.479 196.42C163.503 195.575 163.267 194.742 162.803 194.036C162.295 193.309 161.691 192.655 161.007 192.091L158.63 190.064C158.111 189.585 157.626 189.071 157.178 188.525C156.739 187.992 156.394 187.389 156.158 186.742C155.889 185.979 155.761 185.173 155.78 184.364C155.734 183.616 155.843 182.867 156.1 182.163C156.357 181.458 156.756 180.815 157.272 180.272C158.366 179.253 159.79 178.66 161.284 178.604V176.118H162.635V178.604C163.502 178.62 164.351 178.852 165.106 179.279C165.716 179.647 166.22 180.166 166.572 180.785C166.912 181.407 167.157 182.076 167.301 182.77C167.444 183.456 167.536 184.151 167.578 184.851L163.58 185.438C163.568 184.825 163.512 184.213 163.411 183.608C163.352 183.158 163.18 182.731 162.911 182.365C162.772 182.21 162.598 182.091 162.402 182.018C162.207 181.945 161.997 181.921 161.79 181.947C161.557 181.944 161.327 181.998 161.119 182.106C160.912 182.213 160.734 182.369 160.602 182.561C160.333 182.948 160.192 183.408 160.197 183.878C160.163 184.618 160.382 185.346 160.818 185.945C161.241 186.482 161.707 186.986 162.209 187.451L164.532 189.477C165.147 190.036 165.717 190.643 166.234 191.294C166.758 191.951 167.183 192.681 167.497 193.461C167.822 194.325 167.982 195.241 167.97 196.163C167.983 197.098 167.777 198.023 167.369 198.864C166.978 199.666 166.379 200.347 165.633 200.836C164.835 201.358 163.917 201.667 162.966 201.735V204.362L161.635 204.369Z" stroke="black" stroke-linecap="round" stroke-linejoin="round"/>
</g>
<g opacity="0.3">
<path d="M248.812 164C255.572 162.391 259.747 155.606 258.138 148.846C256.529 142.086 249.744 137.911 242.984 139.52C236.224 141.129 232.049 147.914 233.658 154.674C235.267 161.434 242.052 165.609 248.812 164Z" stroke="black" stroke-linecap="round" stroke-linejoin="round"/>
<path d="M246.042 160.735V159.053C245.519 159.069 245 158.97 244.519 158.765C244.039 158.56 243.609 158.252 243.259 157.864C242.566 156.879 242.217 155.692 242.266 154.487L244.813 154.055C244.825 154.565 244.891 155.072 245.008 155.568C245.074 155.905 245.233 156.216 245.468 156.466C245.573 156.569 245.698 156.648 245.835 156.701C245.972 156.753 246.118 156.777 246.265 156.77C246.413 156.787 246.564 156.762 246.699 156.697C246.833 156.633 246.948 156.532 247.028 156.405C247.171 156.152 247.243 155.865 247.237 155.575C247.255 155.028 247.107 154.489 246.812 154.028C246.483 153.559 246.092 153.136 245.65 152.772L244.11 151.421C243.776 151.109 243.463 150.775 243.171 150.422C242.884 150.077 242.656 149.687 242.496 149.267C242.324 148.772 242.241 148.251 242.253 147.727C242.225 147.243 242.297 146.759 242.463 146.304C242.629 145.848 242.886 145.432 243.219 145.08C243.928 144.424 244.847 144.043 245.812 144.006V142.398H246.683V144.046C247.246 144.055 247.797 144.209 248.284 144.492C248.678 144.729 249.004 145.064 249.229 145.465C249.452 145.866 249.611 146.298 249.702 146.748C249.794 147.193 249.855 147.645 249.884 148.099L247.298 148.477C247.29 148.078 247.254 147.681 247.19 147.288C247.149 146.998 247.038 146.722 246.866 146.484C246.775 146.385 246.663 146.309 246.537 146.262C246.411 146.215 246.276 146.199 246.143 146.214C245.992 146.213 245.843 146.249 245.709 146.319C245.575 146.388 245.46 146.489 245.373 146.613C245.199 146.862 245.107 147.159 245.11 147.464C245.084 147.946 245.225 148.423 245.508 148.814C245.784 149.164 246.087 149.491 246.413 149.794L247.912 151.09C248.309 151.454 248.677 151.847 249.013 152.265C249.351 152.692 249.626 153.165 249.83 153.67C250.042 154.233 250.145 154.831 250.134 155.433C250.142 156.036 250.011 156.632 249.749 157.175C249.496 157.693 249.109 158.133 248.628 158.452C248.109 158.786 247.515 158.986 246.899 159.033V160.728L246.042 160.735Z" stroke="black" stroke-linecap="round" stroke-linejoin="round"/>
</g>
<g opacity="0.3">
<path d="M282.215 41.2812H266.985V26.5312C263.97 26.5313 261.023 27.4252 258.517 29.1001C256.01 30.7751 254.056 33.1557 252.902 35.941C251.749 38.7263 251.447 41.7911 252.035 44.7479C252.623 47.7048 254.075 50.4208 256.207 52.5526C258.339 54.6843 261.055 56.1361 264.011 56.7242C266.968 57.3124 270.033 57.0105 272.818 55.8568C275.604 54.7031 277.984 52.7494 279.659 50.2427C281.334 47.736 282.228 44.789 282.228 41.7742C282.228 41.6189 282.221 41.45 282.215 41.2812Z" stroke="black" stroke-miterlimit="10"/>
<path d="M283.715 39.7822H268.465V25.0391C272.424 25.0335 276.23 26.5693 279.076 29.3213C281.923 32.0732 283.586 35.8251 283.715 39.7822Z" stroke="black" stroke-miterlimit="10"/>
</g>
<g opacity="0.3">
<path d="M59.2977 33.1865H48.0664V67.8529H59.2977V33.1865Z" stroke="black" stroke-linecap="round" stroke-linejoin="round"/>
<path d="M74.4325 45.3975H63.2012V67.86H74.4325V45.3975Z" stroke="black" stroke-linecap="round" stroke-linejoin="round"/>
<path d="M89.5672 53.4541H78.3359V67.8596H89.5672V53.4541Z" stroke="black" stroke-linecap="round" stroke-linejoin="round"/>
<path d="M87.6155 51.1718L85.5894 41.0414L83.4755 42.9054L72.1835 30.0735C71.8796 29.7223 71.4773 29.4705 71.0286 29.3509L50.0924 23.6846L48.8564 28.2433L69.1173 33.7272L79.9231 45.9986L77.8025 47.8626L87.6155 51.1718Z" stroke="black" stroke-miterlimit="10"/>
</g>
<path d="M210.254 0.897461H159.284C155.562 0.897461 152.544 3.91511 152.544 7.63758V57.6347C152.544 61.3571 155.562 64.3748 159.284 64.3748H210.254C213.976 64.3748 216.994 61.3571 216.994 57.6347V7.63758C216.994 3.91511 213.976 0.897461 210.254 0.897461Z" fill="#263238"/>
<path d="M277.149 129.628H92.4033C92.6116 105.266 102.436 81.973 119.736 64.8197C137.037 47.6663 160.413 38.042 184.776 38.042C209.139 38.042 232.515 47.6663 249.816 64.8197C267.117 81.973 276.94 105.266 277.149 129.628Z" fill="#92E3A9" stroke="#263238" stroke-linejoin="round"/>
<path d="M272.549 129.628H97.002C97.5341 106.702 107.015 84.8937 123.418 68.8672C139.821 52.8408 161.843 43.8682 184.775 43.8682C207.708 43.8682 229.73 52.8408 246.133 68.8672C262.536 84.8937 272.017 106.702 272.549 129.628Z" fill="white" stroke="#263238" stroke-linejoin="round"/>
<path d="M235.539 58.4785L185.116 129.628L184.779 130.101L184.441 129.628L134.019 58.4852C148.857 47.9712 166.593 42.3242 184.779 42.3242C202.964 42.3242 220.701 47.9712 235.539 58.4852V58.4785Z" fill="white" stroke="#263238" stroke-linejoin="round"/>
<path d="M219.371 129.628H150.18C150.307 120.537 154.007 111.86 160.482 105.476C166.956 99.0919 175.683 95.5127 184.775 95.5127C193.868 95.5127 202.595 99.0919 209.069 105.476C215.543 111.86 219.244 120.537 219.371 129.628Z" fill="white" stroke="#263238" stroke-linejoin="round"/>
<path d="M211.017 152.388C210.668 152.794 210.242 153.126 209.764 153.366C209.286 153.606 208.765 153.749 208.231 153.787C207.697 153.825 207.162 153.756 206.654 153.586C206.147 153.415 205.679 153.146 205.276 152.793L134.924 90.4169L138.456 86.3242L210.571 146.648C210.98 146.994 211.315 147.418 211.559 147.894C211.803 148.371 211.95 148.891 211.991 149.425C212.032 149.959 211.968 150.495 211.801 151.004C211.633 151.513 211.367 151.983 211.017 152.388Z" fill="#263238"/>
<path d="M184.773 149.735C195.616 149.735 204.406 140.945 204.406 130.103C204.406 119.26 195.616 110.47 184.773 110.47C173.931 110.47 165.141 119.26 165.141 130.103C165.141 140.945 173.931 149.735 184.773 149.735Z" fill="white" stroke="#263238" stroke-linejoin="round"/>
<path d="M184.773 140.806C190.685 140.806 195.477 136.014 195.477 130.102C195.477 124.19 190.685 119.397 184.773 119.397C178.861 119.397 174.068 124.19 174.068 130.102C174.068 136.014 178.861 140.806 184.773 140.806Z" fill="#263238" stroke="#263238" stroke-linejoin="round"/>
<g opacity="0.28">
<path d="M115.155 110.043V97.4473H117.458V108.462H120.558V110.043H115.155Z" fill="black"/>
<path d="M124.996 110.219C124.254 110.255 123.516 110.082 122.868 109.72C122.335 109.387 121.932 108.881 121.727 108.288C121.488 107.576 121.374 106.829 121.389 106.079V101.352C121.374 100.611 121.488 99.8722 121.727 99.1704C121.934 98.5879 122.337 98.0958 122.868 97.7791C123.536 97.4591 124.268 97.293 125.009 97.293C125.75 97.293 126.482 97.4591 127.15 97.7791C127.676 98.1 128.076 98.5908 128.285 99.1704C128.535 99.8697 128.654 100.609 128.636 101.352V106.079C128.653 106.822 128.534 107.561 128.285 108.261C128.075 108.851 127.676 109.354 127.15 109.693C126.497 110.071 125.749 110.253 124.996 110.219ZM124.996 108.524C125.3 108.55 125.604 108.461 125.846 108.274C126.034 108.092 126.161 107.856 126.211 107.599C126.275 107.286 126.307 106.966 126.306 106.647V100.825C126.308 100.507 126.276 100.19 126.211 99.8795C126.165 99.6211 126.037 99.3843 125.846 99.2041C125.602 99.0225 125.299 98.9361 124.996 98.961C124.701 98.9397 124.408 99.0261 124.172 99.2041C123.974 99.3797 123.842 99.6183 123.8 99.8795C123.735 100.19 123.703 100.507 123.706 100.825V106.626C123.702 106.946 123.732 107.265 123.793 107.579C123.835 107.839 123.964 108.077 124.158 108.254C124.393 108.446 124.692 108.542 124.996 108.524Z" fill="black"/>
<path d="M131.655 110.043L129.865 97.4473H131.79L132.837 105.612L134.14 97.508H135.714L137.065 105.612L138.078 97.4473H139.975L138.219 110.043H136.349L134.951 101.601L133.566 110.043H131.655Z" fill="black"/>
</g>
<g opacity="0.28">
<path d="M227.266 110.045V97.4492H229.548V102.724H232.115V97.4492H234.418V110.045H232.115V104.358H229.548V110.045H227.266Z" fill="black"/>
<path d="M236.416 110.045V97.4492H238.685V110.045H236.416Z" fill="black"/>
<path d="M243.785 110.219C243.088 110.255 242.398 110.071 241.813 109.692C241.316 109.312 240.952 108.785 240.773 108.186C240.549 107.444 240.442 106.672 240.455 105.897V101.662C240.442 100.874 240.546 100.089 240.766 99.3321C240.944 98.7177 241.334 98.1865 241.867 97.8328C242.521 97.4463 243.276 97.2629 244.035 97.306C244.736 97.2781 245.434 97.4292 246.061 97.745C246.557 98.0249 246.943 98.4656 247.155 98.9944C247.394 99.6283 247.509 100.303 247.493 100.98V101.655H245.298V100.939C245.304 100.588 245.274 100.238 245.21 99.8926C245.177 99.6359 245.058 99.3979 244.872 99.2172C244.63 99.0486 244.336 98.9698 244.041 98.9944C243.881 98.98 243.72 98.999 243.568 99.0502C243.416 99.1013 243.276 99.1835 243.157 99.2915C242.969 99.5109 242.852 99.7814 242.819 100.068C242.769 100.419 242.744 100.774 242.745 101.129V106.396C242.74 106.778 242.778 107.158 242.86 107.531C242.91 107.815 243.049 108.075 243.258 108.274C243.5 108.457 243.799 108.548 244.102 108.531C244.412 108.552 244.718 108.45 244.953 108.247C245.168 108.037 245.312 107.766 245.365 107.47C245.452 107.082 245.493 106.686 245.487 106.288V105.106H244.136V103.661H247.56V110.05H246.081L245.912 108.807C245.756 109.209 245.495 109.561 245.156 109.827C244.756 110.108 244.273 110.246 243.785 110.219Z" fill="black"/>
<path d="M249.356 110.045V97.4492H251.639V102.724H254.206V97.4492H256.509V110.045H254.206V104.358H251.639V110.045H249.356Z" fill="black"/>
</g>
<path d="M164.106 28.3985V8.62388H168.834C169.978 8.59743 171.119 8.75943 172.211 9.10339C173.079 9.38086 173.823 9.95454 174.311 10.7243C174.839 11.6789 175.089 12.7619 175.034 13.8512C175.042 14.5732 174.967 15.2938 174.811 15.9988C174.687 16.5876 174.433 17.1413 174.068 17.6197C173.686 18.0904 173.185 18.4497 172.616 18.6598L175.371 28.3985H171.758L169.368 19.3419H167.706V28.3985H164.106ZM167.72 17.0794H168.841C169.415 17.1044 169.987 17.0005 170.516 16.7755C170.925 16.5729 171.244 16.2232 171.407 15.7962C171.603 15.2439 171.695 14.6599 171.677 14.0741C171.734 13.2891 171.54 12.5065 171.123 11.8386C170.759 11.3456 170.063 11.0957 169.037 11.0957H167.72V17.0794Z" fill="#92E3A9"/>
<path d="M177.85 28.3986V8.62402H181.416V28.3986H177.85Z" fill="#92E3A9"/>
<path d="M189.446 28.6679C188.411 28.7118 187.383 28.4786 186.468 27.9925C185.667 27.5255 185.035 26.8159 184.664 25.9664C184.225 24.923 183.995 23.803 183.989 22.6706L187.089 22.0628C187.106 22.7463 187.199 23.4259 187.366 24.0889C187.47 24.5901 187.703 25.0556 188.041 25.4396C188.207 25.6007 188.404 25.7262 188.62 25.8087C188.836 25.8911 189.067 25.9287 189.297 25.9191C189.533 25.942 189.771 25.9058 189.989 25.8139C190.207 25.7219 190.399 25.577 190.547 25.3923C190.807 24.9916 190.935 24.519 190.912 24.0416C190.943 23.2906 190.738 22.5486 190.324 21.921C189.877 21.3007 189.356 20.7381 188.771 20.2461L186.279 18.0444C185.604 17.474 185.037 16.7879 184.604 16.0183C184.165 15.1726 183.951 14.2284 183.982 13.2763C183.944 12.606 184.05 11.9351 184.293 11.3093C184.537 10.6835 184.912 10.1175 185.394 9.64964C186.426 8.75617 187.766 8.30064 189.129 8.37996C189.922 8.35489 190.712 8.49996 191.445 8.80544C192.033 9.06396 192.542 9.47135 192.924 9.98732C193.295 10.5092 193.572 11.0921 193.741 11.7095C193.921 12.3719 194.034 13.0506 194.079 13.7356L191.006 14.2691C190.981 13.7128 190.911 13.1595 190.797 12.6145C190.725 12.1855 190.53 11.7866 190.236 11.4664C190.078 11.3193 189.892 11.2062 189.689 11.1342C189.485 11.0622 189.27 11.0327 189.054 11.0476C188.822 11.0327 188.588 11.0726 188.374 11.1641C188.159 11.2556 187.969 11.3961 187.818 11.5744C187.529 11.9463 187.379 12.4071 187.393 12.8779C187.367 13.4555 187.511 14.0281 187.805 14.5258C188.138 15.032 188.543 15.4871 189.007 15.8765L191.472 18.0714C192.279 18.7558 192.976 19.5599 193.539 20.4554C194.145 21.4748 194.445 22.647 194.403 23.8323C194.417 24.7094 194.203 25.5752 193.782 26.3446C193.372 27.0671 192.772 27.6629 192.046 28.0668C191.245 28.487 190.35 28.694 189.446 28.6679Z" fill="#92E3A9"/>
<path d="M196.334 28.3986V8.62402H199.947V17.3159L203.851 8.62402H207.295L203.506 17.4645L207.68 28.3986H204.087L200.771 19.3893L199.94 20.9021V28.3986H196.334Z" fill="#92E3A9"/>
<g opacity="0.28">
<path d="M161.675 69.1638L161.898 56.5615H164.275L166.065 65.2872L167.929 56.5615H170.232L170.468 69.1638H168.753L168.57 60.3841L166.781 69.1638H165.396L163.573 60.3841L163.404 69.1638H161.675Z" fill="black"/>
<path d="M172.238 69.1638V56.5615H177.526V58.1824H174.541V61.8091H176.892V63.4097H174.541V67.5767H177.56V69.1638H172.238Z" fill="black"/>
<path d="M178.897 69.1622V56.5599H181.869C182.69 56.521 183.509 56.6663 184.267 56.9854C184.826 57.2432 185.265 57.7045 185.496 58.2753C185.761 58.9805 185.884 59.7308 185.86 60.4838V65.083C185.884 65.8601 185.76 66.6345 185.496 67.3657C185.272 67.9487 184.841 68.4292 184.287 68.7164C183.556 69.0471 182.758 69.1999 181.957 69.1622H178.897ZM181.2 67.5616H181.876C182.275 67.5989 182.676 67.4988 183.01 67.2779C183.252 67.0705 183.405 66.7778 183.436 66.4607C183.489 66.026 183.514 65.5884 183.51 65.1505V60.3014C183.52 59.8889 183.484 59.4766 183.402 59.0722C183.346 58.7965 183.183 58.554 182.95 58.3969C182.608 58.2292 182.228 58.1546 181.849 58.1808H181.173L181.2 67.5616Z" fill="black"/>
<path d="M187.623 69.1638V56.5615H189.892V69.1638H187.623Z" fill="black"/>
<path d="M195.288 69.3326C194.529 69.3775 193.773 69.1991 193.114 68.8194C192.593 68.4771 192.212 67.9596 192.04 67.3606C191.828 66.6209 191.728 65.8538 191.743 65.0846V56.5615H193.985V65.3412C193.981 65.7118 194.006 66.0821 194.059 66.4488C194.096 66.7596 194.223 67.0529 194.424 67.293C194.537 67.4041 194.673 67.4899 194.822 67.5446C194.971 67.5993 195.13 67.6218 195.288 67.6105C195.449 67.6246 195.611 67.6036 195.762 67.5488C195.914 67.4939 196.052 67.4067 196.166 67.293C196.362 67.0506 196.486 66.7581 196.524 66.4488C196.585 66.0829 196.615 65.7123 196.612 65.3412V56.5615H198.834V65.0846C198.848 65.8538 198.748 66.6209 198.537 67.3606C198.368 67.9572 197.992 68.4743 197.476 68.8194C196.813 69.2009 196.052 69.3794 195.288 69.3326Z" fill="black"/>
<path d="M200.61 69.1638L200.826 56.5615H203.204L204.98 65.2872L206.844 56.5615H209.147L209.383 69.1638H207.681L207.499 60.3841L205.709 69.1638H204.305L202.488 60.3841L202.312 69.1638H200.61Z" fill="black"/>
</g>
<path d="M97.3135 137.044C100.832 132.708 103.979 135.254 107.498 130.918C111.017 126.583 107.869 124.023 111.388 119.68C114.907 115.338 118.054 117.897 121.573 113.555C125.091 109.212 121.944 106.659 125.463 102.317C128.981 97.9743 132.135 100.527 135.654 96.1846" stroke="#92E3A9" stroke-linecap="round" stroke-linejoin="round"/>
<path d="M104.668 143.008C108.187 138.672 111.334 141.225 114.852 136.882C118.371 132.54 115.224 129.987 118.743 125.651C122.261 121.315 125.408 123.861 128.934 119.519C132.459 115.176 129.305 112.623 132.824 108.281C136.342 103.938 139.49 106.491 143.008 102.148" stroke="#92E3A9" stroke-linecap="round" stroke-linejoin="round"/>
<path d="M112.029 148.971C115.548 144.635 118.695 147.188 122.214 142.845C125.732 138.503 122.585 135.957 126.104 131.614C129.623 127.271 132.77 129.824 136.288 125.482C139.807 121.139 136.66 118.586 140.178 114.244C143.697 109.901 146.844 112.454 150.37 108.118" stroke="#92E3A9" stroke-linecap="round" stroke-linejoin="round"/>
<path d="M119.384 154.941C122.902 150.599 126.05 153.152 129.568 148.809C133.087 144.467 129.94 141.92 133.458 137.578C136.977 133.235 140.124 135.788 143.643 131.446C147.161 127.103 144.014 124.557 147.54 120.214C151.065 115.872 154.205 118.425 157.724 114.082" stroke="#92E3A9" stroke-linecap="round" stroke-linejoin="round"/>
<path d="M1 299.394H297.072" stroke="#263238" stroke-linecap="round" stroke-linejoin="round"/>
<path d="M15.6626 283.929C15.6626 283.929 14.886 295.41 15.7909 297.733C16.6959 300.056 19.9174 303.663 21.8692 302.893C23.821 302.123 23.2875 297.598 23.2875 294.505C23.2875 291.412 24.0641 286.765 24.0641 285.995C24.0641 285.225 15.6626 283.929 15.6626 283.929Z" fill="white" stroke="#263238" stroke-linejoin="round"/>
<path d="M75.1216 291.668C75.1216 291.668 74.865 299.536 76.2833 300.049C77.7015 300.563 85.8261 299.664 87.2444 299.921C88.6627 300.178 93.1808 300.441 94.8557 299.921C96.5306 299.401 98.7256 298.503 98.0772 297.22C97.4289 295.936 89.1827 292.452 87.3727 291.29C85.5627 290.128 82.3413 287.913 82.3413 287.913L75.1216 291.668Z" fill="white" stroke="#263238" stroke-linejoin="round"/>
<path d="M32.6879 195.963C32.6879 195.963 32.0125 200.481 31.7829 208.349C31.5533 216.217 34.2345 232.595 34.2345 232.595L30.8576 251.687L17.9582 281.093C17.9582 281.093 14.865 281.869 15.6417 283.929C16.4184 285.989 19.1198 288.184 20.6664 288.184C22.213 288.184 24.2796 287.542 24.928 286.509C25.5763 285.476 25.8262 282.896 25.8262 282.896C25.8262 282.896 48.2685 252.977 48.6602 251.944C49.0519 250.911 52.6583 235.06 52.6583 235.06L61.9446 247.568L74.844 286.138C74.5668 286.549 74.3874 287.019 74.3195 287.51C74.2516 288.002 74.297 288.503 74.4523 288.974C74.9723 290.649 75.8706 292.972 75.8706 292.972C77.0652 292.894 78.2406 292.632 79.3554 292.196C80.9534 291.539 82.4338 290.626 83.7385 289.494C84.0611 288.767 84.153 287.959 84.0019 287.178C83.7385 285.888 82.9686 285.368 83.0969 284.334C83.2253 283.301 78.5788 246.548 77.8088 244.096C77.0389 241.645 59.2364 204.756 59.2364 204.756L57.9464 195.342C49.7894 198.132 40.9722 198.349 32.6879 195.963Z" fill="#263238" stroke="#263238" stroke-linejoin="round"/>
<path d="M50.7471 115.683C50.7471 115.683 45.6549 113.657 41.5419 114.717C37.429 115.778 31.0063 121.424 31.4723 124.746C31.9383 128.069 39.5158 135.329 39.5158 135.329L39.2254 141.961L52.4153 147.655L54.2928 139.179C54.2928 139.179 59.1351 137.943 58.9528 137.22C58.7704 136.498 57.6561 129.906 57.6561 129.906C57.862 129.769 58.0383 129.592 58.1744 129.386C58.3106 129.179 58.4038 128.948 58.4485 128.704C58.4933 128.461 58.4886 128.211 58.4348 127.97C58.3811 127.729 58.2793 127.5 58.1356 127.299C57.1936 125.885 56.1461 124.544 55.0019 123.288C55.0019 123.288 55.6502 120.539 50.7471 115.683Z" fill="white" stroke="#263238" stroke-linecap="round" stroke-linejoin="round"/>
<path d="M54.2804 139.178C54.2804 139.178 51.1805 139.178 50.6672 139.091C49.411 138.511 48.1869 137.864 47 137.152L52.7068 145.399L54.2804 139.178Z" fill="#263238" stroke="#263238" stroke-linecap="round" stroke-linejoin="round"/>
<path d="M54.2195 124.983C54.5437 125.496 54.6382 126.016 54.4289 126.144C54.2195 126.273 53.7535 125.976 53.4631 125.469C53.1727 124.963 53.0444 124.442 53.2537 124.307C53.4631 124.172 53.8953 124.463 54.2195 124.983Z" fill="#263238"/>
<path d="M53.8 122.605C53.4291 122.522 53.0406 122.575 52.7057 122.754C52.3708 122.934 52.1119 123.229 51.9766 123.584" stroke="#263238" stroke-linecap="round" stroke-linejoin="round"/>
<path d="M56.8993 131.892C56.0269 132.112 55.1031 131.981 54.3262 131.527" stroke="#263238" stroke-linecap="round" stroke-linejoin="round"/>
<path d="M51.6189 116.817L46.216 119.634C46.216 119.634 48.2893 121.018 47.8436 122.274L47.4046 123.537L47.5194 128.474L46.1282 129.021C46.1282 129.021 41.9342 126.083 40.9144 128.825C39.8946 131.567 43.4537 133.553 43.4537 133.553C43.4537 133.553 41.9882 136.794 40.6442 137.517C39.3003 138.24 40.0567 135.95 37.4025 135.288C34.7483 134.627 29.7371 129.98 29.6291 127.333C29.521 124.685 30.8447 118.614 35.3224 115.939C39.8 113.265 42.8932 112.644 45.4258 112.765C47.9584 112.887 50.437 111.414 51.2542 113.143C51.7407 114.304 51.8677 115.584 51.6189 116.817Z" fill="#263238" stroke="#263238" stroke-linecap="round" stroke-linejoin="round"/>
<path d="M38.2331 141.921C35.0936 146.372 32.7829 151.352 31.4119 156.624C29.4736 164.728 29.0886 174.426 30.7365 179.322C32.3844 184.219 32.1548 192.87 32.1548 192.87C32.1548 192.87 30.8648 195.322 32.2831 196.868C33.7014 198.415 42.731 201.252 50.5989 200.09C58.4669 198.928 58.7033 196.997 59.1153 195.707C59.5272 194.417 59.3719 176.878 57.697 169.01C56.4166 162.864 54.8275 156.787 52.9357 150.802C51.7741 147.337 38.2331 141.921 38.2331 141.921Z" fill="white" stroke="#263238" stroke-linejoin="round"/>
<path d="M38.4019 137.599L54.7389 148.371L54.4823 154.179L36.6797 142.178L38.4019 137.599Z" fill="white" stroke="#263238" stroke-linejoin="round"/>
<path d="M122.369 160.473L113.772 153.044L110.854 151.322L92.7546 183.739C87.1423 190.358 78.2073 191.999 72.7909 187.407C67.3744 182.814 67.5365 173.731 73.1488 167.112L100.244 141.691L92.2413 134.661L88.7294 132.554L61.0395 161.912C58.8759 164.462 57.2359 167.414 56.2132 170.599C55.1904 173.783 54.8049 177.138 55.0786 180.472C55.3524 183.805 56.28 187.052 57.8086 190.027C59.3372 193.002 61.4368 195.647 63.9875 197.811C66.5382 199.974 69.4901 201.614 72.6746 202.637C75.8592 203.66 79.214 204.045 82.5475 203.772C85.881 203.498 89.128 202.57 92.103 201.042C95.078 199.513 97.7228 197.413 99.8864 194.863L122.369 160.473Z" fill="#263238" stroke="#263238" stroke-linejoin="round"/>
<path d="M113.773 153.042L110.855 151.313L101.535 168.022L109.518 174.654L111.97 176.376L122.37 160.478L113.773 153.042Z" fill="#263238" stroke="#263238" stroke-linecap="round" stroke-linejoin="round"/>
<path d="M83.9893 153.004L86.0897 154.989L100.245 141.712L92.2422 134.661L88.7304 132.554L79.667 142.164L83.9893 153.004Z" fill="#263238" stroke="#263238" stroke-linecap="round" stroke-linejoin="round"/>
<path d="M119.81 158.906L110.855 151.308L90.2024 182.192C84.5902 188.811 75.6484 190.452 70.2319 185.859C64.8155 181.267 64.9776 172.176 70.5899 165.558L97.6922 140.144L88.7301 132.566L58.4739 160.364C54.2113 165.53 52.1542 172.166 52.7478 178.836C53.3413 185.507 56.5377 191.676 61.6452 196.007C66.7528 200.339 73.3606 202.485 80.0386 201.981C86.7166 201.477 92.9276 198.364 97.3275 193.315L119.81 158.906Z" fill="white" stroke="#263238" stroke-linejoin="round"/>
<path d="M109.519 174.654L119.811 158.911L110.856 151.313L100.408 166.928L109.519 174.654Z" fill="#92E3A9" stroke="#263238" stroke-linejoin="round"/>
<path d="M83.9886 153.004L97.6849 140.152L88.7296 132.554L74.8779 145.278L83.9886 153.004Z" fill="#92E3A9" stroke="#263238" stroke-linejoin="round"/>
<path d="M53.0644 184.224L81.0514 198.156C82.2063 197.208 83.2857 196.172 84.2797 195.056C84.6288 194.545 85.0877 194.118 85.6227 193.806C86.1578 193.494 86.7557 193.305 87.3728 193.253C88.5345 193.125 89.3111 193.638 90.7497 192.483C92.1882 191.328 92.4246 191.578 91.9113 192.868C91.398 194.158 91.2359 194.671 90.1013 194.8C89.4154 194.879 88.7556 195.11 88.1698 195.475C88.1698 195.475 91.5466 197.535 92.2962 197.927C93.0459 198.318 93.7145 198.953 93.4579 199.345C93.2012 199.737 93.4579 200.372 92.6812 200.372H91.0063C90.2608 201.048 89.5698 201.782 88.9397 202.566C87.9131 203.856 86.8798 204.505 85.7182 204.633C83.3706 204.749 81.0196 204.487 78.7552 203.856C76.0538 203.087 53.598 196.117 50.6331 194.955C48.2724 193.896 46.0254 192.599 43.9268 191.085L53.0644 184.224Z" fill="white" stroke="#263238" stroke-linejoin="round"/>
<path d="M35.6528 152.623C35.6528 152.623 31.9113 155.588 32.276 159.458C32.6407 163.328 39.759 189.383 39.759 189.383L52.5301 181.515C52.5301 181.515 48.532 159.721 46.2087 155.98C43.8855 152.238 41.1773 151.59 41.1773 151.59" fill="white"/>
<path d="M35.6528 152.623C35.6528 152.623 31.9113 155.588 32.276 159.458C32.6407 163.328 39.759 189.383 39.759 189.383L52.5301 181.515C52.5301 181.515 48.532 159.721 46.2087 155.98C43.8855 152.238 41.1773 151.59 41.1773 151.59" stroke="#263238" stroke-linejoin="round"/>
<path d="M52.5508 177.902L37.4902 187.324C37.4902 187.324 39.0368 192.727 40.1917 193.638L41.3533 194.543C41.3533 194.543 53.7395 186.034 54.5094 184.872C55.2793 183.71 52.9358 178.551 52.5508 177.902Z" fill="white" stroke="#263238" stroke-linejoin="round"/>
<path d="M77.3937 157.403L77.1442 157.62C76.756 157.958 76.7155 158.547 77.0536 158.935L79.1341 161.324C79.4722 161.712 80.061 161.752 80.4491 161.414L80.6986 161.197C81.0867 160.859 81.1273 160.27 80.7892 159.882L78.7086 157.493C78.3705 157.105 77.7818 157.065 77.3937 157.403Z" fill="white" stroke="#263238" stroke-linejoin="round"/>
<path d="M76.0656 159.465L75.816 159.683C75.4279 160.021 75.3874 160.61 75.7255 160.998L77.3003 162.805C77.6384 163.194 78.2271 163.234 78.6152 162.896L78.8647 162.679C79.2529 162.341 79.2934 161.752 78.9553 161.364L77.3805 159.556C77.0424 159.168 76.4537 159.127 76.0656 159.465Z" fill="white" stroke="#263238" stroke-linejoin="round"/>
<path d="M74.3263 161.204L74.0768 161.421C73.6886 161.759 73.6481 162.348 73.9862 162.736L75.561 164.544C75.8991 164.932 76.4878 164.972 76.876 164.634L77.1255 164.417C77.5136 164.079 77.5541 163.49 77.216 163.102L75.6412 161.294C75.3031 160.906 74.7144 160.866 74.3263 161.204Z" fill="white" stroke="#263238" stroke-linejoin="round"/>
<path d="M72.6056 162.734L72.3561 162.951C71.9679 163.289 71.9274 163.878 72.2655 164.266L73.4899 165.672C73.828 166.06 74.4167 166.1 74.8048 165.762L75.0543 165.545C75.4424 165.207 75.483 164.618 75.1449 164.23L73.9205 162.824C73.5824 162.436 72.9937 162.396 72.6056 162.734Z" fill="white" stroke="#263238" stroke-linejoin="round"/>
</svg>
