<svg width="274" height="275" viewBox="0 0 274 275" fill="none" xmlns="http://www.w3.org/2000/svg">
<path d="M250.916 178.205C250.916 178.205 281.27 144.09 271.621 84.7308C261.973 25.3712 212.404 3.50123 179.531 14.9264C146.658 26.3515 139.243 46.2371 112.394 57.6087C85.5455 68.9804 34.5275 61.1735 9.01551 99.3702C-16.4965 137.567 16.0738 200.86 57.5382 240.548C99.0026 280.235 204.811 255.389 250.916 178.205Z" fill="#92E3A9"/>
<path opacity="0.7" d="M250.916 178.205C250.916 178.205 281.27 144.09 271.621 84.7308C261.973 25.3712 212.404 3.50123 179.531 14.9264C146.658 26.3515 139.243 46.2371 112.394 57.6087C85.5455 68.9804 34.5275 61.1735 9.01551 99.3702C-16.4965 137.567 16.0738 200.86 57.5382 240.548C99.0026 280.235 204.811 255.389 250.916 178.205Z" fill="white"/>
<path d="M27.6299 274.052H265.371" stroke="#263238" stroke-miterlimit="10"/>
<path d="M64.5195 183.75L73.9543 273.933" stroke="#263238" stroke-width="2" stroke-miterlimit="10"/>
<path d="M72.2786 255.43L68.084 250.998" stroke="#263238" stroke-width="2" stroke-miterlimit="10"/>
<path d="M69.3612 252.329C69.3537 251.65 69.2008 250.981 68.9128 250.366C68.6248 249.751 68.2084 249.205 67.6917 248.765C66.6163 247.802 60.9483 245.42 60.4136 247.416C59.8254 249.59 65.6241 253.856 69.3612 252.329Z" fill="#92E3A9" stroke="#263238" stroke-miterlimit="10"/>
<path d="M69.3625 252.329L63.9678 248.966" stroke="#263238" stroke-width="0.5" stroke-miterlimit="10"/>
<path d="M73.3293 265.513L69.1348 261.081" stroke="#263238" stroke-width="2" stroke-miterlimit="10"/>
<path d="M70.4129 262.412C70.4054 261.733 70.2525 261.064 69.9646 260.449C69.6766 259.834 69.2602 259.288 68.7434 258.848C67.668 257.885 62 255.503 61.4653 257.499C60.8771 259.673 66.6758 263.933 70.4129 262.412Z" fill="#92E3A9" stroke="#263238" stroke-miterlimit="10"/>
<path d="M70.4133 262.407L65.0186 259.05" stroke="#263238" stroke-width="0.5" stroke-miterlimit="10"/>
<path d="M69.7121 230.829L65.5176 226.402" stroke="#263238" stroke-width="2" stroke-miterlimit="10"/>
<path d="M66.7948 227.728C66.7873 227.049 66.6344 226.379 66.3464 225.764C66.0584 225.15 65.642 224.603 65.1253 224.163C64.0499 223.206 58.3819 220.818 57.8472 222.814C57.259 224.995 63.0577 229.255 66.7948 227.728Z" fill="#92E3A9" stroke="#263238" stroke-miterlimit="10"/>
<path d="M66.7951 227.726L61.4004 224.363" stroke="#263238" stroke-width="0.5" stroke-miterlimit="10"/>
<path d="M70.7639 240.911L66.5693 236.484" stroke="#263238" stroke-width="2" stroke-miterlimit="10"/>
<path d="M67.8464 237.809C67.8389 237.13 67.6861 236.46 67.3981 235.845C67.1101 235.231 66.6937 234.685 66.1769 234.244C65.1016 233.282 59.4336 230.899 58.8988 232.895C58.3106 235.07 64.1212 239.336 67.8464 237.809Z" fill="#92E3A9" stroke="#263238" stroke-miterlimit="10"/>
<path d="M67.8469 237.81L62.4521 234.447" stroke="#263238" stroke-width="0.5" stroke-miterlimit="10"/>
<path d="M68.0012 214.454L63.8066 210.021" stroke="#263238" stroke-width="2" stroke-miterlimit="10"/>
<path d="M65.083 211.352C65.0755 210.673 64.9226 210.003 64.6346 209.388C64.3467 208.774 63.9303 208.227 63.4135 207.787C62.3381 206.825 56.6701 204.442 56.1354 206.438C55.5532 208.613 61.3519 212.879 65.083 211.352Z" fill="#92E3A9" stroke="#263238" stroke-miterlimit="10"/>
<path d="M65.0832 211.352L59.6885 207.989" stroke="#263238" stroke-width="0.5" stroke-miterlimit="10"/>
<path d="M66.2843 198.002L62.0957 193.576" stroke="#263238" stroke-width="2" stroke-miterlimit="10"/>
<path d="M63.3662 194.883C63.3587 194.204 63.2058 193.535 62.9178 192.92C62.6299 192.305 62.2135 191.759 61.6967 191.318C60.6213 190.356 54.9593 187.973 54.4186 189.97C53.8364 192.168 59.6351 196.428 63.3662 194.883Z" fill="#92E3A9" stroke="#263238" stroke-miterlimit="10"/>
<path d="M63.3664 194.903L57.9717 191.546" stroke="#263238" stroke-width="0.5" stroke-miterlimit="10"/>
<path d="M71.5723 249.467L74.7627 244.269" stroke="#263238" stroke-width="2" stroke-miterlimit="10"/>
<path d="M73.7931 245.831C73.6611 245.166 73.6729 244.48 73.8277 243.82C73.9824 243.16 74.2765 242.541 74.6902 242.004C75.5457 240.816 80.5958 237.34 81.5346 239.182C82.5387 241.184 77.7856 246.573 73.7931 245.831Z" fill="#92E3A9" stroke="#263238" stroke-miterlimit="10"/>
<path d="M73.7881 245.825L78.6481 241.185" stroke="#263238" stroke-width="0.5" stroke-miterlimit="10"/>
<path d="M68.8027 222.938L71.9932 217.733" stroke="#263238" stroke-width="2" stroke-miterlimit="10"/>
<path d="M71.0255 219.297C70.8945 218.633 70.9067 217.948 71.0614 217.29C71.2161 216.631 71.5098 216.013 71.9227 215.476C72.7782 214.288 77.8283 210.807 78.767 212.648C79.7889 214.651 74.9943 220.022 71.0255 219.297Z" fill="#92E3A9" stroke="#263238" stroke-miterlimit="10"/>
<path d="M71.0186 219.295L75.8785 214.655" stroke="#263238" stroke-width="0.5" stroke-miterlimit="10"/>
<path d="M67.5908 211.276L70.7754 206.077" stroke="#263238" stroke-width="2" stroke-miterlimit="10"/>
<path d="M69.8067 207.638C69.6748 206.973 69.6866 206.288 69.8413 205.628C69.9961 204.968 70.2901 204.349 70.7039 203.812C71.5594 202.653 76.6095 199.148 77.5483 200.99C78.5702 202.992 73.7755 208.363 69.8067 207.638Z" fill="#92E3A9" stroke="#263238" stroke-miterlimit="10"/>
<path d="M69.8076 207.638L74.6617 202.998" stroke="#263238" stroke-width="0.5" stroke-miterlimit="10"/>
<path d="M65.8027 194.188L68.9932 188.983" stroke="#263238" stroke-width="2" stroke-miterlimit="10"/>
<path d="M68.0245 190.545C67.8926 189.881 67.9044 189.195 68.0591 188.535C68.2138 187.875 68.5079 187.256 68.9216 186.719C69.7772 185.561 74.8273 182.055 75.766 183.897C76.7879 185.899 71.9933 191.27 68.0245 190.545Z" fill="#92E3A9" stroke="#263238" stroke-miterlimit="10"/>
<path d="M68.0186 190.547L72.8785 185.907" stroke="#263238" stroke-width="0.5" stroke-miterlimit="10"/>
<path d="M64.4415 183.257C64.3105 182.593 64.3227 181.908 64.4774 181.25C64.6322 180.591 64.9258 179.973 65.3387 179.436C66.1942 178.248 71.2443 174.767 72.1831 176.608C73.205 178.611 68.4103 183.981 64.4415 183.257Z" fill="#92E3A9" stroke="#263238" stroke-miterlimit="10"/>
<path d="M64.4424 183.255L69.2964 178.615" stroke="#263238" stroke-width="0.5" stroke-miterlimit="10"/>
<path d="M64.7152 183.458C64.0397 183.519 63.3588 183.435 62.7183 183.212C62.0778 182.989 61.4926 182.631 61.0019 182.162C59.9324 181.194 56.9796 175.799 58.9105 175.062C61.0197 174.254 65.8559 179.59 64.7152 183.458Z" fill="#92E3A9" stroke="#263238" stroke-miterlimit="10"/>
<path d="M64.7217 183.459L60.6162 178.142" stroke="#263238" stroke-width="0.5" stroke-miterlimit="10"/>
<path d="M88.9201 195.958L81.1191 273.932" stroke="#263238" stroke-width="2" stroke-miterlimit="10"/>
<path d="M81.7549 267.7L78.5645 262.501" stroke="#263238" stroke-width="2" stroke-miterlimit="10"/>
<path d="M79.5683 264.063C79.6994 263.397 79.6866 262.712 79.5308 262.052C79.3751 261.392 79.0799 260.773 78.6652 260.236C77.8096 259.078 72.7595 255.578 71.8208 257.42C70.7692 259.422 75.5698 264.787 79.5683 264.063Z" fill="#92E3A9" stroke="#263238" stroke-miterlimit="10"/>
<path d="M79.5329 264.064L74.9521 259.661" stroke="#263238" stroke-width="0.5" stroke-miterlimit="10"/>
<path d="M84.3097 243.098L81.1133 237.899" stroke="#263238" stroke-width="2" stroke-miterlimit="10"/>
<path d="M82.0881 239.442C82.22 238.778 82.2082 238.092 82.0535 237.432C81.8988 236.772 81.6047 236.153 81.1909 235.616C80.3354 234.458 75.2794 230.958 74.3466 232.8C73.3247 234.82 78.1193 240.185 82.0881 239.442Z" fill="#92E3A9" stroke="#263238" stroke-miterlimit="10"/>
<path d="M82.0877 239.46L77.501 235.058" stroke="#263238" stroke-width="0.5" stroke-miterlimit="10"/>
<path d="M83.2579 253.178L80.0674 247.979" stroke="#263238" stroke-width="2" stroke-miterlimit="10"/>
<path d="M81.0417 249.543C81.1737 248.878 81.1619 248.193 81.0071 247.533C80.8524 246.873 80.5583 246.254 80.1446 245.717C79.2891 244.558 74.233 241.059 73.2943 242.901C72.2783 244.903 77.073 250.268 81.0417 249.543Z" fill="#92E3A9" stroke="#263238" stroke-miterlimit="10"/>
<path d="M81.0427 249.544L76.4561 245.142" stroke="#263238" stroke-width="0.5" stroke-miterlimit="10"/>
<path d="M86.0099 226.722L82.8135 221.523" stroke="#263238" stroke-width="2" stroke-miterlimit="10"/>
<path d="M83.7863 223.086C83.9183 222.422 83.9065 221.736 83.7517 221.076C83.597 220.416 83.3029 219.797 82.8892 219.26C82.0336 218.072 76.9479 214.596 76.0448 216.438C75.0229 218.44 79.8175 223.805 83.7863 223.086Z" fill="#92E3A9" stroke="#263238" stroke-miterlimit="10"/>
<path d="M83.7869 223.08L79.2002 218.684" stroke="#263238" stroke-width="0.5" stroke-miterlimit="10"/>
<path d="M87.7139 210.272L84.5234 205.073" stroke="#263238" stroke-width="2" stroke-miterlimit="10"/>
<path d="M85.51 206.635C85.6411 205.97 85.6283 205.284 85.4726 204.624C85.3168 203.964 85.0216 203.345 84.6069 202.809C83.7513 201.65 78.7012 198.151 77.7625 199.992C76.7287 202.012 81.5293 207.36 85.51 206.635Z" fill="#92E3A9" stroke="#263238" stroke-miterlimit="10"/>
<path d="M85.4929 206.635L80.9121 202.232" stroke="#263238" stroke-width="0.5" stroke-miterlimit="10"/>
<path d="M82.2891 261.716L86.4836 257.284" stroke="#263238" stroke-width="2" stroke-miterlimit="10"/>
<path d="M85.2129 258.614C85.2197 257.936 85.3716 257.267 85.6586 256.652C85.9455 256.037 86.3608 255.491 86.8765 255.05C87.9518 254.087 93.6198 251.699 94.1605 253.695C94.7427 255.87 88.95 260.135 85.2129 258.614Z" fill="#92E3A9" stroke="#263238" stroke-miterlimit="10"/>
<path d="M85.2129 258.615L90.9166 255.068" stroke="#263238" stroke-width="0.5" stroke-miterlimit="10"/>
<path d="M85.0459 235.19L89.2345 230.758" stroke="#263238" stroke-width="2" stroke-miterlimit="10"/>
<path d="M87.9639 232.082C87.9714 231.403 88.1243 230.733 88.4122 230.118C88.7002 229.503 89.1166 228.957 89.6334 228.517C90.7087 227.554 96.3708 225.172 96.9115 227.162C97.4997 229.343 91.7009 233.608 87.9639 232.082Z" fill="#92E3A9" stroke="#263238" stroke-miterlimit="10"/>
<path d="M87.9639 232.082L93.6735 228.541" stroke="#263238" stroke-width="0.5" stroke-miterlimit="10"/>
<path d="M86.2529 223.525L90.4475 219.093" stroke="#263238" stroke-width="2" stroke-miterlimit="10"/>
<path d="M89.1758 220.43C89.1826 219.751 89.3345 219.082 89.6215 218.467C89.9084 217.852 90.3237 217.306 90.8393 216.865C91.9147 215.903 97.5827 213.514 98.1234 215.51C98.7056 217.679 92.9129 221.945 89.1758 220.43Z" fill="#92E3A9" stroke="#263238" stroke-miterlimit="10"/>
<path d="M89.1758 220.424L94.8794 216.877" stroke="#263238" stroke-width="0.5" stroke-miterlimit="10"/>
<path d="M88.0293 206.434L92.2179 202.002" stroke="#263238" stroke-width="2" stroke-miterlimit="10"/>
<path d="M90.9463 203.332C90.9538 202.653 91.1067 201.984 91.3947 201.369C91.6827 200.754 92.099 200.208 92.6158 199.767C93.6912 198.805 99.3532 196.417 99.8939 198.413C100.482 200.587 94.6834 204.853 90.9463 203.332Z" fill="#92E3A9" stroke="#263238" stroke-miterlimit="10"/>
<path d="M90.9463 203.331L96.6559 199.79" stroke="#263238" stroke-width="0.5" stroke-miterlimit="10"/>
<path d="M88.9443 195.479C88.9518 194.8 89.1047 194.13 89.3927 193.515C89.6807 192.901 90.0971 192.354 90.6138 191.914C91.6892 190.951 97.3513 188.569 97.8919 190.565C98.4801 192.722 92.6814 196.988 88.9443 195.479Z" fill="#92E3A9" stroke="#263238" stroke-miterlimit="10"/>
<path d="M88.9443 195.459L94.6539 191.918" stroke="#263238" stroke-width="0.5" stroke-miterlimit="10"/>
<path d="M89.182 195.715C88.509 195.636 87.8608 195.413 87.2808 195.063C86.7008 194.712 86.2025 194.242 85.8192 193.683C84.9696 192.495 83.1932 186.631 85.2251 186.304C87.4531 185.971 91.0891 192.162 89.182 195.715Z" fill="#92E3A9" stroke="#263238" stroke-miterlimit="10"/>
<path d="M89.1761 195.714L86.2529 189.666" stroke="#263238" stroke-width="0.5" stroke-miterlimit="10"/>
<path d="M78.3801 159.859L77.7979 274.069" stroke="#263238" stroke-width="2" stroke-miterlimit="10"/>
<path d="M78.4692 255.104L74.7559 250.268" stroke="#263238" stroke-width="2" stroke-miterlimit="10"/>
<path d="M75.8844 251.717C75.9459 251.043 75.8627 250.363 75.6403 249.724C75.418 249.085 75.0616 248.5 74.5951 248.01C73.6267 246.94 68.2379 243.981 67.4953 245.906C66.6872 248.01 72.0107 252.846 75.8844 251.717Z" fill="#92E3A9" stroke="#263238" stroke-miterlimit="10"/>
<path d="M75.8846 251.717L70.8701 247.813" stroke="#263238" stroke-width="0.5" stroke-miterlimit="10"/>
<path d="M78.4692 234.042L74.7559 229.2" stroke="#263238" stroke-width="2" stroke-miterlimit="10"/>
<path d="M75.8844 230.65C75.9459 229.976 75.8627 229.296 75.6403 228.657C75.418 228.018 75.0616 227.433 74.5951 226.943C73.6267 225.873 68.2379 222.914 67.4953 224.845C66.6872 226.966 72.0107 231.779 75.8844 230.65Z" fill="#92E3A9" stroke="#263238" stroke-miterlimit="10"/>
<path d="M75.8846 230.65L70.8701 226.747" stroke="#263238" stroke-width="0.5" stroke-miterlimit="10"/>
<path d="M78.4692 209.308L74.7559 204.466" stroke="#263238" stroke-width="2" stroke-miterlimit="10"/>
<path d="M75.8844 205.917C75.9459 205.242 75.8627 204.563 75.6403 203.924C75.418 203.284 75.0616 202.7 74.5951 202.209C73.6267 201.14 68.2379 198.181 67.4953 200.112C66.6872 202.209 72.0107 207.045 75.8844 205.917Z" fill="#92E3A9" stroke="#263238" stroke-miterlimit="10"/>
<path d="M75.8846 205.917L70.8701 202.014" stroke="#263238" stroke-width="0.5" stroke-miterlimit="10"/>
<path d="M78.4692 192.839L74.7559 187.997" stroke="#263238" stroke-width="2" stroke-miterlimit="10"/>
<path d="M75.8844 189.452C75.9468 188.777 75.864 188.097 75.6416 187.456C75.4192 186.816 75.0624 186.23 74.5951 185.739C73.6267 184.676 68.2379 181.717 67.4953 183.642C66.6872 185.739 72.0107 190.581 75.8844 189.452Z" fill="#92E3A9" stroke="#263238" stroke-miterlimit="10"/>
<path d="M75.8846 189.452L70.8701 185.549" stroke="#263238" stroke-width="0.5" stroke-miterlimit="10"/>
<path d="M78.4692 176.305L74.7559 171.463" stroke="#263238" stroke-width="2" stroke-miterlimit="10"/>
<path d="M75.8844 172.901C75.9468 172.226 75.864 171.545 75.6416 170.905C75.4192 170.264 75.0624 169.679 74.5951 169.188C73.6267 168.118 68.2379 165.159 67.4953 167.09C66.6872 169.205 72.0107 174.048 75.8844 172.901Z" fill="#92E3A9" stroke="#263238" stroke-miterlimit="10"/>
<path d="M75.8846 172.913L70.8701 169.01" stroke="#263238" stroke-width="0.5" stroke-miterlimit="10"/>
<path d="M78.3867 261.538L82.0941 256.696" stroke="#263238" stroke-width="2" stroke-miterlimit="10"/>
<path d="M80.9703 258.152C80.908 257.477 80.9908 256.796 81.2131 256.155C81.4355 255.515 81.7923 254.93 82.2596 254.438C83.228 253.375 88.6168 250.416 89.3595 252.341C90.1675 254.438 84.8381 259.281 80.9703 258.152Z" fill="#92E3A9" stroke="#263238" stroke-miterlimit="10"/>
<path d="M80.9648 258.151L86.2764 254.04" stroke="#263238" stroke-width="0.5" stroke-miterlimit="10"/>
<path d="M78.3867 228.036L82.0941 223.193" stroke="#263238" stroke-width="2" stroke-miterlimit="10"/>
<path d="M80.9703 224.65C80.908 223.975 80.9908 223.294 81.2131 222.654C81.4355 222.013 81.7923 221.428 82.2596 220.937C83.228 219.867 88.6168 216.908 89.3595 218.839C90.1675 220.937 84.8381 225.779 80.9703 224.65Z" fill="#92E3A9" stroke="#263238" stroke-miterlimit="10"/>
<path d="M80.9648 224.644L86.2764 220.532" stroke="#263238" stroke-width="0.5" stroke-miterlimit="10"/>
<path d="M78.3867 211.495L82.0941 206.652" stroke="#263238" stroke-width="2" stroke-miterlimit="10"/>
<path d="M80.9703 208.108C80.908 207.433 80.9908 206.752 81.2131 206.112C81.4355 205.471 81.7923 204.886 82.2596 204.394C83.228 203.331 88.6168 200.372 89.3595 202.297C90.1675 204.388 84.8381 209.237 80.9703 208.108Z" fill="#92E3A9" stroke="#263238" stroke-miterlimit="10"/>
<path d="M80.9648 208.109L86.2764 203.998" stroke="#263238" stroke-width="0.5" stroke-miterlimit="10"/>
<path d="M78.3867 189.638L82.0941 184.796" stroke="#263238" stroke-width="2" stroke-miterlimit="10"/>
<path d="M80.9703 186.251C80.908 185.576 80.9908 184.896 81.2131 184.255C81.4355 183.615 81.7923 183.029 82.2596 182.538C83.228 181.474 88.6168 178.516 89.3595 180.441C90.1675 182.538 84.8381 187.38 80.9703 186.251Z" fill="#92E3A9" stroke="#263238" stroke-miterlimit="10"/>
<path d="M80.9648 186.25L86.2764 182.139" stroke="#263238" stroke-width="0.5" stroke-miterlimit="10"/>
<path d="M78.3867 172.455L82.0941 167.613" stroke="#263238" stroke-width="2" stroke-miterlimit="10"/>
<path d="M80.9703 169.067C80.908 168.392 80.9908 167.711 81.2131 167.071C81.4355 166.43 81.7923 165.845 82.2596 165.354C83.228 164.284 88.6168 161.325 89.3595 163.256C90.1675 165.354 84.8381 170.196 80.9703 169.067Z" fill="#92E3A9" stroke="#263238" stroke-miterlimit="10"/>
<path d="M80.9648 169.068L86.2764 164.95" stroke="#263238" stroke-width="0.5" stroke-miterlimit="10"/>
<path d="M78.1666 161.444C78.1043 160.769 78.1871 160.089 78.4094 159.448C78.6318 158.808 78.9886 158.222 79.4559 157.731C80.4243 156.662 85.8131 153.709 86.5558 155.634C87.3638 157.731 82.0344 162.573 78.1666 161.444Z" fill="#92E3A9" stroke="#263238" stroke-miterlimit="10"/>
<path d="M78.1602 161.445L83.4717 157.334" stroke="#263238" stroke-width="0.5" stroke-miterlimit="10"/>
<path d="M78.4212 161.671C77.7423 161.663 77.0728 161.511 76.4579 161.223C75.843 160.935 75.2969 160.518 74.8564 160.001C73.894 158.92 71.5174 153.252 73.5137 152.717C75.6942 152.135 79.9541 157.94 78.4212 161.671Z" fill="#92E3A9" stroke="#263238" stroke-miterlimit="10"/>
<path d="M78.4218 161.674L74.8867 155.958" stroke="#263238" stroke-width="0.5" stroke-miterlimit="10"/>
<path d="M229.314 274.05L225.874 234.463H144.567L140.081 274.05H229.314Z" fill="#263238" stroke="#263238" stroke-miterlimit="10"/>
<path d="M179.513 114.478C179.513 114.478 155.748 121.013 145.351 128.879C134.953 136.746 127.764 144.79 129.44 160.03C131.115 175.269 142 216.965 142 216.965C142 216.965 140.491 233.88 140.491 234.884C140.491 235.888 140.324 238.734 144.008 238.9C147.691 239.067 191.901 240.915 201.781 241.081C211.662 241.247 224.726 240.243 226.23 239.073C226.974 238.455 227.581 237.689 228.014 236.823C228.446 235.958 228.695 235.013 228.743 234.046C228.909 232.038 230.585 207.418 230.585 207.418L230.751 196.367C230.751 196.367 241.641 160.196 242.307 148.474C242.972 136.752 238.623 132.902 233.769 129.218C228.915 125.534 213.8 119.296 205.637 116.824C197.474 114.353 179.513 114.478 179.513 114.478Z" fill="#92E3A9" stroke="#263238" stroke-miterlimit="10"/>
<path d="M185.377 170.681C184.189 186.99 182.014 217.023 182.204 222.198C182.472 229.327 179.566 231.436 179.566 234.08" stroke="#263238" stroke-miterlimit="10"/>
<path d="M186.168 160.16C186.168 160.16 185.954 162.935 185.627 167.325" stroke="#263238" stroke-miterlimit="10"/>
<path d="M196.778 181.109L198.299 199.052L206.813 198.446L196.778 181.109Z" fill="#263238" stroke="#263238" stroke-miterlimit="10"/>
<path d="M188.711 212.394C188.711 212.394 209.505 209.127 211.068 209.471C212.631 209.816 223.277 214.973 224.828 215.317C225.837 215.556 226.817 215.903 227.751 216.351L230.086 218.306L229.29 212.394C229.29 212.394 226.195 208.61 219.315 205.859C212.435 203.108 208.995 204.671 207.432 205.176C205.869 205.681 188.711 212.394 188.711 212.394Z" fill="#263238" stroke="#263238" stroke-miterlimit="10"/>
<path d="M156.734 196.706L210.8 196.534C210.8 196.534 228.22 194.864 228.885 194.692C229.551 194.52 236.425 196.367 237.096 196.872C237.768 197.377 237.762 198.881 237.429 200.39L237.096 201.893C237.341 203.167 237.508 204.454 237.595 205.749C237.595 206.937 236.258 207.252 236.086 207.757C235.914 208.262 237.096 210.098 235.753 211.274L234.417 212.462C234.417 212.462 234.244 215.647 233.579 216.485C232.913 217.322 230.899 218.826 230.062 218.326C229.224 217.827 229.557 216.485 229.557 215.647C229.557 214.809 229.224 213.972 228.22 213.972C227.216 213.972 227.032 214.809 221.857 213.466C216.682 212.124 210.972 207.608 210.467 207.436C209.962 207.264 164.583 219.497 151.185 221.172C137.787 222.848 136.617 221.006 136.112 218.796C135.607 216.586 134.775 211.429 134.775 211.429L132.398 201.216L156.734 196.706Z" fill="white" stroke="#263238" stroke-miterlimit="10"/>
<path d="M191.889 134.107C191.889 134.107 194.687 131.136 196.452 132.485C198.216 133.834 199.832 140.868 202.037 140.28C204.241 139.692 208.655 126.021 208.655 120.579C208.655 115.136 204.829 111.904 203.95 111.607C203.07 111.31 180.571 111.013 177.921 112.053C175.271 113.093 174.249 122.343 173.221 127.928C172.193 133.513 174.54 134.838 176.014 134.107C177.487 133.376 183.215 131.017 184.539 131.017C185.864 131.017 191.889 134.107 191.889 134.107Z" fill="#92E3A9" stroke="#263238" stroke-miterlimit="10"/>
<path d="M206.951 103.112C206.951 103.112 204.842 113.533 204.022 116.106C203.202 118.679 197.231 126.527 195.704 128.167C194.177 129.807 189.733 137.881 188.575 138.118C187.416 138.356 184.136 127.347 184.136 127.347C184.136 127.347 179.918 120.087 179.098 118.215C178.278 116.344 177.007 110.842 177.007 110.842C177.007 110.842 183.911 116.783 191.266 115.524C198.621 114.264 202.382 106.861 202.382 106.861L206.951 103.112Z" fill="white" stroke="#263238" stroke-miterlimit="10"/>
<path d="M178.367 82.3519C178.367 82.3519 176.305 80.1418 175.129 83.5402C173.953 86.9386 176.317 92.9453 176.317 92.9453L178.367 82.3519Z" fill="white" stroke="#263238" stroke-miterlimit="10"/>
<path d="M178.735 75.461C178.735 75.461 175.343 99.5768 175.343 101.009C175.343 102.441 174.404 107.093 175.812 110.14C177.22 113.188 181.427 116.925 184.825 117.395C188.223 117.864 194.89 117.163 198.639 114.234C202.387 111.305 206.713 104.989 206.713 104.989C206.713 104.989 211.4 104.282 214.436 102.999C217.472 101.716 219.819 98.7807 219.706 95.7387C219.571 93.791 218.881 91.9229 217.716 90.3559L215.934 87.0763L220.615 78.295C220.615 78.295 217.924 73.2628 209.262 68.4622C200.599 63.6616 192.87 62.1406 189.245 62.1406C185.621 62.1406 181.046 63.6616 179.739 66.5907C178.432 69.5197 178.735 75.461 178.735 75.461Z" fill="white" stroke="#263238" stroke-miterlimit="10"/>
<path d="M189.857 63.6614C189.857 63.6614 196.529 74.6647 201.568 74.2013C206.606 73.7378 208.103 71.391 208.103 71.391L211.496 75.9539C211.496 75.9539 207.871 77.4749 208.572 79.3524C209.274 81.2298 212.434 85.4363 212.434 85.4363L209.856 96.4396C209.856 96.4396 211.846 96.7901 212.203 96.089C212.559 95.388 214.306 91.0567 214.306 91.0567C214.778 90.7539 215.29 90.518 215.827 90.3557C216.446 90.2227 217.085 90.2227 217.704 90.3557C217.704 90.3557 218.988 86.0245 219.487 85.9056C219.986 85.7868 224.638 84.4975 226.396 79.9346C228.155 75.3717 225.458 68.1114 219.368 62.3781C213.278 56.6447 200.403 55.1178 199.702 54.0602C199.001 53.0027 202.982 54.5236 202.162 52.1828C201.342 49.8419 196.191 46.7999 189.638 50.0795C183.084 53.3591 184.017 56.9833 184.718 58.1538L185.419 59.342C185.419 59.342 179.918 57.4705 176.056 59.8114C172.194 62.1523 170.322 66.834 172.075 67.3034C173.828 67.7728 176.056 66.7093 176.056 66.7093C176.056 66.7093 173.715 70.5711 174.416 71.391C175.117 72.2109 178.747 75.4846 178.747 75.4846C178.747 75.4846 180.155 67.2915 183.078 66.1211C186.001 64.9506 189.857 63.6614 189.857 63.6614Z" fill="#263238" stroke="#263238" stroke-miterlimit="10"/>
<path d="M187.747 79.4658L188.805 82.8642L182.834 94.0993L189.156 96.559" stroke="#263238" stroke-miterlimit="10"/>
<path d="M186.577 78.1753C186.577 78.1753 183.773 75.9533 181.426 76.5415C179.079 77.1297 180.493 77.4743 182.133 78.0625C183.773 78.6507 187.046 80.1657 186.577 78.1753Z" fill="#263238" stroke="#263238" stroke-miterlimit="10"/>
<path d="M195.246 77.713C195.246 77.713 192.549 78.4141 193.838 78.9963C195.128 79.5786 198.989 78.4022 200.51 78.9963C202.031 79.5904 204.022 81.5748 203.909 80.6361C203.736 79.8288 203.356 79.0804 202.806 78.4647C202.256 77.849 201.555 77.3872 200.772 77.1248C198.639 76.4237 195.246 77.713 195.246 77.713Z" fill="#263238" stroke="#263238" stroke-miterlimit="10"/>
<path d="M185.034 83.3745C184.826 84.2241 184.255 84.8123 183.75 84.6875C183.245 84.5627 183.008 83.7844 183.21 82.9348C183.412 82.0852 183.994 81.497 184.493 81.6158C184.992 81.7347 185.236 82.5249 185.034 83.3745Z" fill="#263238"/>
<path d="M197.8 86.7137C197.592 87.5574 197.016 88.1455 196.517 88.0267C196.018 87.9079 195.774 87.1177 195.976 86.2443C196.178 85.3709 196.755 84.8065 197.26 84.9313C197.765 85.0561 197.996 85.8641 197.8 86.7137Z" fill="#263238"/>
<path d="M179.204 97.96L184.005 101.121" stroke="#263238" stroke-miterlimit="10"/>
<path d="M228.577 126.364C228.577 126.364 245.153 132.733 248.338 142.275C251.522 151.817 247.5 163.878 245.824 168.904C244.149 173.93 233.77 193.519 232.094 198.207C230.419 202.894 227.906 208.592 227.906 208.592C227.906 208.592 225.565 194.523 219.19 185.819C212.815 177.115 211.317 169.237 211.317 169.237C211.317 169.237 222.873 148.805 225.885 142.441" fill="#92E3A9"/>
<path d="M228.577 126.364C228.577 126.364 245.153 132.733 248.338 142.275C251.522 151.817 247.5 163.878 245.824 168.904C244.149 173.93 233.77 193.519 232.094 198.207C230.419 202.894 227.906 208.592 227.906 208.592C227.906 208.592 225.565 194.523 219.19 185.819C212.815 177.115 211.317 169.237 211.317 169.237C211.317 169.237 222.873 148.805 225.885 142.441" stroke="#263238" stroke-miterlimit="10"/>
<path d="M213.087 165.699C213.087 165.699 216.48 164.006 217.609 164.57C218.737 165.135 233.252 172.888 235.135 181.723C236.496 188.369 235.566 195.279 232.497 201.329C230.798 204.537 227.596 210.752 225.148 211.507C222.7 212.261 220.621 192.096 215.535 181.545C210.449 170.993 213.087 165.699 213.087 165.699Z" fill="#92E3A9" stroke="#263238" stroke-miterlimit="10"/>
<path d="M218.696 156.007C218.696 156.007 221.709 145.794 222.885 141.777" stroke="#263238" stroke-miterlimit="10"/>
<path d="M188.456 119.736C188.456 119.736 183.774 113.201 180.138 108.852C176.502 104.503 172.759 101.942 171.476 102.316C170.192 102.691 169.693 103.956 170.537 105.477C171.381 106.998 175.219 110.397 175.92 111.335C176.621 112.274 177.702 115.666 177.702 115.666C177.702 115.666 174.31 115.898 173.722 116.599C173.175 117.413 172.705 118.276 172.319 119.178C171.613 119.536 171.002 120.057 170.537 120.699C170.188 121.188 169.948 121.748 169.836 122.339C169.717 122.808 168.054 123.628 168.196 125.731C168.339 127.834 170.305 130.882 171.006 132.267C171.707 133.651 176.859 139.871 177.797 140.929C178.736 141.986 184.119 151.344 185.521 154.505C186.923 157.666 200.505 194.312 204.486 199.813C208.466 205.315 215.84 210.579 219.82 212.456C223.801 214.334 226.611 211.167 228.483 207.186C230.354 203.206 231.994 195.244 228.37 186.113C224.746 176.981 217.598 169.138 212.096 164.457C206.595 159.775 196.293 148.07 195.122 145.961C193.952 143.852 192.455 139.17 192.455 139.17C192.455 139.17 195.496 130.258 195.728 128.167C195.96 126.076 194.795 122.315 195.134 120.675C195.473 119.035 196.887 115.756 197.475 114.353C198.063 112.951 200.048 110.605 198.996 109.553C197.944 108.501 193.613 109.785 192.092 112.244C190.736 114.669 189.521 117.17 188.456 119.736Z" fill="white" stroke="#263238" stroke-miterlimit="10"/>
<path d="M152.272 145.088C152.623 143.229 152.867 141.945 152.867 141.945L152.272 145.088Z" fill="#92E3A9"/>
<path d="M152.272 145.088C152.623 143.229 152.867 141.945 152.867 141.945" stroke="#263238" stroke-miterlimit="10"/>
<path d="M151.209 125.867C151.209 125.867 142.333 127.055 133.124 136.918C123.915 146.781 127.931 170.243 128.769 175.103C129.607 179.963 130.949 194.881 130.949 194.881L154.56 187.009C154.56 187.009 150.71 160.719 150.371 158.372C150.205 157.184 150.847 153.025 151.524 149.163" fill="#92E3A9"/>
<path d="M151.209 125.867C151.209 125.867 142.333 127.055 133.124 136.918C123.915 146.781 127.931 170.243 128.769 175.103C129.607 179.963 130.949 194.881 130.949 194.881L154.56 187.009C154.56 187.009 150.71 160.719 150.371 158.372C150.205 157.184 150.847 153.025 151.524 149.163" stroke="#263238" stroke-miterlimit="10"/>
<path d="M128.602 189.671C128.602 189.671 130.949 202.231 132.12 202.896C133.29 203.562 151.542 198.547 153.556 198.209C155.57 197.87 156.734 198.375 156.734 196.706C156.734 195.036 155.059 187.158 154.055 185.821C153.051 184.484 131.282 187.324 129.44 187.829C127.598 188.334 128.602 189.671 128.602 189.671Z" fill="#92E3A9" stroke="#263238" stroke-miterlimit="10"/>
<path d="M141.952 179.963C146.111 181.629 150.148 183.586 154.031 185.821C154.031 185.821 148.339 175.127 145.992 172.923" stroke="#263238" stroke-miterlimit="10"/>
<path d="M138.815 178.786C139.487 179.018 140.152 179.261 140.806 179.505" stroke="#263238" stroke-miterlimit="10"/>
<path d="M193.736 233.608C198.068 232.063 202.054 230.364 204.431 228.688" stroke="#263238" stroke-miterlimit="10"/>
<path d="M173.316 239.572C173.316 239.572 182.567 237.38 191.348 234.433" stroke="#263238" stroke-miterlimit="10"/>
<path d="M212.227 227.991C207.676 230.261 200.469 233.576 194.581 235.049" stroke="#263238" stroke-miterlimit="10"/>
<path d="M216.689 225.675C216.689 225.675 215.756 226.192 214.205 226.988" stroke="#263238" stroke-miterlimit="10"/>
<path d="M60.0341 13.1618C20.1857 32.3582 12.6284 88.7174 37.9027 122.595C43.1845 129.677 50.0883 135.666 58.2695 139.118C86.1936 150.959 108.575 127.413 122.186 105.775C143.919 71.2381 146.635 62.7004 146.248 68.517C145.862 74.3335 155.951 80.5481 161.773 49.9148C169.217 10.7021 114.344 1.79016 86.5679 5.49754C77.3749 6.63925 68.42 9.22588 60.0341 13.1618Z" fill="#263238" stroke="#263238" stroke-miterlimit="10"/>
<path d="M158.403 84.4465C160.74 80.2269 160.582 75.6696 158.05 74.2674C155.518 72.8652 151.571 75.1491 149.234 79.3686C146.897 83.5882 147.055 88.1455 149.587 89.5477C152.119 90.9499 156.066 88.666 158.403 84.4465Z" fill="#263238" stroke="#263238" stroke-miterlimit="10"/>
<path d="M162.563 85.3133C161.185 87.8027 161.28 90.5 162.771 91.3259C164.262 92.1517 166.603 90.803 167.982 88.3136C169.36 85.8242 169.271 83.1269 167.774 82.301C166.276 81.4752 163.935 82.8179 162.563 85.3133Z" fill="#263238" stroke="#263238" stroke-miterlimit="10"/>
<path d="M62.3392 9.51307C22.479 28.6857 14.9216 85.0449 40.196 118.922C45.4778 126.004 52.3875 131.993 60.5628 135.445C88.4869 147.286 110.868 123.741 124.479 102.102C146.213 67.5656 148.934 59.0279 148.542 64.8445C148.15 70.661 158.244 76.8756 164.066 46.2185C171.511 7.00583 116.637 -1.90613 88.8612 1.80125C79.6696 2.95924 70.7186 5.56192 62.3392 9.51307Z" fill="white" stroke="#263238" stroke-miterlimit="10"/>
<path d="M151.531 75.7008C149.19 79.9191 149.35 84.4761 151.881 85.8782C154.412 87.2804 158.357 84.993 160.698 80.7746C163.039 76.5563 162.873 71.9993 160.342 70.5972C157.811 69.195 153.866 71.4824 151.531 75.7008Z" fill="white" stroke="#263238" stroke-miterlimit="10"/>
<path d="M164.862 81.6414C163.478 84.1367 163.573 86.8282 165.07 87.654C166.568 88.4798 168.897 87.1371 170.275 84.6417C171.653 82.1464 171.564 79.455 170.067 78.6291C168.57 77.8033 166.241 79.146 164.862 81.6414Z" fill="white" stroke="#263238" stroke-miterlimit="10"/>
<path d="M41.2881 51.963V44.1145H46.0411C46.2682 42.816 46.6081 41.5397 47.0571 40.3002L42.9279 37.9237L46.8907 31.1209L51.0497 33.4974C51.8985 32.4881 52.8328 31.5539 53.8421 30.705L51.4655 26.5461L58.2624 22.6189L60.6389 26.7778C61.8784 26.3288 63.1547 25.9889 64.4532 25.7618V21.0088H72.3017V25.7915C73.6007 26.0138 74.8773 26.3518 76.116 26.8016L78.4926 22.6724L85.2894 26.5996L82.9129 30.7585C83.9203 31.6074 84.8526 32.5417 85.6994 33.5509L89.8583 31.1744L93.7795 37.9712L89.6206 40.3477C90.0704 41.5865 90.4084 42.863 90.6307 44.1621H95.3837V52.0105H90.6307C90.4028 53.3109 90.0629 54.5891 89.6147 55.8308L93.7439 58.2073L89.8226 65.0042L85.6637 62.6277C84.8163 63.6365 83.8819 64.5689 82.8713 65.4141L85.2478 69.573L78.451 73.4943L76.0744 69.3354C74.8334 69.7844 73.555 70.1224 72.2542 70.3454V75.0985H64.4057V70.3454C63.1071 70.1183 61.8309 69.7784 60.5914 69.3294L58.2149 73.4884L51.4061 69.5196L53.7827 65.3606C52.7734 64.5118 51.8391 63.5775 50.9902 62.5682L46.8313 64.9448L42.9041 58.1479L47.063 55.7714C46.6148 54.5297 46.2749 53.2515 46.0471 51.9511L41.2881 51.963ZM68.3389 62.6574C71.2322 62.6574 74.0605 61.7993 76.4661 60.1918C78.8717 58.5842 80.7465 56.2994 81.8535 53.6262C82.9604 50.953 83.2498 48.0116 82.6849 45.174C82.12 42.3364 80.7263 39.73 78.68 37.6846C76.6337 35.6391 74.0268 34.2464 71.1889 33.6827C68.3511 33.119 65.4098 33.4095 62.737 34.5175C60.0643 35.6255 57.7802 37.5013 56.1737 39.9076C54.5671 42.3138 53.7102 45.1425 53.7114 48.0358C53.7098 49.9574 54.087 51.8605 54.8215 53.6362C55.556 55.412 56.6333 57.0255 57.9918 58.3846C59.3503 59.7437 60.9634 60.8216 62.7389 61.5568C64.5143 62.292 66.4172 62.67 68.3389 62.6692V62.6574Z" fill="#CCCCCC"/>
<path d="M52.4219 98.0874V91.7124H56.3075C56.493 90.6548 56.7693 89.6152 57.1333 88.6051L53.7765 86.6682L56.967 81.1428L60.3357 83.0856C61.0239 82.2637 61.7834 81.5042 62.6053 80.816L60.6625 77.4532L66.1879 74.2627L68.1248 77.6255C69.1322 77.2594 70.17 76.9831 71.2261 76.7997V72.9141H77.6071V76.7997C78.6629 76.9844 79.7006 77.2607 80.7084 77.6255L82.6513 74.2687L88.1767 77.4592L86.2339 80.8101C87.0543 81.4998 87.8137 82.2592 88.5034 83.0796L91.8662 81.1368L95.0567 86.6622L91.6939 88.6051C92.058 89.6131 92.3343 90.6508 92.5198 91.7064H96.4054V98.0993H92.5198C92.335 99.1551 92.0587 100.193 91.6939 101.201L95.0508 103.137L91.8603 108.669L88.4797 106.72C87.7899 107.541 87.0305 108.3 86.2101 108.99L88.147 112.352L82.6215 115.543L80.6847 112.186C79.6766 112.55 78.639 112.826 77.5833 113.012V116.892H71.2499V113.006C70.1928 112.827 69.1546 112.55 68.1485 112.18L66.2057 115.543L60.6803 112.352L62.6231 108.984C61.8045 108.294 61.0471 107.535 60.3595 106.714L56.9907 108.657L53.8003 103.132L57.163 101.195C56.799 100.185 56.5227 99.145 56.3372 98.0874H52.4219ZM74.4047 106.791C76.7549 106.791 79.0523 106.094 81.0063 104.789C82.9604 103.483 84.4835 101.627 85.3828 99.4561C86.2822 97.2848 86.5175 94.8956 86.059 92.5906C85.6005 90.2856 84.4688 88.1683 82.807 86.5065C81.1452 84.8447 79.0279 83.713 76.7229 83.2545C74.4179 82.796 72.0287 83.0313 69.8574 83.9307C67.6862 84.83 65.8304 86.3531 64.5247 88.3072C63.219 90.2612 62.5221 92.5586 62.5221 94.9088C62.5221 96.4702 62.8298 98.0164 63.4277 99.4588C64.0256 100.901 64.902 102.212 66.0066 103.315C67.1113 104.419 68.4226 105.294 69.8657 105.89C71.3087 106.487 72.8552 106.793 74.4166 106.791H74.4047Z" fill="#CCCCCC"/>
<path d="M92.9658 83.507V78.647H95.9365C96.0748 77.8376 96.2856 77.0422 96.5663 76.2705L94.0055 74.7911L96.4355 70.5846L99.0022 72.064C99.5269 71.4383 100.105 70.8598 100.731 70.3351L99.2517 67.7744L103.458 65.3444L104.938 67.9051C105.709 67.6245 106.505 67.4137 107.314 67.2753V64.3047H112.174V67.2753C112.983 67.4155 113.778 67.6262 114.551 67.9051L116.03 65.3504L120.236 67.7804L118.757 70.3411C119.383 70.8658 119.961 71.4443 120.486 72.07L123.047 70.5906L125.477 74.797L122.922 76.2764C123.188 77.0501 123.387 77.8452 123.516 78.6529H126.487V83.5129H123.516C123.378 84.3224 123.167 85.1177 122.886 85.8895L125.435 87.3451L123.005 91.5575L120.438 90.0781C119.914 90.7019 119.335 91.2784 118.71 91.8011L120.189 94.3677L115.982 96.7977L114.503 94.237C113.73 94.515 112.935 94.7257 112.127 94.8668V97.8374H107.267V94.8668C106.459 94.7383 105.663 94.5395 104.89 94.2726L103.411 96.8274L99.2042 94.3974L100.684 91.8367C100.059 91.3105 99.4809 90.7321 98.9547 90.1078L96.394 91.5872L93.9937 87.3451L96.5484 85.8716C96.2725 85.0989 96.0638 84.3038 95.9246 83.4951L92.9658 83.507ZM109.714 90.1316C111.505 90.1316 113.256 89.6005 114.745 88.6056C116.234 87.6107 117.394 86.1965 118.08 84.542C118.765 82.8875 118.944 81.067 118.595 79.3105C118.246 77.5541 117.383 75.9408 116.117 74.6745C114.851 73.4082 113.237 72.5458 111.481 72.1964C109.724 71.8471 107.904 72.0264 106.249 72.7117C104.595 73.397 103.181 74.5575 102.186 76.0466C101.191 77.5356 100.66 79.2862 100.66 81.077C100.66 83.4784 101.614 85.7815 103.312 87.4795C105.01 89.1776 107.313 90.1316 109.714 90.1316Z" fill="#CCCCCC"/>
<path d="M110.272 38.549V33.689H113.243C113.384 32.8802 113.595 32.085 113.873 31.3125L111.318 29.839L113.748 25.6266L116.309 27.106C116.837 26.4832 117.415 25.9049 118.038 25.3771L116.558 22.8164L120.771 20.3864L122.244 22.9471C123.016 22.6665 123.811 22.4557 124.621 22.3173V19.3467H129.475V22.3173C130.284 22.4584 131.079 22.6692 131.851 22.9471L133.325 20.3924L137.537 22.8223L136.01 25.3949C136.633 25.9213 137.209 26.4997 137.733 27.1239L140.3 25.6445L142.73 29.8569L140.169 31.3303C140.447 32.1029 140.658 32.898 140.799 33.7068H143.77V38.5668H140.799C140.66 39.3755 140.451 40.1706 140.175 40.9433L142.73 42.4168L140.3 46.6292L137.739 45.1498C137.213 45.7722 136.634 46.3486 136.01 46.8728L137.49 49.4394L133.277 51.8694L131.804 49.3087C131.046 49.576 130.267 49.7787 129.475 49.9147V52.8854H124.615V49.9147C123.807 49.7852 123.012 49.5864 122.238 49.3206L120.765 51.8753L116.552 49.4453L118.032 46.8846C117.409 46.3568 116.831 45.7786 116.303 45.1557L113.742 46.6351L111.312 42.4227L113.873 40.9493C113.592 40.1775 113.381 39.3822 113.243 38.5728L110.272 38.549ZM127.021 45.1617C128.813 45.1628 130.566 44.6325 132.056 43.6376C133.547 42.6427 134.709 41.2281 135.396 39.5726C136.083 37.9171 136.263 36.0952 135.914 34.3372C135.565 32.5792 134.703 30.9643 133.436 29.6965C132.169 28.4288 130.554 27.5653 128.797 27.2152C127.039 26.8651 125.217 27.0442 123.561 27.7298C121.905 28.4154 120.49 29.5767 119.494 31.0668C118.498 32.5569 117.966 34.3089 117.966 36.1012C117.966 38.5031 118.92 40.8068 120.618 42.5058C122.316 44.2048 124.619 45.1601 127.021 45.1617Z" fill="#CCCCCC"/>
</svg>
