<svg width="122" height="172" viewBox="0 0 122 172" fill="none" xmlns="http://www.w3.org/2000/svg">
<path d="M107.767 2.23047C107.767 2.6351 107.887 3.03064 108.112 3.36708C108.336 3.70352 108.656 3.96574 109.03 4.12059C109.403 4.27543 109.815 4.31594 110.212 4.237C110.609 4.15807 110.973 3.96322 111.259 3.6771C111.545 3.39099 111.74 3.02645 111.819 2.6296C111.898 2.23274 111.858 1.82139 111.703 1.44757C111.548 1.07374 111.286 0.754221 110.949 0.529422C110.613 0.304622 110.217 0.18464 109.813 0.18464C109.543 0.182405 109.276 0.233797 109.027 0.335819C108.778 0.43784 108.551 0.58845 108.361 0.77887C108.171 0.96929 108.02 1.19571 107.918 1.44493C107.816 1.69415 107.764 1.96119 107.767 2.23047Z" fill="#3F3D56"/>
<path d="M86.2185 2.23087C86.2646 2.73933 86.4993 3.21216 86.8763 3.55646C87.2533 3.90077 87.7454 4.09167 88.2559 4.09167C88.7665 4.09167 89.2586 3.90077 89.6356 3.55646C90.0126 3.21216 90.2472 2.73933 90.2934 2.23087C90.3191 1.94777 90.2855 1.66242 90.1948 1.39302C90.1041 1.12362 89.9582 0.876073 89.7665 0.666176C89.5748 0.456279 89.3415 0.288639 89.0814 0.173939C88.8213 0.0592385 88.5402 0 88.2559 0C87.9717 0 87.6905 0.0592385 87.4304 0.173939C87.1703 0.288639 86.937 0.456279 86.7453 0.666176C86.5536 0.876073 86.4077 1.12362 86.317 1.39302C86.2263 1.66242 86.1928 1.94777 86.2185 2.23087Z" fill="#3F3D56"/>
<path d="M66.6994 4.26127C65.5788 4.26127 64.6704 3.35282 64.6704 2.2322C64.6704 1.11157 65.5788 0.203125 66.6994 0.203125C67.8201 0.203125 68.7285 1.11157 68.7285 2.2322C68.7285 3.35282 67.8201 4.26127 66.6994 4.26127Z" fill="#3F3D56"/>
<path d="M45.1516 4.26127C44.031 4.26127 43.1225 3.35282 43.1225 2.2322C43.1225 1.11157 44.031 0.203125 45.1516 0.203125C46.2722 0.203125 47.1807 1.11157 47.1807 2.2322C47.1807 3.35282 46.2722 4.26127 45.1516 4.26127Z" fill="white"/>
<path d="M21.5558 2.2304C21.5558 2.63503 21.6758 3.03057 21.9006 3.36701C22.1254 3.70345 22.4449 3.96567 22.8187 4.12052C23.1925 4.27536 23.6039 4.31587 24.0007 4.23694C24.3976 4.158 24.7621 3.96315 25.0482 3.67703C25.3344 3.39092 25.5292 3.02638 25.6082 2.62953C25.6871 2.23267 25.6466 1.82132 25.4917 1.4475C25.3369 1.07367 25.0747 0.754152 24.7382 0.529352C24.4018 0.304552 24.0062 0.18457 23.6016 0.18457C23.059 0.18457 22.5387 0.400114 22.155 0.783783C21.7713 1.16745 21.5558 1.68781 21.5558 2.2304Z" fill="#3F3D56"/>
<path d="M2.05395 4.26127C0.93333 4.26127 0.0248733 3.35282 0.0248733 2.2322C0.0248733 1.11157 0.93333 0.203125 2.05395 0.203125C3.17458 0.203125 4.08301 1.11157 4.08301 2.2322C4.08301 3.35282 3.17458 4.26127 2.05395 4.26127Z" fill="#3F3D56"/>
<path d="M107.767 26.0762C107.767 26.4808 107.887 26.8764 108.112 27.2128C108.336 27.5492 108.656 27.8114 109.03 27.9663C109.403 28.1211 109.815 28.1617 110.212 28.0827C110.609 28.0038 110.973 27.8089 111.259 27.5228C111.545 27.2367 111.74 26.8722 111.819 26.4753C111.898 26.0785 111.858 25.6671 111.703 25.2933C111.548 24.9194 111.286 24.5999 110.949 24.3751C110.613 24.1503 110.217 24.0303 109.813 24.0303C109.543 24.0281 109.276 24.0795 109.027 24.1815C108.778 24.2835 108.551 24.4342 108.361 24.6246C108.171 24.815 108.02 25.0414 107.918 25.2906C107.816 25.5399 107.764 25.8069 107.767 26.0762Z" fill="#3F3D56"/>
<path d="M86.2185 26.0776C86.2646 26.586 86.4993 27.0588 86.8763 27.4031C87.2533 27.7475 87.7454 27.9384 88.2559 27.9384C88.7665 27.9384 89.2586 27.7475 89.6356 27.4031C90.0126 27.0588 90.2472 26.586 90.2934 26.0776C90.3191 25.7945 90.2855 25.5091 90.1948 25.2397C90.1041 24.9703 89.9582 24.7228 89.7665 24.5129C89.5748 24.303 89.3415 24.1353 89.0814 24.0206C88.8213 23.9059 88.5402 23.8467 88.2559 23.8467C87.9717 23.8467 87.6905 23.9059 87.4304 24.0206C87.1703 24.1353 86.937 24.303 86.7453 24.5129C86.5536 24.7228 86.4077 24.9703 86.317 25.2397C86.2263 25.5091 86.1928 25.7945 86.2185 26.0776Z" fill="#3F3D56"/>
<path d="M64.6705 26.0761C64.6738 26.4767 64.7956 26.8673 65.0205 27.1988C65.2455 27.5303 65.5635 27.7877 65.9346 27.9387C66.3056 28.0897 66.7131 28.1275 67.1055 28.0474C67.498 27.9672 67.858 27.7726 68.1401 27.4882C68.4222 27.2038 68.6138 26.8422 68.6907 26.4491C68.7677 26.0559 68.7265 25.6488 68.5725 25.279C68.4184 24.9092 68.1584 24.5933 67.825 24.3711C67.4917 24.1489 67.1001 24.0303 66.6995 24.0303C66.4316 24.0303 66.1664 24.0833 65.9191 24.1863C65.6719 24.2893 65.4474 24.4403 65.2588 24.6305C65.0702 24.8207 64.921 25.0464 64.8201 25.2945C64.7191 25.5426 64.6682 25.8082 64.6705 26.0761Z" fill="#3F3D56"/>
<path d="M43.1206 26.0761C43.124 26.4767 43.2458 26.8673 43.4707 27.1988C43.6957 27.5303 44.0137 27.7877 44.3848 27.9387C44.7558 28.0897 45.1633 28.1275 45.5557 28.0474C45.9482 27.9672 46.3082 27.7726 46.5903 27.4882C46.8724 27.2038 47.064 26.8422 47.1409 26.4491C47.2179 26.0559 47.1767 25.6488 47.0227 25.279C46.8686 24.9092 46.6086 24.5933 46.2752 24.3711C45.9419 24.1489 45.5503 24.0303 45.1497 24.0303C44.8818 24.0303 44.6166 24.0833 44.3693 24.1863C44.122 24.2893 43.8976 24.4403 43.709 24.6305C43.5203 24.8207 43.3712 25.0464 43.2703 25.2945C43.1693 25.5426 43.1184 25.8082 43.1206 26.0761Z" fill="#3F3D56"/>
<path d="M21.5558 26.0761C21.5558 26.4807 21.6758 26.8763 21.9006 27.2127C22.1254 27.5492 22.4449 27.8114 22.8187 27.9662C23.1925 28.1211 23.6039 28.1616 24.0007 28.0826C24.3976 28.0037 24.7621 27.8089 25.0482 27.5227C25.3344 27.2366 25.5292 26.8721 25.6082 26.4752C25.6871 26.0784 25.6466 25.667 25.4917 25.2932C25.3369 24.9194 25.0747 24.5999 24.7382 24.3751C24.4018 24.1503 24.0062 24.0303 23.6016 24.0303C23.059 24.0303 22.5387 24.2458 22.155 24.6295C21.7713 25.0132 21.5558 25.5335 21.5558 26.0761Z" fill="#3F3D56"/>
<path d="M0.00794792 26.0761C0.00794792 26.4807 0.127917 26.8763 0.352717 27.2127C0.577516 27.5492 0.897027 27.8114 1.27085 27.9662C1.64468 28.1211 2.05605 28.1616 2.4529 28.0826C2.84976 28.0037 3.21427 27.8089 3.50039 27.5227C3.7865 27.2366 3.98136 26.8721 4.0603 26.4752C4.13924 26.0784 4.09872 25.667 3.94388 25.2932C3.78903 24.9194 3.52683 24.5999 3.19039 24.3751C2.85396 24.1503 2.45842 24.0303 2.05379 24.0303C1.5112 24.0303 0.99083 24.2458 0.607161 24.6295C0.223492 25.0132 0.00794792 25.5335 0.00794792 26.0761Z" fill="#3F3D56"/>
<path d="M107.767 49.9229C107.767 50.3275 107.887 50.723 108.112 51.0595C108.336 51.3959 108.656 51.6581 109.03 51.813C109.403 51.9678 109.815 52.0083 110.212 51.9294C110.609 51.8504 110.973 51.6556 111.259 51.3695C111.545 51.0834 111.74 50.7188 111.819 50.322C111.898 49.9251 111.858 49.5138 111.703 49.1399C111.548 48.7661 111.286 48.4466 110.949 48.2218C110.613 47.997 110.217 47.877 109.813 47.877C109.543 47.8748 109.276 47.9262 109.027 48.0282C108.778 48.1302 108.551 48.2808 108.361 48.4712C108.171 48.6617 108.02 48.8881 107.918 49.1373C107.816 49.3865 107.764 49.6536 107.767 49.9229Z" fill="#3F3D56"/>
<path d="M86.2185 49.9232C86.2646 50.4317 86.4993 50.9045 86.8763 51.2488C87.2533 51.5932 87.7454 51.7841 88.2559 51.7841C88.7665 51.7841 89.2586 51.5932 89.6356 51.2488C90.0126 50.9045 90.2472 50.4317 90.2934 49.9232C90.3191 49.6402 90.2855 49.3548 90.1948 49.0854C90.1041 48.816 89.9582 48.5685 89.7665 48.3586C89.5748 48.1487 89.3415 47.981 89.0814 47.8663C88.8213 47.7516 88.5402 47.6924 88.2559 47.6924C87.9717 47.6924 87.6905 47.7516 87.4304 47.8663C87.1703 47.981 86.937 48.1487 86.7453 48.3586C86.5536 48.5685 86.4077 48.816 86.317 49.0854C86.2263 49.3548 86.1928 49.6402 86.2185 49.9232Z" fill="white"/>
<path d="M66.6994 51.9517C65.5788 51.9517 64.6704 51.0433 64.6704 49.9226C64.6704 48.802 65.5788 47.8936 66.6994 47.8936C67.8201 47.8936 68.7285 48.802 68.7285 49.9226C68.7285 51.0433 67.8201 51.9517 66.6994 51.9517Z" fill="#3F3D56"/>
<path d="M45.1516 51.9517C44.031 51.9517 43.1225 51.0433 43.1225 49.9226C43.1225 48.802 44.031 47.8936 45.1516 47.8936C46.2722 47.8936 47.1807 48.802 47.1807 49.9226C47.1807 51.0433 46.2722 51.9517 45.1516 51.9517Z" fill="#3F3D56"/>
<path d="M21.5558 49.9228C21.5558 50.3274 21.6758 50.723 21.9006 51.0594C22.1254 51.3958 22.4449 51.658 22.8187 51.8129C23.1925 51.9677 23.6039 52.0083 24.0007 51.9293C24.3976 51.8504 24.7621 51.6555 25.0482 51.3694C25.3344 51.0833 25.5292 50.7188 25.6082 50.3219C25.6871 49.9251 25.6466 49.5137 25.4917 49.1399C25.3369 48.766 25.0747 48.4465 24.7382 48.2217C24.4018 47.9969 24.0062 47.877 23.6016 47.877C23.059 47.877 22.5387 48.0925 22.155 48.4762C21.7713 48.8598 21.5558 49.3802 21.5558 49.9228Z" fill="#3F3D56"/>
<path d="M2.05395 51.9517C0.93333 51.9517 0.0248733 51.0433 0.0248733 49.9226C0.0248733 48.802 0.93333 47.8936 2.05395 47.8936C3.17458 47.8936 4.08301 48.802 4.08301 49.9226C4.08301 51.0433 3.17458 51.9517 2.05395 51.9517Z" fill="#3F3D56"/>
<path d="M107.767 73.7684C107.763 74.1737 107.881 74.5709 108.103 74.9095C108.326 75.2482 108.645 75.513 109.018 75.6704C109.392 75.8278 109.803 75.8707 110.201 75.7937C110.599 75.7167 110.965 75.5232 111.253 75.2377C111.541 74.9523 111.738 74.5878 111.818 74.1905C111.898 73.7932 111.859 73.381 111.704 73.0062C111.55 72.6314 111.288 72.3109 110.951 72.0853C110.614 71.8598 110.218 71.7393 109.813 71.7393C109.545 71.7371 109.279 71.788 109.031 71.8889C108.783 71.9899 108.557 72.139 108.367 72.3277C108.177 72.5163 108.026 72.7407 107.923 72.988C107.82 73.2353 107.767 73.5005 107.767 73.7684Z" fill="#3F3D56"/>
<path d="M86.2189 73.7684C86.2156 74.1744 86.3332 74.5723 86.5567 74.9113C86.7802 75.2503 87.0996 75.5151 87.4741 75.672C87.8486 75.8289 88.2613 75.8708 88.6597 75.7924C89.0581 75.714 89.4242 75.5189 89.7113 75.2317C89.9985 74.9446 90.1936 74.5785 90.272 74.1801C90.3504 73.7817 90.3085 73.369 90.1516 72.9945C89.9947 72.62 89.7299 72.3006 89.3909 72.0771C89.0519 71.8536 88.654 71.736 88.248 71.7393C87.7099 71.7393 87.1938 71.9531 86.8132 72.3336C86.4327 72.7142 86.2189 73.2303 86.2189 73.7684Z" fill="#3F3D56"/>
<path d="M64.6704 73.7693C64.6704 74.1706 64.7894 74.5629 65.0123 74.8966C65.2353 75.2303 65.5522 75.4903 65.923 75.6439C66.2937 75.7975 66.7017 75.8377 67.0953 75.7594C67.4889 75.6811 67.8505 75.4878 68.1342 75.2041C68.418 74.9203 68.6112 74.5588 68.6895 74.1652C68.7678 73.7716 68.7276 73.3636 68.5741 72.9928C68.4205 72.6221 68.1604 72.3052 67.8267 72.0822C67.4931 71.8592 67.1008 71.7402 66.6995 71.7402C66.1613 71.7402 65.6452 71.954 65.2647 72.3345C64.8842 72.7151 64.6704 73.2312 64.6704 73.7693Z" fill="#3F3D56"/>
<path d="M43.1225 73.7693C43.1225 74.1706 43.2415 74.5629 43.4645 74.8966C43.6874 75.2303 44.0043 75.4903 44.3751 75.6439C44.7458 75.7975 45.1538 75.8377 45.5474 75.7594C45.941 75.6811 46.3026 75.4878 46.5863 75.2041C46.8701 74.9203 47.0634 74.5588 47.1417 74.1652C47.22 73.7716 47.1798 73.3636 47.0262 72.9928C46.8726 72.6221 46.6126 72.3052 46.2789 72.0822C45.9452 71.8592 45.5529 71.7402 45.1516 71.7402C44.6135 71.7402 44.0973 71.954 43.7168 72.3345C43.3363 72.7151 43.1225 73.2312 43.1225 73.7693Z" fill="white"/>
<path d="M21.5559 73.7693C21.5525 74.1746 21.6697 74.5718 21.8925 74.9104C22.1152 75.2491 22.4336 75.5139 22.8071 75.6713C23.1806 75.8287 23.5925 75.8717 23.9904 75.7946C24.3884 75.7176 24.7545 75.5241 25.0423 75.2386C25.3301 74.9532 25.5266 74.5887 25.6069 74.1914C25.6872 73.7941 25.6477 73.3819 25.4934 73.0071C25.339 72.6323 25.0768 72.3118 24.74 72.0862C24.4032 71.8607 24.007 71.7402 23.6017 71.7402C23.062 71.7402 22.5442 71.9535 22.161 72.3335C21.7778 72.7136 21.5603 73.2296 21.5559 73.7693Z" fill="#3F3D56"/>
<path d="M0.00800753 73.7693C0.0046854 74.1746 0.121844 74.5718 0.344614 74.9104C0.567384 75.2491 0.885724 75.5139 1.25925 75.6713C1.63277 75.8287 2.04462 75.8717 2.44258 75.7946C2.84053 75.7176 3.20664 75.5241 3.49444 75.2386C3.78223 74.9532 3.97875 74.5887 4.05905 74.1914C4.13936 73.7941 4.09984 73.3819 3.9455 73.0071C3.79116 72.6323 3.52896 72.3118 3.19217 72.0862C2.85538 71.8607 2.45919 71.7402 2.05385 71.7402C1.51415 71.7402 0.996297 71.9535 0.613106 72.3335C0.229915 72.7136 0.0124316 73.2296 0.00800753 73.7693Z" fill="#3F3D56"/>
<path d="M107.767 97.6131C107.763 98.0184 107.881 98.4156 108.103 98.7543C108.326 99.0929 108.645 99.3577 109.018 99.5151C109.392 99.6726 109.803 99.7155 110.201 99.6384C110.599 99.5614 110.965 99.3679 111.253 99.0825C111.541 98.797 111.738 98.4325 111.818 98.0352C111.898 97.6379 111.859 97.2257 111.704 96.8509C111.55 96.4761 111.288 96.1556 110.951 95.93C110.614 95.7045 110.218 95.5841 109.813 95.5841C109.545 95.5818 109.279 95.6327 109.031 95.7337C108.783 95.8346 108.557 95.9838 108.367 96.1724C108.177 96.361 108.026 96.5855 107.923 96.8327C107.82 97.08 107.767 97.3452 107.767 97.6131Z" fill="#3F3D56"/>
<path d="M86.2189 97.6131C86.2156 98.0192 86.3332 98.417 86.5567 98.756C86.7802 99.095 87.0996 99.3598 87.4741 99.5167C87.8486 99.6736 88.2613 99.7156 88.6597 99.6372C89.0581 99.5588 89.4242 99.3636 89.7113 99.0764C89.9985 98.7893 90.1936 98.4233 90.272 98.0249C90.3504 97.6264 90.3085 97.2137 90.1516 96.8392C89.9947 96.4647 89.7299 96.1454 89.3909 95.9218C89.0519 95.6983 88.654 95.5807 88.248 95.5841C87.7099 95.5841 87.1938 95.7978 86.8132 96.1784C86.4327 96.5589 86.2189 97.075 86.2189 97.6131Z" fill="#3F3D56"/>
<path d="M66.6994 99.6421C65.5788 99.6421 64.6704 98.7337 64.6704 97.6131C64.6704 96.4924 65.5788 95.584 66.6994 95.584C67.8201 95.584 68.7285 96.4924 68.7285 97.6131C68.7285 98.7337 67.8201 99.6421 66.6994 99.6421Z" fill="#3F3D56"/>
<path d="M45.1516 99.6421C44.031 99.6421 43.1225 98.7337 43.1225 97.6131C43.1225 96.4924 44.031 95.584 45.1516 95.584C46.2722 95.584 47.1807 96.4924 47.1807 97.6131C47.1807 98.7337 46.2722 99.6421 45.1516 99.6421Z" fill="#3F3D56"/>
<path d="M21.5559 97.6131C21.5525 98.0184 21.6697 98.4156 21.8925 98.7542C22.1152 99.0928 22.4336 99.3577 22.8071 99.5151C23.1806 99.6725 23.5925 99.7154 23.9904 99.6384C24.3884 99.5613 24.7545 99.3678 25.0423 99.0824C25.3301 98.797 25.5266 98.4325 25.6069 98.0351C25.6872 97.6378 25.6477 97.2256 25.4934 96.8508C25.339 96.476 25.0768 96.1555 24.74 95.93C24.4032 95.7044 24.007 95.584 23.6017 95.584C23.062 95.584 22.5442 95.7972 22.161 96.1772C21.7778 96.5573 21.5603 97.0734 21.5559 97.6131Z" fill="#3F3D56"/>
<path d="M2.05395 99.6421C0.93333 99.6421 0.0248733 98.7337 0.0248733 97.6131C0.0248733 96.4924 0.93333 95.584 2.05395 95.584C3.17458 95.584 4.08301 96.4924 4.08301 97.6131C4.08301 98.7337 3.17458 99.6421 2.05395 99.6421Z" fill="#3F3D56"/>
<path d="M107.767 121.393C107.763 121.799 107.881 122.196 108.103 122.534C108.326 122.873 108.645 123.138 109.018 123.295C109.392 123.453 109.803 123.496 110.201 123.419C110.599 123.342 110.965 123.148 111.253 122.863C111.541 122.577 111.738 122.213 111.818 121.815C111.898 121.418 111.859 121.006 111.704 120.631C111.55 120.256 111.288 119.936 110.951 119.71C110.614 119.485 110.218 119.364 109.813 119.364C109.273 119.364 108.755 119.577 108.372 119.958C107.989 120.338 107.771 120.854 107.767 121.393Z" fill="#3F3D56"/>
<path d="M86.2189 121.393C86.2156 121.799 86.3332 122.197 86.5567 122.536C86.7802 122.875 87.0996 123.14 87.4741 123.297C87.8486 123.454 88.2613 123.496 88.6597 123.417C89.0581 123.339 89.4242 123.144 89.7113 122.857C89.9985 122.57 90.1936 122.204 90.272 121.805C90.3504 121.407 90.3085 120.994 90.1516 120.619C89.9947 120.245 89.7299 119.926 89.3909 119.702C89.0519 119.479 88.654 119.361 88.248 119.364C87.7112 119.369 87.1977 119.584 86.8181 119.963C86.4385 120.343 86.2233 120.857 86.2189 121.393Z" fill="#3F3D56"/>
<path d="M66.6994 123.49C65.5788 123.49 64.6704 122.581 64.6704 121.461C64.6704 120.34 65.5788 119.432 66.6994 119.432C67.8201 119.432 68.7285 120.34 68.7285 121.461C68.7285 122.581 67.8201 123.49 66.6994 123.49Z" fill="white"/>
<path d="M45.1516 123.49C44.031 123.49 43.1225 122.581 43.1225 121.461C43.1225 120.34 44.031 119.432 45.1516 119.432C46.2722 119.432 47.1807 120.34 47.1807 121.461C47.1807 122.581 46.2722 123.49 45.1516 123.49Z" fill="#3F3D56"/>
<path d="M21.5563 121.393C21.5306 121.676 21.5642 121.961 21.6549 122.231C21.7456 122.5 21.8915 122.748 22.0832 122.958C22.2749 123.168 22.5082 123.335 22.7683 123.45C23.0284 123.565 23.3095 123.624 23.5938 123.624C23.8781 123.624 24.1592 123.565 24.4193 123.45C24.6794 123.335 24.9127 123.168 25.1044 122.958C25.2961 122.748 25.442 122.5 25.5327 122.231C25.6234 121.961 25.657 121.676 25.6313 121.393C25.5851 120.885 25.3504 120.412 24.9735 120.067C24.5965 119.723 24.1043 119.532 23.5938 119.532C23.0832 119.532 22.5911 119.723 22.2142 120.067C21.8372 120.412 21.6025 120.885 21.5563 121.393Z" fill="#3F3D56"/>
<path d="M2.05395 123.49C0.93333 123.49 0.0248733 122.581 0.0248733 121.461C0.0248733 120.34 0.93333 119.432 2.05395 119.432C3.17458 119.432 4.08301 120.34 4.08301 121.461C4.08301 122.581 3.17458 123.49 2.05395 123.49Z" fill="#3F3D56"/>
<path d="M107.767 145.305C107.763 145.711 107.881 146.108 108.103 146.447C108.326 146.785 108.645 147.05 109.018 147.207C109.392 147.365 109.803 147.408 110.201 147.331C110.599 147.254 110.965 147.06 111.253 146.775C111.541 146.489 111.738 146.125 111.818 145.728C111.898 145.33 111.859 144.918 111.704 144.543C111.55 144.168 111.288 143.848 110.951 143.622C110.614 143.397 110.218 143.276 109.813 143.276C109.273 143.276 108.755 143.49 108.372 143.87C107.989 144.25 107.771 144.766 107.767 145.305Z" fill="#3F3D56"/>
<path d="M86.2189 145.305C86.2156 145.712 86.3332 146.109 86.5567 146.448C86.7802 146.787 87.0996 147.052 87.4741 147.209C87.8486 147.366 88.2613 147.408 88.6597 147.33C89.0581 147.251 89.4242 147.056 89.7113 146.769C89.9985 146.482 90.1936 146.116 90.272 145.717C90.3504 145.319 90.3085 144.906 90.1516 144.532C89.9947 144.157 89.7299 143.838 89.3909 143.614C89.0519 143.391 88.654 143.273 88.248 143.276C87.7112 143.281 87.1977 143.496 86.8181 143.876C86.4385 144.255 86.2233 144.769 86.2189 145.305Z" fill="#3F3D56"/>
<path d="M64.6704 145.305C64.6704 145.707 64.7894 146.099 65.0123 146.433C65.2353 146.766 65.5522 147.026 65.923 147.18C66.2937 147.334 66.7017 147.374 67.0953 147.296C67.4889 147.217 67.8505 147.024 68.1342 146.74C68.418 146.456 68.6112 146.095 68.6895 145.701C68.7678 145.308 68.7276 144.9 68.5741 144.529C68.4205 144.158 68.1604 143.841 67.8267 143.618C67.4931 143.395 67.1008 143.276 66.6995 143.276C66.1627 143.281 65.6491 143.496 65.2695 143.876C64.8899 144.255 64.6748 144.769 64.6704 145.305Z" fill="#3F3D56"/>
<path d="M43.1225 145.305C43.1225 145.707 43.2415 146.099 43.4645 146.433C43.6874 146.766 44.0043 147.026 44.3751 147.18C44.7458 147.334 45.1538 147.374 45.5474 147.296C45.941 147.217 46.3026 147.024 46.5863 146.74C46.8701 146.456 47.0634 146.095 47.1417 145.701C47.22 145.308 47.1798 144.9 47.0262 144.529C46.8726 144.158 46.6126 143.841 46.2789 143.618C45.9452 143.395 45.5529 143.276 45.1516 143.276C44.6148 143.281 44.1012 143.496 43.7216 143.876C43.3421 144.255 43.1269 144.769 43.1225 145.305Z" fill="#3F3D56"/>
<path d="M21.5563 145.306C21.5306 145.589 21.5642 145.875 21.6549 146.144C21.7456 146.413 21.8915 146.661 22.0832 146.871C22.2749 147.081 22.5082 147.248 22.7683 147.363C23.0284 147.478 23.3095 147.537 23.5938 147.537C23.8781 147.537 24.1592 147.478 24.4193 147.363C24.6794 147.248 24.9127 147.081 25.1044 146.871C25.2961 146.661 25.442 146.413 25.5327 146.144C25.6234 145.875 25.657 145.589 25.6313 145.306C25.5851 144.798 25.3504 144.325 24.9735 143.981C24.5965 143.636 24.1043 143.445 23.5938 143.445C23.0832 143.445 22.5911 143.636 22.2142 143.981C21.8372 144.325 21.6025 144.798 21.5563 145.306Z" fill="white"/>
<path d="M0.00851727 145.306C-0.0171924 145.589 0.0163746 145.875 0.107081 146.144C0.197788 146.413 0.343644 146.661 0.535343 146.871C0.727041 147.081 0.96036 147.248 1.22045 147.363C1.48055 147.478 1.7617 147.537 2.04596 147.537C2.33023 147.537 2.61136 147.478 2.87145 147.363C3.13154 147.248 3.36489 147.081 3.55659 146.871C3.74829 146.661 3.89414 146.413 3.98485 146.144C4.07555 145.875 4.10912 145.589 4.08341 145.306C4.03724 144.798 3.80262 144.325 3.42563 143.981C3.04864 143.636 2.55652 143.445 2.04596 143.445C1.53541 143.445 1.04329 143.636 0.666301 143.981C0.289309 144.325 0.0546937 144.798 0.00851727 145.306Z" fill="#3F3D56"/>
<path d="M107.767 169.151C107.763 169.556 107.881 169.954 108.103 170.292C108.326 170.631 108.645 170.896 109.018 171.053C109.392 171.211 109.803 171.253 110.201 171.176C110.599 171.099 110.965 170.906 111.253 170.62C111.541 170.335 111.738 169.971 111.818 169.573C111.898 169.176 111.859 168.764 111.704 168.389C111.55 168.014 111.288 167.694 110.951 167.468C110.614 167.242 110.218 167.122 109.813 167.122C109.273 167.122 108.755 167.335 108.372 167.715C107.989 168.095 107.771 168.611 107.767 169.151Z" fill="white"/>
<path d="M86.2189 169.151C86.2156 169.557 86.3332 169.955 86.5567 170.294C86.7802 170.633 87.0996 170.898 87.4741 171.055C87.8486 171.212 88.2613 171.254 88.6597 171.175C89.0581 171.097 89.4242 170.902 89.7113 170.615C89.9985 170.327 90.1936 169.961 90.272 169.563C90.3504 169.165 90.3085 168.752 90.1516 168.377C89.9947 168.003 89.7299 167.683 89.3909 167.46C89.0519 167.236 88.654 167.119 88.248 167.122C87.7112 167.127 87.1977 167.342 86.8181 167.721C86.4385 168.101 86.2233 168.614 86.2189 169.151Z" fill="#3F3D56"/>
<path d="M66.6994 171.18C65.5788 171.18 64.6704 170.272 64.6704 169.151C64.6704 168.031 65.5788 167.122 66.6994 167.122C67.8201 167.122 68.7285 168.031 68.7285 169.151C68.7285 170.272 67.8201 171.18 66.6994 171.18Z" fill="#3F3D56"/>
<path d="M45.1516 171.18C44.031 171.18 43.1225 170.272 43.1225 169.151C43.1225 168.031 44.031 167.122 45.1516 167.122C46.2722 167.122 47.1807 168.031 47.1807 169.151C47.1807 170.272 46.2722 171.18 45.1516 171.18Z" fill="#3F3D56"/>
<path d="M21.5563 169.151C21.5306 169.434 21.5642 169.719 21.6549 169.989C21.7456 170.258 21.8915 170.506 22.0832 170.716C22.2749 170.925 22.5082 171.093 22.7683 171.208C23.0284 171.322 23.3095 171.382 23.5938 171.382C23.8781 171.382 24.1592 171.322 24.4193 171.208C24.6794 171.093 24.9127 170.925 25.1044 170.716C25.2961 170.506 25.442 170.258 25.5327 169.989C25.6234 169.719 25.657 169.434 25.6313 169.151C25.5851 168.642 25.3504 168.17 24.9735 167.825C24.5965 167.481 24.1043 167.29 23.5938 167.29C23.0832 167.29 22.5911 167.481 22.2142 167.825C21.8372 168.17 21.6025 168.642 21.5563 169.151Z" fill="#3F3D56"/>
<path d="M2.05395 171.18C0.93333 171.18 0.0248733 170.272 0.0248733 169.151C0.0248733 168.031 0.93333 167.122 2.05395 167.122C3.17458 167.122 4.08301 168.031 4.08301 169.151C4.08301 170.272 3.17458 171.18 2.05395 171.18Z" fill="#3F3D56"/>
</svg>
