<svg width="367" height="253" viewBox="0 0 367 253" fill="none" xmlns="http://www.w3.org/2000/svg">
<path d="M351.38 137.004C349.939 119.709 344.956 102.715 337.786 86.9725C316.404 39.961 272.408 -1.10506 219.683 0.961497C185.872 2.29151 152.358 6.82732 118.71 10.4146C90.0046 13.488 61.4728 16.2964 38.8435 36.9672C28.9848 45.9146 21.2839 57.1315 16.3574 69.7194C2.88622 104.692 12.9539 145.986 34.7194 176.136C56.4849 206.287 88.3794 226.857 121.168 243.061C134.542 249.663 149.542 255.778 163.81 251.666C172.595 249.128 179.959 242.971 188.294 239.14C216.351 226.242 248.884 241.413 279.409 238.143C297.712 236.117 314.753 227.51 327.575 213.816C342.692 197.565 350.7 175.008 351.717 152.456C351.934 147.303 351.822 142.141 351.38 137.004Z" fill="#92E3A9"/>
<path opacity="0.7" d="M351.38 137.004C349.939 119.709 344.956 102.715 337.786 86.9725C316.404 39.961 272.408 -1.10506 219.683 0.961497C185.872 2.29151 152.358 6.82732 118.71 10.4146C90.0046 13.488 61.4728 16.2964 38.8435 36.9672C28.9848 45.9146 21.2839 57.1315 16.3574 69.7194C2.88622 104.692 12.9539 145.986 34.7194 176.136C56.4849 206.287 88.3794 226.857 121.168 243.061C134.542 249.663 149.542 255.778 163.81 251.666C172.595 249.128 179.959 242.971 188.294 239.14C216.351 226.242 248.884 241.413 279.409 238.143C297.712 236.117 314.753 227.51 327.575 213.816C342.692 197.565 350.7 175.008 351.717 152.456C351.934 147.303 351.822 142.141 351.38 137.004Z" fill="white"/>
<path d="M105.865 26.0791L110.715 31.1077" stroke="#263238" stroke-linecap="round" stroke-linejoin="round"/>
<path d="M110.715 26.0791L105.865 31.1077" stroke="#263238" stroke-linecap="round" stroke-linejoin="round"/>
<path d="M347.479 118.954L352.329 123.988" stroke="#263238" stroke-linecap="round" stroke-linejoin="round"/>
<path d="M352.329 118.954L347.479 123.988" stroke="#263238" stroke-linecap="round" stroke-linejoin="round"/>
<path d="M67.5078 199.808L72.3577 204.836" stroke="#263238" stroke-linecap="round" stroke-linejoin="round"/>
<path d="M72.3577 199.808L67.5078 204.836" stroke="#263238" stroke-linecap="round" stroke-linejoin="round"/>
<path d="M212.619 7.62793L217.469 12.6565" stroke="#263238" stroke-linecap="round" stroke-linejoin="round"/>
<path d="M217.469 7.62793L212.619 12.6565" stroke="#263238" stroke-linecap="round" stroke-linejoin="round"/>
<path d="M215.747 237.933L220.597 242.967" stroke="#263238" stroke-linecap="round" stroke-linejoin="round"/>
<path d="M220.597 237.933L215.747 242.967" stroke="#263238" stroke-linecap="round" stroke-linejoin="round"/>
<path d="M267.414 219.486L271.242 223.455" stroke="#263238" stroke-linecap="round" stroke-linejoin="round"/>
<path d="M271.242 219.486L267.414 223.455" stroke="#263238" stroke-linecap="round" stroke-linejoin="round"/>
<path d="M331.396 19.8086L335.224 23.7774" stroke="#263238" stroke-linecap="round" stroke-linejoin="round"/>
<path d="M335.224 19.8086L331.396 23.7774" stroke="#263238" stroke-linecap="round" stroke-linejoin="round"/>
<path d="M169.171 32.8365C169.171 32.2077 168.991 31.593 168.654 31.0702C168.317 30.5474 167.838 30.1399 167.278 29.8992C166.718 29.6586 166.101 29.5956 165.506 29.7183C164.911 29.841 164.365 30.1438 163.936 30.5884C163.507 31.0331 163.215 31.5996 163.097 32.2163C162.979 32.833 163.039 33.4723 163.271 34.0532C163.504 34.6342 163.897 35.1307 164.401 35.48C164.905 35.8294 165.498 36.0158 166.104 36.0158C166.918 36.0158 167.698 35.6809 168.273 35.0847C168.848 34.4884 169.171 33.6797 169.171 32.8365Z" stroke="#263238" stroke-linecap="round" stroke-linejoin="round"/>
<path d="M22.4685 21.983C22.4685 21.3542 22.2887 20.7395 21.9518 20.2167C21.6148 19.6939 21.1359 19.2864 20.5756 19.0457C20.0154 18.8051 19.3988 18.7421 18.804 18.8648C18.2092 18.9875 17.6629 19.2903 17.234 19.7349C16.8052 20.1795 16.5132 20.746 16.3949 21.3628C16.2765 21.9795 16.3373 22.6187 16.5693 23.1997C16.8014 23.7806 17.1944 24.2772 17.6987 24.6265C18.2029 24.9759 18.7958 25.1623 19.4022 25.1623C20.2155 25.1623 20.9954 24.8274 21.5704 24.2311C22.1455 23.6349 22.4685 22.8262 22.4685 21.983Z" stroke="#263238" stroke-linecap="round" stroke-linejoin="round"/>
<path d="M324.509 214.604C324.509 213.975 324.329 213.361 323.992 212.838C323.655 212.315 323.176 211.907 322.616 211.667C322.055 211.426 321.439 211.363 320.844 211.486C320.249 211.609 319.703 211.911 319.274 212.356C318.845 212.801 318.553 213.367 318.435 213.984C318.317 214.601 318.377 215.24 318.609 215.821C318.841 216.402 319.234 216.898 319.739 217.248C320.243 217.597 320.836 217.783 321.442 217.783C322.255 217.783 323.035 217.448 323.61 216.852C324.186 216.256 324.509 215.447 324.509 214.604Z" stroke="#263238" stroke-linecap="round" stroke-linejoin="round"/>
<path d="M72.7957 244.445C72.7957 243.816 72.6158 243.201 72.2789 242.679C71.942 242.156 71.4631 241.748 70.9028 241.508C70.3425 241.267 69.726 241.204 69.1312 241.327C68.5364 241.449 67.99 241.752 67.5612 242.197C67.1324 242.641 66.8403 243.208 66.722 243.825C66.6037 244.441 66.6644 245.081 66.8965 245.662C67.1286 246.243 67.5216 246.739 68.0258 247.088C68.5301 247.438 69.1229 247.624 69.7294 247.624C70.5426 247.624 71.3225 247.289 71.8976 246.693C72.4726 246.097 72.7957 245.288 72.7957 244.445Z" stroke="#263238" stroke-linecap="round" stroke-linejoin="round"/>
<path d="M22.6404 122.903C22.6404 122.274 22.4606 121.659 22.1236 121.137C21.7867 120.614 21.3078 120.206 20.7475 119.966C20.1872 119.725 19.5707 119.662 18.9759 119.785C18.3811 119.907 17.8347 120.21 17.4059 120.655C16.9771 121.099 16.685 121.666 16.5667 122.283C16.4484 122.899 16.5091 123.539 16.7412 124.12C16.9733 124.701 17.3663 125.197 17.8706 125.546C18.3748 125.896 18.9676 126.082 19.5741 126.082C20.3873 126.082 21.1673 125.747 21.7423 125.151C22.3173 124.555 22.6404 123.746 22.6404 122.903Z" stroke="#263238" stroke-linecap="round" stroke-linejoin="round"/>
<path d="M171.177 186.388C171.177 185.759 170.998 185.145 170.661 184.622C170.324 184.099 169.845 183.692 169.285 183.451C168.724 183.21 168.108 183.147 167.513 183.27C166.918 183.393 166.372 183.696 165.943 184.14C165.514 184.585 165.222 185.151 165.104 185.768C164.986 186.385 165.046 187.024 165.278 187.605C165.51 188.186 165.903 188.682 166.408 189.032C166.912 189.381 167.505 189.568 168.111 189.568C168.924 189.568 169.704 189.233 170.279 188.636C170.854 188.04 171.177 187.231 171.177 186.388Z" stroke="#263238" stroke-linecap="round" stroke-linejoin="round"/>
<path d="M360.357 184.413L365.999 185.409" stroke="#263238" stroke-linecap="round" stroke-linejoin="round"/>
<path d="M76.0117 192.419L248.312 164.605L356.761 183.777" stroke="#263238" stroke-linecap="round" stroke-linejoin="round"/>
<path d="M1 204.529L68.5248 193.629" stroke="#263238" stroke-linecap="round" stroke-linejoin="round"/>
<path d="M292.747 36.1719L188.544 49.1753L188.748 183.994L293.764 201.358L339.656 191.497L339.86 42.1013L292.747 36.1719Z" fill="#DBDBDB" stroke="#263238" stroke-linecap="round" stroke-linejoin="round"/>
<path d="M334.917 187.327L301.525 182.097" stroke="#263238" stroke-linecap="round" stroke-linejoin="round"/>
<path d="M314.798 100.494C323.107 100.494 329.843 90.905 329.843 79.0762C329.843 67.2474 323.107 57.6582 314.798 57.6582C306.489 57.6582 299.753 67.2474 299.753 79.0762C299.753 90.905 306.489 100.494 314.798 100.494Z" fill="white"/>
<path d="M314.797 98.4769C322.322 98.4769 328.422 89.7916 328.422 79.0778C328.422 68.364 322.322 59.6787 314.797 59.6787C307.273 59.6787 301.173 68.364 301.173 79.0778C301.173 89.7916 307.273 98.4769 314.797 98.4769Z" fill="#92E3A9"/>
<path d="M314.799 86.1907C317.559 86.1907 319.797 83.0046 319.797 79.0744C319.797 75.1441 317.559 71.958 314.799 71.958C312.038 71.958 309.801 75.1441 309.801 79.0744C309.801 83.0046 312.038 86.1907 314.799 86.1907Z" fill="#263238" stroke="#263238" stroke-linecap="round" stroke-linejoin="round"/>
<path d="M282.816 76.9717L219.211 78.768V137.675L284.262 145.02V78.3176L282.816 76.9717Z" fill="#263238" stroke="#263238" stroke-linecap="round" stroke-linejoin="round"/>
<path d="M214.188 124.75C222.497 124.75 229.233 115.161 229.233 103.332C229.233 91.5032 222.497 81.9141 214.188 81.9141C205.879 81.9141 199.143 91.5032 199.143 103.332C199.143 115.161 205.879 124.75 214.188 124.75Z" fill="white"/>
<path d="M214.188 122.733C221.713 122.733 227.813 114.047 227.813 103.334C227.813 92.6198 221.713 83.9346 214.188 83.9346C206.663 83.9346 200.563 92.6198 200.563 103.334C200.563 114.047 206.663 122.733 214.188 122.733Z" fill="#92E3A9"/>
<path d="M214.188 110.448C216.949 110.448 219.187 107.261 219.187 103.331C219.187 99.4009 216.949 96.2148 214.188 96.2148C211.428 96.2148 209.19 99.4009 209.19 103.331C209.19 107.261 211.428 110.448 214.188 110.448Z" fill="#263238" stroke="#263238" stroke-linecap="round" stroke-linejoin="round"/>
<path d="M314.798 144.031C323.107 144.031 329.843 134.442 329.843 122.613C329.843 110.784 323.107 101.195 314.798 101.195C306.489 101.195 299.753 110.784 299.753 122.613C299.753 134.442 306.489 144.031 314.798 144.031Z" fill="white"/>
<path d="M314.797 142.009C322.322 142.009 328.422 133.324 328.422 122.61C328.422 111.896 322.322 103.211 314.797 103.211C307.273 103.211 301.173 111.896 301.173 122.61C301.173 133.324 307.273 142.009 314.797 142.009Z" fill="#92E3A9"/>
<path d="M314.799 129.727C317.559 129.727 319.797 126.541 319.797 122.611C319.797 118.68 317.559 115.494 314.799 115.494C312.038 115.494 309.801 118.68 309.801 122.611C309.801 126.541 312.038 129.727 314.799 129.727Z" fill="#263238" stroke="#263238" stroke-linecap="round" stroke-linejoin="round"/>
<path d="M314.798 187.57C323.107 187.57 329.843 177.981 329.843 166.152C329.843 154.324 323.107 144.734 314.798 144.734C306.489 144.734 299.753 154.324 299.753 166.152C299.753 177.981 306.489 187.57 314.798 187.57Z" fill="white"/>
<path d="M314.797 185.55C322.322 185.55 328.422 176.865 328.422 166.151C328.422 155.437 322.322 146.752 314.797 146.752C307.273 146.752 301.173 155.437 301.173 166.151C301.173 176.865 307.273 185.55 314.797 185.55Z" fill="#92E3A9"/>
<path d="M314.799 173.268C317.559 173.268 319.797 170.082 319.797 166.152C319.797 162.221 317.559 159.035 314.799 159.035C312.038 159.035 309.801 162.221 309.801 166.152C309.801 170.082 312.038 173.268 314.799 173.268Z" fill="#263238" stroke="#263238" stroke-linecap="round" stroke-linejoin="round"/>
<path d="M260.407 100.129C260.129 100.129 259.854 100.062 259.605 99.9328C257.142 98.6558 253.472 94.7558 250.917 90.6598C248.444 86.728 245.883 80.9629 247.738 75.8654C248.643 73.3802 252.271 69.1888 273.255 61.4366C284.498 57.2876 295.527 54.0659 295.634 54.0182C295.866 53.9388 296.111 53.909 296.355 53.9307C296.598 53.9523 296.835 54.0248 297.051 54.144C297.267 54.2631 297.457 54.4264 297.61 54.6239C297.763 54.8214 297.876 55.049 297.942 55.2931C298.008 55.5371 298.026 55.7925 297.994 56.0438C297.962 56.2951 297.882 56.5371 297.757 56.7552C297.633 56.9733 297.467 57.163 297.27 57.3128C297.073 57.4626 296.848 57.5694 296.61 57.6268C278.79 62.809 252.89 72.2993 251.127 77.1689C249.732 80.9947 252.297 85.9756 253.948 88.5985C256.615 92.8376 259.871 95.8633 261.23 96.5468C261.595 96.7351 261.887 97.0458 262.06 97.4283C262.233 97.8109 262.275 98.2428 262.181 98.6538C262.087 99.0647 261.861 99.4305 261.541 99.6916C261.221 99.9527 260.825 100.094 260.418 100.092L260.407 100.129Z" fill="white" stroke="#263238" stroke-linecap="round" stroke-linejoin="round"/>
<path d="M259.108 111.222C258.744 111.225 258.387 111.113 258.086 110.899C252.976 107.306 251.034 99.798 252.388 88.5803C253.007 83.4245 255.342 78.7616 259.543 74.3317C265.164 68.3811 274.271 62.7855 286.628 57.6933C314.225 46.3432 327.17 50.1266 327.712 50.2749C328.164 50.421 328.543 50.7458 328.766 51.1792C328.989 51.6125 329.039 52.1196 328.905 52.5908C328.771 53.062 328.463 53.4595 328.049 53.6974C327.634 53.9353 327.146 53.9945 326.689 53.8623C326.516 53.8146 314.133 50.3862 287.967 61.1535C267.704 69.4886 257.243 78.6079 255.986 89.0254C254.816 98.7276 256.206 105.039 260.12 107.773C260.441 107.998 260.684 108.325 260.812 108.704C260.94 109.083 260.948 109.495 260.833 109.879C260.719 110.263 260.489 110.599 260.176 110.837C259.864 111.075 259.486 111.203 259.098 111.201L259.108 111.222Z" fill="white" stroke="#263238" stroke-linecap="round" stroke-linejoin="round"/>
<path d="M257.075 127.078V130.326H268.436L270 128.291H274.895V85.8527L270 84.8353L267.649 82.6045H258.639L257.075 87.4741V127.078Z" fill="white" stroke="#263238" stroke-linecap="round" stroke-linejoin="round"/>
<path d="M265.104 87.4736H257.075V127.072H265.104V87.4736Z" fill="#92E3A9" stroke="white" stroke-linecap="round" stroke-linejoin="round"/>
<path d="M288.8 107.175L270.198 105.75V123.824L288.018 126.469L288.8 107.175Z" fill="white" stroke="#263238" stroke-linecap="round" stroke-linejoin="round"/>
<path d="M270.41 107.954L288.583 109.56" stroke="#263238" stroke-linecap="round" stroke-linejoin="round"/>
<path d="M270.216 111.059L288.486 113.168" stroke="#263238" stroke-linecap="round" stroke-linejoin="round"/>
<path d="M270.311 114.067L288.289 116.272" stroke="#263238" stroke-linecap="round" stroke-linejoin="round"/>
<path d="M270.216 117.073L288.292 119.479" stroke="#263238" stroke-linecap="round" stroke-linejoin="round"/>
<path d="M270.019 119.681L288.002 122.288" stroke="#263238" stroke-linecap="round" stroke-linejoin="round"/>
<path d="M270.117 122.086L287.907 124.995" stroke="#263238" stroke-linecap="round" stroke-linejoin="round"/>
<path d="M270.198 105.748V94.8223L271.374 95.5217V105.748H270.198Z" fill="#263238" stroke="#263238" stroke-linecap="round" stroke-linejoin="round"/>
<path d="M198.668 131.984V176.5L201.642 176.823V132.472L198.668 131.984Z" fill="#263238" stroke="#263238" stroke-linecap="round" stroke-linejoin="round"/>
<path d="M201.643 132.473L236.685 130.598V135.785L289.093 141.789V160.928L279.705 163.684L236.215 157.844V169.2L287.218 176.989V191.746L201.643 176.825V132.473Z" fill="#ABABAB" stroke="#263238" stroke-linecap="round" stroke-linejoin="round"/>
<path d="M236.683 135.784L201.482 138.312L270.474 143.568L289.091 141.788L236.683 135.784Z" fill="#ABABAB" stroke="#263238" stroke-linecap="round" stroke-linejoin="round"/>
<path d="M270.475 143.569V162.227L279.704 163.684L289.092 160.929V141.789L270.475 143.569Z" fill="#263238" stroke="#263238" stroke-linecap="round" stroke-linejoin="round"/>
<path d="M201.482 138.31V154.519L236.213 157.841L270.474 162.223V143.566L201.482 138.31Z" fill="#263238" stroke="#263238" stroke-linecap="round" stroke-linejoin="round"/>
<path d="M216.079 155.341L219.984 147.742L248.066 150.657L250.018 152.808" stroke="white" stroke-linecap="round" stroke-linejoin="round"/>
<path d="M253.58 145.534C253.58 145.534 250.003 147.479 250.765 154.945C251.526 162.411 258.589 171.975 263.909 175.383C269.229 178.79 281.739 180.734 283.62 180.57C285.5 180.406 286.589 180.247 286.589 180.247V172.77C283.505 173.533 280.291 173.533 277.206 172.77C272.356 171.472 262.968 157.684 261.875 154.754C260.781 151.824 263.28 148.751 263.28 148.751V146.329L253.58 145.534Z" fill="white" stroke="#263238" stroke-linecap="round" stroke-linejoin="round"/>
<path d="M258.277 146.169C258.277 146.169 255.144 147.79 256.554 154.928C257.965 162.065 263.908 170.66 270.634 175.201C277.359 179.742 283.461 178.773 283.461 178.773" stroke="#263238" stroke-linecap="round" stroke-linejoin="round"/>
<path d="M263.28 146.332C262.281 147.266 261.495 148.42 260.98 149.709C260.464 150.997 260.232 152.389 260.301 153.782C260.551 158.514 267.655 166.272 270.762 169.679" stroke="#263238" stroke-linecap="round" stroke-linejoin="round"/>
<path d="M259.411 147.531C259.411 147.531 257.878 150.424 258.777 155.48C259.676 160.535 267.715 170.47 273.045 174.026" stroke="#263238" stroke-linecap="round" stroke-linejoin="round"/>
<path d="M255.543 145.625C255.543 145.625 253.703 146.611 253.893 152.132C254.082 157.653 258.334 166.667 263.914 172.453" stroke="#263238" stroke-linecap="round" stroke-linejoin="round"/>
<path d="M252.119 153.185C252.119 153.185 251.5 158.78 257.51 167.454" stroke="#263238" stroke-linecap="round" stroke-linejoin="round"/>
<path d="M275.519 174.556C278.987 175.333 282.503 175.864 286.041 176.145" stroke="#263238" stroke-linecap="round" stroke-linejoin="round"/>
<path d="M198.668 131.986L222.871 130.206L236.685 130.598L201.642 132.474L198.668 131.986Z" fill="white" stroke="#263238" stroke-linecap="round" stroke-linejoin="round"/>
<path d="M201.857 164.626L228.457 160.943V167.99L201.755 173.676L201.643 176.824L236.215 169.199V157.843L226.224 156.942L201.653 158.627L201.857 164.626Z" fill="#263238" stroke="#263238" stroke-linecap="round" stroke-linejoin="round"/>
<path d="M203.63 179.395V185.976C203.63 187.65 213.769 189.012 226.274 189.012C238.78 189.012 248.945 187.65 248.945 185.976V179.395H203.63Z" fill="white"/>
<path d="M226.274 182.424C238.781 182.424 248.919 181.065 248.919 179.388C248.919 177.711 238.781 176.352 226.274 176.352C213.768 176.352 203.63 177.711 203.63 179.388C203.63 181.065 213.768 182.424 226.274 182.424Z" fill="#92E3A9"/>
<path d="M230.363 178.823C230.363 179.352 227.685 179.771 224.384 179.771C221.082 179.771 218.399 179.347 218.399 178.823C218.399 178.298 221.077 177.874 224.384 177.874C227.69 177.874 230.363 178.298 230.363 178.823Z" fill="#263238" stroke="#263238" stroke-linecap="round" stroke-linejoin="round"/>
<path d="M252.073 183.272L251.889 189.854C251.843 191.533 261.941 195.221 274.441 195.592C286.942 195.963 297.117 194.909 297.163 193.229L297.341 184.624L252.073 183.272Z" fill="white"/>
<path d="M297.342 184.624C297.296 186.303 287.121 187.358 274.626 186.987C262.131 186.616 252.027 184.952 252.073 183.278C252.119 181.603 262.294 180.543 274.795 180.92C287.295 181.296 297.388 182.949 297.342 184.624Z" fill="#92E3A9"/>
<path d="M278.811 183.498C278.811 184.028 276.108 184.367 272.806 184.271C269.505 184.176 266.832 183.683 266.832 183.153C266.832 182.623 269.535 182.284 272.837 182.385C276.138 182.486 278.826 182.973 278.811 183.498Z" fill="#263238" stroke="#263238" stroke-linecap="round" stroke-linejoin="round"/>
<path d="M201.295 48.2586V55.5763L228.222 58.9834L312.284 51.4909V40.2573L292.747 36.1719L201.295 48.2586Z" fill="#263238"/>
<path d="M201.295 55.5763L283.553 46.3828L312.284 51.4909L228.222 58.9835L201.295 55.5763Z" fill="white"/>
<path d="M251.716 98.1045H244.817C242.81 98.1045 241.184 99.7913 241.184 101.872V113.222C241.184 115.303 242.81 116.99 244.817 116.99H251.716C253.723 116.99 255.35 115.303 255.35 113.222V101.872C255.35 99.7913 253.723 98.1045 251.716 98.1045Z" fill="white" stroke="#263238" stroke-linecap="round" stroke-linejoin="round"/>
<path d="M250.396 101.27H246.134C244.712 101.27 243.559 102.465 243.559 103.94V111.147C243.559 112.622 244.712 113.817 246.134 113.817H250.396C251.819 113.817 252.972 112.622 252.972 111.147V103.94C252.972 102.465 251.819 101.27 250.396 101.27Z" fill="#92E3A9"/>
<path d="M292.936 32.4551L293.554 204.35L341.081 193.636L341.495 40.1702L292.936 32.4551ZM338.209 189.354L299.14 197.302L299.538 39.5555L338.199 46.2003L338.209 189.354Z" fill="#263238" stroke="#263238" stroke-linecap="round" stroke-linejoin="round"/>
<path d="M292.935 32.4551L185.855 47.0322V185.926L293.554 204.35L292.935 32.4551ZM191.232 182.095L190.404 50.9163L285.699 40.1755L286.322 198.569L191.232 182.095Z" fill="#707070" stroke="#263238" stroke-linecap="round" stroke-linejoin="round"/>
<path d="M228.983 61.2988V75.4944" stroke="#263238" stroke-linecap="round" stroke-linejoin="round"/>
<path d="M123.14 225.017C123.14 225.017 150.313 232.399 152.807 232.224C155.3 232.049 266.172 207.653 267 207.134C267.828 206.614 269.157 203.87 269.157 203.87L265.176 202.322C265.176 202.322 228.712 194.936 226.893 195.28C225.074 195.625 107.063 214.526 105.903 215.728C104.742 216.931 103.087 218.134 103.582 218.648C104.078 219.162 123.14 225.017 123.14 225.017Z" fill="#263238" stroke="#263238" stroke-linecap="round" stroke-linejoin="round"/>
<path d="M110.544 217.615L149.46 227.062L264.814 202.81" stroke="#B8B8B8" stroke-linecap="round" stroke-linejoin="round"/>
<path d="M151.57 228.086L153.262 229.252L267.512 204.564" stroke="#B8B8B8" stroke-linecap="round" stroke-linejoin="round"/>
<path d="M117.561 217.71L118.991 216.358L147.917 223.655L148.05 225.817" stroke="#B8B8B8" stroke-linecap="round" stroke-linejoin="round"/>
<path d="M147.915 223.655L153.107 222.85L154.722 224.906" stroke="#B8B8B8" stroke-linecap="round" stroke-linejoin="round"/>
<path d="M155.219 224.586L155.714 222.784L160.115 221.693L161.602 223.431L162.22 221.502L172.758 219.313L174.306 221.242" stroke="#B8B8B8" stroke-linecap="round" stroke-linejoin="round"/>
<path d="M175.921 220.475L176.728 218.737L180.571 217.709L182.181 219.511" stroke="#B8B8B8" stroke-linecap="round" stroke-linejoin="round"/>
<path d="M182.801 219.254L183.296 217.262L186.332 216.621L187.947 217.84L188.877 216.107L192.286 215.529L193.461 216.557" stroke="#B8B8B8" stroke-linecap="round" stroke-linejoin="round"/>
<path d="M118.991 216.358L123.667 215.653L125.093 216.167L125.65 214.949L126.892 214.816H129.059L130.674 214.429L131.972 213.598H135.258L137.926 213.534L138.483 212.824L142.387 212.246L144.988 212.697L146.291 211.028L150.196 210.832L151.56 210.895L152.49 210.19L162.594 208.585L164.638 208.839L165.691 207.62L174.869 206.46L178.523 207.043L179.269 208.007" stroke="#B8B8B8" stroke-linecap="round" stroke-linejoin="round"/>
<path d="M172.079 209.802L178.339 208.451" stroke="#B8B8B8" stroke-linecap="round" stroke-linejoin="round"/>
<path d="M179.826 208.391L188.314 210.659L182.427 212.121L174 210.319" stroke="#B8B8B8" stroke-linecap="round" stroke-linejoin="round"/>
<path d="M182.428 212.119V215.267" stroke="#B8B8B8" stroke-linecap="round" stroke-linejoin="round"/>
<path d="M192.286 215.527L186.894 214.239L183.547 214.626L183.112 215.654" stroke="#B8B8B8" stroke-linecap="round" stroke-linejoin="round"/>
<path d="M186.331 216.618L180.322 215.267L178.211 216.167L177.904 216.681" stroke="#B8B8B8" stroke-linecap="round" stroke-linejoin="round"/>
<path d="M183.296 217.261L179.948 216.492" stroke="#B8B8B8" stroke-linecap="round" stroke-linejoin="round"/>
<path d="M188.878 216.105L184.846 215.331" stroke="#B8B8B8" stroke-linecap="round" stroke-linejoin="round"/>
<path d="M176.729 218.739L171.583 216.942L175.799 216.296L180.072 217.26" stroke="#B8B8B8" stroke-linecap="round" stroke-linejoin="round"/>
<path d="M171.148 214.239L175.175 215.526L179.33 214.562L175.487 213.274L171.148 214.239Z" stroke="#B8B8B8" stroke-linecap="round" stroke-linejoin="round"/>
<path d="M171.148 214.239L169.723 215.845L171.46 216.491" stroke="#B8B8B8" stroke-linecap="round" stroke-linejoin="round"/>
<path d="M179.331 214.563L180.322 215.268" stroke="#B8B8B8" stroke-linecap="round" stroke-linejoin="round"/>
<path d="M172.758 219.316L146.848 213.148" stroke="#B8B8B8" stroke-linecap="round" stroke-linejoin="round"/>
<path d="M126.397 216.556L151.996 222.66" stroke="#B8B8B8" stroke-linecap="round" stroke-linejoin="round"/>
<path d="M127.198 215.591L154.907 222.336" stroke="#B8B8B8" stroke-linecap="round" stroke-linejoin="round"/>
<path d="M131.23 215.014L159.123 221.309" stroke="#B8B8B8" stroke-linecap="round" stroke-linejoin="round"/>
<path d="M137.799 213.979L160.055 219.125L165.135 218.097" stroke="#B8B8B8" stroke-linecap="round" stroke-linejoin="round"/>
<path d="M184.053 214.624L185.116 212.271L198.188 209.568L202.144 210.57L254.036 200.873L258.972 201.753L260.73 203.459" stroke="#B8B8B8" stroke-linecap="round" stroke-linejoin="round"/>
<path d="M258.972 201.752L207.76 212.514L208.327 214.22" stroke="#B8B8B8" stroke-linecap="round" stroke-linejoin="round"/>
<path d="M210.429 209.098L215.192 210.687L216.495 212.097" stroke="#B8B8B8" stroke-linecap="round" stroke-linejoin="round"/>
<path d="M217.347 207.691L222.789 209.398L223.811 210.632" stroke="#B8B8B8" stroke-linecap="round" stroke-linejoin="round"/>
<path d="M244.965 202.692L249.559 203.805L250.637 204.748" stroke="#B8B8B8" stroke-linecap="round" stroke-linejoin="round"/>
<path d="M250.917 201.635L254.719 202.811L255.455 203.807" stroke="#B8B8B8" stroke-linecap="round" stroke-linejoin="round"/>
<path d="M190.466 214.568L191.6 213.275L196.476 214.748L205.777 212.92L201.07 211.336" stroke="#B8B8B8" stroke-linecap="round" stroke-linejoin="round"/>
<path d="M205.777 212.919L206.513 214.567" stroke="#B8B8B8" stroke-linecap="round" stroke-linejoin="round"/>
<path d="M207.76 212.513L203.851 211.162" stroke="#B8B8B8" stroke-linecap="round" stroke-linejoin="round"/>
<path d="M191.6 213.276L199.822 211.628" stroke="#B8B8B8" stroke-linecap="round" stroke-linejoin="round"/>
<path d="M185.528 212.571L188.538 213.509" stroke="#B8B8B8" stroke-linecap="round" stroke-linejoin="round"/>
<path d="M137.065 216.155L137.786 215.158L140.193 214.597" stroke="#B8B8B8" stroke-linecap="round" stroke-linejoin="round"/>
<path d="M142.966 217.715L143.569 216.713L145.736 216.024" stroke="#B8B8B8" stroke-linecap="round" stroke-linejoin="round"/>
<path d="M149.709 218.777L150.312 218.151L153.082 217.653" stroke="#B8B8B8" stroke-linecap="round" stroke-linejoin="round"/>
<path d="M140.976 221.648L143.388 220.9" stroke="#B8B8B8" stroke-linecap="round" stroke-linejoin="round"/>
<path d="M136.279 220.398L137.904 219.776" stroke="#B8B8B8" stroke-linecap="round" stroke-linejoin="round"/>
<path d="M124.475 217.267L127.306 217.026" stroke="#B8B8B8" stroke-linecap="round" stroke-linejoin="round"/>
<path d="M128.874 218.401L131.823 218.029" stroke="#B8B8B8" stroke-linecap="round" stroke-linejoin="round"/>
<path d="M152.179 214.403L153.569 213.152L156.819 214.027V214.779" stroke="#B8B8B8" stroke-linecap="round" stroke-linejoin="round"/>
<path d="M157.3 214.093L160.795 213.282L162.058 214.22L162.84 212.593L166.514 211.782L167.96 213.218L168.803 211.597L172.539 210.972L173.986 212.344" stroke="#B8B8B8" stroke-linecap="round" stroke-linejoin="round"/>
<path d="M154.83 212.718L168.685 209.968L171.27 210.529" stroke="#B8B8B8" stroke-linecap="round" stroke-linejoin="round"/>
<path d="M160.794 213.281L158.203 212.222" stroke="#B8B8B8" stroke-linecap="round" stroke-linejoin="round"/>
<path d="M162.839 212.592L160.432 211.908" stroke="#B8B8B8" stroke-linecap="round" stroke-linejoin="round"/>
<path d="M168.803 211.595L165.609 210.906" stroke="#B8B8B8" stroke-linecap="round" stroke-linejoin="round"/>
<path d="M151.561 210.896L156.697 212.279" stroke="#B8B8B8" stroke-linecap="round" stroke-linejoin="round"/>
<path d="M152.903 210.347L158.745 211.973" stroke="#B8B8B8" stroke-linecap="round" stroke-linejoin="round"/>
<path d="M157.479 209.718L162.482 211.281" stroke="#B8B8B8" stroke-linecap="round" stroke-linejoin="round"/>
<path d="M159.348 209.285L164.167 211.092L166.513 211.781" stroke="#B8B8B8" stroke-linecap="round" stroke-linejoin="round"/>
<path d="M165.189 209.093L167.479 209.782" stroke="#B8B8B8" stroke-linecap="round" stroke-linejoin="round"/>
<path d="M165.69 207.619L170.729 208.721L171.092 210.03" stroke="#B8B8B8" stroke-linecap="round" stroke-linejoin="round"/>
<path d="M176.213 205.973L231.258 196.668" stroke="#B8B8B8" stroke-linecap="round" stroke-linejoin="round"/>
<path d="M181.047 207.691L237.14 197.861" stroke="#B8B8B8" stroke-linecap="round" stroke-linejoin="round"/>
<path d="M185.34 209.27L243.221 198.789" stroke="#B8B8B8" stroke-linecap="round" stroke-linejoin="round"/>
<path d="M199.655 209.085L249.217 199.902" stroke="#B8B8B8" stroke-linecap="round" stroke-linejoin="round"/>
<path d="M223.169 197.957L245.747 202.233" stroke="#B8B8B8" stroke-linecap="round" stroke-linejoin="round"/>
<path d="M228.723 197.148L249.032 201.425" stroke="#B8B8B8" stroke-linecap="round" stroke-linejoin="round"/>
<path d="M237.325 204.027L219.883 198.882" stroke="#B8B8B8" stroke-linecap="round" stroke-linejoin="round"/>
<path d="M231.652 205.141L215.819 200.001" stroke="#B8B8B8" stroke-linecap="round" stroke-linejoin="round"/>
<path d="M222.871 206.873L207.637 201.055" stroke="#B8B8B8" stroke-linecap="round" stroke-linejoin="round"/>
<path d="M218.032 207.8L203.217 201.918" stroke="#B8B8B8" stroke-linecap="round" stroke-linejoin="round"/>
<path d="M212.539 208.859L198.143 202.729" stroke="#B8B8B8" stroke-linecap="round" stroke-linejoin="round"/>
<path d="M206.442 209.847L192.767 203.53" stroke="#B8B8B8" stroke-linecap="round" stroke-linejoin="round"/>
<path d="M198.561 209.912L187.211 204.46" stroke="#B8B8B8" stroke-linecap="round" stroke-linejoin="round"/>
<path d="M193.247 210.587L182.075 205.262" stroke="#B8B8B8" stroke-linecap="round" stroke-linejoin="round"/>
<path d="M139.723 211.524L141.041 209.977" stroke="#B8B8B8" stroke-linecap="round" stroke-linejoin="round"/>
<path d="M145.644 209.167L148.209 210.158" stroke="#B8B8B8" stroke-linecap="round" stroke-linejoin="round"/>
<path d="M151.135 208.363L153.879 209.291" stroke="#B8B8B8" stroke-linecap="round" stroke-linejoin="round"/>
<path d="M157.702 207.061L161.167 208.3" stroke="#B8B8B8" stroke-linecap="round" stroke-linejoin="round"/>
<path d="M164.156 205.946L167.918 206.874" stroke="#B8B8B8" stroke-linecap="round" stroke-linejoin="round"/>
<path d="M169.412 205.017L173.235 206.251" stroke="#B8B8B8" stroke-linecap="round" stroke-linejoin="round"/>
<path d="M175.146 204.03L178.135 204.958" stroke="#B8B8B8" stroke-linecap="round" stroke-linejoin="round"/>
<path d="M188.283 201.918L190.792 202.723" stroke="#B8B8B8" stroke-linecap="round" stroke-linejoin="round"/>
<path d="M193.542 200.995L196.409 201.737" stroke="#B8B8B8" stroke-linecap="round" stroke-linejoin="round"/>
<path d="M198.205 200.122L201.072 200.68" stroke="#B8B8B8" stroke-linecap="round" stroke-linejoin="round"/>
<path d="M204.714 199.197L207.76 200.125" stroke="#B8B8B8" stroke-linecap="round" stroke-linejoin="round"/>
<path d="M210.566 198.268L214.031 199.009" stroke="#B8B8B8" stroke-linecap="round" stroke-linejoin="round"/>
<path d="M214.925 197.397L218.39 198.266" stroke="#B8B8B8" stroke-linecap="round" stroke-linejoin="round"/>
<path d="M219.821 196.655L222.75 197.461" stroke="#B8B8B8" stroke-linecap="round" stroke-linejoin="round"/>
<path d="M126.294 227.759C126.294 227.759 120.32 219.683 110.544 217.601C100.768 215.518 95.4628 219.148 90.6539 221.898C85.8449 224.648 81.2097 226.879 81.7054 228.94C81.9714 229.933 82.4324 230.857 83.0595 231.656C83.6865 232.455 84.4661 233.111 85.3492 233.582C86.8415 234.271 101.263 239.596 108.06 240.285C114.857 240.974 122.973 239.082 125.461 236.502C127.95 233.921 126.294 227.759 126.294 227.759Z" fill="#A3A3A3" stroke="#263238" stroke-linecap="round" stroke-linejoin="round"/>
<path d="M124.786 226.018C122.44 223.522 117.442 219.077 110.543 217.625C100.767 215.563 95.4619 219.172 90.653 221.922C89.7382 222.452 88.8336 222.945 87.9648 223.432C88.9869 223.183 96.0598 221.556 99.4379 223.464C103.087 225.531 109.715 228.45 116.839 228.45C120.892 228.45 123.386 227.232 124.786 226.018Z" fill="#707070" stroke="#263238" stroke-linecap="round" stroke-linejoin="round"/>
<path d="M126.758 233.309C123.537 235.353 119.8 236.353 116.026 236.181C106.582 235.837 102.77 229.478 96.8008 226.044C90.8317 222.611 81.7197 228.964 81.7197 228.964C81.9857 229.956 82.4467 230.881 83.0738 231.68C83.7008 232.479 84.4804 233.134 85.3635 233.606C86.8558 234.295 101.278 239.62 108.074 240.309C114.871 240.998 122.987 239.106 125.476 236.525C126.235 235.63 126.686 234.499 126.758 233.309Z" fill="#263238" stroke="#263238" stroke-linecap="round" stroke-linejoin="round"/>
<path d="M28.5346 39.8867L26.0254 41.4605L39.8697 179.337L42.1694 178.34L28.5346 39.8867Z" fill="#A3A3A3" stroke="#263238" stroke-linecap="round" stroke-linejoin="round"/>
<path d="M107.624 170.969L96.79 203.578L121.862 198.041C121.862 198.041 117.411 194.814 118.009 189.891C118.607 184.969 124.683 169.894 124.683 169.894L107.624 170.969Z" fill="#A3A3A3" stroke="#263238" stroke-linecap="round" stroke-linejoin="round"/>
<path d="M118.009 189.869C118.602 184.946 124.683 169.871 124.683 169.871L112.678 170.629C111.718 173.501 106.255 189.175 105.989 193.562C105.879 194.95 106.108 196.344 106.657 197.615C107.206 198.886 108.055 199.993 109.127 200.832L121.862 198.019C121.862 198.019 117.411 194.813 118.009 189.869Z" fill="#263238" stroke="#263238" stroke-linecap="round" stroke-linejoin="round"/>
<path d="M28.5342 39.8867L42.1689 178.34L197.052 163.403L183.417 58.5599L28.5342 39.8867Z" fill="#263238" stroke="#263238" stroke-linecap="round" stroke-linejoin="round"/>
<path d="M33.9375 45.4912L47.0612 172.203L192.168 159.13L180.588 63.6292L33.9375 45.4912Z" fill="#92E3A9" stroke="#263238" stroke-linecap="round" stroke-linejoin="round"/>
<path d="M127.823 106.29C133.623 102.672 134.965 93.9498 130.822 86.8079C126.678 79.666 118.617 76.8089 112.818 80.4265C107.018 84.044 105.675 92.7662 109.819 99.9081C113.963 107.05 122.023 109.907 127.823 106.29Z" fill="white" stroke="#263238" stroke-linecap="round" stroke-linejoin="round"/>
<path d="M123.014 91.4216C124.797 90.0726 124.904 87.078 123.253 84.7329C121.603 82.3879 118.82 81.5804 117.037 82.9294C115.254 84.2785 115.147 87.2731 116.797 89.6182C118.447 91.9632 121.231 92.7706 123.014 91.4216Z" fill="white" stroke="#263238" stroke-linecap="round" stroke-linejoin="round"/>
<path d="M132.87 98.8191C129.114 94.3893 123.86 91.724 119.072 92.3439C114.283 92.9639 111.36 96.583 110.823 101.495C114.303 106.264 119.853 108.834 124.933 107.525C129.078 106.46 131.914 103.09 132.87 98.8191Z" fill="white" stroke="#263238" stroke-linecap="round" stroke-linejoin="round"/>
<path d="M145.827 122.251H102.096L100.896 114.361H144.621L145.827 122.251Z" fill="white" stroke="#263238" stroke-linecap="round" stroke-linejoin="round"/>
<path d="M39.8701 179.335L196.327 164.249L197.053 163.401L42.1698 178.339L39.8701 179.335Z" fill="white" stroke="#263238" stroke-linecap="round" stroke-linejoin="round"/>
<path d="M88.1279 216.858C88.1279 216.858 91.4191 213.609 94.6285 212.089C97.8378 210.568 111.376 205.274 126.824 204.003C142.273 202.731 178.819 202.021 181.266 201.941C183.714 201.862 186.546 201.623 186.847 200.754C187.149 199.885 187.292 195.985 187.292 195.985L176.463 200.14L175.379 199.08C175.379 199.08 163.451 197.888 141.584 199.71C119.716 201.533 106.408 205.009 97.4648 207.955C88.5214 210.902 88.1279 216.858 88.1279 216.858Z" fill="#263238" stroke="#263238" stroke-linecap="round" stroke-linejoin="round"/>
<path d="M75.1318 210.638L88.9301 215.56C88.9301 215.56 94.1224 207.713 119.343 203.558C144.563 199.404 176.457 200.178 176.457 200.178L187.286 196.024C187.286 196.024 145.892 193.565 119.046 197.253C92.2008 200.941 78.5456 206.33 75.1318 210.638Z" fill="#707070" stroke="#263238" stroke-linecap="round" stroke-linejoin="round"/>
<path d="M75.1328 210.637C75.1328 210.637 70.6816 216.328 71.8724 216.789C73.0631 217.25 86.5548 217.403 87.5973 216.942C87.8968 216.815 88.1689 216.627 88.3979 216.389C88.6268 216.152 88.8081 215.87 88.9311 215.559L75.1328 210.637Z" fill="#263238" stroke="#263238" stroke-linecap="round" stroke-linejoin="round"/>
<path d="M23.5732 217.069L26.2869 240.755C26.2869 245.127 33.3649 248.672 42.0936 248.672C50.8223 248.672 57.9003 245.127 57.9003 240.755L60.614 217.069H23.5732Z" fill="white" stroke="#263238" stroke-linecap="round" stroke-linejoin="round"/>
<path d="M42.1151 222.507C52.3436 222.507 60.6355 220.073 60.6355 217.07C60.6355 214.068 52.3436 211.634 42.1151 211.634C31.8866 211.634 23.5947 214.068 23.5947 217.07C23.5947 220.073 31.8866 222.507 42.1151 222.507Z" fill="white" stroke="#263238" stroke-linecap="round" stroke-linejoin="round"/>
<path d="M42.1156 221.311C50.0862 221.311 56.5476 219.413 56.5476 217.072C56.5476 214.731 50.0862 212.833 42.1156 212.833C34.145 212.833 27.6836 214.731 27.6836 217.072C27.6836 219.413 34.145 221.311 42.1156 221.311Z" fill="#263238"/>
<path d="M10.2848 163.949C11.9968 164.436 15.9063 163.753 15.9063 163.753C15.9063 163.753 14.6849 161.198 14.5878 161.05C13.4584 159.301 10.2899 156.615 8.10771 157.261C7.74796 157.38 7.41616 157.575 7.13383 157.834C6.8515 158.094 6.62494 158.412 6.46882 158.768C6.31271 159.125 6.23053 159.511 6.22762 159.902C6.22471 160.293 6.30112 160.681 6.45191 161.04C7.08561 162.581 8.83339 163.551 10.2848 163.949Z" fill="#263238"/>
<path d="M50.3261 158.846C50.3619 158.846 50.6634 156.022 50.6583 155.842C50.6583 153.722 49.4369 149.684 47.27 148.953C46.9073 148.846 46.5268 148.818 46.1532 148.873C45.7797 148.928 45.4214 149.064 45.1018 149.272C44.7822 149.48 44.5084 149.755 44.2982 150.08C44.088 150.405 43.9461 150.772 43.8818 151.158C43.5547 152.784 44.5104 154.581 45.5069 155.762C46.6772 157.193 50.321 158.846 50.3261 158.846Z" fill="#263238"/>
<path d="M60.0256 142.256C57.7565 142.341 55.5437 145.917 54.9918 147.941C54.9458 148.116 54.4807 150.941 54.5472 150.935H54.5932C54.2405 151.497 53.8675 152.101 53.474 152.774C52.7585 154.019 51.9408 155.423 51.1845 157.013C50.3328 158.732 49.5803 160.501 48.9307 162.312C48.1923 164.33 47.6279 166.412 47.2443 168.533C47.2443 168.559 47.2443 168.586 47.2443 168.612C47.1625 167.929 46.8661 166.021 46.8252 165.878C46.2784 163.854 44.0758 160.272 41.8067 160.182C41.4294 160.177 41.0554 160.255 40.709 160.41C40.3625 160.565 40.0515 160.794 39.796 161.082C39.5405 161.369 39.3463 161.71 39.2261 162.081C39.1059 162.452 39.0623 162.844 39.0982 163.234C39.2004 164.898 40.5751 166.366 41.8374 167.229C43.2632 168.21 46.9479 168.819 47.2136 168.861C46.874 171.03 46.6759 173.22 46.6208 175.416C46.5799 176.693 46.5748 177.981 46.5901 179.274C46.4982 178.685 46.4113 178.161 46.396 178.087C45.8491 176.062 43.6414 172.486 41.3723 172.39C40.995 172.386 40.6211 172.465 40.2749 172.62C39.9287 172.776 39.6179 173.005 39.3629 173.294C39.1079 173.582 38.9143 173.923 38.7947 174.294C38.6752 174.665 38.6323 175.058 38.6689 175.448C38.7711 177.106 40.1458 178.574 41.4081 179.443C42.6704 180.312 45.798 180.906 46.6208 181.033C46.6208 181.531 46.6208 182.029 46.6515 182.522C46.7077 184.901 46.7741 187.291 46.7741 189.606C46.7741 190.428 46.7435 191.238 46.7128 192.044C46.631 191.514 46.5595 191.085 46.5442 191.016C45.9973 188.992 43.7947 185.41 41.5206 185.32C41.1434 185.316 40.7699 185.395 40.4241 185.551C40.0782 185.707 39.7678 185.937 39.513 186.225C39.2581 186.513 39.0645 186.854 38.9446 187.224C38.8248 187.595 38.7813 187.988 38.8171 188.377C38.9193 190.036 40.294 191.503 41.5563 192.372C42.8186 193.241 45.6447 193.771 46.6259 193.962C46.5697 194.789 46.5237 195.621 46.4368 196.421C46.3653 196.951 46.3346 197.48 46.2324 198.037C46.1302 198.593 46.0587 199.097 45.9718 199.626C45.7674 200.639 45.5629 201.688 45.3432 202.668C45.1899 203.352 45.0366 204.003 44.8832 204.66C44.8832 203.839 44.8832 202.239 44.8832 202.106C44.6039 200.279 43.8772 198.557 42.7726 197.104C42.747 196.9 42.706 196.698 42.65 196.5C42.5494 196.123 42.3736 195.773 42.1339 195.471C41.8942 195.17 41.596 194.924 41.2586 194.749C40.9213 194.575 40.5523 194.476 40.1757 194.459C39.7991 194.442 39.4233 194.507 39.0726 194.651C36.9876 195.578 36.1597 199.738 36.3487 201.831C36.3487 201.953 36.6247 203.277 36.8036 204.115C36.6298 203.638 36.4612 203.177 36.2925 202.694C35.9246 201.73 35.5311 200.782 35.112 199.759L34.4476 198.286C34.233 197.793 33.9366 197.295 33.7015 196.792C33.1036 195.636 32.4392 194.497 31.7493 193.368C32.5619 193.035 35.4237 191.779 36.4867 190.666C37.5497 189.553 38.5871 187.805 38.3469 186.162C38.3034 185.774 38.1813 185.399 37.9886 185.063C37.796 184.727 37.5372 184.436 37.229 184.211C36.9209 183.985 36.5703 183.83 36.2003 183.754C35.8302 183.679 35.4489 183.685 35.0813 183.772C32.8787 184.36 31.458 188.34 31.3354 190.438C31.3354 190.571 31.4069 192.086 31.4631 192.918C31.0441 192.24 30.625 191.567 30.1804 190.894C28.8874 188.96 27.5229 187.042 26.1738 185.123C25.7547 184.535 25.351 183.947 24.9422 183.354C25.2335 183.237 28.6677 181.849 29.8584 180.582C30.9163 179.459 31.9588 177.721 31.7187 176.078C31.6735 175.69 31.5503 175.316 31.357 174.98C31.1637 174.644 30.9045 174.353 30.5963 174.128C30.2881 173.902 29.9376 173.746 29.5676 173.669C29.1975 173.593 28.8161 173.597 28.4479 173.683C26.2504 174.271 24.8297 178.256 24.7071 180.355C24.7071 180.513 24.8093 182.697 24.8655 183.248C23.9661 181.949 23.0819 180.646 22.2592 179.327C21.1387 177.547 20.1314 175.694 19.244 173.779C19.3768 173.726 22.9695 172.29 24.1909 170.997C25.2437 169.868 26.2913 168.135 26.0511 166.487C26.0061 166.099 25.8829 165.725 25.6895 165.389C25.4961 165.053 25.2369 164.763 24.9285 164.538C24.6202 164.313 24.2696 164.157 23.8996 164.081C23.5296 164.005 23.1483 164.011 22.7804 164.098C20.5829 164.686 19.1622 168.665 19.0396 170.769C19.0396 170.907 19.1162 172.565 19.1724 173.355L19.0498 173.392C18.2051 171.441 17.5312 169.416 17.0362 167.341C16.7501 166.201 16.5252 165.094 16.3514 164.013C17.0465 163.817 20.215 162.889 21.4619 161.846C22.7089 160.802 23.8536 159.239 23.7872 157.607C23.7846 157.215 23.7027 156.829 23.5466 156.473C23.3905 156.117 23.1639 155.798 22.8814 155.539C22.5989 155.28 22.2669 155.085 21.907 154.967C21.5471 154.849 21.1673 154.812 20.7924 154.856C18.5438 155.19 16.7041 158.984 16.3668 161.061C16.3668 161.173 16.2799 162.338 16.2441 163.181C16.1675 162.693 16.0806 162.19 16.0193 161.718C15.774 159.954 15.6564 158.327 15.5644 156.881C15.5184 156.059 15.4878 155.317 15.4724 154.618C16.0601 154.056 18.3905 151.767 18.9987 150.284C19.6068 148.8 19.9646 146.829 19.1673 145.387C18.9913 145.041 18.7471 144.738 18.4504 144.496C18.1538 144.254 17.8114 144.08 17.4455 143.985C17.0797 143.889 16.6985 143.875 16.3269 143.942C15.9552 144.009 15.6014 144.157 15.2885 144.375C13.4436 145.748 13.4998 149.992 14.1182 151.995C14.1693 152.17 15.3038 154.777 15.3345 154.75L15.3702 154.713C15.3702 155.386 15.3702 156.102 15.4162 156.891C15.4775 158.338 15.5644 159.975 15.7688 161.75C15.9745 163.666 16.285 165.568 16.699 167.447C17.1566 169.552 17.7946 171.611 18.6052 173.598L18.6358 173.667C18.2014 173.137 16.9443 171.723 16.8318 171.627C15.2987 170.25 11.5578 168.527 9.61583 169.746C9.29858 169.958 9.02793 170.237 8.82151 170.565C8.61508 170.892 8.4775 171.261 8.41772 171.648C8.35794 172.034 8.37731 172.429 8.47455 172.807C8.57179 173.185 8.74474 173.538 8.98213 173.842C9.95312 175.172 11.8798 175.607 13.3925 175.607C15.1045 175.607 18.4774 174.017 18.7431 173.895C19.6153 175.896 20.6158 177.835 21.7379 179.697C22.3818 180.789 23.0666 181.865 23.7821 182.935C23.3937 182.495 23.0411 182.108 22.9848 182.061C21.4517 180.683 17.7108 178.956 15.7688 180.18C15.4516 180.392 15.1809 180.67 14.9745 180.998C14.7681 181.326 14.6305 181.695 14.5707 182.081C14.511 182.467 14.5303 182.863 14.6276 183.241C14.7248 183.619 14.8978 183.971 15.1351 184.276C16.101 185.6 18.0328 186.04 19.5455 186.04C21.0582 186.04 23.9865 184.747 24.748 184.392C25.0239 184.8 25.2897 185.214 25.5656 185.622C26.879 187.572 28.1975 189.511 29.4343 191.45C29.8687 192.139 30.2775 192.828 30.6863 193.522C30.3388 193.13 30.0424 192.807 29.9964 192.759C28.4633 191.381 24.7173 189.659 22.7753 190.878C22.4524 191.082 22.1744 191.354 21.9596 191.677C21.7448 191.999 21.5979 192.365 21.5284 192.751C21.459 193.136 21.4686 193.532 21.5567 193.913C21.6447 194.295 21.8092 194.652 22.0394 194.963C23.0053 196.293 24.9319 196.728 26.4497 196.733C27.9676 196.739 30.6046 195.562 31.5142 195.144C31.9077 195.864 32.3115 196.585 32.6641 197.3C32.8941 197.793 33.1751 198.254 33.354 198.763L33.9877 200.252C34.3608 201.216 34.7441 202.202 35.0865 203.15C35.3215 203.807 35.5413 204.438 35.761 205.074C35.3318 204.385 34.4732 203.055 34.3863 202.954C33.0729 201.364 29.6234 199.059 27.5281 199.96C27.1833 200.12 26.8749 200.354 26.623 200.646C26.3711 200.937 26.1814 201.281 26.0661 201.654C25.9509 202.027 25.9127 202.421 25.9542 202.81C25.9956 203.199 26.1157 203.575 26.3067 203.913C27.0681 205.376 28.9079 206.112 30.395 206.351C32.0457 206.61 35.4749 205.63 35.9041 205.503C36.2619 206.563 36.6043 207.58 36.9262 208.555C37.9892 211.893 38.7558 214.723 39.2668 216.721L40.8 216.487C40.785 216.444 40.7731 216.4 40.7642 216.355C40.202 214.347 39.3639 211.485 38.209 208.105C37.8512 207.045 37.4424 205.9 37.0131 204.74C38.0032 204.145 38.9588 203.49 39.875 202.779C41.2088 203.897 44.3671 204.968 44.7759 205.1C44.5153 206.186 44.2649 207.22 43.994 208.221C43.1048 211.618 42.236 214.41 41.6023 216.371L43.2734 216.116C43.8458 214.182 44.5664 211.612 45.3176 208.576C45.5834 207.479 45.8287 206.298 46.1047 205.084C46.5442 205.111 50.101 205.323 51.6649 204.703C53.0753 204.136 54.7311 203.012 55.1706 201.417C55.2879 201.046 55.3283 200.652 55.2892 200.263C55.2502 199.874 55.1327 199.498 54.9442 199.159C54.7557 198.82 54.5005 198.526 54.1953 198.296C53.89 198.067 53.5415 197.906 53.1724 197.825C50.9392 197.406 48.0364 200.4 47.0808 202.255C47.0245 202.366 46.539 203.622 46.2426 204.422C46.35 203.924 46.4522 203.442 46.5544 202.933C46.7588 201.921 46.9377 200.903 47.1319 199.812C47.2034 199.282 47.2801 198.752 47.3567 198.222C47.4334 197.692 47.4743 197.109 47.5356 196.548C47.648 195.244 47.6991 193.898 47.7247 192.574C48.5832 192.759 51.6291 193.369 53.1162 193.035C54.6034 192.701 56.392 191.848 57.0615 190.338C57.2313 189.988 57.3284 189.606 57.3464 189.216C57.3644 188.825 57.303 188.435 57.1661 188.071C57.0292 187.706 56.82 187.376 56.5519 187.101C56.2838 186.826 55.963 186.613 55.6101 186.475C53.4637 185.706 50.1573 188.218 48.9665 189.898C48.8899 190.004 48.1488 191.313 47.7553 192.017C47.7553 191.212 47.7553 190.428 47.7553 189.596C47.7093 187.243 47.5918 184.864 47.4845 182.485C47.4487 181.759 47.4232 181.033 47.3976 180.307C47.6991 180.376 51.3071 181.186 52.9731 180.81C54.4501 180.476 56.249 179.623 56.9184 178.113C57.089 177.764 57.1868 177.382 57.2052 176.991C57.2236 176.6 57.1624 176.21 57.0254 175.845C56.8884 175.481 56.6788 175.15 56.4103 174.875C56.1418 174.601 55.8204 174.388 55.4671 174.25C53.3207 173.482 50.0142 175.988 48.8234 177.673C48.7314 177.8 47.6633 179.682 47.418 180.174C47.3567 178.585 47.3107 176.995 47.3312 175.405C47.3417 173.278 47.4868 171.154 47.7656 169.047C47.9035 169.079 51.6649 169.937 53.3871 169.577C54.864 169.243 56.6629 168.39 57.3375 166.88C57.5072 166.53 57.604 166.148 57.6217 165.757C57.6393 165.366 57.5775 164.976 57.4401 164.611C57.3027 164.247 57.0929 163.917 56.8243 163.642C56.5556 163.367 56.2343 163.154 55.881 163.017C53.7346 162.248 50.4281 164.755 49.2118 166.44C49.1301 166.551 48.3175 167.982 47.9495 168.676L47.8269 168.633C48.1592 166.524 48.6723 164.449 49.36 162.434C49.728 161.321 50.1368 160.277 50.5559 159.254C51.2407 159.488 54.3785 160.526 55.9525 160.351C57.5266 160.176 59.3357 159.551 60.1636 158.126C60.3707 157.799 60.5091 157.431 60.5698 157.045C60.6304 156.659 60.6119 156.264 60.5154 155.886C60.419 155.508 60.2468 155.156 60.01 154.851C59.7733 154.547 59.4774 154.298 59.1415 154.12C57.0973 153.113 53.52 155.227 52.1503 156.769C52.0788 156.854 51.3991 157.792 50.9136 158.481C51.1129 158.03 51.3071 157.559 51.5064 157.13C52.2372 155.54 53.0089 154.093 53.6988 152.838C54.0974 152.122 54.4705 151.486 54.8282 150.898C55.6153 150.766 58.7786 150.188 60.0767 149.309C61.3748 148.429 62.7188 146.982 62.821 145.324C62.8604 144.925 62.8164 144.523 62.6921 144.144C62.5678 143.764 62.3662 143.417 62.1009 143.126C61.8356 142.835 61.5129 142.606 61.1548 142.456C60.7967 142.306 60.4115 142.238 60.0256 142.256Z" fill="#263238"/>
</svg>
