<svg width="73" height="108" viewBox="0 0 73 108" fill="none" xmlns="http://www.w3.org/2000/svg">
<path d="M8.33062 2.22631C8.33062 2.47821 8.25907 2.72445 8.12502 2.9339C7.99096 3.14335 7.80042 3.3066 7.5775 3.403C7.35457 3.49939 7.10927 3.52462 6.87262 3.47547C6.63596 3.42633 6.41857 3.30503 6.24795 3.1269C6.07733 2.94878 5.96114 2.72184 5.91407 2.47478C5.86699 2.22772 5.89116 1.97164 5.98349 1.73891C6.07583 1.50619 6.2322 1.30727 6.43283 1.16732C6.63346 1.02737 6.86933 0.95268 7.11062 0.95268C7.27121 0.951289 7.43045 0.983283 7.57907 1.0468C7.72769 1.11031 7.86272 1.20407 7.97627 1.32262C8.08982 1.44116 8.17964 1.58212 8.24048 1.73727C8.30131 1.89242 8.33196 2.05867 8.33062 2.22631Z" fill="#3F3D56"/>
<path d="M21.1801 2.22622C21.1526 2.54277 21.0127 2.83712 20.7879 3.05147C20.563 3.26582 20.2696 3.38467 19.9651 3.38467C19.6607 3.38467 19.3672 3.26582 19.1424 3.05147C18.9176 2.83712 18.7777 2.54277 18.7501 2.22622C18.7348 2.04998 18.7548 1.87234 18.8089 1.70462C18.863 1.53691 18.95 1.3828 19.0643 1.25213C19.1786 1.12146 19.3177 1.01709 19.4729 0.945688C19.628 0.874281 19.7956 0.837402 19.9651 0.837402C20.1346 0.837402 20.3023 0.874281 20.4574 0.945688C20.6125 1.01709 20.7516 1.12146 20.866 1.25213C20.9803 1.3828 21.0672 1.53691 21.1213 1.70462C21.1754 1.87234 21.1954 2.04998 21.1801 2.22622Z" fill="#3F3D56"/>
<path d="M32.8204 3.48977C33.4886 3.48977 34.0303 2.92422 34.0303 2.22657C34.0303 1.52893 33.4886 0.963379 32.8204 0.963379C32.1521 0.963379 31.6104 1.52893 31.6104 2.22657C31.6104 2.92422 32.1521 3.48977 32.8204 3.48977Z" fill="#3F3D56"/>
<path d="M45.67 3.48977C46.3382 3.48977 46.88 2.92422 46.88 2.22657C46.88 1.52893 46.3382 0.963379 45.67 0.963379C45.0017 0.963379 44.46 1.52893 44.46 2.22657C44.46 2.92422 45.0017 3.48977 45.67 3.48977Z" fill="white"/>
<path d="M59.7408 2.22627C59.7408 2.47817 59.6692 2.72441 59.5352 2.93386C59.4011 3.14331 59.2106 3.30655 58.9877 3.40295C58.7647 3.49935 58.5194 3.52457 58.2828 3.47543C58.0461 3.42628 57.8287 3.30498 57.6581 3.12686C57.4875 2.94874 57.3713 2.7218 57.3242 2.47474C57.2771 2.22768 57.3013 1.97159 57.3937 1.73887C57.486 1.50614 57.6424 1.30723 57.843 1.16728C58.0436 1.02733 58.2795 0.952637 58.5208 0.952637C58.8444 0.952637 59.1547 1.08682 59.3835 1.32568C59.6123 1.56453 59.7408 1.88848 59.7408 2.22627Z" fill="#3F3D56"/>
<path d="M71.3701 3.48977C72.0384 3.48977 72.5802 2.92422 72.5802 2.22657C72.5802 1.52893 72.0384 0.963379 71.3701 0.963379C70.7019 0.963379 70.1602 1.52893 70.1602 2.22657C70.1602 2.92422 70.7019 3.48977 71.3701 3.48977Z" fill="#3F3D56"/>
<path d="M8.33062 17.0715C8.33062 17.3234 8.25907 17.5697 8.12502 17.7791C7.99096 17.9886 7.80042 18.1518 7.5775 18.2482C7.35457 18.3446 7.10927 18.3698 6.87262 18.3207C6.63596 18.2715 6.41857 18.1502 6.24795 17.9721C6.07733 17.794 5.96114 17.5671 5.91407 17.32C5.86699 17.0729 5.89116 16.8169 5.98349 16.5841C6.07583 16.3514 6.2322 16.1525 6.43283 16.0125C6.63346 15.8726 6.86933 15.7979 7.11062 15.7979C7.27121 15.7965 7.43045 15.8285 7.57907 15.892C7.72769 15.9555 7.86272 16.0493 7.97627 16.1678C8.08982 16.2864 8.17964 16.4273 8.24048 16.5825C8.30131 16.7376 8.33196 16.9039 8.33062 17.0715Z" fill="#3F3D56"/>
<path d="M21.1801 17.0717C21.1526 17.3882 21.0127 17.6826 20.7879 17.8969C20.563 18.1113 20.2696 18.2301 19.9651 18.2301C19.6607 18.2301 19.3672 18.1113 19.1424 17.8969C18.9176 17.6826 18.7777 17.3882 18.7501 17.0717C18.7348 16.8954 18.7548 16.7178 18.8089 16.5501C18.863 16.3824 18.95 16.2283 19.0643 16.0976C19.1786 15.9669 19.3177 15.8626 19.4729 15.7911C19.628 15.7197 19.7956 15.6829 19.9651 15.6829C20.1346 15.6829 20.3023 15.7197 20.4574 15.7911C20.6125 15.8626 20.7516 15.9669 20.866 16.0976C20.9803 16.2283 21.0672 16.3824 21.1213 16.5501C21.1754 16.7178 21.1954 16.8954 21.1801 17.0717Z" fill="#3F3D56"/>
<path d="M34.0303 17.0715C34.0283 17.3209 33.9557 17.5641 33.8215 17.7704C33.6874 17.9768 33.4977 18.137 33.2765 18.2311C33.0552 18.3251 32.8122 18.3486 32.5782 18.2987C32.3441 18.2488 32.1295 18.1276 31.9612 17.9506C31.793 17.7735 31.6788 17.5484 31.6329 17.3037C31.587 17.0589 31.6115 16.8055 31.7034 16.5753C31.7953 16.3451 31.9504 16.1484 32.1491 16.01C32.3479 15.8717 32.5814 15.7979 32.8203 15.7979C32.9801 15.7978 33.1382 15.8309 33.2857 15.895C33.4331 15.9591 33.567 16.0531 33.6795 16.1715C33.792 16.2899 33.8809 16.4304 33.9411 16.5849C34.0013 16.7393 34.0316 16.9047 34.0303 17.0715Z" fill="#3F3D56"/>
<path d="M46.8809 17.0715C46.8789 17.3209 46.8063 17.5641 46.6721 17.7704C46.538 17.9768 46.3483 18.137 46.1271 18.2311C45.9058 18.3251 45.6628 18.3486 45.4288 18.2987C45.1947 18.2488 44.98 18.1276 44.8118 17.9506C44.6436 17.7735 44.5293 17.5484 44.4835 17.3037C44.4376 17.0589 44.4621 16.8055 44.554 16.5753C44.6459 16.3451 44.8009 16.1484 44.9997 16.01C45.1985 15.8717 45.432 15.7979 45.6709 15.7979C45.8306 15.7978 45.9888 15.8309 46.1363 15.895C46.2837 15.9591 46.4176 16.0531 46.5301 16.1715C46.6425 16.2899 46.7315 16.4304 46.7917 16.5849C46.8519 16.7393 46.8822 16.9047 46.8809 17.0715Z" fill="#3F3D56"/>
<path d="M59.7408 17.0715C59.7408 17.3234 59.6692 17.5696 59.5352 17.7791C59.4011 17.9885 59.2106 18.1518 58.9877 18.2482C58.7647 18.3446 58.5194 18.3698 58.2828 18.3206C58.0461 18.2715 57.8287 18.1502 57.6581 17.9721C57.4875 17.794 57.3713 17.567 57.3242 17.32C57.2771 17.0729 57.3013 16.8168 57.3937 16.5841C57.486 16.3514 57.6424 16.1524 57.843 16.0125C58.0436 15.8726 58.2795 15.7979 58.5208 15.7979C58.8444 15.7979 59.1547 15.932 59.3835 16.1709C59.6123 16.4097 59.7408 16.7337 59.7408 17.0715Z" fill="#3F3D56"/>
<path d="M72.5904 17.0715C72.5904 17.3234 72.5188 17.5696 72.3848 17.7791C72.2507 17.9885 72.0602 18.1518 71.8373 18.2482C71.6143 18.3446 71.369 18.3698 71.1324 18.3206C70.8957 18.2715 70.6783 18.1502 70.5077 17.9721C70.3371 17.794 70.2209 17.567 70.1738 17.32C70.1268 17.0729 70.1509 16.8168 70.2433 16.5841C70.3356 16.3514 70.492 16.1524 70.6926 16.0125C70.8932 15.8726 71.1291 15.7979 71.3704 15.7979C71.6939 15.7979 72.0043 15.932 72.2331 16.1709C72.4618 16.4097 72.5904 16.7337 72.5904 17.0715Z" fill="#3F3D56"/>
<path d="M8.33062 31.917C8.33062 32.1689 8.25907 32.4151 8.12502 32.6246C7.99096 32.834 7.80042 32.9973 7.5775 33.0937C7.35457 33.1901 7.10927 33.2153 6.87262 33.1661C6.63596 33.117 6.41857 32.9957 6.24795 32.8176C6.07733 32.6395 5.96114 32.4125 5.91407 32.1655C5.86699 31.9184 5.89116 31.6623 5.98349 31.4296C6.07583 31.1969 6.2322 30.9979 6.43283 30.858C6.63346 30.718 6.86933 30.6434 7.11062 30.6434C7.27121 30.642 7.43045 30.674 7.57907 30.7375C7.72769 30.801 7.86272 30.8947 7.97627 31.0133C8.08982 31.1318 8.17964 31.2728 8.24048 31.4279C8.30131 31.5831 8.33196 31.7493 8.33062 31.917Z" fill="#3F3D56"/>
<path d="M21.1801 31.9169C21.1526 32.2334 21.0127 32.5278 20.7879 32.7421C20.563 32.9565 20.2696 33.0753 19.9651 33.0753C19.6607 33.0753 19.3672 32.9565 19.1424 32.7421C18.9176 32.5278 18.7777 32.2334 18.7501 31.9169C18.7348 31.7407 18.7548 31.563 18.8089 31.3953C18.863 31.2276 18.95 31.0735 19.0643 30.9428C19.1786 30.8121 19.3177 30.7078 19.4729 30.6364C19.628 30.565 19.7956 30.5281 19.9651 30.5281C20.1346 30.5281 20.3023 30.565 20.4574 30.6364C20.6125 30.7078 20.7516 30.8121 20.866 30.9428C20.9803 31.0735 21.0672 31.2276 21.1213 31.3953C21.1754 31.563 21.1954 31.7407 21.1801 31.9169Z" fill="white"/>
<path d="M32.8204 33.18C33.4886 33.18 34.0303 32.6144 34.0303 31.9168C34.0303 31.2191 33.4886 30.6536 32.8204 30.6536C32.1521 30.6536 31.6104 31.2191 31.6104 31.9168C31.6104 32.6144 32.1521 33.18 32.8204 33.18Z" fill="#3F3D56"/>
<path d="M45.67 33.18C46.3382 33.18 46.88 32.6144 46.88 31.9168C46.88 31.2191 46.3382 30.6536 45.67 30.6536C45.0017 30.6536 44.46 31.2191 44.46 31.9168C44.46 32.6144 45.0017 33.18 45.67 33.18Z" fill="#3F3D56"/>
<path d="M59.7408 31.9169C59.7408 32.1688 59.6692 32.4151 59.5352 32.6245C59.4011 32.834 59.2106 32.9972 58.9877 33.0936C58.7647 33.19 58.5194 33.2152 58.2828 33.1661C58.0461 33.117 57.8287 32.9957 57.6581 32.8175C57.4875 32.6394 57.3713 32.4125 57.3242 32.1654C57.2771 31.9184 57.3013 31.6623 57.3937 31.4295C57.486 31.1968 57.6424 30.9979 57.843 30.858C58.0436 30.718 58.2795 30.6433 58.5208 30.6433C58.8444 30.6433 59.1547 30.7775 59.3835 31.0163C59.6123 31.2552 59.7408 31.5791 59.7408 31.9169Z" fill="#3F3D56"/>
<path d="M71.3701 33.18C72.0384 33.18 72.5802 32.6144 72.5802 31.9168C72.5802 31.2191 72.0384 30.6536 71.3701 30.6536C70.7019 30.6536 70.1602 31.2191 70.1602 31.9168C70.1602 32.6144 70.7019 33.18 71.3701 33.18Z" fill="#3F3D56"/>
<path d="M8.33058 46.7615C8.33256 47.0139 8.2627 47.2611 8.12985 47.4719C7.99701 47.6828 7.80717 47.8476 7.58443 47.9456C7.36168 48.0436 7.11607 48.0703 6.87876 48.0224C6.64145 47.9744 6.42313 47.854 6.25151 47.6763C6.07989 47.4986 5.9627 47.2716 5.91481 47.0243C5.86692 46.777 5.89048 46.5203 5.98252 46.287C6.07456 46.0537 6.23092 45.8541 6.43176 45.7137C6.6326 45.5733 6.86886 45.4983 7.11058 45.4983C7.27032 45.497 7.42874 45.5286 7.5767 45.5915C7.72466 45.6543 7.85924 45.7472 7.97266 45.8646C8.08608 45.982 8.17609 46.1218 8.23753 46.2757C8.29896 46.4296 8.33059 46.5948 8.33058 46.7615Z" fill="#3F3D56"/>
<path d="M21.1802 46.7615C21.1822 47.0143 21.1121 47.262 20.9788 47.473C20.8455 47.6841 20.655 47.8489 20.4317 47.9466C20.2084 48.0443 19.9622 48.0704 19.7247 48.0216C19.4871 47.9728 19.2688 47.8513 19.0976 47.6725C18.9263 47.4938 18.8099 47.2659 18.7632 47.0178C18.7164 46.7698 18.7414 46.5129 18.835 46.2797C18.9286 46.0466 19.0865 45.8478 19.2887 45.7086C19.4908 45.5695 19.7281 45.4963 19.9702 45.4983C20.2911 45.4983 20.5989 45.6314 20.8258 45.8683C21.0527 46.1052 21.1802 46.4265 21.1802 46.7615Z" fill="#3F3D56"/>
<path d="M34.0303 46.762C34.0303 47.0118 33.9594 47.256 33.8264 47.4638C33.6935 47.6715 33.5045 47.8334 33.2834 47.929C33.0623 48.0246 32.819 48.0496 32.5843 48.0009C32.3496 47.9522 32.134 47.8318 31.9647 47.6552C31.7955 47.4785 31.6803 47.2534 31.6336 47.0084C31.5869 46.7634 31.6109 46.5094 31.7025 46.2786C31.794 46.0478 31.9491 45.8505 32.1481 45.7117C32.3471 45.5729 32.581 45.4988 32.8203 45.4988C33.1413 45.4988 33.449 45.6319 33.6759 45.8688C33.9029 46.1057 34.0303 46.427 34.0303 46.762Z" fill="#3F3D56"/>
<path d="M46.88 46.762C46.88 47.0118 46.809 47.256 46.6761 47.4638C46.5431 47.6715 46.3541 47.8334 46.133 47.929C45.9119 48.0246 45.6686 48.0496 45.4339 48.0009C45.1992 47.9522 44.9836 47.8318 44.8144 47.6552C44.6451 47.4785 44.5299 47.2534 44.4832 47.0084C44.4365 46.7634 44.4605 46.5094 44.5521 46.2786C44.6437 46.0478 44.7987 45.8505 44.9977 45.7117C45.1967 45.5729 45.4306 45.4988 45.67 45.4988C45.9909 45.4988 46.2986 45.6319 46.5256 45.8688C46.7525 46.1057 46.88 46.427 46.88 46.762Z" fill="white"/>
<path d="M59.7407 46.762C59.7427 47.0143 59.6729 47.2616 59.54 47.4724C59.4072 47.6832 59.2173 47.8481 58.9946 47.9461C58.7718 48.0441 58.5262 48.0708 58.2889 48.0228C58.0516 47.9749 57.8333 47.8544 57.6617 47.6767C57.49 47.499 57.3729 47.2721 57.325 47.0248C57.2771 46.7774 57.3006 46.5208 57.3927 46.2875C57.4847 46.0541 57.6411 45.8546 57.8419 45.7142C58.0428 45.5738 58.279 45.4988 58.5207 45.4988C58.8426 45.4988 59.1514 45.6315 59.3799 45.8681C59.6084 46.1047 59.7381 46.426 59.7407 46.762Z" fill="#3F3D56"/>
<path d="M72.5903 46.762C72.5923 47.0143 72.5225 47.2616 72.3896 47.4724C72.2568 47.6832 72.0669 47.8481 71.8442 47.9461C71.6214 48.0441 71.3758 48.0708 71.1385 48.0228C70.9012 47.9749 70.6829 47.8544 70.5113 47.6767C70.3397 47.499 70.2225 47.2721 70.1746 47.0248C70.1267 46.7774 70.1503 46.5208 70.2423 46.2875C70.3343 46.0541 70.4907 45.8546 70.6915 45.7142C70.8924 45.5738 71.1286 45.4988 71.3703 45.4988C71.6922 45.4988 72.001 45.6315 72.2295 45.8681C72.458 46.1047 72.5877 46.426 72.5903 46.762Z" fill="#3F3D56"/>
<path d="M8.33058 61.607C8.33256 61.8593 8.2627 62.1066 8.12985 62.3174C7.99701 62.5282 7.80717 62.6931 7.58443 62.7911C7.36168 62.8891 7.11607 62.9158 6.87876 62.8678C6.64145 62.8199 6.42313 62.6994 6.25151 62.5217C6.07989 62.344 5.9627 62.1171 5.91481 61.8698C5.86692 61.6224 5.89048 61.3658 5.98252 61.1325C6.07456 60.8991 6.23092 60.6996 6.43176 60.5592C6.6326 60.4188 6.86886 60.3438 7.11058 60.3438C7.27032 60.3424 7.42874 60.3741 7.5767 60.4369C7.72466 60.4998 7.85924 60.5926 7.97266 60.7101C8.08608 60.8275 8.17609 60.9672 8.23753 61.1212C8.29896 61.2751 8.33059 61.4402 8.33058 61.607Z" fill="#3F3D56"/>
<path d="M21.1802 61.607C21.1822 61.8598 21.1121 62.1074 20.9788 62.3185C20.8455 62.5295 20.655 62.6944 20.4317 62.7921C20.2084 62.8898 19.9622 62.9159 19.7247 62.867C19.4871 62.8182 19.2688 62.6967 19.0976 62.518C18.9263 62.3392 18.8099 62.1113 18.7632 61.8633C18.7164 61.6153 18.7414 61.3583 18.835 61.1252C18.9286 60.892 19.0865 60.6932 19.2887 60.5541C19.4908 60.4149 19.7281 60.3417 19.9702 60.3438C20.2911 60.3438 20.5989 60.4769 20.8258 60.7138C21.0527 60.9507 21.1802 61.272 21.1802 61.607Z" fill="#3F3D56"/>
<path d="M32.8204 62.8701C33.4886 62.8701 34.0303 62.3046 34.0303 61.6069C34.0303 60.9093 33.4886 60.3438 32.8204 60.3438C32.1521 60.3438 31.6104 60.9093 31.6104 61.6069C31.6104 62.3046 32.1521 62.8701 32.8204 62.8701Z" fill="#3F3D56"/>
<path d="M45.67 62.8701C46.3382 62.8701 46.88 62.3046 46.88 61.6069C46.88 60.9093 46.3382 60.3438 45.67 60.3438C45.0017 60.3438 44.46 60.9093 44.46 61.6069C44.46 62.3046 45.0017 62.8701 45.67 62.8701Z" fill="#3F3D56"/>
<path d="M59.7407 61.6069C59.7427 61.8593 59.6729 62.1065 59.54 62.3174C59.4072 62.5282 59.2173 62.693 58.9946 62.791C58.7718 62.889 58.5262 62.9158 58.2889 62.8678C58.0516 62.8198 57.8333 62.6994 57.6617 62.5217C57.49 62.344 57.3729 62.1171 57.325 61.8697C57.2771 61.6224 57.3006 61.3658 57.3927 61.1324C57.4847 60.8991 57.6411 60.6996 57.8419 60.5591C58.0428 60.4187 58.279 60.3438 58.5207 60.3438C58.8426 60.3437 59.1514 60.4765 59.3799 60.7131C59.6084 60.9497 59.7381 61.271 59.7407 61.6069Z" fill="#3F3D56"/>
<path d="M71.3701 62.8701C72.0384 62.8701 72.5802 62.3046 72.5802 61.6069C72.5802 60.9093 72.0384 60.3438 71.3701 60.3438C70.7019 60.3438 70.1602 60.9093 70.1602 61.6069C70.1602 62.3046 70.7019 62.8701 71.3701 62.8701Z" fill="#3F3D56"/>
<path d="M8.33058 76.4104C8.33256 76.6627 8.2627 76.91 8.12985 77.1208C7.99701 77.3316 7.80717 77.4965 7.58443 77.5945C7.36168 77.6925 7.11607 77.7192 6.87876 77.6713C6.64145 77.6233 6.42313 77.5028 6.25151 77.3251C6.07989 77.1474 5.9627 76.9205 5.91481 76.6732C5.86692 76.4258 5.89048 76.1692 5.98252 75.9359C6.07456 75.7026 6.23092 75.503 6.43176 75.3626C6.6326 75.2222 6.86886 75.1472 7.11058 75.1472C7.43242 75.1472 7.74123 75.28 7.96974 75.5166C8.19824 75.7532 8.32794 76.0744 8.33058 76.4104Z" fill="#3F3D56"/>
<path d="M21.1802 76.4105C21.1822 76.6632 21.1121 76.9109 20.9788 77.1219C20.8455 77.333 20.655 77.4978 20.4317 77.5955C20.2084 77.6932 19.9622 77.7193 19.7247 77.6705C19.4871 77.6217 19.2688 77.5002 19.0976 77.3214C18.9263 77.1427 18.8099 76.9148 18.7632 76.6668C18.7164 76.4187 18.7414 76.1618 18.835 75.9287C18.9286 75.6955 19.0865 75.4967 19.2887 75.3575C19.4908 75.2184 19.7281 75.1452 19.9702 75.1473C20.2903 75.15 20.5966 75.2839 20.8229 75.5203C21.0493 75.7566 21.1776 76.0763 21.1802 76.4105Z" fill="#3F3D56"/>
<path d="M32.8204 77.7153C33.4886 77.7153 34.0303 77.1498 34.0303 76.4522C34.0303 75.7545 33.4886 75.189 32.8204 75.189C32.1521 75.189 31.6104 75.7545 31.6104 76.4522C31.6104 77.1498 32.1521 77.7153 32.8204 77.7153Z" fill="white"/>
<path d="M45.67 77.7153C46.3382 77.7153 46.88 77.1498 46.88 76.4522C46.88 75.7545 46.3382 75.189 45.67 75.189C45.0017 75.189 44.46 75.7545 44.46 76.4522C44.46 77.1498 45.0017 77.7153 45.67 77.7153Z" fill="#3F3D56"/>
<path d="M59.7407 76.4101C59.756 76.5864 59.736 76.764 59.6819 76.9317C59.6278 77.0995 59.5408 77.2536 59.4265 77.3842C59.3122 77.5149 59.173 77.6193 59.0179 77.6907C58.8628 77.7621 58.6952 77.799 58.5257 77.799C58.3562 77.799 58.1885 77.7621 58.0334 77.6907C57.8783 77.6193 57.7391 77.5149 57.6248 77.3842C57.5105 77.2536 57.4235 77.0995 57.3694 76.9317C57.3153 76.764 57.2953 76.5864 57.3107 76.4101C57.3382 76.0936 57.4781 75.7992 57.7029 75.5849C57.9277 75.3706 58.2212 75.2517 58.5257 75.2517C58.8301 75.2517 59.1236 75.3706 59.3484 75.5849C59.5732 75.7992 59.7131 76.0936 59.7407 76.4101Z" fill="#3F3D56"/>
<path d="M71.3701 77.7153C72.0384 77.7153 72.5802 77.1498 72.5802 76.4522C72.5802 75.7545 72.0384 75.189 71.3701 75.189C70.7019 75.189 70.1602 75.7545 70.1602 76.4522C70.1602 77.1498 70.7019 77.7153 71.3701 77.7153Z" fill="#3F3D56"/>
<path d="M8.33058 91.2971C8.33256 91.5495 8.2627 91.7967 8.12985 92.0075C7.99701 92.2184 7.80717 92.3832 7.58443 92.4812C7.36168 92.5792 7.11607 92.6059 6.87876 92.558C6.64145 92.51 6.42313 92.3896 6.25151 92.2119C6.07989 92.0342 5.9627 91.8073 5.91481 91.5599C5.86692 91.3126 5.89048 91.0559 5.98252 90.8226C6.07456 90.5893 6.23092 90.3897 6.43176 90.2493C6.6326 90.1089 6.86886 90.0339 7.11058 90.0339C7.43242 90.0339 7.74123 90.1667 7.96974 90.4033C8.19824 90.6399 8.32794 90.9611 8.33058 91.2971Z" fill="#3F3D56"/>
<path d="M21.1802 91.2972C21.1822 91.5499 21.1121 91.7976 20.9788 92.0087C20.8455 92.2197 20.655 92.3846 20.4317 92.4822C20.2084 92.5799 19.9622 92.606 19.7247 92.5572C19.4871 92.5084 19.2688 92.3869 19.0976 92.2082C18.9263 92.0294 18.8099 91.8015 18.7632 91.5535C18.7164 91.3055 18.7414 91.0485 18.835 90.8154C18.9286 90.5822 19.0865 90.3834 19.2887 90.2443C19.4908 90.1051 19.7281 90.0319 19.9702 90.034C20.2903 90.0367 20.5966 90.1707 20.8229 90.407C21.0493 90.6433 21.1776 90.963 21.1802 91.2972Z" fill="#3F3D56"/>
<path d="M34.0303 91.2971C34.0303 91.547 33.9594 91.7912 33.8264 91.9989C33.6935 92.2066 33.5045 92.3686 33.2834 92.4642C33.0623 92.5598 32.819 92.5848 32.5843 92.536C32.3496 92.4873 32.134 92.367 31.9647 92.1903C31.7955 92.0137 31.6803 91.7886 31.6336 91.5436C31.5869 91.2985 31.6109 91.0445 31.7025 90.8137C31.794 90.5829 31.9491 90.3856 32.1481 90.2468C32.3471 90.108 32.581 90.0339 32.8203 90.0339C33.1405 90.0367 33.4467 90.1706 33.6731 90.4069C33.8994 90.6432 34.0277 90.9629 34.0303 91.2971Z" fill="#3F3D56"/>
<path d="M46.88 91.2971C46.88 91.547 46.809 91.7912 46.6761 91.9989C46.5431 92.2066 46.3541 92.3686 46.133 92.4642C45.9119 92.5598 45.6686 92.5848 45.4339 92.536C45.1992 92.4873 44.9836 92.367 44.8144 92.1903C44.6451 92.0137 44.5299 91.7886 44.4832 91.5436C44.4365 91.2985 44.4605 91.0445 44.5521 90.8137C44.6437 90.5829 44.7987 90.3856 44.9977 90.2468C45.1967 90.108 45.4306 90.0339 45.67 90.0339C45.9901 90.0367 46.2963 90.1706 46.5227 90.4069C46.749 90.6432 46.8774 90.9629 46.88 91.2971Z" fill="#3F3D56"/>
<path d="M59.7407 91.2973C59.756 91.4736 59.736 91.6512 59.6819 91.8189C59.6278 91.9867 59.5408 92.1408 59.4265 92.2714C59.3122 92.4021 59.173 92.5065 59.0179 92.5779C58.8628 92.6493 58.6952 92.6862 58.5257 92.6862C58.3562 92.6862 58.1885 92.6493 58.0334 92.5779C57.8783 92.5065 57.7391 92.4021 57.6248 92.2714C57.5105 92.1408 57.4235 91.9867 57.3694 91.8189C57.3153 91.6512 57.2953 91.4736 57.3107 91.2973C57.3382 90.9808 57.4781 90.6864 57.7029 90.4721C57.9277 90.2578 58.2212 90.1389 58.5257 90.1389C58.8301 90.1389 59.1236 90.2578 59.3484 90.4721C59.5732 90.6864 59.7131 90.9808 59.7407 91.2973Z" fill="white"/>
<path d="M72.5903 91.2973C72.6056 91.4736 72.5856 91.6512 72.5315 91.8189C72.4774 91.9867 72.3904 92.1408 72.2761 92.2714C72.1618 92.4021 72.0227 92.5065 71.8675 92.5779C71.7124 92.6493 71.5448 92.6862 71.3753 92.6862C71.2058 92.6862 71.0381 92.6493 70.883 92.5779C70.7279 92.5065 70.5888 92.4021 70.4744 92.2714C70.3601 92.1408 70.2731 91.9867 70.2191 91.8189C70.165 91.6512 70.1449 91.4736 70.1603 91.2973C70.1878 90.9808 70.3277 90.6864 70.5525 90.4721C70.7773 90.2578 71.0708 90.1389 71.3753 90.1389C71.6797 90.1389 71.9732 90.2578 72.198 90.4721C72.4228 90.6864 72.5627 90.9808 72.5903 91.2973Z" fill="#3F3D56"/>
<path d="M8.33058 106.142C8.33256 106.395 8.2627 106.642 8.12985 106.853C7.99701 107.064 7.80717 107.228 7.58443 107.326C7.36168 107.424 7.11607 107.451 6.87876 107.403C6.64145 107.355 6.42313 107.235 6.25151 107.057C6.07989 106.879 5.9627 106.652 5.91481 106.405C5.86692 106.158 5.89048 105.901 5.98252 105.668C6.07456 105.434 6.23092 105.235 6.43176 105.095C6.6326 104.954 6.86886 104.879 7.11058 104.879C7.43242 104.879 7.74123 105.012 7.96974 105.248C8.19824 105.485 8.32794 105.806 8.33058 106.142Z" fill="white"/>
<path d="M21.1802 106.142C21.1822 106.395 21.1121 106.643 20.9788 106.854C20.8455 107.065 20.655 107.23 20.4317 107.327C20.2084 107.425 19.9622 107.451 19.7247 107.402C19.4871 107.354 19.2688 107.232 19.0976 107.053C18.9263 106.875 18.8099 106.647 18.7632 106.399C18.7164 106.151 18.7414 105.894 18.835 105.661C18.9286 105.427 19.0865 105.229 19.2887 105.089C19.4908 104.95 19.7281 104.877 19.9702 104.879C20.2903 104.882 20.5966 105.016 20.8229 105.252C21.0493 105.488 21.1776 105.808 21.1802 106.142Z" fill="#3F3D56"/>
<path d="M32.8204 107.406C33.4886 107.406 34.0303 106.84 34.0303 106.142C34.0303 105.445 33.4886 104.879 32.8204 104.879C32.1521 104.879 31.6104 105.445 31.6104 106.142C31.6104 106.84 32.1521 107.406 32.8204 107.406Z" fill="#3F3D56"/>
<path d="M45.67 107.406C46.3382 107.406 46.88 106.84 46.88 106.142C46.88 105.445 46.3382 104.879 45.67 104.879C45.0017 104.879 44.46 105.445 44.46 106.142C44.46 106.84 45.0017 107.406 45.67 107.406Z" fill="#3F3D56"/>
<path d="M59.7407 106.142C59.756 106.318 59.736 106.496 59.6819 106.664C59.6278 106.831 59.5408 106.985 59.4265 107.116C59.3122 107.247 59.173 107.351 59.0179 107.423C58.8628 107.494 58.6952 107.531 58.5257 107.531C58.3562 107.531 58.1885 107.494 58.0334 107.423C57.8783 107.351 57.7391 107.247 57.6248 107.116C57.5105 106.985 57.4235 106.831 57.3694 106.664C57.3153 106.496 57.2953 106.318 57.3107 106.142C57.3382 105.826 57.4781 105.531 57.7029 105.317C57.9277 105.102 58.2212 104.984 58.5257 104.984C58.8301 104.984 59.1236 105.102 59.3484 105.317C59.5732 105.531 59.7131 105.826 59.7407 106.142Z" fill="#3F3D56"/>
<path d="M71.3701 107.406C72.0384 107.406 72.5802 106.84 72.5802 106.142C72.5802 105.445 72.0384 104.879 71.3701 104.879C70.7019 104.879 70.1602 105.445 70.1602 106.142C70.1602 106.84 70.7019 107.406 71.3701 107.406Z" fill="#3F3D56"/>
</svg>
