<svg width="376" height="349" viewBox="0 0 376 349" fill="none" xmlns="http://www.w3.org/2000/svg">
<path d="M21.9334 149.188C21.9334 149.188 16.2509 210.924 62.4505 260.413C108.65 309.902 179.319 324.707 236.388 338.205C293.456 351.702 341.624 326.525 354.444 278.444C367.265 230.364 325.096 208.562 308.237 148.582C291.378 88.601 295.802 70.5304 249.641 27.6521C203.481 -15.2261 121.872 -7.27697 73.115 44.8255C24.3575 96.9279 21.9334 149.188 21.9334 149.188Z" fill="#92E3A9"/>
<path opacity="0.7" d="M21.9334 149.188C21.9334 149.188 16.2509 210.924 62.4505 260.413C108.65 309.902 179.319 324.707 236.388 338.205C293.456 351.702 341.624 326.525 354.444 278.444C367.265 230.364 325.096 208.562 308.237 148.582C291.378 88.601 295.802 70.5304 249.641 27.6521C203.481 -15.2261 121.872 -7.27697 73.115 44.8255C24.3575 96.9279 21.9334 149.188 21.9334 149.188Z" fill="white"/>
<path d="M6.93293 278.342C9.29407 278.168 13.8668 275.611 13.8747 275.611C13.8826 275.611 11.2695 273.092 11.0806 272.95C8.932 271.376 3.8477 269.527 1.40786 271.266C1.01109 271.566 0.681855 271.947 0.441534 272.382C0.201214 272.818 0.0551495 273.299 0.0128482 273.795C-0.0294532 274.291 0.0329795 274.79 0.196015 275.26C0.359051 275.73 0.619064 276.16 0.959234 276.524C2.3523 278.113 4.93384 278.515 6.93293 278.342Z" fill="#263238"/>
<path d="M15.6376 290.974C17.7626 290.187 21.2807 286.834 21.564 286.559C23.494 288.58 25.561 290.465 27.7502 292.202C29.0173 293.225 30.3317 294.217 31.6854 295.193C31.0164 294.839 30.4104 294.524 30.3238 294.492C27.8289 293.516 22.4534 293.099 20.5488 295.421C20.2445 295.815 20.0265 296.268 19.909 296.751C19.7916 297.235 19.7774 297.738 19.8672 298.227C19.9571 298.716 20.149 299.181 20.4305 299.591C20.712 300.002 21.0768 300.348 21.501 300.608C23.2719 301.772 25.8535 301.45 27.7424 300.781C29.6313 300.112 32.7086 297.271 33.5114 296.515L35.0461 297.625C37.5096 299.388 39.973 301.135 42.342 302.922C43.1763 303.551 43.9712 304.204 44.774 304.85C44.1758 304.535 43.6721 304.275 43.5934 304.244C41.0985 303.268 35.723 302.851 33.8183 305.173C33.514 305.566 33.2961 306.019 33.1787 306.503C33.0612 306.986 33.047 307.489 33.1368 307.978C33.2267 308.468 33.4186 308.933 33.7001 309.343C33.9816 309.753 34.3464 310.099 34.7707 310.359C36.5415 311.524 39.123 311.201 41.0119 310.532C42.9008 309.863 45.6791 307.298 46.6315 306.4C47.4185 307.093 48.2055 307.778 48.9926 308.486C49.4884 308.974 50 309.415 50.4722 309.934L51.8968 311.437C52.7625 312.429 53.6676 313.444 54.494 314.436C55.0686 315.113 55.6038 315.774 56.1468 316.443C55.3598 315.806 53.6912 314.593 53.5417 314.507C51.2278 313.161 45.9624 311.933 43.7351 313.94C43.3742 314.284 43.0899 314.7 42.9004 315.161C42.711 315.622 42.6208 316.118 42.6356 316.616C42.6505 317.114 42.7701 317.604 42.9866 318.052C43.2032 318.501 43.5118 318.9 43.8925 319.221C45.4666 320.638 48.0717 320.709 50.0315 320.331C52.1958 319.922 56.0445 317.23 56.5246 316.892C57.4218 317.993 58.2797 319.072 59.0746 320.103C61.2233 322.873 63.0098 325.345 64.395 327.328L66.1581 326.399C64.6863 324.392 62.7816 321.858 60.4677 319.001C59.5626 317.883 58.5709 316.703 57.5478 315.499C58.5249 314.346 59.4341 313.137 60.2709 311.878C62.4038 312.665 66.7877 312.524 67.3543 312.508C67.496 313.917 67.6141 315.294 67.7085 316.593C67.9682 319.993 68.0942 322.96 68.1571 325.344L70.0697 324.337C69.9516 322.102 69.7706 319.442 69.4794 316.467C69.3456 315.034 69.1724 313.499 68.9756 311.933C69.5344 311.776 74.0521 310.454 75.7285 309.021C77.2475 307.723 78.8216 305.645 78.6957 303.512C78.6823 303.015 78.5646 302.526 78.3502 302.077C78.1357 301.628 77.8293 301.229 77.4509 300.906C77.0724 300.584 76.6303 300.344 76.1533 300.203C75.6762 300.062 75.1749 300.023 74.6817 300.088C71.7224 300.56 69.3849 305.44 68.9835 308.085C68.9835 308.242 68.8891 309.966 68.8655 311.052C68.7868 310.414 68.716 309.785 68.6215 309.131C68.4484 307.825 68.2358 306.526 68.0076 305.133L67.6062 303.095C67.4881 302.418 67.2756 301.71 67.1104 301.009C66.7011 299.396 66.2053 297.782 65.6622 296.161C66.8034 296.003 70.8567 295.374 72.5567 294.335C74.2568 293.296 76.1299 291.47 76.3267 289.361C76.3898 288.867 76.3482 288.366 76.2047 287.89C76.0611 287.413 75.8189 286.973 75.4937 286.596C75.1684 286.22 74.7676 285.916 74.3171 285.705C73.8667 285.494 73.3768 285.38 72.8794 285.37C69.8808 285.37 66.8349 289.864 66.0321 292.414C65.9849 292.572 65.615 294.469 65.4339 295.515C65.1034 294.547 64.7807 293.579 64.4108 292.611C63.3562 289.809 62.1992 287.007 61.0501 284.206L59.9797 281.663C60.389 281.608 65.2136 280.987 67.1261 279.798C68.8261 278.751 70.6993 276.933 70.896 274.824C70.9579 274.33 70.9153 273.829 70.7708 273.352C70.6263 272.876 70.3833 272.435 70.0574 272.059C69.7316 271.683 69.3303 271.379 68.8795 271.168C68.4287 270.957 67.9386 270.843 67.4409 270.834C64.4423 270.834 61.4043 275.328 60.6015 277.878C60.5386 278.075 60.0191 280.806 59.9168 281.506C59.1297 279.609 58.4293 277.72 57.7839 275.824C56.8934 273.271 56.1705 270.663 55.6195 268.016C55.8084 268.016 60.8534 267.371 62.8131 266.151C64.5131 265.104 66.3863 263.286 66.5752 261.185C66.6395 260.69 66.5988 260.188 66.4558 259.711C66.3129 259.234 66.0708 258.792 65.7454 258.415C65.4201 258.037 65.0188 257.733 64.5677 257.521C64.1167 257.31 63.6261 257.195 63.1279 257.186C60.1293 257.186 57.0834 261.68 56.2885 264.23C56.2255 264.435 55.6588 267.379 55.5959 267.914C55.5959 267.756 55.5172 267.599 55.4857 267.449C55.0096 264.779 54.7699 262.071 54.7695 259.359C54.7695 257.863 54.8167 256.431 54.919 255.038C55.8635 255.038 60.208 254.872 62.0969 253.975C63.9858 253.078 65.9613 251.52 66.3863 249.45C66.5031 248.965 66.5168 248.462 66.4263 247.972C66.3358 247.483 66.1433 247.017 65.8612 246.607C65.5791 246.196 65.2138 245.85 64.789 245.59C64.3642 245.33 63.8894 245.162 63.3955 245.097C60.4126 244.798 56.8945 248.899 55.8163 251.346C55.7612 251.48 55.3204 252.921 55.0292 253.944C55.0843 253.314 55.1316 252.669 55.1945 252.071C55.4228 249.812 55.769 247.765 56.0917 245.947C56.2885 244.916 56.4774 243.988 56.6741 243.122C57.595 242.618 61.2863 240.525 62.5219 238.895C63.7576 237.266 64.8201 234.96 64.2377 232.898C64.1187 232.414 63.8991 231.961 63.5931 231.568C63.2872 231.175 62.9018 230.851 62.4621 230.617C62.0224 230.383 61.5382 230.245 61.0413 230.21C60.5444 230.176 60.0459 230.247 59.5783 230.419C56.7922 231.521 55.5644 236.786 55.7454 239.454C55.7454 239.682 56.4066 243.263 56.4617 243.24H56.5168C56.3121 244.074 56.1075 244.964 55.9028 245.939C55.5408 247.75 55.1158 249.804 54.8639 252.063C54.5386 254.493 54.3521 256.939 54.3052 259.39C54.2484 262.135 54.4327 264.879 54.856 267.591V267.693C54.4547 266.906 53.282 264.75 53.1718 264.592C51.5977 262.404 47.3634 259.083 44.5143 259.98C44.0439 260.142 43.6128 260.401 43.249 260.74C42.8851 261.08 42.5966 261.491 42.4022 261.949C42.2078 262.407 42.1117 262.901 42.1204 263.398C42.129 263.896 42.2421 264.386 42.4522 264.836C43.2865 266.78 45.6004 267.937 47.5602 268.417C49.7481 268.968 54.557 268.079 54.9348 268.008C55.4248 270.736 56.0952 273.428 56.9417 276.068C57.4297 277.642 57.9806 279.169 58.5158 280.711C58.1459 280.042 57.8154 279.452 57.7288 279.373C56.1547 277.185 51.9283 273.864 49.0713 274.753C48.6009 274.915 48.1698 275.174 47.806 275.513C47.4421 275.852 47.1536 276.264 46.9592 276.722C46.7648 277.18 46.6688 277.674 46.6774 278.171C46.686 278.668 46.7991 279.158 47.0092 279.609C47.7963 281.553 50.1574 282.71 52.1171 283.198C54.0769 283.686 58.1931 283.009 59.2792 282.82C59.5075 283.411 59.72 284.001 59.9483 284.591C61.0344 287.417 62.1284 290.234 63.0964 293.036C63.4427 294.02 63.7497 295.004 64.0645 295.988C63.7418 295.397 63.4663 294.902 63.4112 294.831C61.8371 292.643 57.6107 289.321 54.7537 290.211C54.2826 290.372 53.8507 290.63 53.4862 290.969C53.1216 291.308 52.8326 291.72 52.6381 292.178C52.4435 292.636 52.3477 293.131 52.3569 293.628C52.3662 294.126 52.4802 294.616 52.6917 295.067C53.4787 297.011 55.8399 298.168 57.7918 298.648C59.7436 299.128 63.4742 298.53 64.765 298.309C65.0562 299.325 65.3474 300.34 65.552 301.34C65.7016 302.024 65.8826 302.67 65.9928 303.37L66.3469 305.409C66.528 306.715 66.7168 308.061 66.8585 309.344C66.9608 310.233 67.0474 311.075 67.134 311.933C66.8034 310.949 66.1029 309.029 66.0242 308.88C64.91 306.814 63.284 305.068 61.302 303.811C61.1854 303.576 61.0484 303.353 60.8927 303.142C60.6076 302.733 60.2397 302.39 59.813 302.133C59.3862 301.876 58.9102 301.711 58.4158 301.65C57.9214 301.59 57.4197 301.634 56.9433 301.779C56.467 301.925 56.0266 302.169 55.651 302.497C53.4472 304.527 54.195 309.887 55.3204 312.311C55.3834 312.453 56.2806 313.932 56.8945 314.853C56.4695 314.365 56.1075 313.885 55.6274 313.381C54.7616 312.39 53.8723 311.43 52.9121 310.383L51.4561 308.911C50.9838 308.407 50.4171 307.943 49.882 307.447C48.6384 306.329 47.3319 305.251 45.9939 304.204C46.8597 303.417 49.9292 300.694 50.7162 298.876C51.5033 297.058 52.1093 294.516 51.1097 292.651C50.8907 292.204 50.5799 291.808 50.1977 291.489C49.8154 291.171 49.3703 290.936 48.8913 290.801C48.4124 290.666 47.9103 290.633 47.4178 290.705C46.9254 290.777 46.4536 290.952 46.0333 291.218C43.5462 292.895 43.4675 298.302 44.2152 300.867C44.2624 301.033 45.0022 302.819 45.4273 303.787C44.6402 303.158 43.8059 302.536 42.9638 301.922C40.5397 300.175 38.029 298.475 35.5262 296.767L33.2438 295.193C33.5586 294.925 37.242 291.738 38.1785 289.683C39.0128 287.865 39.5795 285.323 38.5799 283.458C38.3601 283.011 38.0485 282.615 37.6656 282.296C37.2826 281.977 36.8368 281.743 36.3573 281.608C35.8777 281.473 35.375 281.44 34.882 281.512C34.3889 281.584 33.9166 281.759 33.4957 282.026C31.0086 283.702 30.9378 289.109 31.6776 291.683C31.7327 291.871 32.803 294.437 33.11 295.083C31.4336 293.918 29.7808 292.721 28.1909 291.525C26.0428 289.885 24.0028 288.108 22.0835 286.205C22.233 286.079 26.0896 282.773 27.0498 280.695C27.8919 278.885 28.4507 276.335 27.4512 274.47C27.2315 274.023 26.9199 273.627 26.5367 273.308C26.1536 272.989 25.7074 272.755 25.2276 272.621C24.7477 272.486 24.2448 272.454 23.7518 272.528C23.2589 272.601 22.7869 272.777 22.3668 273.045C19.8798 274.722 19.8089 280.129 20.5488 282.694C20.6038 282.899 21.7608 285.654 22.0048 286.142L21.6585 285.819C19.789 283.854 18.0956 281.729 16.5978 279.468C15.7556 278.224 15.0237 276.996 14.3311 275.776C15.1181 275.241 18.6598 272.723 19.7381 270.936C20.8163 269.149 21.6034 266.757 20.8163 264.789C20.6487 264.33 20.388 263.91 20.0506 263.557C19.7132 263.203 19.3064 262.923 18.8557 262.734C18.405 262.545 17.92 262.451 17.4313 262.458C16.9425 262.465 16.4605 262.572 16.0154 262.774C13.363 264.167 12.694 269.527 13.1505 272.164C13.1505 272.313 13.5834 273.738 13.9375 274.777C13.6306 274.226 13.3079 273.659 13.0325 273.124C11.9778 271.117 11.1357 269.189 10.4116 267.52C10.0023 266.56 9.62456 265.679 9.33335 264.852C9.82132 263.916 11.7496 260.13 11.8755 258.091C12.0014 256.053 11.6079 253.527 10.0023 252.141C9.63629 251.804 9.20336 251.548 8.73173 251.39C8.2601 251.231 7.76038 251.174 7.2651 251.221C6.76982 251.269 6.29009 251.42 5.85721 251.666C5.42433 251.911 5.04801 252.245 4.75274 252.645C3.03698 255.101 4.91015 260.169 6.53147 262.302C6.67314 262.483 9.19166 265.112 9.21527 265.065V265.01C9.50648 265.797 9.82917 266.67 10.1991 267.599C10.8917 269.307 11.6945 271.235 12.7019 273.274C13.7718 275.481 14.9675 277.625 16.283 279.696C17.7508 282.016 19.4177 284.205 21.2649 286.236C21.2905 286.258 21.3142 286.281 21.3358 286.307C20.5488 285.866 18.4001 284.733 18.1876 284.654C15.6927 283.678 10.3172 283.261 8.41252 285.583C8.10857 285.977 7.89108 286.431 7.77425 286.915C7.65741 287.398 7.64383 287.901 7.73442 288.391C7.82502 288.88 8.01774 289.345 8.30002 289.755C8.58229 290.165 8.94781 290.51 9.37269 290.77C11.1672 291.966 13.7487 291.643 15.6376 290.974Z" fill="#263238"/>
<path d="M54.58 254.565C54.6351 254.565 53.7929 251.032 53.7221 250.811C52.8091 248.293 49.5744 243.964 46.5757 244.066C46.079 244.098 45.5945 244.233 45.1535 244.464C44.7126 244.695 44.3252 245.016 44.0164 245.407C43.7077 245.797 43.4845 246.248 43.3614 246.73C43.2382 247.213 43.2178 247.715 43.3016 248.206C43.5928 250.308 45.5368 252.039 47.2841 253.015C49.2989 254.164 54.58 254.565 54.58 254.565Z" fill="#263238"/>
<path d="M369.077 278.342C366.715 278.168 362.135 275.611 362.135 275.611C362.135 275.611 364.74 273.092 364.929 272.95C367.07 271.376 372.162 269.527 374.602 271.266C374.998 271.566 375.328 271.947 375.568 272.382C375.808 272.818 375.954 273.299 375.997 273.795C376.039 274.291 375.976 274.79 375.813 275.26C375.65 275.73 375.39 276.16 375.05 276.524C373.649 278.113 371.076 278.515 369.077 278.342Z" fill="#263238"/>
<path d="M360.371 290.974C358.246 290.187 354.728 286.834 354.445 286.559C352.513 288.578 350.446 290.463 348.259 292.202C346.991 293.225 345.677 294.217 344.323 295.193C344.992 294.838 345.598 294.524 345.685 294.492C348.18 293.516 353.555 293.099 355.46 295.421C355.764 295.814 355.982 296.268 356.1 296.751C356.217 297.235 356.231 297.737 356.142 298.227C356.052 298.716 355.86 299.181 355.578 299.591C355.297 300.001 354.932 300.348 354.508 300.607C352.737 301.772 350.155 301.45 348.266 300.781C346.378 300.112 343.3 297.27 342.497 296.515L340.923 297.625C338.46 299.388 335.996 301.135 333.627 302.921C332.793 303.551 331.998 304.204 331.195 304.85C331.786 304.535 332.297 304.275 332.376 304.244C334.871 303.268 340.246 302.851 342.151 305.172C342.455 305.566 342.673 306.02 342.789 306.504C342.906 306.988 342.92 307.491 342.829 307.98C342.739 308.469 342.546 308.934 342.264 309.344C341.981 309.754 341.616 310.1 341.191 310.359C339.428 311.524 336.846 311.201 334.958 310.532C333.069 309.863 330.29 307.297 329.33 306.4C328.543 307.093 327.756 307.777 326.969 308.486C326.473 308.974 325.954 309.414 325.482 309.934L324.065 311.437C323.191 312.429 322.294 313.444 321.468 314.436C320.893 315.113 320.35 315.774 319.807 316.443C320.594 315.805 322.27 314.593 322.42 314.507C324.734 313.161 329.999 311.933 332.227 313.94C332.587 314.284 332.871 314.701 333.059 315.162C333.248 315.623 333.338 316.119 333.322 316.617C333.307 317.116 333.186 317.605 332.969 318.054C332.752 318.502 332.442 318.9 332.061 319.221C330.487 320.638 327.89 320.709 325.922 320.331C323.766 319.922 319.917 317.23 319.437 316.891C318.54 317.993 317.682 319.072 316.887 320.103C314.738 322.873 312.952 325.344 311.567 327.328L309.804 326.399C311.275 324.392 313.18 321.858 315.494 319.001C316.399 317.883 317.383 316.702 318.414 315.498C317.436 314.344 316.524 313.135 315.683 311.878C313.558 312.665 309.174 312.523 308.599 312.508C308.458 313.916 308.332 315.294 308.237 316.592C307.985 319.992 307.86 322.96 307.797 325.344L305.876 324.337C306.002 322.102 306.183 319.441 306.474 316.466C306.608 315.034 306.781 313.499 306.97 311.933C306.419 311.776 301.902 310.453 300.225 309.021C298.706 307.722 297.132 305.645 297.258 303.512C297.27 303.014 297.387 302.524 297.601 302.075C297.815 301.626 298.122 301.226 298.5 300.903C298.879 300.58 299.322 300.341 299.799 300.2C300.277 300.06 300.779 300.021 301.272 300.088C304.231 300.56 306.561 305.44 306.97 308.084C306.97 308.242 307.057 309.965 307.088 311.052C307.167 310.414 307.238 309.784 307.332 309.131C307.505 307.825 307.718 306.526 307.946 305.133C308.072 304.456 308.206 303.779 308.348 303.094C308.489 302.41 308.678 301.709 308.835 301.009C309.253 299.395 309.748 297.782 310.292 296.161C309.15 296.003 305.097 295.374 303.389 294.335C301.681 293.296 299.824 291.47 299.627 289.361C299.564 288.867 299.606 288.366 299.749 287.89C299.893 287.413 300.135 286.972 300.46 286.596C300.785 286.22 301.186 285.916 301.637 285.705C302.087 285.493 302.577 285.379 303.074 285.37C306.073 285.37 309.119 289.864 309.914 292.414C309.969 292.572 310.331 294.468 310.52 295.515C310.85 294.547 311.173 293.579 311.543 292.611C312.598 289.809 313.755 287.007 314.896 284.205C315.25 283.347 315.588 282.49 315.935 281.632C315.525 281.577 310.701 280.955 308.788 279.766C307.088 278.72 305.215 276.902 305.018 274.792C304.956 274.298 304.999 273.797 305.144 273.321C305.288 272.844 305.531 272.404 305.857 272.027C306.183 271.651 306.584 271.348 307.035 271.136C307.486 270.925 307.976 270.811 308.473 270.802C311.464 270.802 314.51 275.296 315.313 277.846C315.368 278.043 315.895 280.774 315.998 281.474C316.785 279.578 317.485 277.689 318.13 275.792C319.022 273.24 319.742 270.632 320.287 267.984C320.098 267.984 315.061 267.339 313.101 266.119C311.401 265.072 309.528 263.254 309.331 261.153C309.269 260.659 309.312 260.157 309.457 259.68C309.601 259.203 309.844 258.762 310.17 258.385C310.495 258.008 310.897 257.704 311.347 257.492C311.798 257.28 312.288 257.165 312.786 257.155C315.785 257.155 318.831 261.649 319.626 264.199C319.689 264.403 320.256 267.347 320.318 267.882C320.318 267.725 320.397 267.567 320.421 267.418C320.901 264.748 321.14 262.04 321.137 259.327C321.137 257.831 321.09 256.399 320.995 255.006C320.043 255.006 315.699 254.841 313.817 253.944C311.936 253.046 309.953 251.488 309.528 249.418C309.411 248.934 309.398 248.43 309.488 247.941C309.579 247.451 309.771 246.986 310.053 246.575C310.335 246.165 310.701 245.818 311.125 245.558C311.55 245.298 312.025 245.13 312.519 245.066C315.502 244.767 319.02 248.867 320.09 251.315C320.153 251.449 320.594 252.889 320.877 253.912C320.83 253.282 320.783 252.637 320.72 252.039C320.492 249.78 320.145 247.734 319.823 245.916C319.626 244.885 319.429 243.956 319.24 243.09C318.319 242.586 314.628 240.493 313.393 238.864C312.157 237.235 311.094 234.928 311.669 232.866C311.788 232.383 312.007 231.93 312.313 231.537C312.619 231.144 313.005 230.819 313.444 230.585C313.884 230.352 314.368 230.213 314.865 230.179C315.362 230.145 315.861 230.216 316.328 230.387C319.114 231.489 320.35 236.754 320.169 239.423C320.169 239.651 319.5 243.232 319.453 243.208H319.398C319.602 244.042 319.807 244.932 320.012 245.908C320.374 247.718 320.799 249.772 321.05 252.031C321.377 254.461 321.561 256.907 321.601 259.358C321.665 262.103 321.483 264.847 321.058 267.559V267.662C321.452 266.875 322.632 264.718 322.743 264.561C324.317 262.373 328.551 259.051 331.4 259.949C331.871 260.11 332.303 260.368 332.668 260.707C333.032 261.046 333.322 261.458 333.517 261.915C333.712 262.373 333.809 262.867 333.801 263.365C333.793 263.863 333.68 264.353 333.47 264.805C332.636 266.749 330.322 267.906 328.362 268.386C326.174 268.937 321.365 268.047 320.987 267.976C320.511 270.713 319.856 273.416 319.028 276.067C318.54 277.641 317.989 279.168 317.454 280.711C317.816 280.042 318.146 279.452 318.201 279.373C319.775 277.185 324.01 273.864 326.859 274.753C327.33 274.914 327.762 275.172 328.127 275.511C328.491 275.85 328.781 276.262 328.976 276.72C329.171 277.178 329.268 277.672 329.26 278.169C329.252 278.667 329.139 279.158 328.929 279.609C328.095 281.553 325.781 282.71 323.821 283.198C321.861 283.686 317.737 283.009 316.651 282.82L315.99 284.591C314.904 287.417 313.81 290.234 312.842 293.036C312.487 294.02 312.18 295.004 311.873 295.987C312.196 295.397 312.472 294.901 312.527 294.83C314.061 292.643 318.327 289.321 321.184 290.211C321.655 290.371 322.087 290.63 322.452 290.969C322.816 291.308 323.105 291.72 323.3 292.178C323.494 292.636 323.59 293.13 323.581 293.628C323.572 294.126 323.458 294.616 323.246 295.067C322.42 297.011 320.098 298.168 318.138 298.648C316.179 299.128 312.464 298.53 311.165 298.309C310.882 299.325 310.591 300.34 310.378 301.339C310.236 302.024 310.055 302.669 309.945 303.37L309.591 305.408C309.41 306.715 309.221 308.061 309.079 309.344C308.969 310.233 308.891 311.075 308.804 311.933C309.135 310.949 309.835 309.029 309.914 308.879C311.028 306.813 312.654 305.068 314.636 303.811C314.75 303.575 314.887 303.351 315.045 303.142C315.33 302.733 315.697 302.39 316.123 302.133C316.549 301.876 317.024 301.712 317.518 301.651C318.012 301.59 318.513 301.634 318.989 301.779C319.464 301.925 319.904 302.169 320.279 302.496C322.483 304.527 321.743 309.887 320.618 312.311C320.555 312.452 319.657 313.932 319.043 314.853C319.461 314.365 319.87 313.885 320.311 313.381C321.176 312.389 322.066 311.429 323.026 310.383L324.482 308.911C324.954 308.407 325.521 307.943 326.056 307.447C327.292 306.329 328.598 305.251 329.944 304.204C329.078 303.417 326.009 300.694 325.222 298.876C324.435 297.058 323.821 294.516 324.82 292.65C325.041 292.204 325.353 291.809 325.736 291.491C326.119 291.173 326.565 290.939 327.044 290.804C327.523 290.669 328.026 290.636 328.518 290.707C329.011 290.779 329.483 290.953 329.905 291.218C332.392 292.894 332.47 298.301 331.723 300.867C331.676 301.032 330.936 302.819 330.511 303.787C331.298 303.157 332.132 302.536 332.974 301.922C335.398 300.175 337.909 298.475 340.412 296.767L342.694 295.193C342.379 294.925 338.696 291.737 337.759 289.683C336.917 287.865 336.358 285.323 337.358 283.458C337.578 283.011 337.889 282.615 338.272 282.296C338.655 281.977 339.101 281.743 339.581 281.608C340.06 281.472 340.563 281.44 341.056 281.512C341.549 281.584 342.021 281.759 342.442 282.025C344.929 283.702 345 289.109 344.26 291.682C344.205 291.871 343.135 294.437 342.828 295.082C344.504 293.918 346.157 292.721 347.739 291.525C349.891 289.887 351.934 288.109 353.855 286.205C353.705 286.079 349.848 282.773 348.88 280.695C348.046 278.885 347.487 276.335 348.487 274.47C348.707 274.022 349.018 273.626 349.401 273.308C349.784 272.989 350.231 272.755 350.71 272.62C351.19 272.486 351.693 272.454 352.186 272.527C352.679 272.601 353.151 272.777 353.571 273.045C356.05 274.721 356.129 280.128 355.389 282.694C355.326 282.899 354.177 285.654 353.933 286.142L354.279 285.819C356.149 283.854 357.842 281.729 359.34 279.467C360.182 278.224 360.914 276.996 361.599 275.776C360.812 275.241 357.278 272.722 356.2 270.936C355.122 269.149 354.335 266.757 355.122 264.789C355.292 264.321 355.558 263.894 355.904 263.536C356.25 263.178 356.667 262.897 357.129 262.71C357.591 262.524 358.087 262.437 358.584 262.455C359.082 262.473 359.57 262.595 360.017 262.813C362.669 264.207 363.338 269.566 362.882 272.203C362.882 272.352 362.441 273.777 362.095 274.816C362.402 274.265 362.725 273.698 363 273.163C364.055 271.156 364.889 269.228 365.621 267.559C366.03 266.599 366.408 265.718 366.699 264.891C366.211 263.955 364.283 260.169 364.157 258.131C364.031 256.092 364.425 253.566 366.03 252.18C366.397 251.845 366.83 251.59 367.301 251.432C367.773 251.274 368.272 251.217 368.767 251.264C369.262 251.312 369.741 251.463 370.174 251.707C370.607 251.952 370.984 252.285 371.28 252.684C372.995 255.14 371.122 260.208 369.501 262.341C369.359 262.522 366.841 265.151 366.809 265.104V265.049C366.518 265.836 366.195 266.709 365.825 267.638C365.133 269.346 364.33 271.274 363.315 273.313C362.248 275.52 361.055 277.664 359.742 279.735C358.274 282.057 356.604 284.246 354.752 286.275L354.681 286.346C355.468 285.905 357.617 284.772 357.829 284.693C360.316 283.717 365.7 283.3 367.604 285.622C367.908 286.016 368.126 286.47 368.242 286.954C368.359 287.437 368.373 287.94 368.282 288.43C368.192 288.919 367.999 289.384 367.717 289.794C367.434 290.204 367.069 290.55 366.644 290.809C364.842 291.966 362.252 291.643 360.371 290.974Z" fill="#263238"/>
<path d="M321.46 254.565C321.405 254.565 322.247 251.032 322.317 250.811C323.23 248.293 326.465 243.964 329.456 244.066C329.953 244.097 330.438 244.231 330.88 244.462C331.321 244.693 331.709 245.014 332.018 245.404C332.327 245.795 332.55 246.247 332.673 246.729C332.796 247.212 332.815 247.715 332.73 248.206C332.447 250.308 330.495 252.039 328.795 253.015C326.709 254.164 321.46 254.565 321.46 254.565Z" fill="#263238"/>
<path d="M64.4893 141.349L65.1504 141.782" stroke="#263238" stroke-miterlimit="10"/>
<path d="M66.4658 142.639L187.065 221.053" stroke="#263238" stroke-miterlimit="10" stroke-dasharray="2 2"/>
<path d="M187.725 221.486L188.386 221.911L187.953 221.257" stroke="#263238" stroke-miterlimit="10"/>
<path d="M187.104 219.943L83.6543 60.8813" stroke="#263238" stroke-miterlimit="10" stroke-dasharray="1.98 1.98"/>
<path d="M83.2297 60.228L82.7969 59.5669" stroke="#263238" stroke-miterlimit="10"/>
<path d="M312.283 141.349L311.622 141.782" stroke="#263238" stroke-miterlimit="10"/>
<path d="M310.308 142.639L189.709 221.053" stroke="#263238" stroke-miterlimit="10" stroke-dasharray="2 2"/>
<path d="M189.047 221.486L188.386 221.911L188.819 221.257" stroke="#263238" stroke-miterlimit="10"/>
<path d="M189.67 219.943L293.119 60.8813" stroke="#263238" stroke-miterlimit="10" stroke-dasharray="1.98 1.98"/>
<path d="M293.544 60.228L293.969 59.5669" stroke="#263238" stroke-miterlimit="10"/>
<path d="M188.386 35.1528V35.9399" stroke="#263238" stroke-miterlimit="10"/>
<path d="M188.386 37.5215V220.336" stroke="#263238" stroke-miterlimit="10" stroke-dasharray="2.01 2.01"/>
<path d="M188.386 221.124V221.911" stroke="#263238" stroke-miterlimit="10"/>
<path d="M189.858 55.7969C203.224 55.7969 214.06 44.9614 214.06 31.5952C214.06 18.229 203.224 7.39355 189.858 7.39355C176.492 7.39355 165.656 18.229 165.656 31.5952C165.656 44.9614 176.492 55.7969 189.858 55.7969Z" fill="#263238" stroke="#263238" stroke-width="2" stroke-miterlimit="10"/>
<path d="M189.851 31.5954L210.219 18.5226C207.215 13.826 202.685 10.3074 197.39 8.55859L189.851 31.5954Z" fill="#92E3A9" stroke="#263238" stroke-miterlimit="10"/>
<path d="M189.851 31.5953L201.286 52.9321C204.23 51.3559 206.816 49.1872 208.881 46.5627C210.946 43.9382 212.445 40.9147 213.284 37.6824C214.123 34.4502 214.284 31.0792 213.757 27.7818C213.229 24.4843 212.025 21.3317 210.219 18.5225L189.851 31.5953Z" fill="white" stroke="#263238" stroke-miterlimit="10"/>
<path d="M307.043 76.5202C316.491 67.0719 316.491 51.7532 307.043 42.305C297.594 32.8567 282.276 32.8567 272.827 42.305C263.379 51.7532 263.379 67.0719 272.827 76.5202C282.276 85.9684 297.594 85.9684 307.043 76.5202Z" stroke="#263238" stroke-miterlimit="10"/>
<path d="M289.931 80.3924C301.515 80.3924 310.906 71.0017 310.906 59.4176C310.906 47.8336 301.515 38.4429 289.931 38.4429C278.347 38.4429 268.956 47.8336 268.956 59.4176C268.956 71.0017 278.347 80.3924 289.931 80.3924Z" fill="#263238"/>
<path d="M302.005 59.4175L281.691 47.6826V71.1445L302.005 59.4175Z" fill="white"/>
<path d="M349.144 144.225C352.392 130.664 344.032 117.038 330.472 113.79C316.911 110.541 303.285 118.901 300.037 132.462C296.788 146.023 305.148 159.649 318.709 162.897C332.27 166.146 345.896 157.785 349.144 144.225Z" fill="#263238"/>
<path d="M342.182 142.561C344.493 132.874 338.514 123.148 328.827 120.837C319.141 118.526 309.415 124.505 307.104 134.191C304.793 143.878 310.771 153.604 320.458 155.915C330.144 158.226 339.87 152.247 342.182 142.561Z" fill="white"/>
<path d="M335.102 140.822C336.483 135.007 332.888 129.173 327.073 127.792C321.258 126.411 315.425 130.006 314.044 135.821C312.663 141.636 316.257 147.469 322.072 148.85C327.887 150.231 333.721 146.637 335.102 140.822Z" fill="#263238"/>
<path d="M330.315 139.732C331.057 136.602 329.12 133.463 325.991 132.722C322.861 131.98 319.722 133.916 318.981 137.046C318.239 140.176 320.175 143.315 323.305 144.056C326.435 144.798 329.573 142.862 330.315 139.732Z" fill="white"/>
<path d="M356.806 126.238L353.595 124.978L354.996 124.301C355.155 124.222 355.276 124.083 355.333 123.916C355.39 123.748 355.38 123.564 355.303 123.404C355.265 123.325 355.211 123.254 355.145 123.196C355.079 123.138 355.002 123.093 354.918 123.064C354.835 123.036 354.747 123.024 354.659 123.03C354.571 123.035 354.485 123.058 354.406 123.097L353.391 123.593L354.965 120.099L348.975 122.79L348.149 126.151L324.341 137.744C324.262 137.783 324.191 137.837 324.132 137.903C324.074 137.969 324.029 138.046 324.001 138.129C323.972 138.212 323.961 138.301 323.966 138.389C323.972 138.476 323.995 138.562 324.034 138.641C324.089 138.753 324.174 138.847 324.28 138.913C324.385 138.978 324.508 139.012 324.632 139.011C324.733 139.014 324.833 138.992 324.923 138.948L348.81 127.316L351.415 128.788L356.806 126.238Z" fill="#263238"/>
<path d="M84.9144 83.6032C98.8544 83.6032 110.155 72.3026 110.155 58.3626C110.155 44.4227 98.8544 33.1221 84.9144 33.1221C70.9744 33.1221 59.6738 44.4227 59.6738 58.3626C59.6738 72.3026 70.9744 83.6032 84.9144 83.6032Z" fill="white" stroke="#263238" stroke-width="2" stroke-miterlimit="10"/>
<path d="M84.9131 83.6032C95.0236 83.6032 103.22 72.3026 103.22 58.3626C103.22 44.4227 95.0236 33.1221 84.9131 33.1221C74.8026 33.1221 66.6064 44.4227 66.6064 58.3626C66.6064 72.3026 74.8026 83.6032 84.9131 83.6032Z" fill="white" stroke="#263238" stroke-miterlimit="10"/>
<path d="M84.9138 83.6032C89.2171 83.6032 92.7056 72.3026 92.7056 58.3626C92.7056 44.4227 89.2171 33.1221 84.9138 33.1221C80.6106 33.1221 77.1221 44.4227 77.1221 58.3626C77.1221 72.3026 80.6106 83.6032 84.9138 83.6032Z" fill="white" stroke="#263238" stroke-miterlimit="10"/>
<path d="M71.5332 37.0415H98.7335" stroke="#263238" stroke-miterlimit="10"/>
<path d="M62.3877 46.9351H107.383" stroke="#263238" stroke-miterlimit="10"/>
<path d="M59.791 56.8198H110.107" stroke="#263238" stroke-miterlimit="10"/>
<path d="M60.9082 66.7134H108.619" stroke="#263238" stroke-miterlimit="10"/>
<path d="M67.709 76.5986H102.567" stroke="#263238" stroke-miterlimit="10"/>
<path d="M51.8734 163.59C65.8133 163.59 77.1139 152.29 77.1139 138.35C77.1139 124.41 65.8133 113.109 51.8734 113.109C37.9334 113.109 26.6328 124.41 26.6328 138.35C26.6328 152.29 37.9334 163.59 51.8734 163.59Z" fill="#263238" stroke="#263238" stroke-width="2" stroke-miterlimit="10"/>
<path d="M67.8666 126.418H34.3936V153.202H67.8666V126.418Z" fill="white" stroke="#263238" stroke-width="2" stroke-miterlimit="10"/>
<path d="M69.9599 126.418H32.2998V137.295H69.9599V126.418Z" fill="white" stroke="#263238" stroke-width="2" stroke-miterlimit="10"/>
<path d="M51.0942 126.151C51.0942 126.151 43.2237 116.927 41.87 117.367C40.5163 117.808 37.0454 123.955 39.0209 124.608C40.9964 125.261 51.0942 126.151 51.0942 126.151Z" fill="#92E3A9"/>
<path d="M51.1572 126.151C51.1572 126.151 59.0277 116.927 60.3735 117.367C61.7193 117.808 65.206 123.955 63.2305 124.608C61.255 125.261 51.1572 126.151 51.1572 126.151Z" fill="#92E3A9"/>
<path d="M53.5102 145.245L51.1412 141.128L48.6777 145.245V126.812H53.5102V145.245Z" fill="#92E3A9"/>
<path d="M63.0488 207.885L188.299 137.39L316.619 207.885V310.083H64.5836L63.0488 207.885Z" fill="#263238" stroke="#263238" stroke-linecap="round" stroke-linejoin="round"/>
<path d="M283.58 156.405H96.0898V323.148H283.58V156.405Z" fill="white" stroke="#263238" stroke-miterlimit="10"/>
<path d="M117.607 185.604H259.756" stroke="#263238" stroke-miterlimit="10"/>
<path d="M117.607 200.204H259.756" stroke="#263238" stroke-miterlimit="10"/>
<path d="M117.607 214.803H259.756" stroke="#263238" stroke-miterlimit="10"/>
<path d="M117.607 229.403H259.756" stroke="#263238" stroke-miterlimit="10"/>
<path d="M117.607 244.003H259.756" stroke="#263238" stroke-miterlimit="10"/>
<path d="M117.607 258.603H259.756" stroke="#263238" stroke-miterlimit="10"/>
<path d="M316.619 348.507H63.0488V207.885L189.834 293.949L316.619 207.885V348.507Z" fill="#92E3A9" stroke="#263238" stroke-miterlimit="10"/>
<path d="M63.0488 348.507L155.235 270.424" stroke="#263238" stroke-miterlimit="10"/>
<path d="M316.218 348.507L224.708 270.298" stroke="#263238" stroke-miterlimit="10"/>
<path d="M217.263 109.922C217.263 109.922 216.303 114.377 217.578 115.809C218.853 117.241 223.63 122.334 223.63 123.129C223.63 123.923 222.056 146.842 222.056 146.842L214.737 141.593L210.282 155.279C210.282 155.279 221.419 160.049 226.676 161.009C231.934 161.969 232.878 160.529 232.878 156.389C232.878 152.249 228.746 120.586 228.746 120.586C228.746 120.586 230.013 113.259 230.013 111.992C230.013 110.725 230.494 110.079 229.376 109.442C228.258 108.804 219.192 107.868 219.192 107.868C219.192 107.868 217.263 108.647 217.263 109.922Z" fill="white" stroke="#263238" stroke-linecap="round" stroke-linejoin="round"/>
<path d="M214.901 143.521L212.477 155.783L210.258 155.279L214.901 143.521Z" fill="#263238" stroke="#263238" stroke-linecap="round" stroke-linejoin="round"/>
<path d="M232.768 113.495L214.744 111.071V106.577C214.744 106.368 214.827 106.168 214.975 106.021C215.122 105.873 215.322 105.79 215.531 105.79C215.74 105.79 215.94 105.873 216.088 106.021C216.235 106.168 216.318 106.368 216.318 106.577V109.725L231.39 111.756L231.65 108.112C231.664 107.903 231.761 107.709 231.919 107.571C232.077 107.434 232.283 107.365 232.492 107.38C232.701 107.394 232.895 107.491 233.032 107.649C233.17 107.807 233.239 108.013 233.224 108.222L232.768 113.495Z" fill="#263238"/>
<path d="M218.853 111.992L228.722 112.944L229.36 109.442L219.175 107.852L218.853 111.992Z" fill="white" stroke="#263238" stroke-linecap="round" stroke-linejoin="round"/>
<path d="M217.098 112.448C217.098 112.448 217.098 108.513 217.578 108.151C218.058 107.789 224.897 108.316 224.897 109.269C224.897 110.221 224.897 110.701 224.11 110.701C223.323 110.701 221.749 110.858 221.749 110.858C221.749 110.858 225.409 114.203 224.291 117.226" fill="white"/>
<path d="M217.098 112.448C217.098 112.448 217.098 108.513 217.578 108.151C218.058 107.789 224.897 108.316 224.897 109.269C224.897 110.221 224.897 110.701 224.11 110.701C223.323 110.701 221.749 110.858 221.749 110.858C221.749 110.858 225.409 114.203 224.291 117.226" stroke="#263238" stroke-linecap="round" stroke-linejoin="round"/>
<path d="M222.04 146.842L221.402 153.847" stroke="#263238" stroke-linecap="round" stroke-linejoin="round"/>
<path d="M141.218 143.781C141.218 143.781 118.717 161.348 119.299 163.229C119.882 165.11 136.567 181.079 142.084 184.998C147.601 188.918 150.647 190.657 150.647 190.657L154.134 192.837C154.134 192.837 152.678 195.159 153.551 195.592C154.425 196.025 157.613 197.623 158.053 196.757C158.494 195.891 160.808 189.351 160.517 187.761C160.226 186.171 151.812 184.857 151.23 184.274C150.647 183.692 136.858 162.237 136.858 162.237L147.601 153.823L141.218 143.781Z" fill="white" stroke="#263238" stroke-linecap="round" stroke-linejoin="round"/>
<path d="M140.833 144.371L144.91 155.445L147.602 153.8L140.833 144.371Z" fill="#263238" stroke="#263238" stroke-linecap="round" stroke-linejoin="round"/>
<path d="M154.134 192.837C154.134 192.837 155.149 195.018 156.888 195.159" stroke="#263238" stroke-linecap="round" stroke-linejoin="round"/>
<path d="M136.866 162.213L133.962 157.137" stroke="#263238" stroke-linecap="round" stroke-linejoin="round"/>
<path d="M156.165 321.125L155.937 334.025L166.507 334.253L167.435 320.197L156.165 321.125Z" fill="white" stroke="#263238" stroke-linecap="round" stroke-linejoin="round"/>
<path d="M156.212 320.425V323.613L167.168 324.124L167.419 320.811L156.212 320.425Z" fill="#263238" stroke="#263238" stroke-linecap="round" stroke-linejoin="round"/>
<path d="M161.162 330.649C161.162 330.649 159.761 325.194 157.675 325.076C155.59 324.958 154.527 326.588 153.74 328.099C152.953 329.61 147.814 334.718 146.067 335.969C144.319 337.221 140.494 338.881 139.912 342.596C139.329 346.311 141.541 347.822 143.06 348.176C144.579 348.53 151.418 348.641 155.488 348.176C159.557 347.712 170.654 348.814 171.291 348.176C171.929 347.539 172.802 345.5 172.22 344.107C171.764 343.093 171.218 342.121 170.591 341.203C170.591 341.203 171.756 337.834 171.055 335.969C170.355 334.104 168.97 331.79 169.198 330.743C169.426 329.696 171.984 327.493 170.245 327.375C168.505 327.257 165.711 329.35 163.948 329.932C163.045 330.261 162.112 330.501 161.162 330.649Z" fill="#263238" stroke="#263238" stroke-linecap="round" stroke-linejoin="round"/>
<path d="M168.592 341.691C166.971 341.919 160.721 344.942 156.747 345.87C152.772 346.799 149.309 346.917 147.452 345.988C145.594 345.06 143.965 342.273 142.572 340.526C141.179 338.779 140.014 343.202 140.014 343.202L139.817 343.289C139.589 346.523 141.62 347.869 143.037 348.2C144.453 348.53 151.395 348.664 155.464 348.2C159.533 347.736 170.63 348.837 171.268 348.2C171.905 347.562 172.779 345.524 172.197 344.131C171.74 343.117 171.195 342.145 170.567 341.227C169.875 341.109 170.221 341.479 168.592 341.691Z" fill="white" stroke="#263238" stroke-linecap="round" stroke-linejoin="round"/>
<path d="M151.63 331.349C151.63 331.349 154.778 330.649 158.714 334.497L156.62 336.237C156.62 336.237 152.551 333.089 149.993 333.089L151.63 331.349Z" fill="white" stroke="#263238" stroke-linecap="round" stroke-linejoin="round"/>
<path d="M148.727 333.671C148.727 333.671 151.875 332.978 155.81 336.819L153.748 338.55C153.748 338.55 149.679 335.402 147.121 335.402L148.727 333.671Z" fill="white" stroke="#263238" stroke-linecap="round" stroke-linejoin="round"/>
<path d="M157.904 333.325L161.163 330.657" stroke="#263238" stroke-linecap="round" stroke-linejoin="round"/>
<path d="M153.748 338.551C153.748 338.551 154.535 340.298 153.166 341.345C151.796 342.392 142.596 340.644 142.706 339.369C142.816 338.094 147.121 335.434 147.121 335.434C149.524 335.999 151.781 337.061 153.748 338.551Z" fill="white" stroke="#263238" stroke-linecap="round" stroke-linejoin="round"/>
<path d="M222.835 321.125L223.071 334.025L212.493 334.253L211.564 320.197L222.835 321.125Z" fill="white" stroke="#263238" stroke-linecap="round" stroke-linejoin="round"/>
<path d="M211.769 322.589V324.502L222.985 324.376L222.859 321.574L211.518 321.448L211.769 322.589Z" fill="#263238" stroke="#263238" stroke-linecap="round" stroke-linejoin="round"/>
<path d="M217.837 330.649C217.837 330.649 219.23 325.194 221.324 325.076C223.417 324.958 224.472 326.588 225.259 328.099C226.046 329.61 231.186 334.718 232.925 335.969C234.664 337.221 238.505 338.881 239.087 342.596C239.67 346.311 237.458 347.822 235.939 348.176C234.42 348.53 227.573 348.641 223.504 348.176C219.435 347.712 208.345 348.814 207.708 348.176C207.07 347.539 206.197 345.5 206.779 344.107C207.231 343.092 207.774 342.12 208.401 341.203C208.401 341.203 207.244 337.834 207.936 335.969C208.629 334.104 210.03 331.79 209.794 330.743C209.558 329.696 207.008 327.493 208.755 327.375C210.502 327.257 213.28 329.35 215.051 329.932C215.954 330.262 216.887 330.502 217.837 330.649Z" fill="#263238" stroke="#263238" stroke-linecap="round" stroke-linejoin="round"/>
<path d="M210.415 341.691C212.044 341.919 218.286 344.942 222.268 345.87C226.251 346.799 229.706 346.917 231.563 345.988C233.42 345.06 235.05 342.273 236.443 340.526C237.836 338.779 239.001 343.202 239.001 343.202L239.19 343.289C239.426 346.523 237.395 347.869 235.978 348.2C234.562 348.53 227.612 348.664 223.543 348.2C219.474 347.736 208.385 348.837 207.747 348.2C207.11 347.562 206.236 345.524 206.818 344.131C207.27 343.116 207.813 342.144 208.44 341.227C209.124 341.109 208.778 341.479 210.415 341.691Z" fill="white" stroke="#263238" stroke-linecap="round" stroke-linejoin="round"/>
<path d="M227.369 331.349C227.369 331.349 224.22 330.649 220.285 334.497L222.379 336.237C222.379 336.237 226.44 333.089 228.998 333.089L227.369 331.349Z" fill="white" stroke="#263238" stroke-linecap="round" stroke-linejoin="round"/>
<path d="M230.272 333.671C230.272 333.671 227.124 332.978 223.188 336.819L225.282 338.558C225.282 338.558 229.351 335.41 231.901 335.41L230.272 333.671Z" fill="white" stroke="#263238" stroke-linecap="round" stroke-linejoin="round"/>
<path d="M221.095 333.325L217.837 330.657" stroke="#263238" stroke-linecap="round" stroke-linejoin="round"/>
<path d="M225.275 338.551C225.275 338.551 224.488 340.298 225.857 341.345C227.227 342.392 236.427 340.644 236.309 339.369C236.191 338.094 231.894 335.434 231.894 335.434C229.494 335.998 227.239 337.06 225.275 338.551Z" fill="white" stroke="#263238" stroke-linecap="round" stroke-linejoin="round"/>
<path d="M161.021 184.975C161.021 184.975 154.874 210.074 152.568 231.332C150.262 252.59 146.665 322.259 146.665 322.259H174.841C174.841 322.259 183.294 251.567 184.577 239.021C185.86 226.476 185.86 218.558 185.86 218.558L201.758 322.259H235.31C235.31 322.259 222.505 256.438 217.381 226.24C212.257 196.041 205.087 184.235 205.087 184.235L161.021 184.975Z" fill="#B0B0B0" stroke="#263238" stroke-linecap="round" stroke-linejoin="round"/>
<path d="M185.096 186.769C184.852 187.493 178.178 197.528 180.232 198.291C182.286 199.055 186.119 199.078 186.119 197.009V188.792C186.119 188.792 186.631 200.314 188.937 199.81C191.243 199.307 194.312 199.81 193.549 197.252C192.785 194.695 186.89 186.494 186.89 186.494C186.89 186.494 185.867 184.463 185.096 186.769Z" fill="#B0B0B0" stroke="#263238" stroke-linecap="round" stroke-linejoin="round"/>
<path d="M186.15 187.603C186.15 187.603 191.959 195.851 191.4 196.607C190.841 197.362 190.086 198.102 189.527 196.977C188.968 195.851 186.15 187.603 186.15 187.603Z" stroke="#263238" stroke-miterlimit="10"/>
<path d="M185.962 186.667C185.962 186.667 181.649 195.851 182.215 196.229C182.418 196.354 182.648 196.429 182.885 196.447C183.122 196.466 183.361 196.428 183.58 196.337C183.8 196.245 183.995 196.103 184.149 195.921C184.303 195.74 184.412 195.524 184.466 195.293C184.836 193.978 185.962 186.667 185.962 186.667Z" stroke="#263238" stroke-miterlimit="10"/>
<path d="M203.474 212.844C203.71 214.15 203.906 215.378 204.048 216.48" stroke="#263238" stroke-linecap="round" stroke-linejoin="round"/>
<path d="M197.39 187.532C197.39 187.532 200.585 198.952 202.639 208.641" stroke="#263238" stroke-linecap="round" stroke-linejoin="round"/>
<path d="M195.084 187.532C195.084 187.532 197.13 201.88 198.161 205.721" stroke="#263238" stroke-linecap="round" stroke-linejoin="round"/>
<path d="M167.206 207.397C167.104 208.389 167.002 209.294 166.907 210.073" stroke="#263238" stroke-linecap="round" stroke-linejoin="round"/>
<path d="M169.214 187.532C169.214 187.532 168.364 196.3 167.64 203.541" stroke="#263238" stroke-linecap="round" stroke-linejoin="round"/>
<path d="M167.168 188.052L166.145 200.345" stroke="#263238" stroke-linecap="round" stroke-linejoin="round"/>
<path d="M185.112 83.0205C185.112 83.0205 194.659 83.9807 192.431 88.9155C190.204 93.8503 187.977 94.8026 187.497 94.8026C187.016 94.8026 183.199 88.9155 183.199 88.9155L185.112 83.0205Z" fill="#263238" stroke="#263238" stroke-linecap="round" stroke-linejoin="round"/>
<path d="M184.001 87.6406C184.001 87.6406 187.661 89.7105 188.771 93.5277C189.881 97.3449 192.753 98.4625 193.548 98.3051C194.343 98.1477 195.453 100.532 194.501 102.122L193.548 103.696C193.548 103.696 194.335 114.518 193.391 115.951C192.446 117.383 186.544 116.588 186.544 116.588C186.544 116.588 185.269 121.68 186.386 124.868C187.504 128.055 190.841 129.637 192.116 129.637C193.391 129.637 196.051 128.063 199.75 129.96C203.449 131.857 215.664 141.097 215.664 141.097L209.14 158.923L202.143 155.264L207.078 185.644L159.328 186.753C159.328 186.753 159.808 165.109 158.54 161.135C157.657 158.494 156.54 155.936 155.203 153.493L149.151 158.27L140.714 143.631C140.714 143.631 153.133 131.211 158.029 130.102C162.924 128.992 168.859 130.417 170.763 128.032C172.668 125.647 171.086 114.345 171.086 114.345C171.086 114.345 166.466 112.771 163.759 104.633C161.051 96.4949 170.291 88.105 170.291 88.105C170.291 88.105 174.447 83.8234 184.001 87.6406Z" fill="white" stroke="#263238" stroke-linecap="round" stroke-linejoin="round"/>
<path d="M186.544 116.604L182.247 115.88L185.702 119.854L186.544 116.604Z" fill="#263238" stroke="#263238" stroke-linecap="round" stroke-linejoin="round"/>
<path d="M184.521 96.2508C184.521 96.2508 184.521 93.2285 187.229 93.2285" stroke="#263238" stroke-width="2" stroke-linecap="round" stroke-linejoin="round"/>
<path d="M191.637 107.214L186.065 104.507C186.065 104.507 185.592 110.237 187.639 110.079C189.685 109.922 191.637 107.214 191.637 107.214Z" fill="#263238" stroke="#263238" stroke-linecap="round" stroke-linejoin="round"/>
<path d="M186.183 99.2104C186.183 99.2104 187.977 97.2664 189.472 98.9113" stroke="#263238" stroke-linecap="round" stroke-linejoin="round"/>
<path d="M186.018 106.325L191.031 107.954C191.401 107.529 191.629 107.214 191.629 107.214L186.057 104.507C186.057 104.507 186.018 105.365 186.018 106.325Z" fill="white" stroke="#263238" stroke-linecap="round" stroke-linejoin="round"/>
<path d="M154.874 94.4801C154.874 94.4801 151.371 87.3179 146.436 88.1129C141.502 88.9078 137.685 94.3227 139.274 101.965C139.274 101.965 140.061 104.035 140.707 105.782C140.707 105.782 134.505 103.87 131.16 108.009C127.815 112.149 130.373 116.447 134.182 118.516C137.991 120.586 140.235 120.421 140.235 120.421C140.235 120.421 131.797 122.971 134.82 126.151C137.842 129.33 147.074 127.268 145.169 124.577C143.265 121.885 141.824 122.216 141.824 122.216C141.824 122.216 149.467 119.351 148.664 117.281C147.861 115.211 144.052 113.621 144.052 113.621C144.052 113.621 151.371 116.163 155.354 113.778C159.336 111.394 155.826 101.186 155.826 101.186L154.874 94.4801Z" fill="#263238" stroke="#263238" stroke-linecap="round" stroke-linejoin="round"/>
<path d="M186.86 79.5263C186.86 79.5263 188.135 83.9809 185.907 87.7981C183.68 91.6153 178.903 98.1399 178.273 105.467C177.643 112.795 179.721 121.893 180.973 124.884C182.224 127.874 179.398 128.543 177.313 128.378C175.227 128.213 174.448 126.946 174.448 124.081C174.448 121.216 173.81 116.124 173.81 116.124C173.81 116.124 165.696 115.337 161.879 113.102C158.062 110.866 152.489 103.232 154.874 94.4801C157.259 85.7282 163.626 83.186 167.467 81.5883C171.308 79.9906 176.518 80.1795 180.178 79.3925C183.837 78.6054 186.702 77.6138 186.86 79.5263Z" fill="#263238" stroke="#263238" stroke-linecap="round" stroke-linejoin="round"/>
<path d="M175.242 101.799L173.81 107.529C173.81 107.529 170.788 106.097 170.315 103.555C169.843 101.012 173.464 99.7374 176.037 101.981" fill="white"/>
<path d="M175.242 101.799L173.81 107.529C173.81 107.529 170.788 106.097 170.315 103.555C169.843 101.012 173.464 99.7374 176.037 101.981" stroke="#263238" stroke-linecap="round" stroke-linejoin="round"/>
<path d="M221.717 110.874L219.647 111.039" stroke="#263238" stroke-linecap="round" stroke-linejoin="round"/>
<path d="M206.834 106.278L259.873 113.7L252.664 74.4575L205.197 97.3212L206.834 106.278Z" fill="#92E3A9" stroke="#263238" stroke-linecap="round" stroke-linejoin="round"/>
<path d="M205.188 97.3263L197.307 98.7671L198.937 107.686L206.819 106.245L205.188 97.3263Z" fill="#92E3A9" stroke="#263238" stroke-linecap="round" stroke-linejoin="round"/>
<path d="M215.665 141.112C215.665 141.112 203.411 131.88 199.751 129.976C196.091 128.071 193.455 129.606 192.172 129.653C190.465 132.113 188.165 134.104 185.486 135.439C182.806 136.775 179.832 137.413 176.84 137.295C166.365 137.154 163.46 131.337 162.823 129.637C161.221 129.649 159.623 129.815 158.053 130.133C153.126 131.243 140.738 143.662 140.738 143.662L149.175 158.301L155.228 153.524C156.564 155.968 157.681 158.525 158.565 161.166C159.84 165.141 159.352 186.785 159.352 186.785L207.078 185.643L202.144 155.248L209.14 158.907L215.665 141.112Z" fill="#263238" stroke="#263238" stroke-linecap="round" stroke-linejoin="round"/>
<path d="M185.46 171.43C193.351 169.552 198.225 161.632 196.346 153.742C194.468 145.851 186.549 140.977 178.658 142.856C170.768 144.734 165.894 152.653 167.772 160.544C169.65 168.434 177.57 173.308 185.46 171.43Z" stroke="white" stroke-miterlimit="10"/>
<path d="M191.038 150.478H173.621L182.208 158.75L191.038 150.478Z" fill="#92E3A9"/>
<path d="M185.694 156.924L191.755 162.276V151.242L185.694 156.924Z" fill="#92E3A9"/>
<path d="M178.784 156.909L172.646 150.99V162.025L178.784 156.909Z" fill="#92E3A9"/>
<path d="M184.924 157.64L182.193 160.198L179.548 157.64L173.157 162.968H190.952L184.924 157.64Z" fill="#92E3A9"/>
<path d="M15.7637 348.507H362.308" stroke="#263238" stroke-miterlimit="10"/>
</svg>
