<svg width="309" height="319" viewBox="0 0 309 319" fill="none" xmlns="http://www.w3.org/2000/svg">
<path d="M154.798 4.85877V1.19531" stroke="#263238" stroke-width="1.17707" stroke-linecap="round" stroke-linejoin="round"/>
<path d="M297.696 175.745C300.63 155.194 298.183 133.839 290.431 112.662C276.873 75.6259 249.324 42.2871 213.49 25.4678C199.087 18.7061 183.386 14.7907 167.47 14.6C139.049 14.2528 115.096 26.3939 95.1244 45.8484C79.5118 61.0538 64.886 78.0705 45.7048 88.877C27.5441 99.1047 11.0461 113.166 6.1731 134.834C1.86104 154.009 9.74845 173.865 22.6441 188.015C31.0587 197.249 42.1632 203.452 50.6521 212.59C62.0271 224.834 60.5739 235.987 61.5201 251.69C63.5005 284.518 92.1371 307.146 121.767 314.908C158.71 324.584 193.315 310.7 221.046 285.866C238.963 269.816 257.387 253.794 272.196 234.68C286.247 216.546 294.723 196.561 297.69 175.751L297.696 175.745Z" fill="#92E3A9"/>
<path opacity="0.7" d="M297.696 175.745C300.63 155.194 298.183 133.839 290.431 112.662C276.873 75.6259 249.324 42.2871 213.49 25.4678C199.087 18.7061 183.386 14.7907 167.47 14.6C139.049 14.2528 115.096 26.3939 95.1244 45.8484C79.5118 61.0538 64.886 78.0705 45.7048 88.877C27.5441 99.1047 11.0461 113.166 6.1731 134.834C1.86104 154.009 9.74845 173.865 22.6441 188.015C31.0587 197.249 42.1632 203.452 50.6521 212.59C62.0271 224.834 60.5739 235.987 61.5201 251.69C63.5005 284.518 92.1371 307.146 121.767 314.908C158.71 324.584 193.315 310.7 221.046 285.866C238.963 269.816 257.387 253.794 272.196 234.68C286.247 216.546 294.723 196.561 297.69 175.751L297.696 175.745Z" fill="#FEFEFE"/>
<path d="M254.929 317.301L300.679 223.753H209.187L254.929 317.301Z" fill="#FEFEFE" stroke="#263238" stroke-width="1.17707" stroke-linecap="round" stroke-linejoin="round"/>
<path d="M254.93 317.301L243.123 223.753H300.68L254.93 317.301Z" fill="#263238" stroke="#19241D" stroke-width="1.17707" stroke-linecap="round" stroke-linejoin="round"/>
<path d="M254.929 223.668C276.131 223.668 293.319 206.352 293.319 184.991C293.319 163.63 276.131 146.313 254.929 146.313C233.728 146.313 216.54 163.63 216.54 184.991C216.54 206.352 233.728 223.668 254.929 223.668Z" fill="#FEFEFE" stroke="#263238" stroke-width="1.17707" stroke-linecap="round" stroke-linejoin="round"/>
<path d="M289.19 182.46C288.608 174.343 285.249 167.009 280.065 161.405L289.19 182.46Z" fill="#FEFEFE"/>
<path d="M289.19 182.46C288.608 174.343 285.249 167.009 280.065 161.405" stroke="#263238" stroke-width="1.17707" stroke-linecap="round" stroke-linejoin="round"/>
<path d="M274.888 156.82C272.373 155.009 269.602 153.524 266.642 152.448L274.888 156.82Z" fill="#FEFEFE"/>
<path d="M274.888 156.82C272.373 155.009 269.602 153.524 266.642 152.448" stroke="#263238" stroke-width="1.17707" stroke-linecap="round" stroke-linejoin="round"/>
<path d="M287.047 163.815C288.507 167.908 289.311 172.314 289.311 176.917C289.311 198.278 272.124 215.594 250.922 215.594C237.485 215.594 225.664 208.628 218.804 198.094C224.13 213.007 238.29 223.67 254.929 223.67C276.132 223.67 293.319 206.354 293.319 184.993C293.319 177.175 291.007 169.903 287.047 163.815Z" fill="#263238" stroke="#19241D" stroke-width="1.17707" stroke-linecap="round" stroke-linejoin="round"/>
<path d="M181.447 267.739C182.988 268.413 186.746 268.332 186.753 268.332C186.793 268.332 185.942 265.846 185.874 265.696C185.05 263.953 182.434 261.08 180.312 261.372C178.784 261.583 177.933 263.122 178.277 264.573C178.629 266.057 180.143 267.16 181.454 267.732L181.447 267.739Z" fill="#A3A3A3"/>
<path d="M182.744 278.723C184.339 278.955 187.698 277.974 187.969 277.899C188.496 279.792 189.199 281.692 190.003 283.578C190.463 284.654 190.963 285.73 191.476 286.792C191.172 286.343 190.895 285.941 190.848 285.886C189.597 284.429 186.326 282.352 184.353 283.197C182.933 283.803 182.514 285.519 183.231 286.826C183.961 288.161 185.704 288.821 187.117 289.032C188.55 289.244 191.436 288.467 192.193 288.249C192.396 288.658 192.592 289.066 192.794 289.475C193.768 291.429 194.748 293.37 195.646 295.304C195.964 295.985 196.255 296.666 196.545 297.354C196.275 296.952 196.038 296.618 195.998 296.57C194.748 295.113 191.476 293.036 189.503 293.881C188.083 294.487 187.664 296.203 188.381 297.51C189.111 298.845 190.855 299.505 192.267 299.716C193.639 299.921 196.302 299.226 197.208 298.967C197.485 299.676 197.762 300.384 197.999 301.085C198.147 301.569 198.33 302.018 198.451 302.508C198.587 302.992 198.715 303.468 198.85 303.945C199.073 304.864 199.303 305.818 199.492 306.723C199.627 307.35 199.749 307.956 199.871 308.562C199.56 307.881 198.931 306.553 198.864 306.451C197.843 304.817 194.923 302.263 192.848 302.801C191.355 303.182 190.679 304.817 191.192 306.219C191.713 307.649 193.335 308.569 194.707 308.991C196.214 309.454 199.546 309.032 199.965 308.977C200.168 309.978 200.351 310.959 200.513 311.885C200.871 313.928 201.141 315.759 201.344 317.305H202.75C202.507 315.705 202.182 313.791 201.763 311.646C201.567 310.625 201.331 309.542 201.08 308.426C201.331 308.323 202.75 307.745 204.014 307.036C205.109 308.235 207.92 309.638 208.285 309.815C207.9 310.761 207.522 311.68 207.15 312.545C206.373 314.35 205.636 315.95 204.98 317.305H206.501C207.062 316.052 207.677 314.622 208.319 313.042C208.711 312.082 209.11 311.047 209.515 309.978C209.921 310.06 213.219 310.741 214.753 310.387C216.146 310.067 217.835 309.277 218.464 307.888C219.072 306.526 218.525 304.851 217.065 304.354C215.03 303.666 211.928 305.988 210.793 307.54C210.725 307.629 210.11 308.705 209.732 309.393C209.894 308.957 210.056 308.535 210.218 308.085C210.543 307.193 210.84 306.294 211.164 305.327C211.306 304.857 211.448 304.381 211.59 303.897C211.739 303.421 211.84 302.903 211.969 302.399C212.246 301.228 212.469 300.03 212.665 298.818C213.442 299.104 216.206 300.07 217.639 299.968C219.065 299.866 220.856 299.342 221.681 298.062C222.492 296.809 222.201 295.072 220.829 294.357C218.923 293.37 215.51 295.195 214.152 296.557C214.064 296.639 213.206 297.728 212.739 298.334C212.854 297.605 212.969 296.877 213.064 296.135C213.327 293.99 213.53 291.817 213.74 289.645C213.8 288.978 213.875 288.317 213.942 287.657C214.219 287.759 217.477 288.985 219.086 288.869C220.512 288.767 222.303 288.243 223.127 286.962C223.938 285.709 223.648 283.973 222.276 283.258C220.37 282.271 216.957 284.096 215.598 285.451C215.497 285.553 214.253 287.119 213.956 287.534C214.111 286.077 214.273 284.62 214.497 283.197C214.801 281.229 215.206 279.315 215.733 277.49C215.862 277.538 219.261 278.832 220.904 278.716C222.33 278.614 224.121 278.09 224.945 276.81C225.757 275.557 225.466 273.82 224.094 273.105C222.188 272.118 218.775 273.943 217.416 275.298C217.308 275.407 215.977 277.089 215.754 277.416C215.787 277.307 215.808 277.191 215.841 277.082C216.43 275.141 217.241 273.337 218.085 271.682C218.572 270.722 219.092 269.83 219.62 268.972C220.228 269.278 223.026 270.647 224.52 270.708C225.946 270.763 227.784 270.436 228.744 269.258C229.683 268.107 229.589 266.343 228.298 265.479C226.513 264.287 222.918 265.717 221.417 266.922C221.336 266.99 220.579 267.746 220.039 268.305C220.282 267.923 220.525 267.522 220.762 267.161C221.661 265.799 222.566 264.607 223.371 263.558C223.837 262.966 224.27 262.442 224.675 261.951C225.425 261.938 228.46 261.842 229.785 261.216C231.076 260.603 232.563 259.459 232.873 257.968C233.178 256.504 232.285 254.985 230.751 254.822C228.622 254.59 226.088 257.532 225.31 259.296C225.243 259.446 224.466 261.951 224.499 261.951C224.499 261.951 224.533 261.951 224.547 261.951C224.141 262.414 223.715 262.912 223.263 263.47C222.431 264.505 221.499 265.676 220.566 267.024C219.633 268.366 218.66 269.85 217.768 271.512C216.876 273.173 216.024 274.964 215.382 276.925C215.375 276.946 215.368 276.973 215.362 276.993C215.375 276.36 215.348 274.59 215.328 274.453C215.085 272.54 213.489 268.992 211.381 268.597C209.86 268.318 208.576 269.517 208.454 271.001C208.333 272.52 209.427 274.045 210.489 275.005C211.692 276.088 215.03 277.136 215.294 277.218C214.699 279.091 214.24 281.065 213.881 283.088C213.679 284.245 213.503 285.417 213.348 286.588C213.341 286.043 213.327 285.553 213.32 285.485C213.077 283.571 211.482 280.024 209.373 279.629C207.853 279.343 206.569 280.548 206.447 282.032C206.325 283.551 207.42 285.076 208.481 286.036C209.563 287.01 212.395 287.963 213.145 288.202C213.091 288.651 213.03 289.101 212.976 289.557C212.719 291.722 212.469 293.888 212.165 296.005C212.057 296.754 211.921 297.483 211.793 298.212C211.786 297.728 211.773 297.319 211.766 297.251C211.523 295.338 209.928 291.79 207.819 291.395C206.298 291.109 205.014 292.315 204.892 293.799C204.771 295.318 205.866 296.843 206.927 297.796C207.961 298.722 210.563 299.628 211.455 299.921C211.3 300.663 211.144 301.412 210.962 302.127C210.827 302.61 210.725 303.087 210.563 303.571C210.407 304.047 210.259 304.524 210.11 304.994C209.786 305.886 209.461 306.805 209.123 307.67C208.894 308.269 208.664 308.841 208.434 309.413C208.549 308.671 208.745 307.22 208.752 307.091C208.779 305.811 208.333 303.727 207.427 302.263C207.427 302.072 207.427 301.889 207.393 301.698C207.157 300.227 205.785 299.131 204.291 299.533C202.216 300.091 200.905 303.754 200.81 305.681C200.81 305.797 200.878 307.036 200.939 307.82C200.837 307.363 200.736 306.921 200.628 306.458C200.411 305.532 200.168 304.619 199.911 303.632C199.769 303.162 199.627 302.685 199.485 302.202C199.35 301.725 199.154 301.235 198.985 300.745C198.573 299.614 198.107 298.491 197.606 297.367C198.411 297.176 201.249 296.448 202.385 295.563C203.52 294.684 204.723 293.247 204.71 291.729C204.696 290.238 203.507 288.944 201.973 289.114C199.844 289.346 197.992 292.771 197.606 294.657C197.579 294.773 197.458 296.162 197.404 296.925C197.1 296.25 196.795 295.583 196.471 294.909C195.518 292.975 194.498 291.048 193.484 289.121C193.173 288.529 192.869 287.936 192.565 287.35C192.848 287.282 196.241 286.493 197.519 285.505C198.654 284.627 199.857 283.19 199.844 281.671C199.83 280.18 198.641 278.886 197.106 279.057C194.977 279.288 193.125 282.713 192.74 284.6C192.713 284.743 192.531 286.738 192.51 287.248C191.841 285.948 191.179 284.64 190.584 283.333C189.76 281.522 189.05 279.704 188.489 277.885C188.624 277.858 192.166 277.041 193.47 276.033C194.606 275.155 195.809 273.718 195.795 272.2C195.782 270.708 194.592 269.415 193.058 269.585C190.929 269.816 189.077 273.241 188.692 275.128C188.658 275.277 188.469 277.422 188.462 277.817C188.428 277.708 188.381 277.599 188.354 277.49C187.779 275.543 187.468 273.589 187.266 271.743C187.144 270.667 187.09 269.639 187.063 268.631C187.739 268.55 190.821 268.134 192.098 267.358C193.321 266.609 194.673 265.322 194.829 263.804C194.977 262.319 193.937 260.903 192.389 260.896C190.246 260.896 188.036 264.09 187.441 265.921C187.408 266.023 187.191 267.072 187.049 267.842C187.043 267.385 187.029 266.922 187.029 266.486C187.029 264.852 187.137 263.354 187.239 262.033C187.299 261.277 187.374 260.603 187.448 259.97C188.07 259.541 190.55 257.777 191.314 256.518C192.058 255.285 192.666 253.515 192.112 252.091C191.564 250.702 189.989 249.933 188.617 250.648C186.711 251.642 186.211 255.503 186.529 257.403C186.556 257.566 187.279 260.086 187.306 260.065C187.306 260.065 187.333 260.045 187.347 260.038C187.266 260.644 187.178 261.305 187.103 262.02C186.975 263.341 186.84 264.839 186.799 266.48C186.759 268.121 186.759 269.898 186.928 271.777C187.097 273.657 187.36 275.632 187.901 277.62C187.901 277.64 187.915 277.668 187.921 277.688C187.583 277.157 186.59 275.693 186.502 275.591C185.252 274.133 181.98 272.057 180.007 272.901C178.588 273.507 178.168 275.223 178.885 276.53C179.615 277.865 181.359 278.526 182.771 278.737L182.744 278.723Z" fill="#A3A3A3"/>
<path d="M219.512 268.579C219.512 268.579 220.194 266.059 220.221 265.896C220.485 263.982 219.884 260.135 217.951 259.195C216.558 258.521 215.004 259.332 214.497 260.734C213.976 262.164 214.632 263.928 215.409 265.133C216.322 266.556 219.505 268.572 219.512 268.572V268.579Z" fill="#A3A3A3"/>
<path d="M96.2333 283.826C97.2741 284.283 99.8154 284.228 99.8154 284.228C99.8424 284.228 99.2679 282.553 99.2206 282.451C98.6664 281.273 96.9024 279.332 95.4628 279.53C94.4287 279.673 93.8542 280.714 94.084 281.695C94.3205 282.696 95.3411 283.438 96.2265 283.833L96.2333 283.826Z" fill="#A3A3A3"/>
<path d="M97.1118 291.24C98.1932 291.397 100.457 290.736 100.64 290.682C100.998 291.962 101.471 293.242 102.019 294.515C102.33 295.244 102.667 295.966 103.012 296.688C102.803 296.381 102.62 296.109 102.586 296.075C101.742 295.087 99.5314 293.685 98.1999 294.257C97.2402 294.665 96.9563 295.823 97.443 296.708C97.9363 297.614 99.1124 298.056 100.072 298.199C101.045 298.342 102.985 297.818 103.499 297.668C103.634 297.941 103.769 298.22 103.904 298.492C104.56 299.813 105.222 301.121 105.831 302.428C106.047 302.891 106.243 303.347 106.439 303.81C106.256 303.538 106.101 303.313 106.067 303.279C105.222 302.292 103.012 300.889 101.681 301.461C100.721 301.87 100.437 303.027 100.924 303.912C101.417 304.818 102.593 305.261 103.553 305.404C104.479 305.54 106.277 305.07 106.892 304.9C107.081 305.376 107.27 305.86 107.426 306.33C107.527 306.657 107.649 306.963 107.73 307.29C107.818 307.617 107.912 307.944 108 308.264C108.149 308.89 108.304 309.53 108.433 310.143C108.527 310.565 108.608 310.974 108.689 311.382C108.48 310.919 108.054 310.027 108.007 309.959C107.317 308.856 105.344 307.133 103.945 307.494C102.931 307.753 102.485 308.856 102.823 309.803C103.174 310.77 104.269 311.389 105.195 311.675C106.209 311.988 108.466 311.702 108.744 311.662C108.879 312.342 109 313.003 109.108 313.623C109.352 315.005 109.534 316.237 109.669 317.286H110.616C110.453 316.203 110.237 314.91 109.947 313.466C109.811 312.778 109.656 312.043 109.487 311.294C109.656 311.226 110.616 310.838 111.467 310.354C112.211 311.164 114.11 312.111 114.353 312.227C114.096 312.867 113.84 313.486 113.583 314.072C113.056 315.291 112.555 316.367 112.116 317.286H113.143C113.522 316.442 113.941 315.475 114.374 314.406C114.637 313.759 114.907 313.057 115.178 312.336C115.448 312.39 117.679 312.846 118.719 312.615C119.659 312.397 120.801 311.866 121.227 310.926C121.639 310.007 121.267 308.876 120.281 308.543C118.909 308.08 116.813 309.646 116.043 310.695C115.996 310.756 115.583 311.484 115.327 311.948C115.435 311.655 115.543 311.369 115.651 311.062C115.867 310.463 116.07 309.857 116.293 309.203C116.388 308.883 116.482 308.563 116.577 308.236C116.678 307.916 116.746 307.562 116.834 307.229C117.023 306.439 117.172 305.628 117.307 304.811C117.827 305.002 119.699 305.656 120.666 305.588C121.632 305.519 122.835 305.165 123.396 304.301C123.944 303.456 123.748 302.278 122.822 301.795C121.538 301.127 119.226 302.36 118.307 303.279C118.253 303.334 117.665 304.069 117.354 304.478C117.428 303.987 117.51 303.49 117.57 302.993C117.746 301.55 117.881 300.079 118.023 298.608C118.064 298.158 118.118 297.709 118.158 297.266C118.341 297.335 120.551 298.165 121.632 298.084C122.599 298.015 123.802 297.661 124.363 296.797C124.91 295.952 124.714 294.774 123.788 294.291C122.504 293.623 120.193 294.856 119.28 295.775C119.213 295.843 118.375 296.899 118.172 297.185C118.273 296.197 118.388 295.217 118.537 294.257C118.74 292.929 119.017 291.635 119.375 290.403C119.463 290.437 121.761 291.308 122.869 291.233C123.836 291.165 125.039 290.811 125.6 289.946C126.147 289.102 125.951 287.924 125.025 287.44C123.741 286.773 121.43 288.006 120.51 288.925C120.436 289 119.537 290.137 119.388 290.355C119.409 290.28 119.422 290.205 119.449 290.13C119.848 288.823 120.396 287.597 120.963 286.48C121.294 285.833 121.646 285.227 121.997 284.649C122.41 284.853 124.295 285.779 125.302 285.82C126.269 285.861 127.506 285.636 128.155 284.839C128.79 284.063 128.722 282.871 127.857 282.286C126.647 281.475 124.221 282.449 123.214 283.26C123.16 283.3 122.646 283.818 122.281 284.192C122.443 283.934 122.612 283.661 122.775 283.423C123.383 282.504 123.991 281.7 124.539 280.992C124.85 280.59 125.147 280.236 125.424 279.909C125.931 279.902 127.979 279.834 128.878 279.412C129.75 278.997 130.75 278.227 130.966 277.22C131.176 276.232 130.567 275.204 129.533 275.095C128.094 274.938 126.384 276.927 125.857 278.118C125.809 278.221 125.282 279.909 125.309 279.909C125.309 279.909 125.336 279.909 125.343 279.909C125.073 280.223 124.782 280.556 124.471 280.931C123.91 281.625 123.275 282.422 122.653 283.328C122.024 284.233 121.362 285.241 120.767 286.358C120.166 287.481 119.591 288.693 119.152 290.014C119.152 290.028 119.145 290.048 119.138 290.062C119.145 289.633 119.125 288.441 119.118 288.346C118.949 287.052 117.875 284.655 116.455 284.39C115.428 284.199 114.563 285.01 114.482 286.017C114.401 287.046 115.137 288.074 115.86 288.721C116.671 289.449 118.929 290.157 119.105 290.219C118.706 291.485 118.395 292.82 118.152 294.182C118.016 294.965 117.895 295.755 117.793 296.545C117.793 296.177 117.78 295.843 117.773 295.796C117.604 294.502 116.53 292.105 115.11 291.839C114.083 291.649 113.218 292.459 113.137 293.46C113.056 294.488 113.792 295.516 114.515 296.163C115.245 296.824 117.158 297.464 117.665 297.627C117.624 297.934 117.584 298.24 117.55 298.54C117.374 300.004 117.212 301.468 117.003 302.898C116.928 303.402 116.84 303.892 116.753 304.389C116.753 304.062 116.739 303.783 116.732 303.742C116.563 302.448 115.489 300.052 114.069 299.786C113.042 299.595 112.177 300.406 112.089 301.413C112.008 302.442 112.745 303.47 113.468 304.117C114.164 304.743 115.921 305.356 116.53 305.554C116.421 306.057 116.32 306.561 116.192 307.045C116.097 307.372 116.029 307.692 115.921 308.019C115.82 308.339 115.719 308.659 115.617 308.979C115.401 309.578 115.178 310.204 114.955 310.79C114.799 311.199 114.644 311.58 114.488 311.968C114.57 311.471 114.698 310.484 114.705 310.402C114.725 309.537 114.421 308.127 113.813 307.14C113.813 307.011 113.813 306.888 113.786 306.759C113.63 305.765 112.697 305.022 111.69 305.295C110.291 305.669 109.406 308.148 109.338 309.448C109.338 309.523 109.386 310.361 109.426 310.892C109.359 310.586 109.291 310.286 109.217 309.973C109.068 309.346 108.906 308.734 108.73 308.066C108.635 307.746 108.541 307.426 108.439 307.099C108.352 306.772 108.216 306.446 108.101 306.112C107.824 305.349 107.507 304.593 107.169 303.831C107.709 303.701 109.629 303.204 110.399 302.612C111.163 302.019 111.981 301.052 111.974 300.017C111.967 299.01 111.163 298.138 110.122 298.247C108.683 298.404 107.432 300.719 107.169 301.992C107.155 302.074 107.067 303.007 107.034 303.524C106.831 303.068 106.621 302.619 106.398 302.162C105.756 300.855 105.06 299.554 104.377 298.254C104.168 297.852 103.965 297.457 103.756 297.055C103.952 297.008 106.243 296.477 107.101 295.809C107.865 295.217 108.683 294.25 108.676 293.215C108.669 292.207 107.865 291.335 106.824 291.444C105.384 291.601 104.134 293.909 103.87 295.19C103.85 295.285 103.729 296.633 103.715 296.98C103.262 296.102 102.816 295.224 102.417 294.332C101.863 293.113 101.383 291.88 101.005 290.655C101.093 290.634 103.492 290.083 104.371 289.402C105.134 288.809 105.952 287.842 105.945 286.807C105.939 285.799 105.134 284.928 104.094 285.037C102.654 285.193 101.404 287.502 101.14 288.782C101.12 288.884 100.991 290.334 100.985 290.6C100.964 290.525 100.93 290.457 100.91 290.382C100.525 289.068 100.315 287.747 100.18 286.501C100.099 285.779 100.065 285.078 100.045 284.397C100.498 284.342 102.586 284.063 103.445 283.539C104.269 283.035 105.182 282.163 105.29 281.135C105.391 280.134 104.688 279.174 103.641 279.174C102.194 279.174 100.701 281.332 100.302 282.572C100.282 282.64 100.133 283.348 100.038 283.866C100.038 283.559 100.025 283.239 100.025 282.946C100.025 281.843 100.099 280.835 100.167 279.937C100.207 279.426 100.261 278.97 100.309 278.541C100.728 278.248 102.404 277.056 102.918 276.205C103.418 275.374 103.83 274.176 103.458 273.216C103.093 272.276 102.025 271.758 101.099 272.242C99.8153 272.909 99.4773 275.524 99.6869 276.804C99.7071 276.913 100.194 278.616 100.214 278.602C100.214 278.602 100.234 278.588 100.241 278.581C100.187 278.99 100.126 279.433 100.079 279.916C99.991 280.808 99.8964 281.823 99.8761 282.933C99.8491 284.043 99.8491 285.241 99.964 286.508C100.079 287.781 100.261 289.109 100.62 290.457C100.62 290.471 100.633 290.491 100.633 290.505C100.403 290.144 99.7342 289.156 99.6733 289.088C98.8285 288.101 96.6184 286.698 95.2869 287.27C94.3272 287.679 94.0433 288.843 94.53 289.722C95.0233 290.627 96.1994 291.07 97.1591 291.213L97.1118 291.24Z" fill="#A3A3A3"/>
<path d="M121.951 284.383C121.951 284.383 122.41 282.681 122.431 282.572C122.606 281.278 122.201 278.684 120.896 278.051C119.957 277.594 118.909 278.146 118.565 279.092C118.213 280.059 118.659 281.251 119.187 282.068C119.802 283.028 121.958 284.39 121.958 284.39L121.951 284.383Z" fill="#A3A3A3"/>
<path d="M272.175 281.934C273.27 282.417 275.96 282.356 275.96 282.356C275.987 282.356 275.386 280.586 275.332 280.477C274.744 279.237 272.878 277.181 271.364 277.392C270.269 277.542 269.668 278.645 269.911 279.68C270.161 280.735 271.243 281.525 272.175 281.934Z" fill="#A3A3A3"/>
<path d="M273.101 289.77C274.244 289.94 276.636 289.239 276.825 289.178C277.204 290.533 277.704 291.888 278.278 293.229C278.61 293.999 278.961 294.761 279.333 295.524C279.117 295.204 278.914 294.911 278.887 294.877C277.995 293.835 275.656 292.351 274.25 292.957C273.237 293.393 272.939 294.611 273.446 295.551C273.966 296.504 275.21 296.974 276.224 297.124C277.251 297.274 279.306 296.722 279.847 296.566C279.988 296.859 280.13 297.151 280.272 297.437C280.968 298.826 281.665 300.216 282.307 301.598C282.536 302.081 282.739 302.572 282.949 303.062C282.753 302.776 282.591 302.538 282.557 302.504C281.665 301.462 279.326 299.977 277.92 300.583C276.906 301.019 276.609 302.238 277.116 303.178C277.636 304.131 278.88 304.601 279.894 304.751C280.874 304.894 282.773 304.397 283.415 304.22C283.611 304.723 283.814 305.227 283.983 305.731C284.091 306.072 284.219 306.399 284.307 306.746C284.402 307.093 284.497 307.434 284.591 307.774C284.747 308.435 284.916 309.109 285.051 309.756C285.152 310.205 285.233 310.634 285.321 311.07C285.098 310.58 284.652 309.64 284.605 309.565C283.875 308.401 281.793 306.576 280.313 306.957C279.245 307.229 278.765 308.394 279.13 309.395C279.502 310.416 280.664 311.07 281.638 311.376C282.712 311.71 285.091 311.403 285.389 311.363C285.531 312.078 285.666 312.779 285.774 313.439C286.031 314.897 286.22 316.204 286.369 317.307H287.369C287.193 316.163 286.963 314.801 286.666 313.269C286.524 312.541 286.355 311.764 286.179 310.974C286.355 310.9 287.376 310.491 288.275 309.98C289.059 310.831 291.066 311.832 291.323 311.962C291.052 312.636 290.775 313.296 290.512 313.909C289.958 315.196 289.43 316.34 288.964 317.307H290.045C290.444 316.415 290.883 315.394 291.343 314.263C291.62 313.576 291.911 312.84 292.195 312.078C292.485 312.139 294.837 312.622 295.932 312.37C296.926 312.146 298.136 311.574 298.582 310.586C299.021 309.613 298.629 308.421 297.581 308.067C296.128 307.577 293.918 309.238 293.107 310.341C293.06 310.409 292.62 311.172 292.35 311.662C292.465 311.349 292.58 311.049 292.695 310.729C292.925 310.096 293.141 309.449 293.371 308.761C293.472 308.428 293.573 308.087 293.675 307.74C293.783 307.4 293.857 307.032 293.945 306.671C294.141 305.833 294.303 304.982 294.445 304.117C295 304.322 296.973 305.009 297.994 304.941C299.014 304.866 300.292 304.492 300.88 303.579C301.454 302.687 301.251 301.441 300.271 300.937C298.913 300.229 296.473 301.537 295.506 302.504C295.446 302.565 294.831 303.341 294.499 303.77C294.58 303.253 294.662 302.728 294.729 302.204C294.918 300.679 295.06 299.119 295.209 297.574C295.256 297.097 295.304 296.627 295.358 296.157C295.554 296.232 297.885 297.104 299.028 297.022C300.048 296.947 301.326 296.573 301.914 295.66C302.488 294.768 302.285 293.522 301.305 293.018C299.947 292.31 297.507 293.617 296.541 294.584C296.466 294.659 295.581 295.776 295.371 296.069C295.479 295.027 295.601 293.992 295.756 292.97C295.973 291.568 296.263 290.199 296.635 288.898C296.723 288.932 299.156 289.859 300.325 289.77C301.346 289.695 302.623 289.321 303.211 288.408C303.786 287.516 303.583 286.27 302.603 285.766C301.245 285.058 298.805 286.365 297.838 287.332C297.764 287.407 296.811 288.612 296.649 288.844C296.669 288.769 296.689 288.68 296.709 288.606C297.129 287.223 297.71 285.929 298.311 284.751C298.656 284.064 299.028 283.43 299.406 282.818C299.839 283.035 301.839 284.016 302.9 284.057C303.921 284.098 305.232 283.866 305.915 283.022C306.584 282.198 306.516 280.938 305.597 280.325C304.32 279.474 301.758 280.496 300.69 281.354C300.63 281.401 300.096 281.939 299.71 282.341C299.886 282.069 300.055 281.783 300.231 281.524C300.873 280.55 301.515 279.706 302.096 278.957C302.427 278.534 302.738 278.16 303.029 277.813C303.563 277.806 305.732 277.738 306.679 277.288C307.605 276.853 308.659 276.035 308.882 274.973C309.098 273.931 308.463 272.849 307.368 272.726C305.847 272.563 304.036 274.66 303.482 275.92C303.434 276.029 302.873 277.813 302.907 277.813C302.907 277.813 302.934 277.813 302.941 277.813C302.65 278.14 302.346 278.5 302.022 278.895C301.427 279.631 300.758 280.468 300.096 281.428C299.433 282.389 298.73 283.444 298.102 284.629C297.466 285.814 296.858 287.094 296.399 288.497C296.399 288.51 296.392 288.531 296.385 288.544C296.392 288.095 296.372 286.828 296.358 286.733C296.182 285.371 295.047 282.831 293.54 282.552C292.458 282.348 291.539 283.206 291.451 284.268C291.363 285.351 292.141 286.44 292.904 287.121C293.763 287.891 296.149 288.64 296.338 288.701C295.912 290.036 295.588 291.445 295.331 292.889C295.182 293.713 295.06 294.55 294.952 295.388C294.952 295 294.939 294.646 294.932 294.598C294.756 293.229 293.621 290.696 292.114 290.417C291.032 290.213 290.113 291.071 290.025 292.133C289.937 293.216 290.715 294.305 291.478 294.986C292.249 295.681 294.27 296.361 294.804 296.532C294.763 296.852 294.722 297.179 294.682 297.499C294.499 299.044 294.324 300.59 294.101 302.102C294.026 302.633 293.932 303.157 293.837 303.675C293.837 303.328 293.824 303.035 293.817 302.994C293.641 301.632 292.506 299.092 290.998 298.813C289.917 298.609 288.998 299.467 288.91 300.529C288.822 301.612 289.599 302.701 290.363 303.382C291.1 304.042 292.958 304.689 293.594 304.894C293.479 305.425 293.371 305.956 293.242 306.467C293.141 306.814 293.073 307.154 292.958 307.495C292.85 307.835 292.742 308.176 292.634 308.509C292.404 309.143 292.168 309.803 291.931 310.423C291.769 310.852 291.607 311.26 291.438 311.669C291.519 311.138 291.661 310.103 291.661 310.014C291.681 309.102 291.357 307.611 290.715 306.569C290.715 306.433 290.715 306.296 290.687 306.167C290.519 305.112 289.538 304.335 288.471 304.621C286.99 305.016 286.058 307.631 285.983 309.007C285.983 309.088 286.031 309.973 286.071 310.532C285.997 310.205 285.929 309.892 285.848 309.558C285.693 308.898 285.517 308.244 285.335 307.543C285.233 307.209 285.132 306.868 285.03 306.521C284.936 306.181 284.794 305.827 284.672 305.479C284.382 304.676 284.044 303.872 283.692 303.069C284.267 302.933 286.288 302.408 287.105 301.782C287.916 301.155 288.775 300.134 288.768 299.044C288.761 297.982 287.91 297.056 286.815 297.179C285.294 297.342 283.976 299.787 283.699 301.135C283.679 301.217 283.591 302.211 283.55 302.756C283.334 302.279 283.118 301.795 282.881 301.319C282.199 299.936 281.469 298.561 280.745 297.192C280.522 296.77 280.306 296.348 280.09 295.926C280.293 295.878 282.712 295.313 283.625 294.611C284.436 293.985 285.294 292.964 285.287 291.874C285.281 290.812 284.429 289.886 283.334 290.008C281.813 290.172 280.495 292.616 280.218 293.965C280.198 294.067 280.07 295.49 280.056 295.858C279.576 294.932 279.11 293.999 278.684 293.059C278.096 291.765 277.589 290.471 277.19 289.171C277.285 289.15 279.813 288.572 280.745 287.85C281.556 287.223 282.415 286.202 282.408 285.112C282.401 284.05 281.55 283.124 280.455 283.247C278.934 283.41 277.616 285.855 277.339 287.203C277.319 287.312 277.184 288.844 277.177 289.123C277.157 289.048 277.123 288.966 277.096 288.892C276.69 287.502 276.467 286.107 276.318 284.786C276.231 284.023 276.197 283.281 276.17 282.566C276.65 282.504 278.853 282.212 279.765 281.653C280.637 281.122 281.604 280.196 281.712 279.113C281.82 278.051 281.077 277.043 279.975 277.043C278.447 277.043 276.866 279.324 276.447 280.632C276.427 280.7 276.271 281.456 276.17 282C276.17 281.674 276.156 281.34 276.156 281.034C276.156 279.869 276.231 278.8 276.305 277.854C276.352 277.316 276.4 276.832 276.454 276.376C276.893 276.069 278.664 274.81 279.211 273.911C279.745 273.032 280.178 271.766 279.779 270.751C279.394 269.757 278.265 269.212 277.285 269.716C275.926 270.424 275.568 273.182 275.791 274.537C275.812 274.653 276.325 276.458 276.345 276.437C276.345 276.437 276.366 276.424 276.373 276.417C276.312 276.853 276.251 277.316 276.197 277.833C276.102 278.78 276.008 279.849 275.981 281.02C275.954 282.191 275.953 283.458 276.068 284.799C276.19 286.141 276.379 287.55 276.765 288.973C276.765 288.987 276.778 289.007 276.778 289.021C276.535 288.64 275.832 287.598 275.764 287.523C274.872 286.481 272.534 284.997 271.128 285.603C270.114 286.038 269.817 287.264 270.323 288.197C270.844 289.15 272.088 289.62 273.101 289.77Z" fill="#A3A3A3"/>
<path d="M299.339 282.524C299.339 282.524 299.826 280.727 299.846 280.611C300.035 279.249 299.603 276.505 298.224 275.831C297.23 275.347 296.122 275.926 295.757 276.927C295.385 277.948 295.858 279.201 296.412 280.066C297.061 281.081 299.339 282.524 299.339 282.524Z" fill="#A3A3A3"/>
<path d="M73.4059 183.888H24.6147V233.045H73.4059V183.888Z" fill="#263238" stroke="#19241D" stroke-width="1.17707" stroke-linecap="round" stroke-linejoin="round"/>
<path d="M51.88 183.888H13.1323V233.045H51.88V183.888Z" fill="#FEFEFE" stroke="#263238" stroke-width="1.17707" stroke-linecap="round" stroke-linejoin="round"/>
<path d="M104.354 233.009H20.688V317.302H104.354V233.009Z" fill="#263238" stroke="#19241D" stroke-width="1.17707" stroke-linecap="round" stroke-linejoin="round"/>
<path d="M67.4381 233.009H1V317.302H67.4381V233.009Z" fill="#FEFEFE" stroke="#263238" stroke-width="1.17707" stroke-linecap="round" stroke-linejoin="round"/>
<path d="M187.354 98.5212L159.339 74.8994L123.207 94.7965L151.222 119.447L187.354 98.5212Z" fill="#92E3A9" stroke="#263238" stroke-width="1.17707" stroke-linecap="round" stroke-linejoin="round"/>
<path d="M215.924 30.9902L193.323 44.1732" stroke="#263238" stroke-width="1.17707" stroke-linecap="round" stroke-linejoin="round"/>
<path d="M220.701 28.208L218.39 29.5563" stroke="#263238" stroke-width="1.17707" stroke-linecap="round" stroke-linejoin="round"/>
<path d="M179.872 47.3409V13.5186L207.893 37.1404V70.9559L179.872 47.3409Z" fill="#92E3A9" stroke="#263238" stroke-width="1.17707" stroke-linecap="round" stroke-linejoin="round"/>
<path d="M103.025 27.1719L119.408 40.8111" stroke="#263238" stroke-width="1.17707" stroke-linecap="round" stroke-linejoin="round"/>
<path d="M99.3149 24.0879L101.113 25.586" stroke="#263238" stroke-width="1.17707" stroke-linecap="round" stroke-linejoin="round"/>
<path d="M143.611 13.0771V46.8995L107.473 66.7965V32.9742L143.611 13.0771Z" fill="#92E3A9" stroke="#263238" stroke-width="1.17707" stroke-linecap="round" stroke-linejoin="round"/>
<path d="M159.339 27.167L123.207 47.0641V80.8864L151.222 105.536L187.354 84.6043V50.7888L159.339 27.167Z" stroke="#263238" stroke-width="1.17707" stroke-linecap="round" stroke-linejoin="round"/>
<path d="M123.207 47.0645L151.222 71.7145L186.786 50.9662" stroke="#263238" stroke-width="1.17707" stroke-linecap="round" stroke-linejoin="round"/>
<path d="M151.221 71.7119V105.534" stroke="#263238" stroke-width="1.17707" stroke-linecap="round" stroke-linejoin="round"/>
<path d="M159.339 27.167V60.9893L181.095 79.1091" stroke="#263238" stroke-width="1.17707" stroke-linecap="round" stroke-linejoin="round"/>
<path d="M159.338 60.9902L128.066 78.0342" stroke="#263238" stroke-width="1.17707" stroke-linecap="round" stroke-linejoin="round"/>
<path d="M106.168 59.3877V93.21L134.183 117.86V84.0377L106.168 59.3877Z" fill="#92E3A9" stroke="#263238" stroke-width="1.17707" stroke-linecap="round" stroke-linejoin="round"/>
<path d="M94.273 101.627L92.394 102.716" stroke="#263238" stroke-width="1.17707" stroke-linecap="round" stroke-linejoin="round"/>
<path d="M116.158 88.8584L96.2397 100.475" stroke="#263238" stroke-width="1.17707" stroke-linecap="round" stroke-linejoin="round"/>
<path d="M119.774 86.7539L117.861 87.8638" stroke="#263238" stroke-width="1.17707" stroke-linecap="round" stroke-linejoin="round"/>
<path d="M166.673 122.175V88.353L202.812 67.4277V101.25L166.673 122.175Z" fill="#92E3A9" stroke="#263238" stroke-width="1.17707" stroke-linecap="round" stroke-linejoin="round"/>
<path d="M206.528 112.706L208.617 114.456" stroke="#263238" stroke-width="1.17707" stroke-linecap="round" stroke-linejoin="round"/>
<path d="M185.82 95.3955L205.123 111.534" stroke="#263238" stroke-width="1.17707" stroke-linecap="round" stroke-linejoin="round"/>
<path d="M187.354 32.7361L159.339 9.12109L123.207 29.0182L151.222 53.6614L187.354 32.7361Z" fill="#92E3A9" stroke="#263238" stroke-width="1.17707" stroke-linecap="round" stroke-linejoin="round"/>
<path d="M154.797 29.8073V7.43164" stroke="#263238" stroke-width="1.17707" stroke-linecap="round" stroke-linejoin="round"/>
<path d="M132.162 305.061C132.162 305.061 128.607 310.822 127.587 311.714C126.573 312.613 124.032 314.527 123.011 315.555C121.997 316.576 123.268 317.856 124.41 317.986C125.552 318.115 139.401 317.986 139.401 317.986C139.401 317.986 140.928 317.727 141.05 316.964C141.178 316.195 141.814 313.893 140.922 311.844C140.029 309.794 140.029 307.492 140.029 307.492L140.286 306.852L140.029 305.313L132.156 305.055L132.162 305.061Z" fill="#FEFEFE" stroke="#263238" stroke-width="1.17707" stroke-linecap="round" stroke-linejoin="round"/>
<path d="M124.416 317.985C125.558 318.114 139.407 317.985 139.407 317.985C139.407 317.985 140.934 317.726 141.056 316.963C141.137 316.473 141.428 315.343 141.387 314.062C139.292 314.689 137.17 315.554 137.17 315.554H123.017C122.003 316.575 123.274 317.855 124.416 317.985Z" fill="#FEFEFE" stroke="#263238" stroke-width="1.17707" stroke-linecap="round" stroke-linejoin="round"/>
<path d="M137.826 314.253L136.846 317.712" stroke="#263238" stroke-width="1.17707" stroke-linecap="round" stroke-linejoin="round"/>
<path d="M133.738 312.681C133.663 312.681 133.582 312.668 133.508 312.634C130.872 311.456 129.155 312.259 129.081 312.293C128.804 312.429 128.459 312.314 128.324 312.028C128.189 311.748 128.297 311.408 128.581 311.265C128.669 311.217 130.818 310.175 133.974 311.585C134.258 311.714 134.393 312.055 134.265 312.341C134.17 312.552 133.961 312.681 133.744 312.681H133.738Z" fill="#FEFEFE" stroke="#263238" stroke-width="1.17707" stroke-linecap="round" stroke-linejoin="round"/>
<path d="M134.223 311.203C134.149 311.203 134.068 311.189 133.993 311.155C131.357 309.977 129.641 310.781 129.566 310.815C129.282 310.951 128.945 310.835 128.809 310.549C128.674 310.27 128.782 309.929 129.066 309.786C129.154 309.739 131.303 308.697 134.46 310.106C134.743 310.236 134.879 310.576 134.75 310.862C134.656 311.073 134.446 311.203 134.23 311.203H134.223Z" fill="#FEFEFE" stroke="#263238" stroke-width="1.17707" stroke-linecap="round" stroke-linejoin="round"/>
<path d="M134.717 309.718C134.642 309.718 134.561 309.705 134.487 309.671C131.851 308.493 130.134 309.296 130.06 309.33C129.783 309.466 129.438 309.351 129.303 309.065C129.168 308.785 129.276 308.445 129.56 308.302C129.648 308.254 131.797 307.212 134.953 308.622C135.237 308.751 135.372 309.092 135.244 309.378C135.149 309.589 134.94 309.718 134.723 309.718H134.717Z" fill="#FEFEFE" stroke="#263238" stroke-width="1.17707" stroke-linecap="round" stroke-linejoin="round"/>
<path d="M180.933 305.061C180.933 305.061 184.489 310.822 185.509 311.714C186.523 312.613 189.064 314.527 190.085 315.555C191.099 316.576 189.828 317.856 188.686 317.986C187.543 318.115 173.695 317.986 173.695 317.986C173.695 317.986 172.167 317.727 172.046 316.964C171.917 316.195 171.282 313.893 172.174 311.844C173.066 309.794 173.066 307.492 173.066 307.492L172.809 306.852L173.066 305.313L180.94 305.055L180.933 305.061Z" fill="#FEFEFE" stroke="#263238" stroke-width="1.17707" stroke-linecap="round" stroke-linejoin="round"/>
<path d="M188.679 317.985C187.537 318.114 173.688 317.985 173.688 317.985C173.688 317.985 172.161 317.726 172.039 316.963C171.958 316.473 171.667 315.343 171.708 314.062C173.803 314.689 175.925 315.554 175.925 315.554H190.078C191.092 316.575 189.821 317.855 188.679 317.985Z" fill="#FEFEFE" stroke="#263238" stroke-width="1.17707" stroke-linecap="round" stroke-linejoin="round"/>
<path d="M175.27 314.253L176.25 317.712" stroke="#263238" stroke-width="1.17707" stroke-linecap="round" stroke-linejoin="round"/>
<path d="M179.359 312.682C179.433 312.682 179.514 312.669 179.588 312.635C182.224 311.456 183.941 312.26 184.015 312.294C184.292 312.43 184.637 312.314 184.772 312.028C184.908 311.749 184.799 311.409 184.516 311.266C184.428 311.218 182.278 310.176 179.122 311.586C178.838 311.715 178.703 312.056 178.831 312.342C178.926 312.553 179.136 312.682 179.352 312.682H179.359Z" fill="#FEFEFE" stroke="#263238" stroke-width="1.17707" stroke-linecap="round" stroke-linejoin="round"/>
<path d="M178.872 311.204C178.946 311.204 179.027 311.19 179.102 311.156C181.737 309.978 183.454 310.782 183.529 310.816C183.812 310.952 184.15 310.836 184.286 310.55C184.421 310.271 184.313 309.93 184.029 309.787C183.941 309.74 181.792 308.698 178.635 310.107C178.351 310.237 178.216 310.577 178.345 310.863C178.439 311.074 178.649 311.204 178.865 311.204H178.872Z" fill="#FEFEFE" stroke="#263238" stroke-width="1.17707" stroke-linecap="round" stroke-linejoin="round"/>
<path d="M178.379 309.718C178.453 309.718 178.534 309.705 178.608 309.671C181.244 308.493 182.961 309.296 183.035 309.33C183.312 309.466 183.657 309.351 183.792 309.065C183.928 308.785 183.819 308.445 183.536 308.302C183.448 308.254 181.298 307.212 178.142 308.622C177.858 308.751 177.723 309.092 177.851 309.378C177.946 309.589 178.156 309.718 178.372 309.718H178.379Z" fill="#FEFEFE" stroke="#263238" stroke-width="1.17707" stroke-linecap="round" stroke-linejoin="round"/>
<path d="M183.366 301.403C183.041 300.416 181.075 296.957 181.075 296.957C181.075 296.957 181.568 294.812 181.568 292.837C181.568 290.862 179.358 281.138 179.358 281.138L179.25 281.268C178.885 277.516 178.418 274.39 178.31 273.975C178.135 273.28 173.478 224.763 173.478 224.763L171.923 212.418L156.554 213.174L141.185 212.418L139.63 224.763C139.63 224.763 134.973 273.274 134.798 273.975C134.676 274.479 134.007 279 133.649 283.767C133.122 286.613 132.256 291.468 132.256 292.837C132.256 294.594 132.642 296.473 132.73 296.875C132.723 296.929 132.716 296.977 132.702 297.032C132.425 297.522 130.756 300.498 130.459 301.403C130.134 302.391 130.911 307.041 130.911 307.041C130.911 307.041 130.938 307.041 130.979 307.041L130.952 307.164L133.811 307.266C134.446 307.327 135.136 307.402 135.852 307.491C138.468 307.818 140.428 308.812 140.428 308.812L143.699 302.881L142.557 300.246L143.868 292.503L143.753 292.381L151.37 261.452L156.554 237.293L161.738 261.452L170.457 295.527L171.254 300.246L170.112 302.881L173.383 308.812C173.383 308.812 175.343 307.825 177.959 307.491C180.574 307.157 182.906 307.035 182.906 307.035C182.906 307.035 183.683 302.384 183.359 301.396L183.366 301.403Z" fill="#263238" stroke="#19241D" stroke-width="1.17707" stroke-linecap="round" stroke-linejoin="round"/>
<path d="M166.463 214.495H145.896V216.735H166.463V214.495Z" fill="#575757" stroke="#263238" stroke-width="1.17707" stroke-linecap="round" stroke-linejoin="round"/>
<path d="M172.303 214.495H168.329V216.735H172.303V214.495Z" fill="#575757" stroke="#263238" stroke-width="1.17707" stroke-linecap="round" stroke-linejoin="round"/>
<path d="M144.024 214.495H140.868V216.735H144.024V214.495Z" fill="#575757" stroke="#263238" stroke-width="1.17707" stroke-linecap="round" stroke-linejoin="round"/>
<path d="M158.98 214.729H153.837V216.615H158.98V214.729Z" fill="#FEFEFE" stroke="#263238" stroke-width="1.17707" stroke-linecap="round" stroke-linejoin="round"/>
<path d="M133.737 173.312C133.737 173.312 124.261 206.507 123.849 207.338C123.436 208.169 125.91 207.753 128.242 208.169C130.573 208.584 133.872 206.787 134.284 206.092C134.696 205.397 138.13 194.611 138.13 194.611L133.737 173.312Z" fill="#FEFEFE" stroke="#263238" stroke-width="1.17707" stroke-linecap="round" stroke-linejoin="round"/>
<path d="M134.169 184.07L133.77 183.11" stroke="#263238" stroke-width="1.17707" stroke-linecap="round" stroke-linejoin="round"/>
<path d="M137.271 191.643L134.622 185.181" stroke="#263238" stroke-width="1.17707" stroke-linecap="round" stroke-linejoin="round"/>
<path d="M133.946 201.729C134.399 202.047 134.696 202.271 134.696 202.271L133.946 201.729Z" fill="#FEFEFE"/>
<path d="M133.946 201.729C134.399 202.047 134.696 202.271 134.696 202.271" stroke="#263238" stroke-width="1.17707" stroke-linecap="round" stroke-linejoin="round"/>
<path d="M126.944 200.221C126.944 200.221 129.526 199.288 130.08 199.288C130.398 199.288 131.871 200.269 133.074 201.106" fill="#FEFEFE"/>
<path d="M126.944 200.221C126.944 200.221 129.526 199.288 130.08 199.288C130.398 199.288 131.871 200.269 133.074 201.106" stroke="#263238" stroke-width="1.17707" stroke-linecap="round" stroke-linejoin="round"/>
<path d="M177.669 171.372C177.669 171.372 188.516 200.557 188.787 201.667C189.064 202.777 189.334 203.465 189.199 204.711C189.064 205.957 187.137 206.788 186.725 206.788C186.313 206.788 183.292 204.854 182.055 204.296C180.818 203.744 177.114 201.946 177.114 201.946L175.195 195.722L177.669 171.379V171.372Z" fill="#FEFEFE" stroke="#263238" stroke-width="1.17707" stroke-linecap="round" stroke-linejoin="round"/>
<path d="M178.276 180.845L178.459 180.137" stroke="#263238" stroke-width="1.17707" stroke-linecap="round" stroke-linejoin="round"/>
<path d="M175.688 191.113L177.985 182.009" stroke="#263238" stroke-width="1.17707" stroke-linecap="round" stroke-linejoin="round"/>
<path d="M182.332 196.323L177.905 199.108" stroke="#263238" stroke-width="1.17707" stroke-linecap="round" stroke-linejoin="round"/>
<path d="M149.255 165.011L133.744 173.311L140.469 209.279C140.469 209.279 139.921 212.602 140.333 213.289C140.746 213.984 141.435 214.393 141.435 214.393H171.775C171.775 214.393 173.836 212.459 173.836 212.043V210.246L177.682 171.378L162.319 165.208L149.262 165.018L149.255 165.011Z" fill="#FEFEFE" stroke="#263238" stroke-width="1.17707" stroke-linecap="round" stroke-linejoin="round"/>
<path d="M152.728 166.653L154.763 172.441L152.012 207.666L156.317 214.544L160.034 207.06L156.202 172.441L158.595 167.253L155.121 163.398L152.728 166.653Z" fill="#263238" stroke="#263238" stroke-width="1.17707" stroke-linecap="round" stroke-linejoin="round"/>
<path d="M149.019 161.949L148.661 165.81L151.891 171.115L154.284 165.327L149.019 161.949Z" fill="#FEFEFE" stroke="#263238" stroke-width="1.17707" stroke-linecap="round" stroke-linejoin="round"/>
<path d="M156.438 165.449L158.358 171.598L162.305 165.204L160.507 161.466L156.438 165.449Z" fill="#FEFEFE" stroke="#263238" stroke-width="1.17707" stroke-linecap="round" stroke-linejoin="round"/>
<path d="M166.274 206.229L165.726 201.946L169.437 202.634L166.274 206.229Z" fill="#FEFEFE" stroke="#263238" stroke-width="1.17707" stroke-linecap="round" stroke-linejoin="round"/>
<path d="M156.116 193.232C156.116 193.232 153.919 192.953 152.682 192.538C151.445 192.122 150.621 192.674 151.587 193.92C152.547 195.166 155.98 195.718 156.393 195.718C156.393 195.718 157.082 199.313 159.002 200.008C160.921 200.702 162.023 200.702 162.023 200.702C162.023 200.702 162.982 202.085 164.219 202.221C165.456 202.357 168.335 204.434 168.335 204.434L169.707 201.254L166.686 198.762L163.665 193.505L160.779 192.538L158.305 191.707L156.109 193.226L156.116 193.232Z" fill="#FEFEFE" stroke="#263238" stroke-width="1.17707" stroke-linecap="round" stroke-linejoin="round"/>
<path d="M163.806 196.961L162.569 198.207C162.569 198.207 162.704 198.759 162.704 199.317C162.704 199.876 161.745 199.869 161.055 199.869C160.366 199.869 159.548 199.733 158.994 199.317C158.446 198.902 156.25 196.968 156.25 196.968L158.582 192.821L156.52 194.203C156.52 194.203 155.561 196.001 154.736 196.832C153.911 197.663 153.634 196.696 153.634 196.696C153.634 196.696 154.459 194.067 155.006 193.373C155.554 192.678 157.48 191.023 157.48 191.023C157.48 191.023 158.169 190.887 159.129 191.023C160.089 191.16 162.015 192.27 162.833 192.821C163.657 193.373 164.34 194.483 164.482 195.034C164.617 195.586 164.617 196.001 164.617 196.001" fill="#FEFEFE"/>
<path d="M163.806 196.961L162.569 198.207C162.569 198.207 162.704 198.759 162.704 199.317C162.704 199.876 161.745 199.869 161.055 199.869C160.366 199.869 159.548 199.733 158.994 199.317C158.446 198.902 156.25 196.968 156.25 196.968L158.582 192.821L156.52 194.203C156.52 194.203 155.561 196.001 154.736 196.832C153.911 197.663 153.634 196.696 153.634 196.696C153.634 196.696 154.459 194.067 155.006 193.373C155.554 192.678 157.48 191.023 157.48 191.023C157.48 191.023 158.169 190.887 159.129 191.023C160.089 191.16 162.015 192.27 162.833 192.821C163.657 193.373 164.34 194.483 164.482 195.034C164.617 195.586 164.617 196.001 164.617 196.001" stroke="#263238" stroke-width="1.17707" stroke-linecap="round" stroke-linejoin="round"/>
<path d="M160.238 199.734C160.238 199.734 159.826 198.767 160.103 198.072C160.38 197.377 162.165 194.749 162.165 194.749" stroke="#263238" stroke-width="1.17707" stroke-linecap="round" stroke-linejoin="round"/>
<path d="M159.001 199.319C159.001 199.319 158.778 199.067 158.534 198.719C158.237 198.29 158.487 197.746 158.487 197.289C158.487 196.459 160.508 193.095 160.508 193.095" stroke="#263238" stroke-width="1.17707" stroke-linecap="round" stroke-linejoin="round"/>
<path d="M186.05 198.623C186.05 198.623 189.483 203.88 189.348 205.263C189.213 206.645 188.388 209.689 187.151 209.689C185.914 209.689 180.426 208.994 176.581 208.306C172.735 207.612 170.126 207.339 170.126 207.339L166.28 206.229L168.889 199.87L171.39 200.394C171.39 200.394 173.228 199.924 175.019 199.788C176.804 199.652 182.765 198.208 182.765 198.208" fill="#FEFEFE"/>
<path d="M186.05 198.623C186.05 198.623 189.483 203.88 189.348 205.263C189.213 206.645 188.388 209.689 187.151 209.689C185.914 209.689 180.426 208.994 176.581 208.306C172.735 207.612 170.126 207.339 170.126 207.339L166.28 206.229L168.889 199.87L171.39 200.394C171.39 200.394 173.228 199.924 175.019 199.788C176.804 199.652 182.765 198.208 182.765 198.208" stroke="#263238" stroke-width="1.17707" stroke-linecap="round" stroke-linejoin="round"/>
<path d="M171.403 201.021C171.403 201.021 171.585 203.417 170.301 205.447" stroke="#263238" stroke-width="1.17707" stroke-linecap="round" stroke-linejoin="round"/>
<path d="M125.64 202.912C125.64 202.912 123.308 208.584 123.166 208.999C123.031 209.415 123.578 212.043 125.775 211.492C127.972 210.94 139.644 209.694 141.151 209.415C142.658 209.136 144.997 208.72 144.997 208.72H148.018C149.39 208.72 153.236 208.72 154.06 208.441C154.885 208.162 156.534 207.61 157.358 207.338C158.183 207.059 159.967 205.956 160.103 205.54C160.238 205.125 159.69 204.709 158.318 204.846C156.946 204.982 152.688 205.125 152.688 205.125C152.688 205.125 156.534 203.606 157.771 203.048C159.008 202.496 158.595 201.938 158.595 201.938C158.595 201.938 157.223 201.938 156.264 202.353C155.304 202.769 145.828 204.015 145.828 204.015L144.726 203.048C144.726 203.048 145.274 201.666 145.274 200.556C145.274 199.446 144.726 198.622 144.037 198.894C143.348 199.173 143.077 200.828 142.942 201.386C142.807 201.938 142.118 204.151 142.118 204.151L141.84 205.397C141.84 205.397 136.211 204.287 134.561 203.6C132.912 202.905 129.479 201.938 128.931 202.081C128.384 202.217 127.282 203.743 127.012 204.43" fill="#FEFEFE"/>
<path d="M125.64 202.912C125.64 202.912 123.308 208.584 123.166 208.999C123.031 209.415 123.578 212.043 125.775 211.492C127.972 210.94 139.644 209.694 141.151 209.415C142.658 209.136 144.997 208.72 144.997 208.72H148.018C149.39 208.72 153.236 208.72 154.06 208.441C154.885 208.162 156.534 207.61 157.358 207.338C158.183 207.059 159.967 205.956 160.103 205.54C160.238 205.125 159.69 204.709 158.318 204.846C156.946 204.982 152.688 205.125 152.688 205.125C152.688 205.125 156.534 203.606 157.771 203.048C159.008 202.496 158.595 201.938 158.595 201.938C158.595 201.938 157.223 201.938 156.264 202.353C155.304 202.769 145.828 204.015 145.828 204.015L144.726 203.048C144.726 203.048 145.274 201.666 145.274 200.556C145.274 199.446 144.726 198.622 144.037 198.894C143.348 199.173 143.077 200.828 142.942 201.386C142.807 201.938 142.118 204.151 142.118 204.151L141.84 205.397C141.84 205.397 136.211 204.287 134.561 203.6C132.912 202.905 129.479 201.938 128.931 202.081C128.384 202.217 127.282 203.743 127.012 204.43" stroke="#263238" stroke-width="1.17707" stroke-linecap="round" stroke-linejoin="round"/>
<path d="M137.9 204.896C137.9 204.896 136.988 206.925 138.083 208.218" stroke="#263238" stroke-width="1.17707" stroke-linecap="round" stroke-linejoin="round"/>
<path d="M139.86 197.609L144.037 206.168C144.192 206.482 144.51 206.686 144.855 206.686L160.096 206.843C160.744 206.843 161.197 206.196 160.967 205.583L157.649 196.867C157.514 196.506 157.169 196.268 156.791 196.268H140.691C140.009 196.268 139.563 196.989 139.867 197.609H139.86Z" fill="#92E3A9" stroke="#263238" stroke-width="1.17707" stroke-linecap="round" stroke-linejoin="round"/>
<path d="M158.312 204.846C156.94 204.982 152.682 205.125 152.682 205.125C152.682 205.125 156.528 203.606 157.765 203.048C159.002 202.496 158.589 201.938 158.589 201.938C158.589 201.938 157.217 201.938 156.257 202.353C155.298 202.769 145.822 204.015 145.822 204.015L144.72 203.048C144.72 203.048 145.268 201.666 145.268 200.556C145.268 199.446 144.72 198.622 144.031 198.894C143.342 199.173 143.071 200.828 142.936 201.386C142.801 201.938 142.112 204.151 142.112 204.151L141.834 205.397C141.834 205.397 141.24 205.281 140.381 205.098C140.172 205.847 140.07 206.854 140.456 208.026C140.645 208.591 140.821 209.047 140.996 209.435C141.05 209.428 141.104 209.415 141.145 209.408C142.652 209.129 144.991 208.713 144.991 208.713H148.012C149.384 208.713 153.23 208.713 154.054 208.434C154.879 208.155 156.528 207.603 157.352 207.331C158.177 207.052 159.961 205.949 160.096 205.533C160.232 205.118 159.684 204.703 158.312 204.839V204.846Z" fill="#FEFEFE" stroke="#263238" stroke-width="1.17707" stroke-linecap="round" stroke-linejoin="round"/>
<path d="M159.576 205.759C159.576 205.759 156.73 207.127 156.318 207.127C155.906 207.127 151.026 207.672 151.026 207.672" stroke="#263238" stroke-width="1.17707" stroke-linecap="round" stroke-linejoin="round"/>
<path d="M130.96 307.163C130.96 307.163 131.001 307 131.096 306.77C131.041 306.858 130.98 306.946 130.926 307.034L130.967 307.156L130.96 307.163Z" fill="#FEFEFE" stroke="#263238" stroke-width="1.17707" stroke-linecap="round" stroke-linejoin="round"/>
<path d="M146.903 149.256C146.903 149.256 146.187 146.24 145.105 148.167C144.024 150.101 145.227 153.117 145.707 153.601C146.187 154.084 147.146 152.511 147.146 152.511" fill="#FEFEFE"/>
<path d="M146.903 149.256C146.903 149.256 146.187 146.24 145.105 148.167C144.024 150.101 145.227 153.117 145.707 153.601C146.187 154.084 147.146 152.511 147.146 152.511" stroke="#263238" stroke-width="1.17707" stroke-linecap="round" stroke-linejoin="round"/>
<path d="M163.596 149.256C163.596 149.256 164.312 146.24 165.394 148.167C166.475 150.101 165.272 153.117 164.792 153.601C164.312 154.084 163.353 152.511 163.353 152.511" fill="#FEFEFE"/>
<path d="M163.596 149.256C163.596 149.256 164.312 146.24 165.394 148.167C166.475 150.101 165.272 153.117 164.792 153.601C164.312 154.084 163.353 152.511 163.353 152.511" stroke="#263238" stroke-width="1.17707" stroke-linecap="round" stroke-linejoin="round"/>
<path d="M159.386 138.102C155.284 136.141 148.897 137.754 147.471 142.535C146.41 146.089 146.572 150.774 146.572 154.764C146.572 156.746 149.127 159.313 149.127 159.313L149.323 163.072L155.412 166.83L160.515 163.269L160.711 159.708C160.711 159.708 163.462 157.331 163.854 155.554C164.246 153.777 163.516 143.665 162.806 141.704C162.367 140.478 161.373 139.048 159.393 138.102H159.386Z" fill="#FEFEFE" stroke="#263238" stroke-width="1.17707" stroke-linecap="round" stroke-linejoin="round"/>
<path d="M153.371 142.956C153.371 142.956 151.337 141.39 149.059 143.562L153.371 142.956Z" fill="#FEFEFE"/>
<path d="M153.371 142.956C153.371 142.956 151.337 141.39 149.059 143.562" stroke="#263238" stroke-width="2.35415" stroke-linecap="round" stroke-linejoin="round"/>
<path d="M157.324 143.12C157.324 143.12 159.359 141.431 161.636 143.242L157.324 143.12Z" fill="#FEFEFE"/>
<path d="M157.324 143.12C157.324 143.12 159.359 141.431 161.636 143.242" stroke="#263238" stroke-width="2.35415" stroke-linecap="round" stroke-linejoin="round"/>
<path d="M156.487 148.043C156.487 148.043 156.365 149.493 154.932 149.854L156.487 148.043Z" fill="#FEFEFE"/>
<path d="M156.487 148.043C156.487 148.043 156.365 149.493 154.932 149.854" stroke="#263238" stroke-width="1.17707" stroke-linecap="round" stroke-linejoin="round"/>
<path d="M152.296 151.428C152.296 151.428 154.452 152.269 158.162 151.428H152.296Z" fill="#FEFEFE"/>
<path d="M152.296 151.428C152.296 151.428 154.452 152.269 158.162 151.428" stroke="#263238" stroke-width="1.17707" stroke-linecap="round" stroke-linejoin="round"/>
<path d="M157.466 159.728C156.844 159.946 156.155 160.177 155.526 160.354C153.85 160.838 150.498 159.265 150.498 159.265" fill="#FEFEFE"/>
<path d="M157.466 159.728C156.844 159.946 156.155 160.177 155.526 160.354C153.85 160.838 150.498 159.265 150.498 159.265" stroke="#263238" stroke-width="1.17707" stroke-linecap="round" stroke-linejoin="round"/>
<path d="M159.365 159.026C159.365 159.026 159.034 159.155 158.521 159.345L159.365 159.026Z" fill="#FEFEFE"/>
<path d="M159.365 159.026C159.365 159.026 159.034 159.155 158.521 159.345" stroke="#263238" stroke-width="1.17707" stroke-linecap="round" stroke-linejoin="round"/>
<path d="M159.791 144.878C159.791 145.253 159.568 145.559 159.298 145.559C159.027 145.559 158.804 145.253 158.804 144.878C158.804 144.504 159.027 144.197 159.298 144.197C159.568 144.197 159.791 144.504 159.791 144.878Z" fill="#263238"/>
<path d="M151.492 145.559C151.764 145.559 151.985 145.254 151.985 144.878C151.985 144.502 151.764 144.197 151.492 144.197C151.219 144.197 150.999 144.502 150.999 144.878C150.999 145.254 151.219 145.559 151.492 145.559Z" fill="#263238"/>
<path d="M157.027 143.823C157.027 143.823 156.533 144.879 156.472 145.682C156.412 146.486 156.594 146.922 156.594 146.922" stroke="#263238" stroke-width="1.17707" stroke-linecap="round" stroke-linejoin="round"/>
<path d="M151.195 138.238C151.195 138.238 150.701 136.665 152.918 135.425C155.135 134.186 155.791 134.431 158.17 133.525C160.549 132.62 161.042 133.192 160.792 134.186C160.549 135.18 159.562 136.086 159.562 136.086C159.562 136.086 161.367 134.513 162.022 134.846C162.678 135.18 162.103 137.57 161.941 137.904C161.779 138.238 163.414 137.659 164.239 139.64C165.057 141.622 163.827 148.397 163.827 148.397C163.827 148.397 163.171 145.755 163.009 144.761C162.847 143.767 162.259 140.205 160.792 139.64C158.663 138.816 156.365 138.483 154.479 138.646C152.594 138.81 151.202 138.231 151.202 138.231L151.195 138.238Z" fill="#263238"/>
<path d="M151.194 137.657C151.194 137.657 149.308 136.833 147.997 137.991C146.686 139.149 147.666 139.646 147.503 140.136C147.341 140.633 146.435 140.218 145.699 142.533C144.962 144.848 146.686 146.911 146.686 146.911L146.929 147.905C146.929 147.905 147.422 145.011 147.422 144.351C147.422 143.69 148.652 142.948 148.896 142.117C149.139 141.294 149.632 139.223 151.518 138.4C151.518 138.4 151.599 137.821 151.187 137.657H151.194Z" fill="#263238"/>
<path d="M48.4209 51.8046L38.3848 61.916L48.4209 72.0275L58.4571 61.916L48.4209 51.8046Z" stroke="#263238" stroke-width="1.17707" stroke-linecap="round" stroke-linejoin="round"/>
<path d="M81.5298 142.942L75.8379 148.677L81.5298 154.411L87.2218 148.677L81.5298 142.942Z" stroke="#263238" stroke-width="1.17707" stroke-linecap="round" stroke-linejoin="round"/>
<path d="M288.507 93.8445L282.815 99.5791L288.507 105.314L294.199 99.5791L288.507 93.8445Z" stroke="#263238" stroke-width="1.17707" stroke-linecap="round" stroke-linejoin="round"/>
<path d="M250.553 121.78L246.835 125.526L250.553 129.272L254.271 125.526L250.553 121.78Z" stroke="#263238" stroke-width="1.17707" stroke-linecap="round" stroke-linejoin="round"/>
<path d="M19.4672 90.8848L15.749 94.6309L19.4672 98.3769L23.1853 94.6309L19.4672 90.8848Z" stroke="#263238" stroke-width="1.17707" stroke-linecap="round" stroke-linejoin="round"/>
<path d="M267.655 20.9161L263.937 24.6621L267.655 28.4082L271.373 24.6621L267.655 20.9161Z" stroke="#263238" stroke-width="1.17707" stroke-linecap="round" stroke-linejoin="round"/>
</svg>
