<svg width="302" height="295" viewBox="0 0 302 295" fill="none" xmlns="http://www.w3.org/2000/svg">
<path d="M284.612 86.015C279.999 76.4203 274.382 67.1954 267.985 58.4327C249.382 32.9568 222.525 12.592 191.009 3.61138C158.852 -5.54751 122.445 3.42649 96.7053 25.4752C83.3627 36.9056 73.1261 51.3076 66.5704 67.1293C61.9246 78.3551 56.9484 89.6865 49.1107 99.3538C42.2709 107.793 33.3494 114.548 26.0272 122.624C10.8673 139.364 0.194531 159.128 0.313484 181.282C0.46548 209.597 11.8784 246.702 41.1937 258.892C65.4404 268.975 92.5353 255.788 117.562 254.124C140.929 252.566 161.237 264.617 183.924 264.874C238.048 265.488 283.012 222.382 295.08 173.338C302.62 142.692 297.531 112.904 284.605 86.0216L284.612 86.015Z" fill="#92E3A9"/>
<path opacity="0.7" d="M284.612 86.015C279.999 76.4203 274.382 67.1954 267.985 58.4327C249.382 32.9568 222.525 12.592 191.009 3.61138C158.852 -5.54751 122.445 3.42649 96.7053 25.4752C83.3627 36.9056 73.1261 51.3076 66.5704 67.1293C61.9246 78.3551 56.9484 89.6865 49.1107 99.3538C42.2709 107.793 33.3494 114.548 26.0272 122.624C10.8673 139.364 0.194531 159.128 0.313484 181.282C0.46548 209.597 11.8784 246.702 41.1937 258.892C65.4404 268.975 92.5353 255.788 117.562 254.124C140.929 252.566 161.237 264.617 183.924 264.874C238.048 265.488 283.012 222.382 295.08 173.338C302.62 142.692 297.531 112.904 284.605 86.0216L284.612 86.015Z" fill="white"/>
<path d="M6.91453 217.174C8.81778 218.006 13.4768 217.9 13.4768 217.9C13.523 217.9 12.4789 214.856 12.3864 214.671C11.3621 212.538 8.13711 209.012 5.50692 209.362C3.61027 209.62 2.55952 211.515 2.98907 213.291C3.42524 215.114 5.29544 216.461 6.91453 217.167V217.174Z" fill="#263238"/>
<path d="M8.52012 230.65C10.4961 230.94 14.6528 229.732 14.9766 229.639C15.6309 231.964 16.4966 234.295 17.4945 236.606C18.0628 237.927 18.684 239.241 19.3184 240.555C18.9417 240 18.5981 239.505 18.5386 239.445C16.9856 237.656 12.9412 235.107 10.5027 236.144C8.74481 236.89 8.22934 238.996 9.11489 240.601C10.0136 242.239 12.1746 243.051 13.9259 243.308C15.7036 243.566 19.2656 242.608 20.204 242.344C20.4551 242.846 20.693 243.348 20.9441 243.843C22.1469 246.24 23.3562 248.617 24.4731 250.995C24.8696 251.833 25.2264 252.672 25.5833 253.504C25.2463 253.009 24.9555 252.599 24.9092 252.54C23.3628 250.75 19.3118 248.201 16.8733 249.238C15.1154 249.984 14.6 252.091 15.4855 253.695C16.3909 255.333 18.5452 256.145 20.2965 256.403C21.9949 256.647 25.2859 255.795 26.4028 255.485C26.7464 256.357 27.09 257.222 27.3808 258.08C27.5659 258.668 27.7905 259.223 27.9425 259.83C28.1078 260.424 28.273 261.012 28.4382 261.593C28.7091 262.722 28.9999 263.891 29.2378 265C29.4096 265.773 29.555 266.513 29.707 267.252C29.3237 266.414 28.5439 264.789 28.458 264.664C27.1958 262.663 23.5809 259.526 21.0102 260.187C19.1598 260.655 18.3272 262.663 18.9616 264.38C19.6026 266.136 21.6182 267.265 23.31 267.78C25.1736 268.348 29.2973 267.827 29.8127 267.761C30.0573 268.989 30.2886 270.191 30.4868 271.326C30.9296 273.836 31.26 276.081 31.5177 277.983H33.2558C32.9518 276.015 32.5553 273.671 32.0332 271.043C31.7887 269.795 31.4979 268.461 31.1939 267.094C31.5045 266.968 33.2624 266.262 34.822 265.39C36.1767 266.856 39.6594 268.58 40.1088 268.797C39.633 269.96 39.1638 271.089 38.7012 272.145C37.7364 274.357 36.8244 276.319 36.0181 277.989H37.895C38.5889 276.451 39.3488 274.701 40.1419 272.759C40.6243 271.577 41.1265 270.31 41.6222 269.002C42.1178 269.108 46.2019 269.933 48.1051 269.504C49.8299 269.114 51.9182 268.137 52.6914 266.433C53.4448 264.763 52.7707 262.709 50.96 262.102C48.4488 261.256 44.6092 264.109 43.2016 266.017C43.1157 266.13 42.3557 267.45 41.8865 268.289C42.0848 267.754 42.2896 267.232 42.4879 266.684C42.891 265.595 43.2545 264.492 43.6576 263.303C43.8294 262.722 44.0078 262.141 44.1863 261.547C44.3713 260.966 44.4969 260.325 44.6555 259.711C44.9991 258.278 45.2767 256.806 45.5212 255.32C46.4794 255.67 49.9026 256.859 51.6737 256.733C53.4382 256.608 55.652 255.96 56.6764 254.395C57.6742 252.863 57.3174 250.724 55.619 249.846C53.2598 248.631 49.0369 250.869 47.3584 252.54C47.2526 252.646 46.182 253.979 45.6137 254.719C45.7525 253.821 45.8979 252.929 46.0102 252.018C46.334 249.39 46.5852 246.722 46.8429 244.055C46.9222 243.236 47.0081 242.43 47.094 241.611C47.431 241.737 51.4688 243.242 53.458 243.104C55.2225 242.978 57.4363 242.331 58.4607 240.766C59.4585 239.234 59.1017 237.095 57.4033 236.216C55.044 235.001 50.8212 237.24 49.1426 238.91C49.0171 239.036 47.4773 240.958 47.1138 241.466C47.3055 239.676 47.5103 237.894 47.7813 236.144C48.158 233.733 48.6536 231.383 49.3079 229.144C49.4665 229.204 53.6695 230.788 55.7049 230.65C57.4694 230.524 59.6832 229.877 60.7075 228.312C61.7054 226.78 61.3486 224.641 59.6502 223.762C57.2909 222.547 53.0681 224.786 51.3895 226.457C51.2574 226.589 49.6052 228.655 49.3343 229.052C49.3739 228.92 49.4004 228.774 49.44 228.642C50.167 226.258 51.1715 224.046 52.2156 222.019C52.817 220.837 53.4646 219.747 54.1123 218.698C54.8656 219.074 58.3285 220.751 60.1723 220.824C61.9367 220.896 64.2101 220.494 65.3996 219.048C66.5627 217.634 66.4437 215.468 64.8511 214.412C62.6438 212.946 58.1963 214.709 56.3459 216.182C56.2468 216.261 55.315 217.192 54.6409 217.879C54.9383 217.41 55.2423 216.921 55.5397 216.472C56.6499 214.802 57.7668 213.342 58.7713 212.055C59.3462 211.328 59.8815 210.681 60.3903 210.087C61.3221 210.074 65.0758 209.955 66.7147 209.189C68.3139 208.436 70.1445 207.036 70.5344 205.207C70.9111 203.417 69.8075 201.549 67.9108 201.344C65.274 201.06 62.1416 204.672 61.1768 206.831C61.0908 207.016 60.126 210.087 60.1789 210.087C60.1789 210.087 60.2251 210.087 60.2383 210.087C59.7361 210.655 59.2074 211.269 58.6457 211.949C57.6148 213.217 56.4583 214.656 55.3084 216.307C54.1519 217.958 52.9492 219.781 51.8521 221.814C50.7485 223.855 49.6912 226.054 48.8981 228.457C48.8915 228.484 48.8849 228.517 48.8717 228.543C48.8849 227.764 48.8519 225.591 48.832 225.426C48.5281 223.082 46.5587 218.724 43.9484 218.242C42.0715 217.899 40.4789 219.364 40.3269 221.194C40.1749 223.056 41.5296 224.925 42.8447 226.1C44.3316 227.427 48.462 228.715 48.7924 228.814C48.0589 231.112 47.4905 233.535 47.0477 236.012C46.7966 237.431 46.5852 238.864 46.3935 240.31C46.3869 239.637 46.3671 239.036 46.3605 238.957C46.0565 236.613 44.0871 232.254 41.4768 231.772C39.6 231.422 38.0073 232.895 37.8553 234.724C37.7033 236.586 39.0581 238.455 40.3731 239.63C41.7147 240.825 45.2106 241.994 46.1424 242.291C46.0763 242.846 45.997 243.401 45.9309 243.955C45.6137 246.617 45.3097 249.271 44.9264 251.866C44.7942 252.784 44.629 253.676 44.4638 254.574C44.4572 253.979 44.444 253.478 44.4308 253.398C44.1268 251.054 42.1574 246.696 39.5471 246.214C37.6703 245.864 36.0776 247.336 35.9256 249.166C35.7736 251.028 37.1284 252.896 38.4435 254.072C39.7189 255.214 42.9439 256.317 44.0475 256.674C43.8558 257.585 43.6642 258.503 43.4329 259.381C43.2611 259.975 43.1421 260.563 42.9373 261.151C42.7456 261.738 42.5606 262.319 42.3755 262.894C41.979 263.99 41.5759 265.119 41.1596 266.176C40.8754 266.915 40.5912 267.609 40.3071 268.315C40.4525 267.404 40.697 265.621 40.697 265.469C40.73 263.898 40.1749 261.342 39.0647 259.546C39.0713 259.315 39.0647 259.084 39.0184 258.853C38.7276 257.043 37.0292 255.703 35.1789 256.192C32.6148 256.872 30.9891 261.369 30.8701 263.733C30.8635 263.871 30.956 265.397 31.0287 266.354C30.8965 265.799 30.7776 265.258 30.6388 264.684C30.3679 263.548 30.0705 262.425 29.7467 261.217C29.5748 260.636 29.3964 260.055 29.218 259.467C29.0528 258.879 28.8016 258.278 28.5968 257.677C28.0879 256.291 27.5064 254.91 26.8918 253.537C27.8831 253.299 31.3922 252.408 32.8064 251.325C34.2074 250.249 35.7009 248.485 35.6877 246.617C35.6745 244.788 34.2008 243.196 32.2976 243.407C29.6608 243.691 27.3742 247.891 26.8918 250.209C26.8587 250.354 26.7067 252.058 26.6407 252.989C26.264 252.163 25.8939 251.338 25.4842 250.519C24.3079 248.149 23.039 245.785 21.7834 243.421C21.4001 242.694 21.0234 241.968 20.6467 241.248C21.0036 241.169 25.2 240.192 26.7794 238.983C28.1804 237.907 29.674 236.144 29.6608 234.275C29.6475 232.446 28.1672 230.854 26.2706 231.066C23.6338 231.35 21.3472 235.549 20.8648 237.867C20.8318 238.039 20.6071 240.489 20.5807 241.116C19.748 239.518 18.9351 237.92 18.2016 236.309C17.1839 234.09 16.3049 231.858 15.6111 229.626C15.7763 229.587 20.1577 228.596 21.7768 227.355C23.1778 226.278 24.6713 224.515 24.6581 222.646C24.6449 220.817 23.1712 219.232 21.2679 219.437C18.6311 219.721 16.3446 223.921 15.8622 226.239C15.8225 226.424 15.5912 229.058 15.578 229.534C15.5384 229.402 15.4789 229.27 15.4392 229.138C14.7321 226.747 14.3488 224.35 14.0977 222.085C13.9523 220.771 13.8796 219.503 13.8466 218.268C14.6793 218.169 18.4924 217.661 20.0718 216.703C21.5851 215.785 23.2571 214.201 23.4487 212.338C23.6338 210.516 22.3451 208.779 20.4353 208.773C17.7853 208.773 15.0493 212.688 14.3158 214.94C14.2761 215.066 14.0118 216.353 13.8268 217.291C13.8201 216.736 13.8003 216.162 13.8003 215.627C13.8003 213.626 13.9325 211.79 14.0581 210.166C14.1374 209.242 14.2299 208.409 14.3158 207.63C15.0824 207.102 18.1487 204.936 19.0937 203.391C20.0123 201.879 20.7657 199.706 20.0784 197.963C19.4043 196.259 17.4548 195.315 15.7564 196.187C13.3972 197.402 12.7826 202.143 13.1725 204.48C13.2056 204.685 14.0977 207.776 14.1374 207.749C14.1374 207.749 14.177 207.723 14.1836 207.716C14.0779 208.462 13.9788 209.268 13.8862 210.146C13.7276 211.771 13.5558 213.606 13.5095 215.62C13.4567 217.628 13.4567 219.82 13.6615 222.118C13.8664 224.423 14.2034 226.846 14.8643 229.289C14.8709 229.316 14.8841 229.342 14.8907 229.375C14.4744 228.721 13.2452 226.925 13.1329 226.8C11.5865 225.01 7.53545 222.461 5.09691 223.498C3.33905 224.244 2.82358 226.351 3.70912 227.955C4.61449 229.593 6.76886 230.405 8.52012 230.663V230.65Z" fill="#263238"/>
<path d="M54.0004 218.196C54.0401 218.222 54.8463 215.105 54.8727 214.901C55.1966 212.556 54.4498 207.835 52.0641 206.679C50.3459 205.847 48.4228 206.851 47.795 208.568C47.154 210.324 47.9669 212.484 48.9251 213.969C50.0551 215.713 53.9938 218.189 54.0004 218.196Z" fill="#263238"/>
<path opacity="0.2" d="M30.5471 140.301C24.4541 140.301 19.5043 145.253 19.5043 151.335C19.5043 154.828 21.1366 157.938 23.6809 159.959L20.7599 165.096C19.8546 165.103 18.9822 165.565 18.4932 166.404L10.5498 180.145C9.81623 181.407 10.2524 183.024 11.5146 183.751C11.931 183.989 12.3869 184.107 12.8363 184.107C13.7483 184.107 14.6404 183.632 15.1295 182.787L23.0729 169.045C23.5619 168.193 23.5157 167.19 23.0597 166.397L25.9344 161.339C27.342 161.993 28.9016 162.362 30.5537 162.362C36.6468 162.362 41.5966 157.41 41.5966 151.328C41.5966 145.246 36.6402 140.294 30.5537 140.294L30.5471 140.301ZM30.5471 160.395C25.5511 160.395 21.4869 156.334 21.4869 151.341C21.4869 146.349 25.5511 142.288 30.5471 142.288C35.5432 142.288 39.6074 146.349 39.6074 151.341C39.6074 156.334 35.5432 160.395 30.5471 160.395Z" fill="black"/>
<path opacity="0.2" d="M237.817 23.571C236.33 29.4744 239.925 35.4835 245.827 36.9693C249.217 37.8211 252.633 36.9957 255.217 35.0345L259.486 39.122C259.275 40.0002 259.506 40.9643 260.207 41.6379L271.6 52.6985C272.644 53.7155 274.322 53.689 275.34 52.6457C275.677 52.3023 275.895 51.8863 276.008 51.4505C276.232 50.5656 275.988 49.5883 275.287 48.9082L263.894 37.8475C263.187 37.1608 262.202 36.9627 261.323 37.2136L257.12 33.1921C258.099 31.9903 258.839 30.564 259.242 28.966C260.729 23.0625 257.14 17.0535 251.232 15.5677C245.324 14.0819 239.311 17.6742 237.824 23.571H237.817ZM257.312 28.4839C256.09 33.3242 251.153 36.2693 246.309 35.0543C241.465 33.8327 238.517 28.8999 239.733 24.0597C240.956 19.2194 245.893 16.2743 250.737 17.4893C255.581 18.7109 258.528 23.6436 257.305 28.4839H257.312Z" fill="black"/>
<g opacity="0.2">
<path d="M260.083 153.853C266.436 152.852 270.773 146.895 269.772 140.548C268.77 134.2 262.809 129.866 256.456 130.867C250.104 131.867 245.766 137.824 246.768 144.172C247.769 150.519 253.731 154.854 260.083 153.853Z" stroke="black" stroke-width="1.23664" stroke-linecap="round" stroke-linejoin="round"/>
<path d="M262.063 152.46L263.927 150.974L263.742 150.043L263.18 148.366L262.063 147.065L257.966 145.764C257.966 145.764 257.404 145.949 256.287 146.51C255.171 147.071 255.171 146.695 254.424 146.695C253.677 146.695 252.745 146.134 252.745 146.134L251.443 143.902L252.375 141.67L253.492 140.369L253.862 138.322L255.349 134.413L255.719 131.811C255.66 131.487 255.534 131.263 255.369 131.104C251.642 132.055 248.648 134.796 247.34 138.362C247.188 139.114 247.161 139.623 247.161 139.623L247.346 141.67L248.093 142.786L249.58 144.087L250.512 145.388L252.19 147.989L254.054 148.736L255.356 150.413V153.615C255.574 153.668 255.785 153.728 256.003 153.774C256.677 153.794 257.715 153.847 258.263 153.998C258.448 153.998 258.627 153.979 258.805 153.972C259.975 153.714 262.057 152.46 262.057 152.46H262.063Z" stroke="black" stroke-width="1.23664" stroke-linecap="round" stroke-linejoin="round"/>
<path d="M262.956 131.718L262.619 132.187L262.058 134.234C262.058 134.234 260.756 136.096 261.503 137.212C262.249 138.328 263.921 139.259 263.921 139.259H265.6L267.087 138.698C267.087 138.698 267.642 138.513 267.642 139.814C267.642 141.114 268.944 143.161 268.944 143.161L269.624 144.872C269.803 144.066 269.902 143.227 269.902 142.369C269.902 137.615 267.041 133.527 262.95 131.724L262.956 131.718Z" stroke="black" stroke-width="1.23664" stroke-linecap="round" stroke-linejoin="round"/>
</g>
<g opacity="0.2">
<path d="M54.3639 52.6746C60.7948 52.6746 66.0081 47.4654 66.0081 41.0395C66.0081 34.6135 60.7948 29.4043 54.3639 29.4043C47.933 29.4043 42.7197 34.6135 42.7197 41.0395C42.7197 47.4654 47.933 52.6746 54.3639 52.6746Z" stroke="black" stroke-width="1.23664" stroke-linecap="round" stroke-linejoin="round"/>
<path d="M58.1571 51.1346L60.0207 49.6489L59.8356 48.7178L59.2739 47.0405L58.1571 45.7397L54.0598 44.4388C54.0598 44.4388 53.4981 44.6237 52.3812 45.185C51.2644 45.7463 51.2644 45.3699 50.5176 45.3699C49.7709 45.3699 48.8391 44.8086 48.8391 44.8086L47.5372 42.5767L48.469 40.3447L49.5858 39.0438L49.9559 36.9968L51.4428 33.0876L51.8129 30.4859C51.7534 30.1623 51.6279 29.9378 51.4627 29.7793C47.7355 30.7302 44.7418 33.4706 43.4333 37.0364C43.2813 37.7892 43.2549 38.2977 43.2549 38.2977L43.4399 40.3447L44.1867 41.4607L45.6736 42.7616L46.6054 44.0624L48.284 46.6642L50.1476 47.4103L51.4494 49.0876V52.2902C51.6675 52.3431 51.879 52.4025 52.0971 52.4487C52.7711 52.4685 53.8087 52.5214 54.3572 52.6732C54.5422 52.6732 54.7206 52.6534 54.8991 52.6468C56.0688 52.3893 58.1505 51.1346 58.1505 51.1346H58.1571Z" stroke="black" stroke-width="1.23664" stroke-linecap="round" stroke-linejoin="round"/>
<path d="M59.0561 30.3945L58.719 30.8634L58.1573 32.9104C58.1573 32.9104 56.8554 34.7726 57.6022 35.8885C58.349 37.0045 60.0209 37.9356 60.0209 37.9356H61.6995L63.1864 37.3743C63.1864 37.3743 63.7415 37.1894 63.7415 38.4903C63.7415 39.7911 65.0434 41.8382 65.0434 41.8382L65.7241 43.5485C65.9025 42.7429 66.0016 41.9042 66.0016 41.0458C66.0016 36.2914 63.1401 32.2039 59.0495 30.4011L59.0561 30.3945Z" stroke="black" stroke-width="1.23664" stroke-linecap="round" stroke-linejoin="round"/>
</g>
<g opacity="0.2">
<path d="M70.9021 184.991C79.7165 182.81 85.0923 173.902 82.9093 165.094C80.7264 156.287 71.8113 150.915 62.9969 153.096C54.1826 155.278 48.8068 164.186 50.9897 172.993C53.1727 181.801 62.0878 187.172 70.9021 184.991Z" stroke="black" stroke-width="1.23664" stroke-linecap="round" stroke-linejoin="round"/>
<path d="M72.3068 183.302L74.937 181.202L74.6727 179.888L73.8863 177.524L72.3068 175.688L66.5244 173.852C66.5244 173.852 65.738 174.117 64.1585 174.902C62.5791 175.688 62.5791 175.167 61.5284 175.167C60.4776 175.167 59.1625 174.381 59.1625 174.381L57.3253 171.231L58.6404 168.081L60.2199 166.245L60.7485 163.353L62.8501 157.839L63.3787 154.161C63.2928 153.706 63.121 153.389 62.8765 153.164C57.6161 154.511 53.3867 158.374 51.5363 163.406C51.3182 164.469 51.2852 165.189 51.2852 165.189L51.5495 168.081L52.6003 169.659L54.7018 171.495L56.0169 173.331L58.3827 177.009L61.0129 178.059L62.8501 180.423V184.946C63.154 185.025 63.458 185.105 63.7686 185.171C64.7203 185.197 66.1807 185.276 66.9605 185.488C67.2183 185.488 67.4694 185.461 67.7271 185.448C69.3793 185.091 72.3134 183.315 72.3134 183.315L72.3068 183.302Z" stroke="black" stroke-width="1.23664" stroke-linecap="round" stroke-linejoin="round"/>
<path d="M73.5685 154.018L73.0927 154.678L72.3062 157.57C72.3062 157.57 70.4691 160.198 71.5198 161.77C72.5706 163.348 74.9364 164.662 74.9364 164.662H77.3023L79.4038 163.876C79.4038 163.876 80.1902 163.612 80.1902 165.455C80.1902 167.297 82.0274 170.183 82.0274 170.183L82.9922 172.593C83.2433 171.451 83.3821 170.269 83.3821 169.053C83.3821 162.338 79.3443 156.573 73.5619 154.024L73.5685 154.018Z" stroke="black" stroke-width="1.23664" stroke-linecap="round" stroke-linejoin="round"/>
</g>
<g opacity="0.2">
<path d="M61.1717 198.779V203.613H59.9756V192.869H61.1717V197.703H63.8151V192.869H65.0113V203.613H63.8151V198.779H61.1717Z" fill="black"/>
<path d="M67.7863 203.613V193.959H65.8037V192.869H70.9517V193.959H68.9692V203.613H67.7863Z" fill="black"/>
<path d="M73.3185 203.613V193.959H71.3359V192.869H76.484V193.959H74.5014V203.613H73.3185Z" fill="black"/>
<path d="M79.6488 192.869C81.3405 192.869 82.0609 193.866 82.0609 195.497V196.785C82.0609 198.489 81.2612 199.38 79.5562 199.38H78.4989V203.619H77.3027V192.876H79.6554L79.6488 192.869ZM79.5562 198.304C80.4484 198.304 80.8779 197.888 80.8779 196.858V195.431C80.8779 194.447 80.5211 193.959 79.6488 193.959H78.4989V198.304H79.5562Z" fill="black"/>
<path d="M84.1489 196.276V197.762H82.999V196.276H84.1489ZM84.1489 202.127V203.613H82.999V202.127H84.1489Z" fill="black"/>
<path d="M90.2946 192.869L86.052 203.613H85.0078L89.2505 192.869H90.2946Z" fill="black"/>
<path d="M93.3015 192.869L89.0588 203.613H88.0146L92.2573 192.869H93.3015Z" fill="black"/>
<path d="M97.0225 203.613H95.377L93.9033 192.869H95.073L96.3353 202.021L97.5314 192.889H98.7143L99.8972 202.041L101.113 192.876H102.157L100.697 203.619H99.1174L98.0865 196.329L97.0292 203.619L97.0225 203.613Z" fill="black"/>
<path d="M105.977 203.613H104.331L102.857 192.869H104.027L105.289 202.021L106.485 192.889H107.668L108.851 202.041L110.067 192.876H111.111L109.651 203.619H108.072L107.041 196.329L105.983 203.619L105.977 203.613Z" fill="black"/>
<path d="M114.932 203.613H113.286L111.812 192.869H112.982L114.244 202.021L115.441 192.889H116.623L117.806 202.041L119.022 192.876H120.067L118.606 203.619H117.027L115.996 196.329L114.938 203.619L114.932 203.613Z" fill="black"/>
<path d="M121.567 202.127V203.613H120.417V202.127H121.567Z" fill="black"/>
<path d="M123.953 202.127V203.613H122.803V202.127H123.953Z" fill="black"/>
<path d="M126.332 202.127V203.613H125.182V202.127H126.332Z" fill="black"/>
</g>
<g opacity="0.2">
<path d="M236.733 63.0282V67.8619H235.537V57.1182H236.733V61.9518H239.377V57.1182H240.573V67.8619H239.377V63.0282H236.733Z" fill="black"/>
<path d="M243.355 67.8619V58.2077H241.372V57.1182H246.52V58.2077H244.538V67.8619H243.355Z" fill="black"/>
<path d="M248.879 67.8619V58.2077H246.896V57.1182H252.045V58.2077H250.062V67.8619H248.879Z" fill="black"/>
<path d="M255.21 57.1182C256.902 57.1182 257.622 58.1153 257.622 59.7463V61.034C257.622 62.7376 256.823 63.6291 255.118 63.6291H254.06V67.8685H252.864V57.1248H255.217L255.21 57.1182ZM255.118 62.5527C256.01 62.5527 256.439 62.1367 256.439 61.1066V59.6803C256.439 58.6964 256.083 58.2077 255.21 58.2077H254.06V62.5527H255.118Z" fill="black"/>
<path d="M259.71 60.5254V62.0178H258.561V60.5254H259.71ZM259.71 66.376V67.8684H258.561V66.376H259.71Z" fill="black"/>
<path d="M265.857 57.1182L261.614 67.8619H260.57L264.813 57.1182H265.857Z" fill="black"/>
<path d="M268.87 57.1182L264.627 67.8619H263.583L267.826 57.1182H268.87Z" fill="black"/>
<path d="M272.583 67.8619H270.938L269.464 57.1182H270.634L271.896 66.2704L273.092 57.138H274.275L275.458 66.2903L276.674 57.1248H277.718L276.257 67.8685H274.678L273.647 60.5783L272.59 67.8685L272.583 67.8619Z" fill="black"/>
<path d="M281.538 67.8619H279.893L278.419 57.1182H279.589L280.851 66.2704L282.047 57.138H283.23L284.413 66.2903L285.629 57.1248H286.673L285.212 67.8685H283.633L282.602 60.5783L281.545 67.8685L281.538 67.8619Z" fill="black"/>
<path d="M290.499 67.8619H288.854L287.38 57.1182H288.55L289.812 66.2704L291.008 57.138H292.191L293.374 66.2903L294.59 57.1248H295.634L294.173 67.8685H292.594L291.563 60.5783L290.506 67.8685L290.499 67.8619Z" fill="black"/>
<path d="M297.133 66.375V67.8674H295.983V66.375H297.133Z" fill="black"/>
<path d="M299.514 66.375V67.8674H298.364V66.375H299.514Z" fill="black"/>
<path d="M301.892 66.375V67.8674H300.742V66.375H301.892Z" fill="black"/>
</g>
<g opacity="0.2">
<path d="M25.9217 16.1454V20.9791H24.7256V10.2354H25.9217V15.069H28.5651V10.2354H29.7613V20.9791H28.5651V16.1454H25.9217Z" fill="black"/>
<path d="M32.5441 20.9791V11.3249H30.5615V10.2354H35.7096V11.3249H33.727V20.9791H32.5441Z" fill="black"/>
<path d="M38.0695 20.9791V11.3249H36.0869V10.2354H41.2349V11.3249H39.2524V20.9791H38.0695Z" fill="black"/>
<path d="M44.3997 10.2354C46.0915 10.2354 46.8118 11.2325 46.8118 12.8635V14.1512C46.8118 15.8548 46.0122 16.7463 44.3072 16.7463H43.2499V20.9857H42.0537V10.2354H44.4063H44.3997ZM44.3072 15.6699C45.1994 15.6699 45.6289 15.2539 45.6289 14.2238V12.7975C45.6289 11.8136 45.2721 11.3249 44.3997 11.3249H43.2499V15.6699H44.3072Z" fill="black"/>
<path d="M48.8999 13.6416V15.134H47.75V13.6416H48.8999ZM48.8999 19.4922V20.9846H47.75V19.4922H48.8999Z" fill="black"/>
<path d="M55.0456 10.2354L50.8029 20.9791H49.7588L54.0015 10.2354H55.0456Z" fill="black"/>
<path d="M58.0593 10.2354L53.8166 20.9791H52.7725L57.0151 10.2354H58.0593Z" fill="black"/>
<path d="M61.7735 20.9791H60.128L58.6543 10.2354H59.824L61.0862 19.3876L62.2824 10.2552H63.4653L64.6482 19.4075L65.8642 10.242H66.9083L65.4478 20.9857H63.8684L62.8375 13.6955L61.7801 20.9857L61.7735 20.9791Z" fill="black"/>
<path d="M70.7276 20.9791H69.0821L67.6084 10.2354H68.7781L70.0403 19.3876L71.2365 10.2552H72.4194L73.6023 19.4075L74.8183 10.242H75.8624L74.4019 20.9857H72.8225L71.7916 13.6955L70.7342 20.9857L70.7276 20.9791Z" fill="black"/>
<path d="M79.6886 20.9791H78.043L76.5693 10.2354H77.739L79.0013 19.3876L80.1974 10.2552H81.3803L82.5633 19.4075L83.7792 10.242H84.8234L83.3629 20.9857H81.7835L80.7525 13.6955L79.6952 20.9857L79.6886 20.9791Z" fill="black"/>
<path d="M86.3237 19.4922V20.9846H85.1738V19.4922H86.3237Z" fill="black"/>
<path d="M88.7026 19.4922V20.9846H87.5527V19.4922H88.7026Z" fill="black"/>
<path d="M91.0815 19.4922V20.9846H89.9316V19.4922H91.0815Z" fill="black"/>
</g>
<path d="M146.732 4.45117C99.1704 4.45117 60.4775 43.114 60.4775 90.6385C60.4775 138.163 99.1704 176.826 146.732 176.826C194.293 176.826 232.986 138.163 232.986 90.6385C232.986 43.114 194.293 4.45117 146.732 4.45117ZM228.327 88.3274H190.665C190.467 73.3575 188.359 59.0215 184.566 46.4619C191.723 42.9687 198.424 38.4652 204.457 33.024C218.712 47.2807 227.719 66.7739 228.327 88.3274ZM146.732 172.204C136.528 172.204 126.807 163.936 119.353 148.92C117.568 145.321 115.976 141.438 114.575 137.338C124.626 133.032 135.537 130.767 146.738 130.767C157.94 130.767 168.844 133.032 178.902 137.338C177.494 141.438 175.908 145.321 174.124 148.92C166.67 163.936 156.942 172.204 146.745 172.204H146.732ZM146.732 126.145C135.041 126.145 123.662 128.483 113.147 132.92C109.585 120.935 107.616 107.259 107.418 92.9497H186.039C185.848 107.253 183.872 120.935 180.31 132.92C169.796 128.483 158.416 126.145 146.725 126.145H146.732ZM107.418 88.3274C107.609 74.0376 109.579 60.3686 113.134 48.3967C123.648 52.8408 135.035 55.1784 146.725 55.1784C158.416 55.1784 169.802 52.8408 180.316 48.3967C183.872 60.3752 185.841 74.0376 186.033 88.3274H107.411H107.418ZM146.732 9.07354C156.935 9.07354 166.656 17.341 174.111 32.3571C175.902 35.9625 177.494 39.8585 178.902 43.9724C168.844 48.2844 157.933 50.5494 146.732 50.5494C135.53 50.5494 124.613 48.2778 114.562 43.9724C115.969 39.8585 117.562 35.9625 119.353 32.3571C126.807 17.341 136.535 9.07354 146.732 9.07354ZM201.087 29.8412C195.608 34.7277 189.568 38.8086 183.118 42.0244C181.684 37.8841 180.065 33.9551 178.254 30.31C174.012 21.7652 169.003 15.1949 163.511 10.8168C177.746 13.8016 190.626 20.4974 201.087 29.8478V29.8412ZM115.209 30.3034C113.398 33.9485 111.779 37.8775 110.345 42.0178C103.895 38.8086 97.8553 34.7277 92.3768 29.8346C102.838 20.4842 115.718 13.7884 129.953 10.8036C124.455 15.1883 119.445 21.752 115.203 30.2968L115.209 30.3034ZM89.0065 33.024C95.0467 38.4652 101.741 42.9687 108.898 46.4619C105.098 59.0215 102.997 73.3575 102.798 88.3274H65.1365C65.7379 66.7739 74.7519 47.2807 89.0065 33.024ZM65.1365 92.9497H102.798C102.997 107.939 105.105 122.282 108.911 134.848C101.754 138.341 95.0599 142.838 89.0263 148.273C74.7585 134.01 65.7445 114.51 65.1365 92.9497ZM92.4033 151.462C97.8751 146.582 103.915 142.502 110.359 139.299C111.793 143.426 113.405 147.342 115.209 150.98C119.452 159.525 124.461 166.095 129.959 170.473C115.738 167.495 102.865 160.799 92.4033 151.462ZM178.254 150.98C180.059 147.342 181.671 143.426 183.105 139.299C189.548 142.508 195.589 146.582 201.06 151.462C190.599 160.799 177.732 167.495 163.511 170.473C169.009 166.089 174.018 159.525 178.254 150.98ZM204.437 148.279C198.404 142.845 191.709 138.348 184.552 134.855C188.359 122.289 190.467 107.939 190.665 92.9563H228.327C227.726 114.523 218.705 134.023 204.437 148.279Z" fill="#263238"/>
<path opacity="0.2" d="M264.376 80.6133H93.9561V108.816H264.376V80.6133Z" fill="black"/>
<path opacity="0.2" d="M82.6296 80.6133H32.3718C29.7038 80.6133 27.541 82.7744 27.541 85.4404V103.989C27.541 106.655 29.7038 108.816 32.3718 108.816H82.6296C85.2976 108.816 87.4604 106.655 87.4604 103.989V85.4404C87.4604 82.7744 85.2976 80.6133 82.6296 80.6133Z" fill="black"/>
<path d="M266.36 75.9912H95.9395V104.194H266.36V75.9912Z" fill="white" stroke="#263238" stroke-width="1.23664" stroke-linecap="round" stroke-linejoin="round"/>
<path d="M122.717 91.3687V98.0051H121.071V83.2598H122.717V89.8962H126.345V83.2598H127.99V98.0051H126.345V91.3687H122.717Z" fill="#263238"/>
<path d="M131.804 98.0078V84.7548H129.081V83.2559H136.146V84.7548H133.423V98.0078H131.797H131.804Z" fill="#263238"/>
<path d="M139.391 98.0078V84.7548H136.668V83.2559H143.732V84.7548H141.01V98.0078H139.384H139.391Z" fill="#263238"/>
<path d="M148.08 83.2627C150.4 83.2627 151.391 84.6296 151.391 86.8681V88.6378C151.391 90.9754 150.294 92.1971 147.955 92.1971H146.501V98.0146H144.855V83.2693H148.08V83.2627ZM147.955 90.7245C149.177 90.7245 149.766 90.1566 149.766 88.7435V86.7823C149.766 85.4352 149.283 84.7617 148.08 84.7617H146.501V90.7245H147.955Z" fill="#263238"/>
<path d="M154.252 87.9385V89.9789H152.673V87.9385H154.252ZM154.252 95.9682V98.0086H152.673V95.9682H154.252Z" fill="#263238"/>
<path d="M162.686 83.2627L156.864 98.0081H155.43L161.252 83.2627H162.686Z" fill="#263238"/>
<path d="M166.823 83.2627L161 98.0081H159.566L165.389 83.2627H166.823Z" fill="#263238"/>
<path d="M171.924 98.008H169.671L167.648 83.2627H169.248L170.979 95.8223L172.625 83.2891H174.25L175.876 95.8487L177.541 83.2693H178.975L176.973 98.0146H174.799L173.385 88.0039L171.931 98.0146L171.924 98.008Z" fill="#263238"/>
<path d="M184.208 98.008H181.955L179.933 83.2627H181.539L183.27 95.8223L184.915 83.2891H186.541L188.167 95.8487L189.832 83.2693H191.266L189.264 98.0146H187.09L185.675 88.0039L184.222 98.0146L184.208 98.008Z" fill="#263238"/>
<path d="M196.501 98.008H194.248L192.226 83.2627H193.831L195.563 95.8223L197.208 83.2891H198.834L200.46 95.8487L202.125 83.2693H203.559L201.557 98.0146H199.383L197.968 88.0039L196.515 98.0146L196.501 98.008Z" fill="#263238"/>
<path d="M205.607 95.9678V98.0082H204.027V95.9678H205.607Z" fill="#263238"/>
<path d="M208.878 95.9678V98.0082H207.299V95.9678H208.878Z" fill="#263238"/>
<path d="M212.144 95.9678V98.0082H210.564V95.9678H212.144Z" fill="#263238"/>
<path d="M108.856 97.8933C113.169 96.9125 115.87 92.6235 114.888 88.3136C113.907 84.0037 109.614 81.3049 105.301 82.2857C100.988 83.2664 98.2869 87.5554 99.2684 91.8653C100.25 96.1752 104.542 98.874 108.856 97.8933Z" fill="#92E3A9" stroke="#263238" stroke-width="1.23664" stroke-linecap="round" stroke-linejoin="round"/>
<path d="M109.686 97.04L110.968 96.0164L110.842 95.3759L110.459 94.2269L109.692 93.3289L106.877 92.4308C106.877 92.4308 106.494 92.5563 105.727 92.9459C104.961 93.3289 104.961 93.0713 104.445 93.0713C103.93 93.0713 103.295 92.6883 103.295 92.6883L102.397 91.1497L103.038 89.6111L103.804 88.7131L104.062 87.3066L105.086 84.619L105.344 82.8295C105.304 82.605 105.218 82.4531 105.099 82.3408C102.535 82.9946 100.474 84.8831 99.5748 87.333C99.469 87.848 99.4492 88.2046 99.4492 88.2046L99.5748 89.6111L100.09 90.3771L101.115 91.2752L101.756 92.1733L102.905 93.9628L104.188 94.4778L105.086 95.6268V97.8324C105.232 97.872 105.384 97.9116 105.536 97.938C105.998 97.9512 106.712 97.9908 107.089 98.0899C107.214 98.0899 107.34 98.0767 107.465 98.0701C108.272 97.8918 109.699 97.0334 109.699 97.0334L109.686 97.04Z" fill="white" stroke="#263238" stroke-width="1.23664" stroke-linecap="round" stroke-linejoin="round"/>
<path d="M110.307 82.7705L110.076 83.0941L109.692 84.5006C109.692 84.5006 108.793 85.7817 109.309 86.5476C109.824 87.3136 110.974 87.9542 110.974 87.9542H112.124L113.148 87.5712C113.148 87.5712 113.532 87.4457 113.532 88.3372C113.532 89.2286 114.431 90.6417 114.431 90.6417L114.9 91.8171C115.019 91.2625 115.091 90.688 115.091 90.0937C115.091 86.8184 113.122 84.0119 110.307 82.7705Z" fill="white" stroke="#263238" stroke-width="1.23664" stroke-linecap="round" stroke-linejoin="round"/>
<path d="M84.612 75.9912H34.3543C31.6863 75.9912 29.5234 78.1524 29.5234 80.8183V99.3672C29.5234 102.033 31.6863 104.194 34.3543 104.194H84.612C87.28 104.194 89.4428 102.033 89.4428 99.3672V80.8183C89.4428 78.1524 87.28 75.9912 84.612 75.9912Z" fill="white" stroke="#263238" stroke-width="1.23664" stroke-linecap="round" stroke-linejoin="round"/>
<path d="M34.5197 91.4635L48.576 98.8196C49.3294 99.2158 50.2282 98.6678 50.2282 97.8225V83.1168C50.2282 82.2716 49.3294 81.7235 48.576 82.1197L34.5197 89.4759C33.7135 89.8985 33.7135 91.0541 34.5197 91.4767V91.4635Z" fill="#263238" stroke="#263238" stroke-width="1.23664" stroke-linecap="round" stroke-linejoin="round"/>
<path d="M83.1059 91.4635L69.0496 98.8196C68.2962 99.2158 67.3975 98.6678 67.3975 97.8225V83.1168C67.3975 82.2716 68.2962 81.7235 69.0496 82.1197L83.1059 89.4759C83.9121 89.8985 83.9121 91.0541 83.1059 91.4767V91.4635Z" fill="#263238" stroke="#263238" stroke-width="1.23664" stroke-linecap="round" stroke-linejoin="round"/>
<path d="M255.554 189.753H180.944C177.647 189.753 174.858 192.19 174.422 195.452L163.293 278.238H251.186L262.077 197.208C262.606 193.266 259.539 189.753 255.554 189.753Z" fill="#263238"/>
<path d="M112.659 248.928C117.47 251.675 127.092 252.362 128.466 250.988C129.841 249.615 141.75 228.788 141.75 228.788C141.75 228.788 143.124 246.412 143.124 253.28C143.124 257.935 140.6 270.574 138.974 278.241H216.175L218.95 252.362C218.95 252.362 222.843 258.087 228.341 262.663C233.839 267.239 239.562 266.097 245.292 262.894C251.021 259.692 253.764 252.824 252.165 245.957C250.559 239.089 237.276 209.565 235.214 205.669C233.152 201.78 232.465 192.397 229.715 192.166C226.966 191.934 199.938 182.095 199.938 182.095C199.938 182.095 183.443 177.519 180.925 178.206C178.407 178.893 158.707 180.035 157.557 180.035C156.407 180.035 142.899 181.177 139.688 182.782C136.483 184.387 131.209 193.995 130.066 197.891C128.922 201.78 104.867 232.453 104.18 237.491C103.493 242.53 107.848 246.188 112.652 248.935L112.659 248.928Z" fill="#92E3A9" stroke="#263238" stroke-width="1.23664" stroke-linecap="round" stroke-linejoin="round"/>
<path d="M184.626 253.22C178.004 258.199 167.741 265.621 160.102 269.807" stroke="#263238" stroke-width="1.23664" stroke-linecap="round" stroke-linejoin="round"/>
<path d="M191.254 248.129C191.254 248.129 190.336 248.855 188.77 250.064" stroke="#263238" stroke-width="1.23664" stroke-linecap="round" stroke-linejoin="round"/>
<path d="M179.426 261.527C179.426 261.527 167.2 270.198 160.492 273.354" stroke="#263238" stroke-width="1.23664" stroke-linecap="round" stroke-linejoin="round"/>
<path d="M218.963 211.288C219.333 210.463 219.729 209.604 220.146 208.713" stroke="#263238" stroke-width="1.23664" stroke-linecap="round" stroke-linejoin="round"/>
<path d="M213.815 225.975C213.815 225.975 214.589 221.709 217.734 214.135" stroke="#263238" stroke-width="1.23664" stroke-linecap="round" stroke-linejoin="round"/>
<path d="M211.516 224.825C211.516 224.825 211.226 219.938 212.957 216.769" stroke="#263238" stroke-width="1.23664" stroke-linecap="round" stroke-linejoin="round"/>
<path d="M141.749 228.781L137.533 215.046" stroke="#263238" stroke-width="1.23664" stroke-linecap="round" stroke-linejoin="round"/>
<path d="M157.021 194.843C157.021 194.843 157.438 198.376 157.854 200.04C158.27 201.704 158.892 206.696 158.892 206.696C158.892 206.696 162.222 201.704 163.055 200.667C163.888 199.63 161.185 194.011 161.185 194.011L157.021 194.843Z" fill="white" stroke="#263238" stroke-width="1.23664" stroke-linecap="round" stroke-linejoin="round"/>
<path d="M161.39 187.357L157.021 194.846C157.021 194.846 160.973 199.838 164.932 202.75C168.884 205.662 174.924 210.443 174.924 210.443C174.924 210.443 172.01 200.875 171.388 198.174C170.767 195.473 165.56 186.321 165.56 186.321C165.56 186.321 162.857 185.284 161.396 187.357H161.39Z" fill="white" stroke="#263238" stroke-width="1.23664" stroke-linecap="round" stroke-linejoin="round"/>
<path d="M200.936 166.146C200.936 166.146 201.769 167.81 200.52 168.431C199.271 169.052 196.568 169.884 196.568 169.884L196.773 179.452C196.773 179.452 188.029 195.049 185.327 198.793C182.624 202.538 174.918 210.442 174.918 210.442C174.918 210.442 167.728 200.563 166.895 198.067C166.063 195.571 162.864 186.273 162.864 186.273C162.864 186.273 175.962 184.86 178.665 182.985C181.368 181.116 186.159 175.708 187.408 170.716C188.657 165.724 185.743 162.812 189.695 159.9C193.647 156.987 196.145 155.739 197.81 156.571C199.475 157.403 200.929 166.14 200.929 166.14L200.936 166.146Z" fill="white" stroke="#263238" stroke-width="1.23664" stroke-linecap="round" stroke-linejoin="round"/>
<path d="M193.574 166.498L196.568 169.893C196.568 169.893 199.416 170.83 200.936 166.148C202.463 161.467 197.817 156.58 197.817 156.58L193.581 166.498H193.574Z" fill="#263238" stroke="#263238" stroke-width="1.23664" stroke-linecap="round" stroke-linejoin="round"/>
<path d="M181.162 196.721L174.924 210.443L187.619 201.713L181.162 196.721Z" fill="white" stroke="#263238" stroke-width="1.23664" stroke-linecap="round" stroke-linejoin="round"/>
<path d="M196.964 174.54C196.964 174.54 191.988 182.992 189.49 186.532C186.992 190.065 181.163 196.721 181.163 196.721L188.657 208.369C188.657 208.369 195.642 195.473 197.817 191.313C200.315 186.532 200.731 182.992 200.731 182.992L196.964 174.54Z" fill="white" stroke="#263238" stroke-width="1.23664" stroke-linecap="round" stroke-linejoin="round"/>
<path d="M197.606 162.616C197.606 162.616 196.356 165.528 195.94 166.148C195.524 166.769 192.193 168.433 192.193 168.433L190.739 166.564L190.944 154.5V144.932C190.944 144.932 197.394 146.8 198.438 150.545C199.482 154.289 197.606 162.609 197.606 162.609V162.616Z" fill="white" stroke="#263238" stroke-width="1.23664" stroke-linecap="round" stroke-linejoin="round"/>
<path d="M154.107 148.885C154.107 148.885 151.192 146.389 150.155 143.272C149.117 140.155 147.657 135.995 150.987 131.208C154.318 126.427 164.099 114.567 174.923 114.567C185.748 114.567 198.648 121.64 204.272 126.004C209.889 130.369 214.264 138.901 216.134 142.645C218.004 146.389 215.718 149.09 214.885 150.754C213.061 154.399 214.006 158.975 212.314 162.699C210.134 167.487 204.926 167.335 200.525 168.431C199.692 168.636 198.027 167.81 196.778 164.482C195.529 161.154 195.74 154.914 191.993 148.053C188.246 141.192 167.02 134.12 154.113 148.885H154.107Z" fill="#575757" stroke="#263238" stroke-width="1.23664" stroke-linecap="round" stroke-linejoin="round"/>
<path d="M213.908 151.566C213.908 151.566 213.181 137.646 205.944 128.421" stroke="#263238" stroke-width="1.23664" stroke-linecap="round" stroke-linejoin="round"/>
<path d="M166.308 120.623C169.275 118.569 171.654 117.137 175.573 116.41" stroke="#787878" stroke-width="1.23664" stroke-linecap="round" stroke-linejoin="round"/>
<path d="M153.91 135.924C153.91 135.924 157.816 126.17 163.948 122.274" stroke="#787878" stroke-width="1.23664" stroke-linecap="round" stroke-linejoin="round"/>
<path d="M176.418 120.354C179.854 119.265 181.956 118.717 181.956 118.717" stroke="#787878" stroke-width="1.23664" stroke-linecap="round" stroke-linejoin="round"/>
<path d="M157.993 133.796C157.993 133.796 163.32 124.928 170.245 122.445C171.263 122.081 172.241 121.738 173.16 121.428" stroke="#787878" stroke-width="1.23664" stroke-linecap="round" stroke-linejoin="round"/>
<path d="M165.448 134.146C165.448 134.146 167.933 129.359 173.795 126.698C179.65 124.036 184.448 122.795 188.175 122.795" stroke="#787878" stroke-width="1.23664" stroke-linecap="round" stroke-linejoin="round"/>
<path d="M184.461 127.114C185.968 126.612 186.926 126.348 186.926 126.348" stroke="#787878" stroke-width="1.23664" stroke-linecap="round" stroke-linejoin="round"/>
<path d="M170.952 133.969C170.952 133.969 175.922 130.423 179.827 128.825C180.462 128.568 181.076 128.323 181.665 128.105" stroke="#787878" stroke-width="1.23664" stroke-linecap="round" stroke-linejoin="round"/>
<path d="M189.589 143.194C189.589 143.194 196.336 140.176 202.37 139.998" stroke="#787878" stroke-width="1.23664" stroke-linecap="round" stroke-linejoin="round"/>
<path d="M160.557 135.784C160.557 135.784 153.063 137.032 152.647 142.229C152.231 147.426 153.063 156.374 153.896 158.87C154.729 161.366 153.896 169.27 153.063 174.883C152.231 180.496 156.394 186.32 159.725 188.4C163.055 190.48 168.051 191.517 174.085 189.648C180.118 187.779 185.947 184.24 188.445 180.707C190.943 177.174 190.732 176.547 191.148 175.926C191.564 175.305 192.186 171.977 192.186 168.438V155.958C192.186 152.841 191.981 148.053 191.981 148.053C191.981 148.053 180.323 131.208 160.551 135.784H160.557Z" fill="white" stroke="#263238" stroke-width="1.23664" stroke-linecap="round" stroke-linejoin="round"/>
<path d="M183.799 140.282C184.156 143.016 185.127 148.061 187.619 149.302C190.533 150.755 190.533 152.835 189.905 156.374C189.284 159.907 188.656 168.228 185.953 170.519C183.25 172.804 181.79 174.263 178.671 173.015C175.552 171.767 174.303 169.898 169.511 169.687C164.727 169.476 162.017 168.855 159.936 169.892C157.854 170.928 156.605 171.972 156.605 171.972C156.605 171.972 155.224 169.898 154.001 167.039C153.777 169.674 153.42 172.48 153.063 174.877C152.23 180.49 156.394 186.314 159.724 188.394C163.055 190.474 168.051 191.511 174.084 189.642C180.118 187.774 185.947 184.234 188.445 180.701C190.943 177.168 190.731 176.541 191.148 175.92C191.564 175.3 192.185 171.972 192.185 168.432V155.952C192.185 152.835 194.313 152.848 194.313 152.848C194.313 152.848 193.428 147.196 183.792 140.275L183.799 140.282Z" fill="#263238" stroke="#263238" stroke-width="1.23664" stroke-linecap="round" stroke-linejoin="round"/>
<path d="M158.052 136.497C158.99 138.003 161.594 141.397 165.969 141.397C170.344 141.397 174.177 138.168 176.291 136.497C171.87 134.991 166.59 134.384 160.556 135.784C160.556 135.784 159.44 135.969 158.052 136.497Z" fill="#263238" stroke="#263238" stroke-width="1.23664" stroke-linecap="round" stroke-linejoin="round"/>
<path d="M163.684 151.169L164.722 154.913C164.722 154.913 163.684 161.569 163.473 164.27C163.268 166.971 161.603 169.678 166.387 169.678C171.172 169.678 172.004 167.598 172.004 166.145" stroke="#263238" stroke-width="1.23664" stroke-linecap="round" stroke-linejoin="round"/>
<path d="M170.345 149.922C170.345 149.922 170.966 148.674 175.129 148.674C179.293 148.674 181.996 151.375 181.996 151.375" stroke="#263238" stroke-width="2.47328" stroke-linecap="round" stroke-linejoin="round"/>
<path d="M160.974 150.338C160.974 150.338 157.855 148.47 154.524 150.338" stroke="#263238" stroke-width="2.47328" stroke-linecap="round" stroke-linejoin="round"/>
<path d="M161.429 173.101C163.557 173.939 167.746 174.956 172.63 172.804" stroke="white" stroke-width="2.47328" stroke-linecap="round" stroke-linejoin="round"/>
<path d="M176.273 157.623C177.021 157.623 177.627 156.831 177.627 155.854C177.627 154.876 177.021 154.084 176.273 154.084C175.525 154.084 174.918 154.876 174.918 155.854C174.918 156.831 175.525 157.623 176.273 157.623Z" fill="#263238"/>
<path d="M160.141 157.623C160.889 157.623 161.496 156.831 161.496 155.854C161.496 154.876 160.889 154.084 160.141 154.084C159.393 154.084 158.786 154.876 158.786 155.854C158.786 156.831 159.393 157.623 160.141 157.623Z" fill="#263238"/>
<path d="M163.472 157.826C163.472 157.826 162.018 159.279 160.558 159.906" stroke="#263238" stroke-width="1.23664" stroke-linecap="round" stroke-linejoin="round"/>
<path d="M173.259 158.04C173.259 158.04 174.924 160.741 177.211 160.536" stroke="#263238" stroke-width="1.23664" stroke-linecap="round" stroke-linejoin="round"/>
<path d="M170.226 200.24C170.226 200.24 167.365 198.622 165.739 196.997C164.113 195.373 163.737 193.088 162.303 195.089C160.869 197.09 161.543 198.807 163.446 200.141C165.349 201.474 170.795 202.333 170.795 202.333C170.795 202.333 172.229 201.283 170.22 200.233L170.226 200.24Z" fill="white" stroke="#263238" stroke-width="1.23664" stroke-linecap="round" stroke-linejoin="round"/>
<path d="M170.893 200.806C170.893 200.806 163.644 198.139 162.401 198.33C161.159 198.522 159.824 199.572 159.54 201.189C159.256 202.807 160.683 203.956 160.683 203.956C160.683 203.956 159.441 206.149 159.441 206.915C159.441 207.681 159.725 208.724 159.725 208.724C159.725 208.724 158.198 210.249 158.198 211.392C158.198 212.534 159.441 213.775 159.441 213.775C159.441 213.775 158.965 215.393 159.725 216.919C160.485 218.444 165.164 222.736 167.933 223.971C170.702 225.213 175.565 226.355 175.565 226.355L187.395 233.982L194.168 222.254C194.168 222.254 186.251 216.628 185.108 215.202C183.965 213.769 181.295 209.292 180.436 206.525C179.577 203.758 171.376 200.806 171.376 200.806H170.9H170.893Z" fill="white" stroke="#263238" stroke-width="1.23664" stroke-linecap="round" stroke-linejoin="round"/>
<path d="M160.684 203.954L165.164 206.417" stroke="#263238" stroke-width="1.23664" stroke-linecap="round" stroke-linejoin="round"/>
<path d="M159.731 208.723L164.172 211.866" stroke="#263238" stroke-width="1.23664" stroke-linecap="round" stroke-linejoin="round"/>
<path d="M159.44 213.775L162.52 216.159" stroke="#263238" stroke-width="1.23664" stroke-linecap="round" stroke-linejoin="round"/>
<path d="M155.634 223.918H142.311C141.426 223.918 140.679 223.258 140.573 222.38L137.481 196.824C137.355 195.781 138.168 194.863 139.219 194.863H158.727C159.778 194.863 160.591 195.781 160.465 196.824L157.372 222.38C157.266 223.258 156.52 223.918 155.634 223.918Z" fill="white" stroke="#263238" stroke-width="1.23664" stroke-linecap="round" stroke-linejoin="round"/>
<path d="M140.289 193.241C140.289 193.241 142.298 191.769 142.027 188.962C141.763 186.156 138.684 186.288 138.684 183.217C138.684 180.147 140.289 180.147 141.089 176.938" stroke="#263238" stroke-width="1.23664" stroke-miterlimit="10" stroke-linecap="round"/>
<path d="M147.909 193.103C147.909 193.103 148.979 192.304 148.979 189.894C148.979 187.484 147.109 187.887 146.706 185.219" stroke="#263238" stroke-width="1.23664" stroke-miterlimit="10" stroke-linecap="round"/>
<path d="M192.377 219.858L183.442 233.362L192.146 239.999L201.305 224.659L192.377 219.858Z" fill="#92E3A9" stroke="#263238" stroke-width="1.23664" stroke-linecap="round" stroke-linejoin="round"/>
<path d="M249.639 239.537C249.639 239.537 253.763 250.749 254.219 254.645C254.675 258.534 251.239 267.007 248.952 270.209C246.659 273.412 232.92 270.209 222.842 265.402C212.764 260.595 193.751 247.778 192.145 245.948C190.539 244.119 192.145 239.999 192.145 239.999L201.305 224.666C201.305 224.666 202.911 222.837 204.972 223.061C207.034 223.292 237.268 236.796 237.268 236.796" fill="#92E3A9"/>
<path d="M249.639 239.537C249.639 239.537 253.763 250.749 254.219 254.645C254.675 258.534 251.239 267.007 248.952 270.209C246.659 273.412 232.92 270.209 222.842 265.402C212.764 260.595 193.751 247.778 192.145 245.948C190.539 244.119 192.145 239.999 192.145 239.999L201.305 224.666C201.305 224.666 202.911 222.837 204.972 223.061C207.034 223.292 237.268 236.796 237.268 236.796" stroke="#263238" stroke-width="1.23664" stroke-linecap="round" stroke-linejoin="round"/>
<path d="M106.249 233.362C106.249 233.362 100.519 239.312 99.1444 246.411C97.7698 253.509 100.75 258.541 102.35 261.975C103.955 265.409 105.099 266.782 107.617 267.013C110.134 267.244 124.111 265.184 125.023 262.893C125.935 260.601 128.916 255.338 128.46 249.389C128.004 243.439 120.9 236.572 114.714 237.027" fill="#92E3A9"/>
<path d="M106.249 233.362C106.249 233.362 100.519 239.312 99.1444 246.411C97.7698 253.509 100.75 258.541 102.35 261.975C103.955 265.409 105.099 266.782 107.617 267.013C110.134 267.244 124.111 265.184 125.023 262.893C125.935 260.601 128.916 255.338 128.46 249.389C128.004 243.439 120.9 236.572 114.714 237.027" stroke="#263238" stroke-width="1.23664" stroke-linecap="round" stroke-linejoin="round"/>
<path d="M107.624 267.007C107.624 267.007 106.481 261.282 114.953 258.535C123.425 255.788 126.405 258.304 125.949 261.513C125.493 264.716 112.666 269.979 107.624 267.007Z" fill="#92E3A9" stroke="#263238" stroke-width="1.23664" stroke-linecap="round" stroke-linejoin="round"/>
<path d="M126.682 262.095C126.682 262.095 129.154 264.816 131.632 264.816C134.11 264.816 138.068 269.267 139.8 270.502C141.531 271.736 145.49 271.987 144.254 275.197C143.018 278.412 138.068 276.431 135.841 275.197C133.614 273.962 132.379 271.485 130.647 271.485C128.916 271.485 127.184 271.981 122.479 273.216C117.78 274.45 112.084 272.476 115.302 268.765C118.52 265.054 126.682 262.089 126.682 262.089V262.095Z" fill="white" stroke="#263238" stroke-width="1.23664" stroke-linecap="round" stroke-linejoin="round"/>
<path d="M109.117 266.796C109.117 266.796 105.654 266.796 104.907 269.88C104.167 272.963 104.907 277.229 107.875 278.418C110.842 279.606 109.362 276.285 109.362 274.152V268.222L109.117 266.803V266.796Z" fill="white" stroke="#263238" stroke-width="1.23664" stroke-linecap="round" stroke-linejoin="round"/>
<path d="M114.067 262.832C114.067 262.832 108.377 264.562 108.377 267.778C108.377 270.994 110.108 277.67 112.587 278.165C115.058 278.66 115.309 276.679 114.814 272.975C114.318 269.264 114.073 262.839 114.073 262.839L114.067 262.832Z" fill="white" stroke="#263238" stroke-width="1.23664" stroke-linecap="round" stroke-linejoin="round"/>
<path d="M120.008 260.609C120.008 260.609 116.05 258.139 114.563 261.348C113.076 264.564 113.823 272.475 115.303 274.7C116.79 276.926 120.002 276.43 120.253 272.97C120.497 269.51 120.008 260.609 120.008 260.609Z" fill="white" stroke="#263238" stroke-width="1.23664" stroke-linecap="round" stroke-linejoin="round"/>
<path d="M127.422 261.215C127.435 259.631 126.516 258.125 125.029 257.577C124.461 257.366 123.78 257.273 122.974 257.399C119.756 257.894 119.26 260.119 119.756 262.094C120.252 264.075 119.511 273.465 121.243 275.195C122.974 276.925 125.941 275.934 126.688 274.204C127.283 272.824 127.402 264.504 127.422 261.209V261.215Z" fill="white" stroke="#263238" stroke-width="1.23664" stroke-linecap="round" stroke-linejoin="round"/>
<path d="M290.394 278.241H11.0791" stroke="#263238" stroke-width="1.23664" stroke-linecap="round" stroke-linejoin="round"/>
<path d="M169.83 285.997L101.035 276.752L55.6279 277.643L108.199 294L169.83 285.997Z" fill="#D1D1D1" stroke="#263238" stroke-width="1.23664" stroke-linecap="round" stroke-linejoin="round"/>
<path d="M116.426 279.52L107.458 280.233L126.649 283.099L138.128 282.742L116.426 279.52Z" stroke="#263238" stroke-width="1.23664" stroke-linecap="round" stroke-linejoin="round"/>
<path d="M106.023 280.95L134.718 285.606L106.922 287.223" stroke="#263238" stroke-width="1.23664" stroke-linecap="round" stroke-linejoin="round"/>
<path d="M42.7402 221.283L55.6268 277.643L108.198 294L93.9232 223.72L42.7402 221.283Z" fill="#D1D1D1" stroke="#263238" stroke-width="1.23664" stroke-linecap="round" stroke-linejoin="round"/>
<path d="M96.8445 238.106C89.5619 245.02 81.222 256.563 71.6528 268.105C66.0686 274.834 60.2333 276.776 55.4355 276.828L55.6206 277.641L108.198 293.991L96.8445 238.1V238.106Z" fill="#A6A6A6" stroke="#263238" stroke-width="1.23664" stroke-linecap="round" stroke-linejoin="round"/>
<path d="M75.3207 250.865C76.0411 253.975 75.0167 256.867 73.0408 257.323C71.0649 257.778 68.8708 255.632 68.1505 252.522C67.4302 249.412 68.4545 246.52 70.4304 246.064C72.4064 245.608 74.6004 247.754 75.3207 250.865Z" fill="white" stroke="#263238" stroke-width="1.23664" stroke-linecap="round" stroke-linejoin="round"/>
<path d="M108.199 293.998L169.83 288.775V285.995L107.155 289.475L108.199 293.998Z" fill="#A6A6A6" stroke="#263238" stroke-width="1.23664" stroke-linecap="round" stroke-linejoin="round"/>
</svg>
