<svg width="217" height="116" viewBox="0 0 217 116" fill="none" xmlns="http://www.w3.org/2000/svg">
<rect width="217" height="116" fill="#E5E5E5"/>
<rect width="23225" height="12708" transform="translate(-16834 -4414)" fill="#E1E1E1"/>
<rect x="-51.5" y="-82.5" width="319" height="741" rx="4.5" stroke="#9747FF" stroke-dasharray="10 5"/>
<rect x="-32" y="-63" width="280" height="341" rx="10" fill="#272727"/>
<g clip-path="url(#clip0_0_1)">
<path d="M205.592 65.8251C211.812 65.8251 216.854 60.7853 216.854 54.5683C216.854 48.3514 211.812 43.3115 205.592 43.3115C199.372 43.3115 194.33 48.3514 194.33 54.5683C194.33 60.7853 199.372 65.8251 205.592 65.8251Z" fill="#F2F2F2"/>
<path d="M205.591 57.5311C207.228 57.5311 208.554 56.2048 208.554 54.5688C208.554 52.9327 207.228 51.6064 205.591 51.6064C203.954 51.6064 202.627 52.9327 202.627 54.5688C202.627 56.2048 203.954 57.5311 205.591 57.5311Z" fill="#E6E6E6"/>
<path d="M205.05 54.6316C206.298 55.6496 206.679 57.254 206.446 58.8032C206.161 60.5025 205.279 62.0444 203.959 63.1522C202.474 64.4711 200.663 65.3623 198.916 66.2749C197.311 67.0939 195.768 68.03 194.3 69.0757C188.68 73.1581 184.435 78.9708 182.005 85.4573C179.58 91.9329 178.929 99.283 180.772 105.994C181.684 109.315 183.529 112.897 186.966 114.147C189.705 115.143 193.446 114.501 194.841 111.679C196.339 108.648 194.248 105.24 191.555 103.735C188.065 101.784 183.895 103.21 180.755 105.184C177.299 107.358 174.52 110.478 170.911 112.427C169.287 113.331 167.479 113.858 165.623 113.969C163.918 114.036 162.216 113.773 160.611 113.195C157.281 111.982 154.415 109.758 152.413 106.834C150.121 103.504 149.095 99.4212 148.908 95.4219C148.489 86.4739 152.026 78.1028 154.863 69.8046C156.388 65.4834 157.53 61.0367 158.277 56.5157C158.987 51.9718 159.24 47.3683 159.031 42.774C158.844 38.7116 158.443 34.4635 156.649 30.7532C155.071 27.4907 152.189 24.8206 148.544 24.1474C146.901 23.8251 145.199 24.0206 143.672 24.7068C143.152 24.9438 143.603 25.71 144.121 25.4741C147.346 24.0035 151.158 25.4344 153.54 27.809C156.322 30.5819 157.344 34.6768 157.798 38.4552C158.817 47.4097 158.014 56.4778 155.436 65.114C152.962 73.5128 149.071 81.5611 148.173 90.3605C147.764 94.3758 147.974 98.5268 149.258 102.377C150.36 105.807 152.425 108.847 155.209 111.135C157.829 113.253 161.053 114.696 164.447 114.856C168.257 115.037 171.597 113.339 174.553 111.081C177.719 108.662 180.631 105.678 184.466 104.322C186.214 103.704 188.205 103.415 190 104.01C191.54 104.536 192.846 105.586 193.691 106.976C194.47 108.272 194.758 109.892 194.046 111.284C193.378 112.592 192.072 113.349 190.659 113.608C189.162 113.873 187.62 113.611 186.295 112.867C184.747 111.983 183.614 110.5 182.82 108.933C181.237 105.808 180.706 102.088 180.625 98.6192C180.554 95.231 180.989 91.8512 181.914 88.5908C183.754 81.9955 187.47 76.0756 192.609 71.5489C193.904 70.4215 195.289 69.4021 196.751 68.501C198.345 67.5187 200.047 66.7338 201.673 65.8069C203.272 64.8949 204.849 63.8052 205.95 62.3045C206.889 61.0182 207.396 59.4678 207.399 57.8756C207.415 57.1433 207.27 56.4164 206.972 55.7469C206.675 55.0774 206.233 54.482 205.678 54.0032C205.239 53.6446 204.606 54.2698 205.05 54.6316Z" fill="#CCCCCC"/>
<path d="M99.9101 106.409C103.848 108.953 108.403 110.381 113.09 110.539C113.006 110.737 112.912 110.931 112.808 111.119C112.263 112.126 111.492 112.993 110.556 113.652C109.447 114.432 108.146 114.892 106.794 114.983C105.442 115.074 104.09 114.792 102.887 114.168C101.684 113.544 100.676 112.602 99.9724 111.444C99.2686 110.286 98.8964 108.958 98.8965 107.603V106.409H99.9101Z" fill="#FEFEFE"/>
<path d="M127.553 106.759V107.603C127.553 109.247 127.006 110.844 125.997 112.142C124.988 113.44 123.576 114.365 121.982 114.771C120.389 115.177 118.705 115.041 117.198 114.384C115.691 113.727 114.445 112.586 113.659 111.143C113.55 110.95 113.452 110.751 113.365 110.548C113.582 110.554 113.795 110.556 114.011 110.556C118.789 110.562 123.475 109.248 127.553 106.759Z" fill="#FEFEFE"/>
<path d="M137.524 17.4802C137.302 17.4477 137.077 17.4269 136.852 17.4121C139.411 23.308 139.588 29.9651 137.346 35.9888C137.572 35.9621 137.794 35.9266 138.016 35.8851C140.187 35.4648 142.138 34.2882 143.521 32.5649C144.905 30.8415 145.632 28.6833 145.573 26.4743C145.514 24.2653 144.673 22.1489 143.199 20.5019C141.725 18.8549 139.714 17.7842 137.524 17.4802Z" fill="#FEFEFE"/>
<path d="M91.1744 17.4121C90.9492 17.4269 90.7239 17.4477 90.5016 17.4802C88.3118 17.7841 86.3009 18.8549 84.827 20.5019C83.353 22.1489 82.5116 24.2653 82.4526 26.4743C82.3935 28.6833 83.1206 30.8415 84.5045 32.5649C85.8884 34.2882 87.8392 35.4648 90.0096 35.8851C90.2319 35.9266 90.4542 35.9621 90.6795 35.9888C88.4376 29.9651 88.6149 23.308 91.1744 17.4121Z" fill="#FEFEFE"/>
<path d="M137.523 17.4808C135.081 11.651 130.559 6.93637 124.834 4.25299C119.109 1.5696 112.591 1.10903 106.545 2.96075C100.499 4.81247 95.3584 8.84426 92.1205 14.2729C88.8827 19.7014 87.7793 26.1392 89.0247 32.3355C90.2702 38.5317 93.7755 44.044 98.8597 47.8015C103.944 51.559 110.244 53.2933 116.536 52.6676C122.828 52.0418 128.663 49.1007 132.906 44.4156C137.15 39.7304 139.5 33.6358 139.5 27.3157C139.498 23.939 138.827 20.5961 137.523 17.4808ZM137.345 35.9894C135.177 41.8145 130.906 46.6175 125.373 49.4531C119.84 52.2887 113.445 52.9514 107.448 51.311C101.45 49.6705 96.2841 45.8457 92.9664 40.5892C89.6488 35.3327 88.4197 29.0253 89.5212 22.9085C90.6226 16.7917 93.9748 11.3086 98.918 7.5382C103.861 3.76785 110.037 1.98342 116.231 2.53612C122.424 3.08882 128.186 5.93862 132.383 10.5246C136.58 15.1106 138.907 21.1007 138.907 27.3157C138.906 30.2768 138.377 33.2139 137.345 35.9894Z" fill="#FEFEFE"/>
<path d="M127.052 21.5391H100.972C99.5961 21.5391 98.2769 22.0852 97.3042 23.0574C96.3316 24.0296 95.7852 25.3482 95.7852 26.7231C95.7852 28.098 96.3316 29.4166 97.3042 30.3888C98.2769 31.361 99.5961 31.9072 100.972 31.9072H127.052C128.428 31.9072 129.747 31.361 130.72 30.3888C131.693 29.4166 132.239 28.098 132.239 26.7231C132.239 25.3482 131.693 24.0296 130.72 23.0574C129.747 22.0852 128.428 21.5391 127.052 21.5391Z" fill="#FEFEFE"/>
<path d="M114.012 57.8271C107.044 57.8303 100.354 60.5586 95.3734 65.4284C90.3924 70.2982 87.5156 76.9229 87.3584 83.8855C87.2012 90.8481 89.776 97.5958 94.5322 102.685C99.2884 107.775 105.848 110.802 112.809 111.119C113.09 111.134 113.375 111.143 113.659 111.143C113.778 111.149 113.893 111.149 114.012 111.149C121.086 111.149 127.871 108.34 132.873 103.34C137.875 98.3402 140.686 91.5589 140.686 84.488C140.686 77.4171 137.875 70.6358 132.873 65.6359C127.871 60.6361 121.086 57.8271 114.012 57.8271ZM127.553 106.759C123.476 109.248 118.79 110.562 114.012 110.556C113.796 110.556 113.582 110.553 113.366 110.548C113.274 110.548 113.182 110.545 113.09 110.539C106.827 110.321 100.852 107.858 96.2562 103.6C91.6604 99.3418 88.7511 93.5727 88.06 87.3473C87.3689 81.1218 88.9423 74.8556 92.4924 69.6941C96.0426 64.5325 101.332 60.8202 107.395 59.2357C113.458 57.6511 119.889 58.3002 125.512 61.0642C131.136 63.8282 135.577 68.5226 138.023 74.2894C140.469 80.0562 140.757 86.5102 138.835 92.4719C136.912 98.4336 132.908 103.505 127.553 106.759Z" fill="#FEFEFE"/>
<path d="M132.734 77.921H121.076C120.264 77.921 119.485 77.5985 118.911 77.0245C118.336 76.4504 118.014 75.6718 118.014 74.8599C118.014 74.0481 118.336 73.2695 118.911 72.6954C119.485 72.1213 120.264 71.7988 121.076 71.7988H132.734C133.546 71.7988 134.325 72.1213 134.899 72.6954C135.474 73.2695 135.796 74.0481 135.796 74.8599C135.796 75.6718 135.474 76.4504 134.899 77.0245C134.325 77.5985 133.546 77.921 132.734 77.921Z" fill="#FEFEFE"/>
<path d="M121.853 76.4138C122.712 76.4138 123.407 75.7182 123.407 74.8602C123.407 74.0022 122.712 73.3066 121.853 73.3066C120.995 73.3066 120.299 74.0022 120.299 74.8602C120.299 75.7182 120.995 76.4138 121.853 76.4138Z" fill="#F2F2F2"/>
<path d="M126.904 76.4138C127.762 76.4138 128.458 75.7182 128.458 74.8602C128.458 74.0022 127.762 73.3066 126.904 73.3066C126.045 73.3066 125.35 74.0022 125.35 74.8602C125.35 75.7182 126.045 76.4138 126.904 76.4138Z" fill="#F2F2F2"/>
<path d="M131.957 76.4138C132.815 76.4138 133.511 75.7182 133.511 74.8602C133.511 74.0022 132.815 73.3066 131.957 73.3066C131.098 73.3066 130.402 74.0022 130.402 74.8602C130.402 75.7182 131.098 76.4138 131.957 76.4138Z" fill="#A0DBB8"/>
<path d="M23.4291 114.226C26.0943 111.975 27.7132 108.419 27.2886 104.957C26.8641 101.496 24.2346 98.3134 20.8237 97.5783C17.4129 96.8432 13.5248 98.8781 12.4888 102.208C11.9186 95.7877 11.2617 89.098 7.84638 83.6302C4.75394 78.6792 -0.602215 75.1366 -6.40709 74.5028C-12.212 73.8691 -18.3237 76.2628 -21.944 80.8423C-25.5643 85.4218 -26.4507 92.0795 -23.9152 97.3372C-22.0473 101.21 -18.6061 104.093 -15.0005 106.438C-3.4975 113.919 10.772 116.447 24.3496 114.45L23.4291 114.226Z" fill="#F2F2F2"/>
<path d="M-16.2037 76.3956C-11.414 80.2951 -7.01992 84.6563 -3.08506 89.4162C0.85043 94.1713 4.3152 99.2966 7.26059 104.72C8.90693 107.763 10.3859 110.893 11.6908 114.096C11.9569 114.748 10.8982 115.032 10.6351 114.387C8.32367 108.739 5.46406 103.331 2.09721 98.2411C-1.25329 93.1692 -5.08811 88.434 -9.3534 84.1023C-11.7659 81.6534 -14.3112 79.339 -16.9779 77.1694C-17.5245 76.7246 -16.7458 75.9544 -16.2037 76.3956Z" fill="white"/>
<path d="M22.5254 20.7062C27.5996 20.7062 31.713 16.5948 31.713 11.523C31.713 6.4513 27.5996 2.33984 22.5254 2.33984C17.4513 2.33984 13.3379 6.4513 13.3379 11.523C13.3379 16.5948 17.4513 20.7062 22.5254 20.7062Z" fill="#605A5A"/>
<path d="M56.791 45.1485C56.6149 45.4131 56.4002 45.65 56.1542 45.8513C55.7997 46.1434 55.3875 46.3574 54.9445 46.4792C54.5016 46.6009 54.0378 46.6277 53.5838 46.5579C53.1297 46.488 52.6955 46.3231 52.3097 46.0738C51.9239 45.8245 51.5951 45.4966 51.3449 45.1115C51.287 45.0217 51.2338 44.929 51.1857 44.8336L36.708 43.4375C35.5653 43.323 34.4901 42.8432 33.6419 42.0694C32.7937 41.2956 32.2177 40.2691 31.9995 39.1422L31.1777 34.8122L36.8279 33.9336L37.8418 37.402L51.9574 40.8677C52.0668 40.7718 52.1827 40.6837 52.3043 40.604C52.934 40.1956 53.6854 40.0168 54.4316 40.0978C55.1779 40.1788 55.8733 40.5147 56.4005 41.0487C56.9278 41.5828 57.2545 42.2823 57.3257 43.0292C57.3968 43.7761 57.2079 44.5246 56.791 45.1485Z" fill="#FFB8B8"/>
<path d="M38.189 36.8784L31.8775 38.5826C31.536 38.6744 31.1721 38.627 30.8655 38.4509C30.5589 38.2748 30.3347 37.9844 30.2421 37.6433L28.0315 29.4638C27.7947 28.5876 27.8908 27.6549 28.3013 26.8454C28.7118 26.0358 29.4076 25.4069 30.2546 25.0798C31.1016 24.7527 32.0397 24.7507 32.8881 25.074C33.7365 25.3974 34.4351 26.0233 34.8492 26.831L39.0282 34.9836C39.1188 35.1604 39.1688 35.3551 39.1744 35.5537C39.1801 35.7522 39.1413 35.9495 39.0608 36.1311C38.9804 36.3127 38.8604 36.4741 38.7095 36.6034C38.5587 36.7327 38.3809 36.8266 38.189 36.8784Z" fill="#F3F2FF"/>
<path d="M34.5321 111.985H38.1654L39.8941 97.9766L34.5312 97.9769L34.5321 111.985Z" fill="#FFB8B8"/>
<path d="M45.1738 115.357L33.7544 115.358L33.7542 110.948L40.7616 110.948C41.9317 110.948 43.054 111.412 43.8814 112.239C44.7089 113.066 45.1738 114.188 45.1738 115.357Z" fill="#F3F2FF"/>
<path d="M2.14844 108.446L5.54783 109.729L12.116 97.234L7.09905 95.3408L2.14844 108.446Z" fill="#FFB8B8"/>
<path d="M10.9121 115.357L0.228799 111.326L1.78729 107.2L8.34296 109.674C9.43768 110.087 10.3234 110.918 10.8052 111.984C11.287 113.05 11.3254 114.263 10.9121 115.357Z" fill="#F3F2FF"/>
<path d="M34.4182 108.731C34.1366 108.731 33.8623 108.641 33.6346 108.476C33.4069 108.31 33.2377 108.076 33.1511 107.809L23.8839 79.2031C23.8564 79.1183 23.8041 79.0437 23.7337 78.989C23.6633 78.9344 23.578 78.9021 23.489 78.8965C23.4 78.8908 23.3114 78.912 23.2346 78.9574C23.1579 79.0027 23.0965 79.0701 23.0585 79.1507L10.2154 106.464C10.0763 106.759 9.83371 106.993 9.53359 107.122C9.23346 107.25 8.89658 107.264 8.58671 107.161L3.52855 105.476C3.20729 105.368 2.93895 105.143 2.77785 104.845C2.61676 104.547 2.57494 104.199 2.66085 103.871L10.5279 74.0858C11.3511 70.9308 11.9457 67.7205 12.3072 64.48C12.8589 59.1438 15.3618 54.1989 19.3362 50.5936C21.0715 49.0044 22.1995 46.8613 22.5269 44.5318L22.5481 44.3828L34.0692 46.201L41.367 105.722C41.4047 106.041 41.3268 106.362 41.1475 106.628C40.9682 106.894 40.6993 107.087 40.3898 107.172L34.7665 108.685C34.653 108.716 34.5359 108.731 34.4182 108.731Z" fill="#67706B"/>
<path d="M26.1757 20.6628C30.1959 20.6628 33.4549 17.4054 33.4549 13.3871C33.4549 9.3688 30.1959 6.11133 26.1757 6.11133C22.1555 6.11133 18.8965 9.3688 18.8965 13.3871C18.8965 17.4054 22.1555 20.6628 26.1757 20.6628Z" fill="#FFB8B8"/>
<path d="M33.3536 47.4708C33.3308 47.4708 33.308 47.4702 33.285 47.4691L21.864 46.8983C21.5453 46.8839 21.2424 46.7552 21.0109 46.5356C20.7794 46.316 20.6349 46.0204 20.6039 45.703L19.0436 30.498C18.9294 29.3845 19.0893 28.26 19.5095 27.2224C19.9297 26.1849 20.5973 25.2657 21.4542 24.5452C22.3112 23.8246 23.3314 23.3244 24.4261 23.0882C25.5207 22.852 26.6565 22.8869 27.7345 23.1899C28.6277 23.4344 29.46 23.8624 30.1784 24.4465C38.2125 31.0412 35.622 42.99 34.6366 46.4951C34.5594 46.7758 34.392 47.0234 34.1601 47.1997C33.9283 47.376 33.6449 47.4713 33.3536 47.4708Z" fill="#A0DBB8"/>
<path d="M23.416 57.6807C23.098 57.6808 22.7818 57.6334 22.4778 57.5402C22.0381 57.407 21.6316 57.1825 21.2848 56.8813C20.938 56.5801 20.6588 56.2091 20.4654 55.7925C20.2721 55.376 20.169 54.9233 20.1629 54.4642C20.1568 54.005 20.2479 53.5497 20.4301 53.1282C20.4728 53.0303 20.5206 52.9347 20.5733 52.8418L13.7166 40.0205C13.1791 39.0062 12.9832 37.8457 13.1578 36.7112C13.3325 35.5768 13.8685 34.5288 14.6863 33.723L17.8379 30.6406L21.6995 34.8559L19.372 37.6209L24.3043 51.2872C24.4447 51.325 24.5823 51.3727 24.7161 51.4298C25.4051 51.7275 25.9702 52.2538 26.3161 52.9196C26.662 53.5855 26.7674 54.3503 26.6146 55.0848C26.4618 55.8194 26.0602 56.4788 25.4775 56.9517C24.8947 57.4247 24.1666 57.6821 23.416 57.6807Z" fill="#FFB8B8"/>
<path d="M20.0022 37.6189L15.0866 33.3107C14.821 33.0773 14.6588 32.7483 14.6357 32.3956C14.6125 32.0429 14.7303 31.6955 14.9631 31.4295L20.5518 25.059C21.1504 24.3766 21.9806 23.9399 22.8823 23.8331C23.784 23.7263 24.6933 23.957 25.4349 24.4807C26.1765 25.0043 26.6979 25.7838 26.8985 26.669C27.0991 27.5541 26.9648 28.4821 26.5214 29.2741L22.0454 37.2677C21.9483 37.441 21.8138 37.5905 21.6515 37.7052C21.4893 37.8199 21.3035 37.8968 21.1076 37.9305C20.9118 37.9642 20.7109 37.9537 20.5196 37.8998C20.3284 37.8459 20.1516 37.7499 20.0022 37.6189Z" fill="#F3F2FF"/>
<path d="M21.4905 20.4539C22.1547 20.6893 22.9689 20.8968 23.4915 20.4087C24.0017 19.9321 23.9088 19.0605 23.6082 18.4184C23.3077 17.7763 22.8415 17.205 22.6986 16.5061C22.4938 15.5045 23.0234 14.4639 23.7794 13.8109C24.5354 13.1579 25.487 12.8149 26.416 12.4848L31.5116 10.6743C32.7729 10.2262 34.1321 9.69974 34.8379 8.52038C35.8592 6.8139 34.9256 4.37459 33.2503 3.37883C31.5751 2.38307 29.459 2.56857 27.6516 3.26875C26.6519 3.656 25.701 4.18963 24.6672 4.46224C22.6269 5.00024 20.307 4.51759 18.5141 5.66745C16.9533 6.66839 16.2294 8.71075 16.282 10.6217C16.3345 12.5327 17.0385 14.3526 17.781 16.1003C18.2227 17.1401 18.6946 18.1918 19.4429 19.0188C20.1911 19.8457 21.2723 20.4242 22.3524 20.2721L21.4905 20.4539Z" fill="#605A5A"/>
<path d="M14.82 13.0045C18.0937 13.0045 20.7475 10.352 20.7475 7.07991C20.7475 3.80782 18.0937 1.15527 14.82 1.15527C11.5464 1.15527 8.89258 3.80782 8.89258 7.07991C8.89258 10.352 11.5464 13.0045 14.82 13.0045Z" fill="#605A5A"/>
<path d="M62.8953 41.2801L62.7901 41.2656L63.1863 38.3855C63.2471 37.9433 63.1297 37.4952 62.8599 37.1396C62.5901 36.784 62.19 36.5501 61.7477 36.4893L55.6425 35.6504C55.2002 35.5897 54.7518 35.707 54.3961 35.9767C54.0403 36.2463 53.8063 36.6462 53.7455 37.0883L51.5723 52.8895C51.5115 53.3316 51.6289 53.7797 51.8987 54.1353C52.1685 54.4909 52.5686 54.7249 53.0109 54.7856L59.116 55.6245C59.5584 55.6853 60.0067 55.5679 60.3625 55.2983C60.7183 55.0286 60.9523 54.6287 61.0131 54.1866L62.5081 43.3158L62.6133 43.3303L62.8953 41.2801Z" fill="#FEFEFE"/>
<path d="M61.5552 37.3337L60.7951 37.2293C60.8183 37.3197 60.8188 37.4145 60.7967 37.5053C60.7746 37.596 60.7305 37.6799 60.6683 37.7496C60.6061 37.8193 60.5278 37.8726 60.4401 37.9049C60.3524 37.9372 60.2581 37.9474 60.1656 37.9347L56.8295 37.4763C56.7369 37.4636 56.6489 37.4283 56.5732 37.3736C56.4975 37.3188 56.4364 37.2463 56.3953 37.1625C56.3543 37.0786 56.3345 36.9859 56.3377 36.8926C56.3409 36.7992 56.367 36.7081 56.4138 36.6273L55.7038 36.5297C55.5478 36.5083 55.3891 36.5178 55.2367 36.5576C55.0844 36.5975 54.9414 36.667 54.8159 36.7621C54.6904 36.8572 54.5849 36.9761 54.5054 37.1119C54.4259 37.2478 54.3739 37.398 54.3525 37.5539L52.2827 52.6038C52.2393 52.9187 52.323 53.2379 52.5151 53.4912C52.7073 53.7445 52.9923 53.9112 53.3074 53.9545L59.1587 54.7584C59.4738 54.8017 59.7932 54.7181 60.0466 54.5261C60.3001 54.334 60.4668 54.0491 60.5101 53.7342L62.5799 38.6843C62.6232 38.3694 62.5396 38.0502 62.3474 37.7969C62.1552 37.5436 61.8703 37.377 61.5552 37.3337Z" fill="white"/>
<path d="M57.6937 50.0903C59.4942 50.0903 60.9538 48.6314 60.9538 46.8318C60.9538 45.0321 59.4942 43.5732 57.6937 43.5732C55.8932 43.5732 54.4336 45.0321 54.4336 46.8318C54.4336 48.6314 55.8932 50.0903 57.6937 50.0903Z" fill="#A0DBB8"/>
<path d="M57.0823 47.8132C57.0089 47.8133 56.9375 47.7896 56.8788 47.7457L56.8752 47.7429L56.1091 47.1566C56.0734 47.1295 56.0434 47.0956 56.0209 47.0569C55.9983 47.0182 55.9836 46.9754 55.9776 46.9311C55.9717 46.8867 55.9745 46.8415 55.9861 46.7982C55.9976 46.7549 56.0175 46.7144 56.0448 46.6788C56.0721 46.6432 56.1061 46.6134 56.1449 46.591C56.1837 46.5687 56.2266 46.5541 56.271 46.5484C56.3154 46.5426 56.3606 46.5456 56.4038 46.5573C56.4471 46.569 56.4876 46.5891 56.5231 46.6165L57.0193 46.9968L58.1921 45.4682C58.2193 45.4327 58.2532 45.403 58.2919 45.3806C58.3306 45.3582 58.3733 45.3437 58.4176 45.3379C58.4619 45.332 58.507 45.335 58.5502 45.3465C58.5933 45.3581 58.6338 45.378 58.6693 45.4052C58.7408 45.4602 58.7879 45.5414 58.7997 45.6308C58.8115 45.7203 58.7873 45.8107 58.7325 45.8823L57.3531 47.6804C57.3212 47.7219 57.2802 47.7554 57.2332 47.7784C57.1862 47.8014 57.1346 47.8133 57.0823 47.8132Z" fill="white"/>
<path d="M206.988 115.531H3.15357C3.07702 115.531 3.00369 115.481 2.94964 115.391C2.89559 115.301 2.86523 115.18 2.86523 115.054C2.86523 114.927 2.89559 114.806 2.94964 114.717C3.00369 114.627 3.07702 114.577 3.15357 114.576H206.988C207.065 114.576 207.138 114.626 207.192 114.716C207.247 114.806 207.277 114.927 207.277 115.054C207.277 115.18 207.247 115.302 207.192 115.391C207.138 115.481 207.065 115.531 206.988 115.531Z" fill="#CCCCCC"/>
</g>
<defs>
<clipPath id="clip0_0_1">
<rect width="216.829" height="114.623" fill="white" transform="translate(0 0.908203)"/>
</clipPath>
</defs>
</svg>
