<svg width="205" height="154" viewBox="0 0 205 154" fill="none" xmlns="http://www.w3.org/2000/svg">
<path d="M188.605 37.6118C165.369 5.01305 116.285 -8.21042 68.0118 6.03158C42.4914 13.5609 17.8849 28.647 5.6906 57.8586C-16.1081 110.077 29.661 126.755 59.5891 132.07C74.0607 134.64 87.6904 138.958 100.145 144.836C122.553 155.411 162.216 164.782 192.125 120.731C213.803 88.8031 204.082 59.3258 188.605 37.6118Z" fill="#F2F2F2"/>
<path d="M54.3474 43.9114C54.2824 43.3933 54.151 42.886 53.9564 42.402C53.9316 42.3105 53.8881 42.2252 53.8288 42.1515C53.7695 42.0779 53.6956 42.0175 53.6118 41.9742C53.4999 41.9448 53.3825 41.9435 53.27 41.9703L51.5148 42.2411C51.3679 42.2479 51.2273 42.303 51.1144 42.398C50.8858 42.6403 51.1109 43.0306 51.1039 43.365C51.096 43.741 50.7647 44.0463 50.4053 44.1472C50.0385 44.222 49.6601 44.2172 49.2953 44.1334L46.8411 43.7488C47.5639 43.5162 48.2072 43.0833 48.6977 42.4997C49.0207 42.114 49.1925 41.3938 48.7257 41.2111C48.587 41.1728 48.4424 41.1611 48.2995 41.1766C47.1875 41.1854 46.3125 40.2494 45.2716 39.8551C44.6054 39.6191 43.8822 39.6016 43.2054 39.805C42.5287 40.0084 41.9331 40.4223 41.5038 40.9876L42.8112 41.0511C42.9342 41.0443 43.0561 41.0771 43.1594 41.1447C43.4459 41.3821 43.0897 41.838 43.1301 42.2096C43.1825 42.6925 43.8184 42.7955 44.2978 42.8444C44.7771 42.8932 45.3852 43.2859 45.1546 43.7123C42.7454 44.549 40.2937 42.0769 37.7635 42.3812C37.1231 42.4582 36.5184 42.7118 35.8932 42.8713C32.0739 43.8456 28.1254 41.2461 24.2237 41.7966C23.3563 41.9457 22.5038 42.1724 21.6764 42.474C21.1453 42.6498 20.5914 42.8398 20.2056 43.2474C19.8198 43.6551 19.6729 44.3523 20.0384 44.7786C19.031 44.8623 18.0168 44.7651 17.043 44.4915C17.3063 44.6391 17.5254 44.8555 17.6772 45.1178C17.829 45.3802 17.908 45.6789 17.9058 45.9827C16.3327 46.2413 14.8013 46.7121 13.3528 47.3823C13.6231 47.8356 13.9389 48.2597 14.2951 48.648L12.3037 49.9379C12.9765 50.1088 13.3244 51.0337 12.9331 51.6114C13.6307 51.2985 14.0631 50.4891 14.8091 50.3249C15.2978 50.2174 15.7951 50.419 16.2587 50.6083C16.7223 50.7977 17.2319 50.9813 17.7118 50.8392C18.1918 50.6971 18.5458 50.0696 18.2408 49.6699C20.2923 49.0664 22.4124 48.7325 24.5486 48.6763C24.7134 48.6555 24.8806 48.6874 25.0264 48.7677C25.3044 48.9622 25.2313 49.3824 25.2163 49.7233C25.2013 50.0642 25.4648 50.5122 25.767 50.3585C25.4115 50.6694 25.7154 51.2545 26.0566 51.5814C26.3977 51.9083 26.8088 52.3593 26.6 52.7845C26.5455 52.8954 26.453 52.9842 26.4006 53.0962C26.2458 53.4267 26.4915 53.8121 26.7814 54.0316C27.0713 54.251 27.4264 54.4045 27.6278 54.7084C27.8292 55.0123 27.7377 55.5444 27.3776 55.5868L26.3541 54.2766C26.0045 54.6422 25.7647 55.1002 25.6627 55.5976C26.7481 56.4921 26.9113 58.3128 26.0027 59.3891C25.5384 59.9391 24.878 60.2733 24.3017 60.7023C23.7254 61.1313 23.1921 61.7421 23.1936 62.4644C23.1961 63.7122 23.0949 64.8714 23.5587 66.0283C24.4139 68.1615 25.4013 70.2383 26.515 72.2466C26.8074 72.7739 27.1854 73.3519 27.7779 73.4427C27.0291 71.605 26.3551 69.7386 25.7558 67.8437C26.1461 67.8453 26.5972 67.8765 26.826 68.1953C27.0155 68.4593 26.9748 68.8183 27.0337 69.1387C27.1086 69.4492 27.2334 69.7451 27.4033 70.0148L30.9789 76.4361C31.2753 76.9685 31.6153 77.5399 32.1817 77.7554C32.5439 77.8932 32.963 77.8673 33.2963 78.0657C33.5576 78.2212 33.7336 78.4973 34 78.6438C34.7532 79.0581 35.8006 78.2636 36.5045 78.7582C36.7057 78.8996 36.8338 79.1243 37.0192 79.2862C37.6693 79.8538 38.7358 79.4741 39.4862 79.8975C39.9699 80.1704 40.2206 80.7162 40.4785 81.2107C41.1247 82.4496 42.1703 83.6633 43.5552 83.7619C43.9902 83.7929 44.4346 83.7098 44.8598 83.8073C45.285 83.9049 45.7036 84.279 45.6354 84.7133C45.5183 85.4578 45.8832 86.273 45.7852 87.0203C45.6067 88.3815 43.6917 88.9796 43.5272 90.3426C43.4912 90.641 43.5475 90.9491 43.4771 91.2412C43.3907 91.5992 43.124 91.8907 43.0292 92.2465C42.8497 92.9209 43.3289 93.592 43.8553 94.0457C44.3818 94.4994 45.0097 94.8906 45.2975 95.5257C45.6017 96.197 45.4523 96.9797 45.5512 97.7109C45.7672 99.3073 47.1349 100.491 48.5424 101.254C48.9712 101.486 49.4316 101.711 49.7092 102.115C50.0715 102.641 50.0354 103.335 50.1564 103.964C50.4526 105.505 51.7389 106.774 51.7754 108.343C51.8014 109.458 51.1866 110.469 50.8194 111.521C50.4751 112.529 50.3505 113.6 50.4541 114.661C50.5577 115.722 50.8871 116.748 51.4198 117.669C51.6945 118.137 52.0231 118.578 52.2174 119.085C52.5642 119.99 52.4516 121.018 52.7714 121.933C53.1941 123.142 54.3557 124.141 54.2446 125.419C54.7719 126.523 55.9364 127.065 57.1074 127.394L59.2061 127.983C59.6079 128.096 60.0278 128.209 60.437 128.128C60.8462 128.046 61.2367 127.704 61.2261 127.283C60.197 127.049 59.1348 126.8 58.2864 126.168C57.4381 125.536 56.8569 124.41 57.1788 123.397C57.3281 122.927 57.6456 122.385 57.3437 121.997C57.1709 121.774 56.8548 121.716 56.6598 121.514C56.3557 121.197 56.4602 120.666 56.6788 120.285C56.8974 119.904 57.2134 119.563 57.3016 119.131C57.3461 118.89 57.3164 118.641 57.2164 118.417C57.1164 118.193 56.9509 118.005 56.7421 117.879C57.1312 117.731 57.4851 117.502 57.7808 117.207C58.054 116.893 58.1802 116.408 57.9653 116.05C58.6034 116.132 59.3568 116.172 59.7757 115.68C60.1102 115.287 60.0872 114.699 59.9551 114.199C59.8229 113.698 59.5995 113.212 59.5925 112.694C61.0646 112.765 62.5399 112.714 64.0038 112.544C63.7921 111.825 63.3111 111.217 62.6626 110.85C63.3257 110.737 63.9297 109.937 64.1392 109.293C64.3486 108.648 64.2952 107.947 64.1657 107.281C64.116 107.11 64.1092 106.929 64.1459 106.754C64.2206 106.514 64.4543 106.368 64.6706 106.243L67.9616 104.337C68.158 104.238 68.336 104.106 68.4878 103.946C68.8326 103.537 68.7816 102.921 68.605 102.415C68.4285 101.909 68.1457 101.433 68.0777 100.902C67.8743 99.311 69.5632 98.1697 70.1332 96.6723C70.3568 96.0847 70.4024 95.446 70.4457 94.8181C70.4922 94.1437 70.4957 93.3604 69.9821 92.9258C69.4898 92.5093 68.7205 92.6022 68.2054 92.2147C67.7331 91.8594 67.5701 91.1695 67.0541 90.8825C66.5856 90.6219 65.9981 90.7877 65.4769 90.6651C64.5593 90.4493 63.9819 89.3831 63.0448 89.2844C62.516 89.2287 61.9176 89.4893 61.4842 89.1788C61.1024 88.9053 61.0871 88.3554 61.0144 87.8889C60.887 87.1638 60.5423 86.4955 60.0267 85.9739C59.511 85.4524 58.8493 85.1027 58.1305 84.9719C57.5853 84.8838 56.9919 84.9173 56.5282 84.6152C56.0585 84.3094 55.8432 83.7368 55.4743 83.3132C54.8798 82.6306 53.9435 82.388 53.0663 82.1801L49.4984 81.3345C48.8651 81.1844 48.0487 81.1048 47.7088 81.6641C47.6082 81.8771 47.537 82.1029 47.4971 82.3354C47.3697 82.7559 47.1134 83.1248 46.765 83.3892C46.4166 83.6536 45.994 83.7998 45.558 83.8069C45.259 83.2927 44.7746 82.9147 44.2058 82.752C43.844 82.6504 43.4568 82.6391 43.1117 82.4895C42.9238 82.397 42.7566 82.2669 42.6203 82.107C42.484 81.9471 42.3815 81.7608 42.3191 81.5596C42.2567 81.3584 42.2356 81.1465 42.2573 80.9368C42.2789 80.7271 42.3427 80.5241 42.4449 80.3401C42.6506 79.9709 42.73 79.5436 42.671 79.1243C42.6119 78.705 42.4176 78.317 42.118 78.0201C41.5112 77.4709 40.6335 77.3383 39.82 77.3932C39.6069 76.9244 39.9632 76.3956 40.3471 76.0549C40.731 75.7143 41.1972 75.3794 41.2808 74.8707C41.4124 74.0705 40.3997 73.4627 39.6308 73.7013C38.8619 73.9399 38.3711 74.6929 38.0467 75.4351C37.8606 75.861 37.7023 76.3094 37.4087 76.6685C37.1151 77.0276 36.6423 77.2847 36.1951 77.1695C35.562 77.0063 35.3175 76.248 35.1773 75.6044C34.9893 74.7411 34.8002 73.8657 34.8396 72.9826C34.879 72.0996 35.1743 71.1929 35.8202 70.5951C36.8726 69.6209 38.4872 69.7164 39.9075 69.8718C39.572 69.4906 39.6549 68.8482 40.0139 68.4894C40.2035 68.3196 40.4312 68.199 40.6775 68.138C40.9237 68.077 41.1809 68.0775 41.4269 68.1394C41.8549 68.2292 42.2405 68.4617 42.5216 68.7993C42.9252 69.2954 43.04 69.9653 43.3451 70.5285C43.6502 71.0916 44.3362 71.572 44.8977 71.2698C45.3827 71.0089 45.4596 70.3308 45.3389 69.7901C45.2182 69.2494 44.9619 68.7236 45.0056 68.1711C45.089 67.1169 46.1729 66.4823 47.1294 66.0481C48.0859 65.614 49.1812 65.0301 49.3327 63.9836C49.3379 63.7787 49.3762 63.576 49.4462 63.3836C49.5523 63.2136 49.6997 63.0738 49.8745 62.9775C52.6661 61.1176 55.5041 59.2349 58.6947 58.2185C58.8607 58.1657 58.8802 58.2244 59.0493 58.183C59.2861 58.045 59.1292 57.6634 58.9022 57.5097C58.6752 57.3559 58.3718 57.238 58.3142 56.9685C58.2719 56.7704 58.3877 56.5758 58.4178 56.3754C58.4917 55.883 57.9074 55.4284 57.4536 55.6252C57.1973 55.283 57.7045 54.8854 58.1145 54.7716C59.3459 54.4299 60.6099 54.2217 61.8851 54.1506C62.0322 54.127 62.183 54.1529 62.3141 54.2242C62.5283 54.3737 62.501 54.7168 62.3492 54.9303C62.1974 55.1438 61.9613 55.2779 61.7721 55.4585C61.5655 55.6615 61.4181 55.9178 61.346 56.1994C61.274 56.4811 61.28 56.7773 61.3636 57.0557C62.0293 57.3971 62.753 57.7486 63.4903 57.6283C64.2276 57.508 64.882 56.6728 64.5354 56.0058C64.2127 55.3846 63.2433 55.2445 63.0766 54.5637C62.8814 53.7666 64.0006 53.0577 63.7485 52.277C63.6381 51.9351 63.3 51.7338 63.0407 51.4869C62.7343 51.1842 62.526 50.7952 62.4429 50.3709C62.3599 49.9467 62.406 49.507 62.5753 49.1097C62.1528 49.1846 61.7187 49.1563 61.3093 49.0272C60.8999 48.898 60.5272 48.6717 60.2225 48.3674C59.6597 47.7947 59.2107 46.8914 58.4115 46.917C57.6782 46.9406 57.0465 47.8032 56.3608 47.54C56.1921 47.4753 56.0142 47.3435 55.8507 47.4207C55.7972 47.4558 55.7522 47.5026 55.7192 47.5578C55.6863 47.613 55.6662 47.6749 55.6605 47.7391C55.4862 48.5791 55.786 49.5361 55.3319 50.262C54.8378 51.0519 53.6948 51.1614 53.0958 51.8736C52.7706 52.2603 52.6446 52.7813 52.3457 53.1889C52.0468 53.5965 51.4124 53.8557 51.0537 53.5005C51.23 53.1351 51.2781 52.7202 51.1903 52.3237C51.1024 51.9271 50.8837 51.5723 50.5699 51.3173C50.2369 51.0983 49.8779 50.9222 49.5014 50.7933C49.0807 50.6138 48.6804 50.3889 48.3076 50.1226C48.1209 50.009 47.9692 49.8453 47.8694 49.6498C47.7905 49.405 47.8011 49.1398 47.8994 48.9022C48.0813 48.3764 48.4022 47.9108 48.8274 47.5554C49.2526 47.2001 49.766 46.9686 50.3122 46.886C50.7898 46.8204 51.3457 46.8435 51.6617 46.4766C51.829 46.2825 51.9167 45.989 52.1595 45.9102C52.3147 45.8787 52.4759 45.8987 52.619 45.9672L54.4016 46.5998C54.6005 46.6904 54.8194 46.7269 55.0367 46.7057C55.1444 46.6911 55.2426 46.636 55.3117 46.5513C55.3807 46.4667 55.4155 46.3589 55.409 46.2496C55.352 45.9511 54.8965 45.8079 54.9379 45.5068C54.9611 45.4093 55.0132 45.3211 55.0871 45.254C55.7304 44.5636 56.5172 44.0252 57.3911 43.6773C58.265 43.3294 59.2043 43.1806 60.1419 43.2415C60.3669 43.614 60.0111 44.0552 59.715 44.3733C59.4189 44.6913 59.181 45.2596 59.539 45.5044C59.6858 45.5799 59.849 45.617 60.0137 45.6122C60.4526 45.6721 60.8791 45.8025 61.277 45.9985C61.893 46.2688 62.4972 46.5645 63.0896 46.8857C63.0372 46.4919 62.9873 46.0771 63.1353 45.7089C63.2834 45.3407 63.7041 45.0519 64.0716 45.1953C64.4258 45.3335 64.6074 45.8063 64.9847 45.8496C65.4881 45.9074 65.6867 45.1577 65.4764 44.693C65.2662 44.2283 64.85 43.8392 64.8152 43.3297C64.7918 42.9859 64.9215 42.5596 64.6492 42.3515C64.5523 42.289 64.4422 42.2501 64.3278 42.2379L57.5274 40.9762C57.1236 40.9013 56.5401 40.9587 56.5222 41.3723C56.5122 41.6031 56.7168 41.8315 56.6262 42.0438C56.5295 42.2703 56.2119 42.2496 55.9805 42.3297C55.6216 42.454 55.4414 42.8838 55.4759 43.2649C55.539 43.6435 55.6845 44.0034 55.9019 44.3187C55.4595 44.1322 54.7898 44.0979 54.3474 43.9114Z" fill="#19241D"/>
<path d="M48.9216 38.0914C48.4928 37.9483 48.0307 37.9417 47.598 38.0723C47.1653 38.203 46.7829 38.4646 46.5026 38.8218C46.3907 38.9704 46.2966 39.1754 46.3904 39.3363C46.5248 39.5671 46.8672 39.4759 47.1197 39.3934C47.4908 39.2597 47.8947 39.25 48.2717 39.3657C48.5087 39.4477 48.7208 39.5928 48.9589 39.6717C49.0748 39.7206 49.2018 39.7367 49.3261 39.7184C49.4504 39.7001 49.5674 39.648 49.6646 39.5678C49.828 39.3997 49.8383 39.1385 49.8386 38.9032C49.8499 38.8244 49.8436 38.7441 49.8203 38.6681C49.7969 38.5921 49.757 38.5223 49.7035 38.4639C49.6082 38.4082 49.5011 38.3763 49.3911 38.3707C49.1447 38.3247 48.922 38.1935 48.7613 37.9997" fill="#19241D"/>
<path d="M51.3734 37.4032C51.2774 37.3979 51.1817 37.4176 51.0955 37.4604C51.0093 37.5032 50.9354 37.5677 50.881 37.6476C50.8266 37.7274 50.7936 37.8201 50.785 37.9166C50.7764 38.0131 50.7925 38.1102 50.8319 38.1986C51.1266 38.2796 51.4346 38.2999 51.7372 38.2581C51.8882 38.2345 52.0288 38.1663 52.1414 38.0623C52.254 37.9582 52.3336 37.8228 52.37 37.6732C52.0136 37.7386 51.6459 37.6678 51.3386 37.4746" fill="#19241D"/>
<path d="M59.6007 36.2536C58.7986 36.4255 58.0194 36.6924 57.2793 37.0486C57.6282 37.1838 57.9248 37.4285 58.1253 37.7465C58.3259 38.0645 58.4198 38.439 58.3933 38.8149C58.362 38.9592 58.3656 39.109 58.4039 39.2516C58.4891 39.46 58.7362 39.5381 58.9534 39.5916C59.3436 39.7114 59.7511 39.7638 60.1586 39.7467C60.3625 39.736 60.5605 39.6741 60.7347 39.5668C60.9089 39.4595 61.0538 39.3101 61.1563 39.1321C61.2154 38.9632 61.2846 38.798 61.3638 38.6376C61.8844 37.8382 63.431 38.8048 63.99 38.0322C64.1869 37.76 64.1689 37.3503 64.4256 37.1347C64.5584 37.0407 64.7123 36.9815 64.8734 36.9624C65.9975 36.7372 67.1329 36.5742 68.2747 36.474C68.8157 36.4265 69.5208 36.2307 69.5253 35.6832C67.4876 35.2797 65.3748 35.5663 63.5153 36.4983C62.8454 36.8367 61.9593 37.5483 61.314 37.0998C61.0723 36.9318 61.0843 36.4796 60.7517 36.2908C60.4117 36.0977 59.9617 36.1763 59.6007 36.2536Z" fill="#19241D"/>
<path d="M66.2646 37.5099L67.2211 37.6952C67.045 37.6874 66.8693 37.7174 66.7057 37.7835C66.5421 37.8495 66.3943 37.9499 66.2722 38.0781C66.1501 38.2063 66.0566 38.3592 65.9978 38.5267C65.939 38.6942 65.9163 38.8724 65.9312 39.0495C66.827 39.3512 67.8035 39.0576 68.7471 39.0977C69.6907 39.1378 70.7885 39.8173 70.6274 40.7556C70.5787 41.0392 70.4162 41.3227 70.5007 41.5977C70.56 41.7905 70.7286 41.9272 70.8237 42.1047C71.022 42.4747 70.8635 42.9425 70.6131 43.2788C70.3627 43.6151 70.0261 43.8834 69.8063 44.2407C69.2597 45.1295 69.5703 46.2785 69.8959 47.2715C69.9901 47.6467 70.164 47.9967 70.4055 48.2975C70.888 48.8147 71.6742 48.8597 72.3783 48.87C72.8908 48.8776 73.4779 48.852 73.802 48.4517C74.2251 47.929 73.9293 47.1136 74.2079 46.5002C74.4609 45.9431 75.1055 45.7041 75.6895 45.5346C76.7594 45.224 77.8497 44.96 78.8612 44.491C80.1172 43.9085 81.2911 43.0008 82.6716 42.9258C83.0589 42.9048 83.4558 42.9509 83.8288 42.8439C84.2019 42.7369 84.5563 42.4117 84.5281 42.0217C84.5039 41.6885 84.2243 41.4438 84.0058 41.1926C83.7873 40.9414 83.6157 40.5551 83.8165 40.2893L87.435 39.6079C87.1785 38.9032 86.9787 37.975 87.5681 37.5163C87.7808 37.3507 88.0655 37.2846 88.2465 37.0845C88.5551 36.7435 88.4 36.156 88.0437 35.8659C87.6875 35.5759 87.2058 35.5086 86.7495 35.4704C85.1629 35.3375 83.5671 35.4253 81.9774 35.5132C78.8699 35.6849 75.7624 35.8566 72.6548 36.0284C72.0293 36.0629 71.307 36.0101 70.7333 36.2253C70.2475 36.4074 69.9022 36.7418 69.3467 36.8593C68.3211 37.0762 67.1926 36.9294 66.2646 37.5099Z" fill="#19241D"/>
<path d="M83.4001 45.1324C83.3027 45.1169 83.203 45.1397 83.1217 45.1961C83.068 45.2557 83.036 45.3321 83.0311 45.4125C82.9693 45.7676 83.0429 46.133 83.237 46.4357C83.3359 46.5841 83.4724 46.7032 83.6324 46.7805C83.7923 46.8578 83.9699 46.8906 84.1467 46.8753C84.5774 46.82 84.8948 46.4495 85.2907 46.2687C85.901 45.9904 88.4927 45.5564 86.6999 44.5799C86.0821 44.2434 85.6828 44.5405 85.1959 44.7621C84.6418 45.0479 84.021 45.1759 83.4001 45.1324Z" fill="#19241D"/>
<path d="M99.1037 36.9586C98.8943 37.0449 98.7192 37.1986 98.6056 37.3957C98.5533 37.4958 98.5411 37.6124 98.5717 37.7213C98.6022 37.8302 98.6731 37.9231 98.7697 37.9808C98.8479 38.0093 98.9307 38.0226 99.0139 38.0198L99.8651 38.0455C100.227 38.0564 100.678 38.134 100.776 38.4853C100.848 38.7462 100.686 39.0814 100.881 39.2679C100.965 39.3332 101.065 39.3727 101.171 39.3817C101.451 39.4544 101.744 39.4639 102.028 39.4096C102.648 39.2422 102.322 38.861 102.517 38.5217C102.816 38.0025 102.764 38.3168 103.29 38.0192C103.678 37.7994 104.18 37.4008 103.856 36.8407C103.292 35.8666 99.9355 36.5402 99.1037 36.9586Z" fill="#19241D"/>
<path d="M115.904 36.4688L115.41 36.5353C114.296 36.6853 113.175 36.8366 112.101 37.1741C112.566 37.3593 113.053 37.4799 113.55 37.5326C113.824 37.5461 114.096 37.585 114.362 37.6489C114.836 37.7912 115.314 38.1587 115.772 37.9705C116.056 37.8537 116.149 37.5556 116.384 37.3976C116.546 37.2884 117.163 37.1118 117.232 37.0017C117.788 36.1114 116.332 36.4112 115.904 36.4688Z" fill="#19241D"/>
<path d="M118.075 38.7339C117.415 39.1061 116.802 39.5584 116.251 40.0807C116.019 40.3008 115.782 40.5745 115.803 40.8952C115.831 41.3213 116.281 41.5685 116.671 41.735L118.251 42.4095C118.443 42.1371 118.267 41.7611 118.069 41.4934C117.871 41.2258 117.636 40.9161 117.723 40.594C117.823 40.2264 118.268 40.1011 118.64 40.0378C119.248 39.9346 120.886 39.9429 120.689 38.956C120.457 37.7932 118.685 38.3903 118.075 38.7339Z" fill="#19241D"/>
<path d="M117.757 104.54C117.606 104.979 117.592 105.496 117.852 105.879C118.144 106.309 118.728 106.47 119.234 106.361C119.737 106.226 120.186 105.935 120.517 105.529C120.82 105.189 121.068 104.804 121.255 104.388C121.515 103.739 121.699 103.062 121.802 102.37L122.293 99.7733C122.402 99.1929 122.398 97.4135 121.34 97.9933C121.051 98.1516 120.382 99.4021 120.079 99.7567C119.533 100.396 119.46 101.016 119.173 101.79C118.813 102.76 118.089 103.568 117.757 104.54Z" fill="#19241D"/>
<path d="M173.641 117.829C173.295 117.693 172.959 117.531 172.636 117.346C172.312 118.245 172.139 119.191 172.126 120.147L174.495 118.795C174.851 118.592 175.255 118.31 175.248 117.897C175.251 117.846 175.24 117.795 175.217 117.749C175.194 117.704 175.16 117.666 175.117 117.638C175.064 117.617 175.007 117.61 174.951 117.619C174.599 117.648 174.279 117.822 173.948 117.944C173.616 118.065 173.229 118.129 172.925 117.949" fill="#3F3D56"/>
<path d="M186.138 118.631C185.878 118.703 185.624 118.795 185.379 118.906C184.835 119.185 184.465 119.715 183.976 120.082C183.508 120.434 182.944 120.627 182.391 120.814C182.228 120.959 182.303 121.252 182.48 121.379C182.67 121.488 182.887 121.537 183.105 121.521C183.68 121.534 184.286 121.539 184.789 121.259C185.073 121.074 185.338 120.861 185.582 120.625C186.17 120.13 186.877 119.803 187.577 119.487C187.832 119.39 188.067 119.248 188.273 119.068C188.712 118.631 188.743 117.958 188.109 117.809C187.597 117.689 186.626 118.472 186.138 118.631Z" fill="#19241D"/>
<path d="M191.661 114.995C191.689 114.694 191.649 114.391 191.545 114.108C191.44 113.826 191.273 113.57 191.056 113.362C191.049 113.964 191.031 114.604 190.696 115.101C190.457 115.456 190.082 115.695 189.82 116.032C189.559 116.37 189.442 116.905 189.749 117.201C189.946 117.352 190.185 117.435 190.432 117.438C191.043 117.51 191.751 117.551 192.179 117.105C192.413 116.862 192.527 116.502 192.813 116.324C192.919 116.279 193.014 116.21 193.091 116.123C193.208 115.934 193.021 115.685 192.81 115.617C192.6 115.549 192.367 115.581 192.155 115.517C191.944 115.452 191.749 115.212 191.858 115.017" fill="#19241D"/>
<path d="M181.846 92.9494C181.525 93.028 181.193 93.0477 180.866 93.0076C180.321 92.9068 179.898 92.4932 179.458 92.154C178.414 91.3522 177.144 90.9049 175.831 90.8764C174.637 90.8537 173.432 91.1799 172.259 90.9523C172.336 91.3819 172.701 91.7042 173.09 91.8957C173.479 92.0873 173.908 92.1836 174.299 92.3713C174.925 92.6748 175.422 93.1957 175.698 93.8384C175.824 94.1348 175.903 94.4572 176.094 94.716C176.484 95.2448 177.223 95.361 177.875 95.3177C178.725 95.2613 179.613 95.0148 180.404 95.3342C181.009 95.5785 181.442 96.1125 181.948 96.5277C182.453 96.9429 183.165 97.2511 183.745 96.9515C183.142 96.7548 182.618 96.369 182.248 95.8505C181.878 95.332 181.682 94.7079 181.689 94.0693C182.258 94.1221 183.897 94.1017 183.809 93.1268C183.734 92.3007 182.335 92.8602 181.846 92.9494Z" fill="#19241D"/>
<path d="M174.402 99.6711C174.503 99.1124 175.056 98.619 174.884 98.0783C174.765 97.7043 174.335 97.5197 173.945 97.5105C173.556 97.5013 173.173 97.6182 172.784 97.6293C172.53 97.6157 172.276 97.6193 172.023 97.6401C171.25 97.7682 170.774 98.5851 170.045 98.8755C169.603 99.0521 169.105 99.0184 168.644 99.1404C167.599 99.4176 166.937 100.414 166.206 101.217C165.025 102.509 163.486 103.414 161.789 103.814C161.195 103.953 160.556 104.041 160.083 104.431C159.457 104.946 159.303 105.83 159.164 106.633C158.779 108.849 158.191 111.025 157.408 113.132L159.891 113.452C160.363 113.513 160.852 113.572 161.307 113.431C161.637 113.306 161.95 113.137 162.238 112.931C163.344 112.239 164.582 111.788 165.871 111.609C166.521 111.519 167.203 111.502 167.813 111.746C168.424 111.99 168.947 112.542 168.998 113.202C169.262 113.119 169.543 113.11 169.812 113.176C170.08 113.242 170.326 113.38 170.523 113.576C170.912 113.975 171.166 114.488 171.251 115.041C171.316 115.383 171.381 115.794 171.697 115.937C171.954 116.055 172.249 115.928 172.53 115.906C173.485 115.829 174.277 116.951 175.215 116.758C176.221 116.55 176.469 115.031 177.45 114.727C178.014 114.552 178.805 114.764 179.075 114.235C179.313 113.769 178.838 113.232 178.887 112.71C178.947 112.067 179.699 111.794 180.279 111.52C182.277 110.575 183.225 107.863 182.257 105.864C181.683 104.679 180.554 103.746 180.346 102.445C180.186 101.443 180.577 100.275 179.944 99.4871C179.622 99.0861 179.076 98.8648 178.885 98.3863C178.764 98.0851 178.812 97.7434 178.747 97.4252C178.682 97.1071 178.407 96.7743 178.096 96.8567C177.191 97.0961 176.902 99.9134 176.418 100.598C175.682 101.638 174.17 100.953 174.402 99.6711Z" fill="#19241D"/>
<path d="M157.682 94.0138C157.373 93.9264 157.036 93.8403 156.739 93.9652C156.443 94.0901 156.27 94.5285 156.508 94.7461C158.368 94.673 160.239 94.6005 162.083 94.8551C164.207 95.1485 166.31 95.8752 168.444 95.6614C167.225 95.2989 165.986 95.009 164.733 94.7933L162.644 94.391C162.084 94.2727 161.517 94.1845 160.948 94.1267C159.756 94.0275 158.854 94.3451 157.682 94.0138Z" fill="#3F3D56"/>
<path d="M159.544 87.4836C159.39 87.4706 159.198 87.4594 159.118 87.5933C159.042 87.7211 159.129 87.8901 159.088 88.0335C159.032 88.2293 158.778 88.2794 158.577 88.2527C158.377 88.226 158.16 88.1622 157.983 88.2596C157.892 88.3217 157.825 88.4115 157.79 88.5156C157.754 88.6197 157.754 88.7325 157.788 88.8371C157.86 89.0447 157.978 89.2335 158.131 89.3898C158.394 89.7235 158.693 90.0262 159.024 90.292C159.663 90.7677 160.529 90.9969 160.931 91.6874C160.988 91.8213 161.075 91.9397 161.186 92.0332C161.379 92.1566 161.631 92.0627 161.84 91.9669L162.569 91.6308C162.7 91.5831 162.818 91.5027 162.91 91.397C163.077 91.1691 162.974 90.845 162.834 90.5994C162.694 90.3538 162.515 90.0997 162.545 89.8181C162.599 89.3161 163.239 89.1241 163.502 88.6946C163.768 88.2616 163.595 87.7038 163.626 87.1958C163.661 86.6016 164.032 85.8288 163.436 85.385C162.93 85.0077 162.446 85.3563 162.082 85.7728C161.316 86.6511 160.953 87.6023 159.544 87.4836Z" fill="#19241D"/>
<path d="M163.972 78.6067C164.221 79.0874 164.74 79.3743 165.011 79.8424C165.306 80.3499 165.272 81.0055 165.591 81.4973C165.919 82.0019 166.578 82.2698 166.762 82.8437C166.962 83.4703 166.507 84.2319 166.87 84.7794C166.938 84.8689 167.023 84.9433 167.121 84.9977C167.218 85.0522 167.326 85.0857 167.437 85.096C167.549 85.1063 167.661 85.0932 167.766 85.0576C167.872 85.0219 167.97 84.9645 168.052 84.8889C168.205 84.721 168.287 84.4995 168.28 84.2717C168.274 84.0438 168.179 83.8276 168.017 83.6691C167.802 83.4717 167.493 83.3863 167.314 83.1557C167.221 83.0226 167.158 82.8699 167.132 82.7091C167.034 82.2451 167.05 81.7641 167.178 81.3076C167.226 81.1917 167.238 81.0639 167.213 80.941C167.132 80.7044 166.814 80.6876 166.591 80.5778C166.085 80.3286 166.097 79.6078 166.185 79.0466C166.127 79.4203 164.806 78.7847 164.668 78.5731C164.394 78.1526 164.543 77.3416 164.489 76.877C163.896 77.165 163.667 78.019 163.972 78.6067Z" fill="#19241D"/>
<path d="M150.672 86.0028C150.428 85.7278 150.061 85.4401 149.734 85.606C149.485 85.7325 149.417 86.0802 149.514 86.3437C149.633 86.5997 149.817 86.8199 150.046 86.9826C150.727 87.5486 151.46 88.0595 152.054 88.7175C153.116 89.8951 153.679 91.484 154.835 92.5688C155.068 92.8203 155.375 92.9882 155.711 93.0467C156.048 93.0783 156.426 92.861 156.465 92.5223C156.497 92.2432 156.304 91.9935 156.115 91.7867C155.666 91.2943 155.175 90.8411 154.751 90.3266C154.555 90.1289 154.432 89.8699 154.402 89.5922C154.4 89.3152 154.65 89.0252 154.917 89.0938C154.593 89.0104 154.353 88.4666 153.878 88.3643C153.48 88.2789 153.384 88.5268 152.912 88.3224C152.01 87.9326 151.303 86.7153 150.672 86.0028Z" fill="#3F3D56"/>
<path d="M171.853 59.225C171.594 59.1475 171.34 59.0559 171.091 58.9507C170.422 58.7482 169.536 59.2442 169.625 59.9429C169.685 60.4072 170.113 60.7202 170.35 61.1229C170.701 61.7201 170.607 62.4776 170.423 63.1464C170.378 63.3535 170.292 63.5492 170.17 63.7221C169.999 63.9046 169.796 64.0523 169.57 64.1571C168.666 64.6681 167.869 65.3508 167.223 66.1675C167.153 66.2429 167.104 66.3359 167.081 66.4369C167.049 66.6728 167.284 66.8447 167.417 67.0414C167.713 67.4785 167.499 68.0667 167.528 68.5948C167.524 68.6695 167.538 68.7441 167.571 68.8115C167.603 68.8789 167.651 68.937 167.712 68.9801C167.89 69.0713 168.101 68.9164 168.198 68.7402C168.518 68.1552 168.277 67.2162 168.877 66.9341C168.991 66.8808 169.129 66.8583 169.205 66.7576C169.325 66.598 169.209 66.3616 169.27 66.1707C169.361 65.8842 169.75 65.8713 170.048 65.884C170.562 65.9057 171.076 65.8367 171.566 65.6803C171.759 65.6341 171.933 65.5321 172.069 65.3869C172.248 65.1609 172.232 64.8396 172.197 64.5523C172.017 63.12 171.567 61.7355 170.871 60.4738C171.399 60.5417 171.973 60.6006 172.428 60.3233C172.683 60.168 172.989 59.7037 172.862 59.3876C172.662 58.8878 172.301 59.3085 171.853 59.225Z" fill="#19241D"/>
<path d="M104.195 67.1028C104.258 67.4443 104.32 67.8039 104.209 68.1328C104.098 68.4616 103.749 68.7364 103.419 68.6357C103.163 68.5575 103.015 68.298 102.834 68.1002C101.823 67.0003 99.543 67.6371 98.9187 66.2763C98.6639 65.7209 98.837 65.0555 98.6632 64.4692C98.5536 64.1304 98.3354 63.8379 98.043 63.6376C97.7506 63.4373 97.4005 63.3406 97.0476 63.3627C96.7258 63.4096 96.4126 63.5038 96.1179 63.6425C94.1441 64.4395 92.0719 64.962 89.9583 65.1958C89.5566 65.2204 89.1593 65.2933 88.7748 65.4129C87.9069 65.7301 87.3139 66.5413 86.8919 67.369C86.4699 68.1968 86.1584 69.0929 85.5926 69.8283C84.998 70.6012 84.1648 71.1424 83.3876 71.7279C83.0882 71.9224 82.8388 72.1858 82.6601 72.4965C82.4916 72.8453 82.5011 73.2509 82.5142 73.6387L82.6731 78.3476C82.6935 78.9533 82.7192 79.5807 82.988 80.1227C83.3238 80.7996 83.9871 81.2429 84.4472 81.8408C84.9168 82.4553 85.1614 83.2144 85.1397 83.9898C85.1299 84.3016 85.0992 84.6703 85.34 84.8661C85.4865 84.9618 85.6579 85.0115 85.8325 85.0089L92.1505 85.5302C93.2619 85.6219 94.4936 85.7727 95.2192 86.6264C95.5616 87.0293 95.8367 87.6087 96.3613 87.6519C96.5863 87.6704 96.8052 87.5773 97.0302 87.5593C97.598 87.514 98.0967 87.9485 98.4115 88.427C98.8879 89.1564 99.1042 90.0274 99.0248 90.897C98.9731 91.4429 98.8053 91.9736 98.7691 92.5207C98.6314 94.6026 100.382 96.4114 100.416 98.4976C100.436 99.7247 99.858 100.871 99.2946 101.959C100.204 103.348 99.4593 105.197 99.8213 106.82C100.165 108.361 101.438 109.566 101.756 111.112C101.901 111.82 101.909 112.691 102.528 113.055C102.8 113.189 103.101 113.249 103.403 113.232C105.222 113.253 107.021 112.84 108.651 112.027C109.417 111.644 110.21 111.072 110.343 110.222C110.451 109.535 110.106 108.768 110.457 108.17C110.871 107.466 111.932 107.522 112.541 106.98C113.529 106.102 112.758 104.426 113.159 103.161C113.519 102.023 114.757 101.419 115.371 100.398C115.613 99.959 115.786 99.4852 115.885 98.9932C116.167 97.8171 116.342 96.6178 116.409 95.4099C116.425 94.676 116.479 93.9435 116.569 93.2151C117.231 89.0685 121.297 86.2919 122.617 82.3084C122.744 81.928 122.803 81.4213 122.467 81.206C122.268 81.1102 122.042 81.0864 121.828 81.1385L118.915 81.5087C118.554 81.5547 118.17 81.5977 117.838 81.4462C117.506 81.2947 117.268 80.871 117.444 80.5492C117.938 79.6458 116.921 78.5042 116.469 77.5785C115.251 75.0856 113.802 72.7151 112.139 70.499C112.033 70.385 111.966 70.2391 111.949 70.0834L112.776 70.1112C112.497 69.1017 112.036 67.9971 111.064 67.6279C110.515 67.4198 109.908 67.4917 109.324 67.5239C107.649 67.6162 105.853 67.3612 104.195 67.1028Z" fill="#19241D"/>
<path d="M109.325 44.3549C109.764 44.8242 110.255 45.3218 110.889 45.4036C112.009 45.548 112.814 44.3802 113.327 43.3657C113.346 43.6244 113.465 43.8653 113.657 44.0373C113.849 44.2094 114.101 44.2989 114.358 44.2869C114.634 44.24 114.898 44.136 115.133 43.9814C117.352 42.7586 119.838 42.1106 122.368 42.0959C122.343 41.9027 122.391 41.7073 122.501 41.5474C122.611 41.3875 122.776 41.2744 122.964 41.2299C123.478 41.1271 123.942 41.5754 124.19 42.041C124.438 42.5066 124.592 43.0463 124.987 43.3948C125.381 43.7433 126.144 43.7282 126.299 43.2235C126.449 42.7389 125.948 42.3257 125.532 42.0401C125.116 41.7544 124.678 41.2257 124.958 40.8041C127.083 40.3298 129.221 39.8538 131.396 39.7595C131.766 39.7725 132.135 39.7085 132.479 39.5713C132.811 39.4073 133.075 39.0348 132.985 38.6734C132.511 38.7859 132.014 38.7533 131.558 38.5799C131.102 38.4064 130.707 38.1 130.424 37.6995C133.442 37.4485 136.651 37.2346 139.325 38.6659C139.646 39.3604 138.01 39.9383 138.448 40.5647C138.587 40.7644 138.867 40.7879 139.109 40.7924C140.968 40.8272 142.837 40.8613 144.674 40.5784C145.345 40.4751 146.023 40.3292 146.697 40.413C147.82 40.5526 148.78 41.3079 149.885 41.5541C150.334 41.6543 150.839 41.6577 151.218 41.3941C151.597 41.1305 151.759 40.5302 151.449 40.1875C152.489 39.1598 154.215 39.4145 155.587 39.9065C156.959 40.3985 158.259 41.1919 159.711 41.3016C160.752 41.3802 161.808 41.0978 162.837 41.2773C163.483 41.3901 164.085 41.6801 164.717 41.8583C165.912 42.1953 167.177 42.1241 168.418 42.1404C171.584 42.1834 174.716 42.8108 177.658 43.9915C178.041 44.1171 178.391 44.326 178.685 44.6034C178.959 44.8989 179.099 45.3582 178.915 45.7176L175.874 45.2697C176.161 45.8382 176.902 45.9351 177.504 46.1312C178.105 46.3274 178.729 46.9974 178.368 47.5205C177.716 47.3112 177.125 47.9685 176.795 48.5732C176.466 49.178 176.065 49.9022 175.381 49.939C174.769 49.972 174.029 49.4467 173.631 49.9158C174.182 50.6166 174.653 51.3772 175.037 52.1834C175.431 53.011 175.712 54.0539 175.179 54.7986C175.096 54.9315 174.969 55.0309 174.82 55.0796C174.385 55.1906 174.102 54.6541 173.79 54.329C173.397 53.9192 172.803 53.8032 172.271 53.611C171.738 53.4188 171.178 53.0408 171.136 52.4723C171.11 52.1186 171.295 51.7898 171.432 51.4629C171.661 50.9119 171.761 50.315 171.725 49.7186C171.695 49.2387 171.561 48.7396 171.22 48.4044C170.878 48.0691 170.288 47.9627 169.921 48.2698C169.75 48.4131 169.612 48.6423 169.39 48.6508C168.997 48.666 168.696 47.9754 168.38 48.2112C168.417 48.4623 168.365 48.7186 168.234 48.9353C167.29 49.7623 165.842 49.4124 164.626 49.7046C164.047 49.8714 163.494 50.1151 162.979 50.4293C162.787 50.5123 162.623 50.6508 162.509 50.8275C162.357 51.1249 162.525 51.5057 162.792 51.7035C163.076 51.8789 163.395 51.9886 163.725 52.0247C165.208 52.3077 166.712 52.7459 167.882 53.7058C169.052 54.6658 169.82 56.2526 169.45 57.7271L166.526 54.911C166.637 56.0934 166.7 57.2791 166.715 58.4681C166.734 58.7002 166.703 58.9337 166.623 59.1523C166.414 59.6163 165.849 59.7725 165.354 59.875C165.217 59.9013 165.086 59.9568 164.971 60.0376C164.856 60.1185 164.76 60.2229 164.688 60.3441C164.616 60.4653 164.57 60.6005 164.553 60.7408C164.537 60.8811 164.55 61.0233 164.592 61.1581C164.768 61.736 165.206 62.1866 165.608 62.6355C166.009 63.0845 166.404 63.5947 166.457 64.1969C166.509 64.799 166.059 65.4777 165.461 65.4359C165.007 65.4041 164.671 64.9949 164.477 64.5802C164.284 64.1655 164.169 63.7036 163.878 63.3512C162.999 62.2847 161.023 62.7417 160.235 61.6047C160.035 61.8344 159.895 62.112 159.831 62.4113C159.766 62.7105 159.779 63.0214 159.867 63.3144C160.233 63.083 160.735 63.298 161.011 63.6341C161.286 63.9703 161.416 64.4013 161.632 64.7788C161.924 65.2883 162.389 65.74 162.429 66.3269C162.419 66.5488 162.422 66.7712 162.44 66.9927C162.513 67.3483 162.811 67.6036 163.018 67.9009C163.499 68.5925 163.475 69.5427 163.165 70.3274C162.855 71.1122 162.298 71.7679 161.746 72.4037C160.783 73.5141 159.799 74.618 158.657 75.5401C158.331 75.8033 157.983 76.062 157.78 76.4299C157.577 76.7978 157.567 77.3141 157.879 77.594C157.656 77.6052 157.255 77.7159 157.032 77.7272C156.954 76.8244 156.937 75.9173 156.981 75.0121C156.1 74.5857 155.152 75.7277 155.265 76.7062C155.379 77.6847 156.081 78.4699 156.581 79.3165C156.946 79.9355 157.218 80.6574 157.096 81.3672C156.974 82.0771 156.345 82.7319 155.634 82.6693C154.501 82.5697 154.028 80.9309 152.906 80.7433C152.807 80.7199 152.704 80.7303 152.611 80.7728C152.445 80.8649 152.416 81.0895 152.407 81.2807C152.361 82.219 152.321 83.1947 152.684 84.0598C153.216 85.3255 154.589 86.3885 154.301 87.7319C152.749 87.0047 151.942 85.2504 151.576 83.5652C151.21 81.88 151.149 80.111 150.492 78.5179C149.994 79.1622 148.946 78.6296 148.49 77.9537C148.058 77.3129 147.792 76.5716 147.373 75.9222C146.954 75.2727 146.312 74.6912 145.545 74.6555C144.74 74.6181 144.042 75.1749 143.428 75.701C142.923 76.1336 142.405 76.5833 142.11 77.1813C141.681 78.0516 141.793 79.0775 141.772 80.0493C141.75 81.0998 141.529 82.2082 140.819 82.9773C140.109 83.7463 138.798 84.0142 138.015 83.3211C137.606 82.9592 137.408 82.4186 137.231 81.8996C136.381 79.398 135.673 76.8496 135.111 74.2668C134.979 74.8563 134.466 75.6161 133.975 75.2689C133.865 75.1755 133.776 75.0597 133.714 74.929C132.799 73.3657 131.104 72.4279 129.392 71.8656C127.681 71.3034 125.879 71.0411 124.186 70.4232C123.238 70.0767 122.332 69.6217 121.486 69.0669C121.27 69.3863 121.144 69.7585 121.121 70.1441C121.099 70.5297 121.18 70.9144 121.356 71.2574C121.732 71.9277 122.581 72.3156 123.309 72.0813C123.685 71.9602 124.002 71.6971 124.375 71.5672C124.748 71.4372 125.249 71.501 125.412 71.8633C125.568 72.2101 125.332 72.6296 125.449 72.9917C125.627 73.5432 126.452 73.5857 126.741 74.0875C126.955 74.4609 126.779 74.9567 126.472 75.258C126.166 75.5593 125.757 75.7245 125.383 75.9343C124.169 76.6148 123.306 77.7765 122.245 78.6803C121.184 79.5841 119.688 80.244 118.423 79.6642C118.725 78.1258 116.907 76.9963 116.573 75.4647C116.462 74.9606 116.52 74.4252 116.362 73.9339C116.135 73.2227 115.509 72.7337 114.996 72.1947C114.373 71.5338 113.888 70.7539 113.569 69.901C113.25 69.048 113.104 68.1393 113.139 67.2284C113.166 66.5955 113.282 65.9522 113.139 65.3352C112.996 64.7183 112.489 64.1212 111.861 64.1491C110.427 64.213 108.621 64.3205 107.869 63.0881C107.6 62.6483 107.483 62.0041 107.871 61.6671C108.145 61.4294 108.549 61.4518 108.909 61.4875L112.14 61.8079C112.896 61.8828 113.712 61.9447 114.361 61.5464C115.009 61.1481 115.29 60.0909 114.69 59.6224C114.251 59.28 113.465 59.2985 113.338 58.7542C113.231 58.3008 113.729 57.7864 113.46 57.4075C113.267 57.1359 112.834 57.2112 112.572 57.4149C112.309 57.6186 112.118 57.9164 111.825 58.0706C111.309 58.3411 110.693 58.0836 110.138 57.9087C109.584 57.7337 108.84 57.7189 108.571 58.2382C108.27 58.8191 108.838 59.5802 108.539 60.1623C108.145 60.9318 106.808 60.4937 106.253 61.1556C105.617 61.9152 106.686 63.0478 106.472 64.0181C106.198 64.1549 105.893 64.2177 105.588 64.2004C105.283 64.1831 104.987 64.0863 104.73 63.9195C104.478 63.7462 104.276 63.507 104.147 63.2274C104.019 62.9479 103.968 62.6384 104 62.3318C104.053 61.8953 104.278 61.4497 104.127 61.0372C104.005 60.7037 103.673 60.5052 103.364 60.3332L100.224 58.5841C99.9329 59.1292 100.301 59.8051 100.762 60.2146C101.223 60.624 101.8 60.9324 102.103 61.4713C102.295 61.8447 102.338 62.2777 102.223 62.6819C102.109 63.0861 101.846 63.431 101.488 63.6462C101.443 63.6774 101.392 63.6985 101.338 63.7079C101.284 63.7174 101.229 63.715 101.176 63.7009C101.126 63.6712 101.083 63.6317 101.048 63.5847C101.013 63.5377 100.988 63.4842 100.974 63.4273C100.421 61.998 99.5888 60.5889 98.2591 59.8423C96.9294 59.0956 95.0188 59.2492 94.1468 60.5069C93.9397 60.8056 93.8007 61.1461 93.6203 61.4619C92.6618 63.1399 90.6068 63.9345 88.6869 63.8826C88.4991 63.8931 88.3122 63.8488 88.1487 63.7551C87.8384 63.539 87.8524 63.0805 87.8999 62.7034L88.1014 61.1028C88.1419 60.7814 88.2005 60.4261 88.4528 60.2255C88.8085 59.9426 89.3216 60.1211 89.7746 60.1145C90.1177 60.0983 90.4476 59.9762 90.7196 59.7645C90.9916 59.5529 91.1924 59.2621 91.2949 58.9316C91.3864 58.5977 91.3858 58.2451 91.2932 57.9115C91.2006 57.578 91.0195 57.2763 90.7694 57.0389C90.5618 56.8423 90.2831 56.5953 90.3928 56.3303C90.4365 56.257 90.4957 56.1943 90.5661 56.1465C90.6365 56.0987 90.7164 56.067 90.8002 56.0537C91.6138 55.8155 92.4735 55.7531 93.2736 55.472C94.0736 55.1909 94.8495 54.6159 95.039 53.7833C95.097 53.5282 95.1235 53.2191 95.3508 53.0926C95.4648 53.0441 95.5873 53.0189 95.7111 53.0184C96.1449 52.9562 96.5398 52.7325 96.8182 52.3914C97.0965 52.0504 97.2382 51.6166 97.2152 51.1755C97.5986 50.9054 98.1358 51.104 98.5067 51.3913C98.8777 51.6786 99.2051 52.0582 99.6565 52.1821C100.498 52.4129 101.31 51.662 102.182 51.6585C102.549 51.6571 102.928 51.7878 103.273 51.6625C103.623 51.5354 103.831 51.1846 104.1 50.9253C104.368 50.6661 104.839 50.508 105.087 50.7873L104.876 49.2116C105.301 49.3198 105.744 49.3352 106.175 49.2565C106.606 49.1779 107.016 49.0072 107.376 48.7558L104.649 47.8269C104.554 47.803 104.467 47.7558 104.394 47.6895C104.196 47.4742 104.393 47.1389 104.554 46.8942C104.94 46.3089 105.005 45.3448 104.37 45.0534C103.937 44.8545 103.441 45.0933 103.025 45.3268L101.035 46.4457C100.972 46.8271 101.434 47.0433 101.721 47.3002C101.894 47.4556 102.017 47.6603 102.073 47.8874C102.129 48.1145 102.116 48.3533 102.034 48.5725C101.953 48.7917 101.808 48.981 101.618 49.1156C101.429 49.2502 101.203 49.3237 100.971 49.3266C101.102 49.4984 101.193 49.6977 101.237 49.9098C101.282 50.1219 101.278 50.3413 101.227 50.5518L99.8877 50.6489C99.7374 50.6793 99.5812 50.6486 99.4533 50.5634C99.3101 50.4352 99.3295 50.2104 99.2963 50.0202C99.2162 49.5612 98.7704 49.2394 98.3154 49.1569C97.8603 49.0744 97.3948 49.1802 96.9442 49.2846C96.7529 49.354 96.5428 49.3491 96.3549 49.2709C96.2471 49.2003 96.1652 49.0961 96.1217 48.9741C95.9242 48.4912 96.1088 47.9237 96.4261 47.5107C96.7433 47.0977 97.1777 46.7958 97.5677 46.4521C98.5005 45.6269 99.1858 44.5552 99.5463 43.358C100.283 43.0466 101.047 42.6235 101.784 42.3121C102.92 41.732 104.195 41.483 105.464 41.5932L107.961 41.6413C108.7 41.6555 109.459 41.6738 110.142 41.9579C110.826 42.242 111.426 42.8564 111.473 43.6002C111.488 43.6844 111.48 43.7709 111.452 43.8515C111.424 43.9322 111.377 44.0043 111.313 44.0611C111.217 44.1143 111.108 44.1391 110.998 44.1329C110.308 44.1573 110.014 44.3305 109.325 44.3549Z" fill="#19241D"/>
<path d="M89.4261 52.243C89.5236 52.15 89.5938 52.0316 89.629 51.9009C89.6641 51.7702 89.6628 51.6323 89.6253 51.5023C89.388 51.41 89.1298 51.3862 88.8798 51.4338C88.6298 51.4814 88.398 51.5984 88.2104 51.7717C88.0625 51.9225 87.935 52.0924 87.8313 52.2769C87.5033 52.8165 87.2131 53.461 87.4032 54.0642C87.4187 54.13 87.4471 54.192 87.4867 54.2466C87.5262 54.3011 87.5762 54.3472 87.6337 54.382C87.7189 54.4165 87.8108 54.431 87.9024 54.4245C88.2637 54.424 88.6248 54.4016 88.9835 54.3574C89.2038 54.3302 89.4597 54.2675 89.5448 54.0609C89.6567 53.7892 89.3858 53.4818 89.4648 53.1987C89.5167 53.0721 89.5955 52.9584 89.6955 52.8656C89.7451 52.8189 89.7832 52.7612 89.8068 52.697C89.8305 52.6328 89.8389 52.564 89.8315 52.496C89.7997 52.3631 89.5979 52.2877 89.5253 52.4031" fill="#19241D"/>
<path d="M91.3004 49.7937C90.9794 49.7193 90.6484 49.6984 90.3207 49.7316C90.2482 49.7294 90.1764 49.7459 90.1119 49.7795C90.0495 49.8259 90.0042 49.892 89.9833 49.9673C89.9141 50.1913 89.9311 50.4333 90.031 50.6453C90.1308 50.8572 90.3062 51.0234 90.5221 51.1108C90.6398 51.1381 90.7526 51.1838 90.8563 51.2462C91.1334 51.4629 90.9567 51.906 91.0092 52.2556C91.0681 52.6482 91.445 52.9777 91.3759 53.3686C91.3215 53.6765 90.9952 53.9204 91.0477 54.2287C91.1028 54.5516 91.5092 54.6486 91.8331 54.6744C92.0209 54.7076 92.2141 54.6853 92.3895 54.6102C92.5654 54.4889 92.6904 54.3063 92.7406 54.0976C92.8732 53.6996 92.9289 53.2797 92.9047 52.8605C92.9033 52.6699 92.8558 52.4825 92.7664 52.3145C92.6688 52.1814 92.5607 52.0566 92.4431 51.9412C91.8224 51.2134 92.4759 50.1277 91.3004 49.7937Z" fill="#19241D"/>
<path opacity="0.8" d="M172.915 106.812C172.915 106.812 125.379 79.3019 104.914 84.5144C104.914 84.5144 61.5433 89.2201 56.5168 99.5726C56.5168 99.5726 42.73 56.1354 37.7036 54.6875" stroke="#A0DBB8" stroke-width="2" stroke-miterlimit="10"/>
<path opacity="0.8" d="M56.5169 99.5726C64.4873 78.1436 136.294 54.3979 136.294 54.3979C126.097 57.0042 104.914 84.5144 104.914 84.5144C104.914 84.5144 60.1072 51.6469 37.7036 54.6875C37.7036 54.6875 136.365 57.9453 172.915 106.812" stroke="#B0E0C4" stroke-width="2" stroke-miterlimit="10"/>
<path d="M37.7035 56.7868C38.8535 56.7868 39.7859 55.8469 39.7859 54.6874C39.7859 53.5279 38.8535 52.5879 37.7035 52.5879C36.5534 52.5879 35.6211 53.5279 35.6211 54.6874C35.6211 55.8469 36.5534 56.7868 37.7035 56.7868Z" fill="#A0DBB8"/>
<path d="M56.5169 101.672C57.667 101.672 58.5993 100.732 58.5993 99.5726C58.5993 98.4131 57.667 97.4731 56.5169 97.4731C55.3669 97.4731 54.4346 98.4131 54.4346 99.5726C54.4346 100.732 55.3669 101.672 56.5169 101.672Z" fill="#A0DBB8"/>
<path d="M136.294 56.4973C137.444 56.4973 138.376 55.5573 138.376 54.3978C138.376 53.2383 137.444 52.2983 136.294 52.2983C135.144 52.2983 134.211 53.2383 134.211 54.3978C134.211 55.5573 135.144 56.4973 136.294 56.4973Z" fill="#A0DBB8"/>
<path d="M172.915 108.912C174.065 108.912 174.997 107.972 174.997 106.812C174.997 105.653 174.065 104.713 172.915 104.713C171.765 104.713 170.833 105.653 170.833 106.812C170.833 107.972 171.765 108.912 172.915 108.912Z" fill="#A0DBB8"/>
<path d="M104.914 86.6137C106.064 86.6137 106.997 85.6738 106.997 84.5143C106.997 83.3548 106.064 82.4148 104.914 82.4148C103.764 82.4148 102.832 83.3548 102.832 84.5143C102.832 85.6738 103.764 86.6137 104.914 86.6137Z" fill="#A0DBB8"/>
</svg>
