<svg width="205" height="154" viewBox="0 0 205 154" fill="none" xmlns="http://www.w3.org/2000/svg">
<path d="M188.605 37.6118C165.369 5.01305 116.285 -8.21042 68.0118 6.03158C42.4914 13.5609 17.8849 28.647 5.6906 57.8586C-16.1081 110.077 29.661 126.755 59.5891 132.07C74.0607 134.64 87.6904 138.958 100.145 144.836C122.553 155.411 162.216 164.782 192.125 120.731C213.803 88.8031 204.082 59.3258 188.605 37.6118Z" fill="#A8A8A8"/>
<path d="M54.3484 43.9114C54.2834 43.3933 54.152 42.886 53.9573 42.402C53.9325 42.3105 53.8891 42.2252 53.8298 42.1515C53.7704 42.0779 53.6966 42.0175 53.6128 41.9742C53.5009 41.9448 53.3835 41.9435 53.271 41.9703L51.5158 42.2411C51.3689 42.2479 51.2283 42.303 51.1154 42.398C50.8868 42.6403 51.1119 43.0306 51.1049 43.365C51.097 43.741 50.7656 44.0463 50.4063 44.1472C50.0395 44.222 49.6611 44.2172 49.2962 44.1334L46.842 43.7488C47.5648 43.5162 48.2082 43.0833 48.6987 42.4997C49.0216 42.114 49.1935 41.3938 48.7267 41.2111C48.588 41.1728 48.4434 41.1611 48.3004 41.1766C47.1885 41.1854 46.3135 40.2494 45.2726 39.8551C44.6063 39.6191 43.8831 39.6016 43.2064 39.805C42.5297 40.0084 41.9341 40.4223 41.5048 40.9876L42.8121 41.0511C42.9351 41.0443 43.0571 41.0771 43.1604 41.1447C43.4469 41.3821 43.0907 41.838 43.1311 42.2096C43.1835 42.6925 43.8194 42.7955 44.2987 42.8444C44.7781 42.8932 45.3862 43.2859 45.1556 43.7123C42.7464 44.549 40.2947 42.0769 37.7645 42.3812C37.1241 42.4582 36.5194 42.7118 35.8942 42.8713C32.0748 43.8456 28.1263 41.2461 24.2247 41.7966C23.3573 41.9457 22.5048 42.1724 21.6773 42.474C21.1463 42.6498 20.5924 42.8398 20.2066 43.2474C19.8207 43.6551 19.6739 44.3523 20.0394 44.7786C19.032 44.8623 18.0178 44.7651 17.044 44.4915C17.3073 44.6391 17.5264 44.8555 17.6782 45.1178C17.83 45.3802 17.9089 45.6789 17.9067 45.9827C16.3337 46.2413 14.8023 46.7121 13.3538 47.3823C13.6241 47.8356 13.9399 48.2597 14.2961 48.648L12.3047 49.9379C12.9775 50.1088 13.3253 51.0337 12.9341 51.6114C13.6317 51.2985 14.0641 50.4891 14.81 50.3249C15.2988 50.2174 15.796 50.419 16.2597 50.6083C16.7233 50.7977 17.2329 50.9813 17.7128 50.8392C18.1928 50.6971 18.5468 50.0696 18.2418 49.6699C20.2932 49.0664 22.4134 48.7325 24.5496 48.6763C24.7144 48.6555 24.8816 48.6874 25.0273 48.7677C25.3054 48.9622 25.2323 49.3824 25.2173 49.7233C25.2023 50.0642 25.4658 50.5122 25.768 50.3585C25.4125 50.6694 25.7164 51.2545 26.0575 51.5814C26.3986 51.9083 26.8098 52.3593 26.6009 52.7845C26.5464 52.8954 26.454 52.9842 26.4015 53.0962C26.2467 53.4267 26.4925 53.8121 26.7824 54.0316C27.0723 54.251 27.4274 54.4045 27.6288 54.7084C27.8302 55.0123 27.7387 55.5444 27.3786 55.5868L26.3551 54.2766C26.0054 54.6422 25.7657 55.1002 25.6637 55.5976C26.7491 56.4921 26.9123 58.3128 26.0037 59.3891C25.5393 59.9391 24.879 60.2733 24.3027 60.7023C23.7264 61.1313 23.1931 61.7421 23.1945 62.4644C23.1971 63.7122 23.0959 64.8714 23.5597 66.0283C24.4149 68.1615 25.4023 70.2383 26.516 72.2466C26.8084 72.7739 27.1864 73.3519 27.7789 73.4427C27.0301 71.605 26.3561 69.7386 25.7568 67.8437C26.1471 67.8453 26.5982 67.8765 26.827 68.1953C27.0165 68.4593 26.9758 68.8183 27.0347 69.1387C27.1096 69.4492 27.2344 69.7451 27.4043 70.0148L30.9798 76.4361C31.2762 76.9685 31.6162 77.5399 32.1827 77.7554C32.5449 77.8932 32.9639 77.8673 33.2973 78.0657C33.5586 78.2212 33.7346 78.4973 34.001 78.6438C34.7542 79.0581 35.8016 78.2636 36.5055 78.7582C36.7067 78.8996 36.8348 79.1243 37.0202 79.2862C37.6703 79.8538 38.7367 79.4741 39.4872 79.8975C39.9709 80.1704 40.2215 80.7162 40.4795 81.2107C41.1257 82.4496 42.1713 83.6633 43.5562 83.7619C43.9912 83.7929 44.4356 83.7098 44.8608 83.8073C45.286 83.9049 45.7046 84.279 45.6363 84.7133C45.5193 85.4578 45.8842 86.273 45.7862 87.0203C45.6077 88.3815 43.6927 88.9796 43.5282 90.3426C43.4921 90.641 43.5485 90.9491 43.478 91.2412C43.3917 91.5992 43.125 91.8907 43.0302 92.2465C42.8506 92.9209 43.3298 93.592 43.8563 94.0457C44.3827 94.4994 45.0107 94.8906 45.2985 95.5257C45.6027 96.197 45.4533 96.9797 45.5522 97.7109C45.7682 99.3073 47.1358 100.491 48.5433 101.254C48.9722 101.486 49.4326 101.711 49.7102 102.115C50.0724 102.641 50.0364 103.335 50.1573 103.964C50.4536 105.505 51.7399 106.774 51.7764 108.343C51.8023 109.458 51.1876 110.469 50.8204 111.521C50.4761 112.529 50.3515 113.6 50.4551 114.661C50.5587 115.722 50.8881 116.748 51.4207 117.669C51.6955 118.137 52.024 118.578 52.2184 119.085C52.5652 119.99 52.4526 121.018 52.7724 121.933C53.1951 123.142 54.3567 124.141 54.2455 125.419C54.7729 126.523 55.9374 127.065 57.1084 127.394L59.207 127.983C59.6089 128.096 60.0288 128.209 60.438 128.128C60.8472 128.046 61.2377 127.704 61.2271 127.283C60.1979 127.049 59.1358 126.8 58.2874 126.168C57.4391 125.536 56.8579 124.41 57.1798 123.397C57.329 122.927 57.6466 122.385 57.3447 121.997C57.1718 121.774 56.8558 121.716 56.6608 121.514C56.3567 121.197 56.4612 120.666 56.6798 120.285C56.8984 119.904 57.2144 119.563 57.3026 119.131C57.3471 118.89 57.3174 118.641 57.2174 118.417C57.1173 118.193 56.9518 118.005 56.743 117.879C57.1322 117.731 57.4861 117.502 57.7818 117.207C58.055 116.893 58.1812 116.408 57.9663 116.05C58.6044 116.132 59.3578 116.172 59.7767 115.68C60.1112 115.287 60.0882 114.699 59.956 114.199C59.8239 113.698 59.6005 113.212 59.5935 112.694C61.0656 112.765 62.5409 112.714 64.0048 112.544C63.7931 111.825 63.312 111.217 62.6636 110.85C63.3266 110.737 63.9307 109.937 64.1401 109.293C64.3496 108.648 64.2962 107.947 64.1667 107.281C64.117 107.11 64.1102 106.929 64.1469 106.754C64.2215 106.514 64.4553 106.368 64.6715 106.243L67.9626 104.337C68.1589 104.238 68.337 104.106 68.4888 103.946C68.8336 103.537 68.7825 102.921 68.606 102.415C68.4294 101.909 68.1467 101.433 68.0786 100.902C67.8752 99.311 69.5642 98.1697 70.1341 96.6723C70.3578 96.0847 70.4034 95.446 70.4467 94.8181C70.4932 94.1437 70.4966 93.3604 69.983 92.9258C69.4907 92.5093 68.7215 92.6022 68.2063 92.2147C67.734 91.8594 67.5711 91.1695 67.0551 90.8825C66.5865 90.6219 65.999 90.7877 65.4779 90.6651C64.5603 90.4493 63.9828 89.3831 63.0457 89.2844C62.517 89.2287 61.9186 89.4893 61.4852 89.1788C61.1034 88.9053 61.0881 88.3554 61.0154 87.8889C60.888 87.1638 60.5433 86.4955 60.0276 85.9739C59.512 85.4524 58.8502 85.1027 58.1315 84.9719C57.5863 84.8838 56.9929 84.9173 56.5291 84.6152C56.0595 84.3094 55.8442 83.7368 55.4753 83.3132C54.8808 82.6306 53.9444 82.388 53.0673 82.1801L49.4994 81.3345C48.8661 81.1844 48.0497 81.1048 47.7098 81.6641C47.6092 81.8771 47.5379 82.1029 47.4981 82.3354C47.3707 82.7559 47.1144 83.1248 46.766 83.3892C46.4176 83.6536 45.995 83.7998 45.559 83.8069C45.26 83.2927 44.7756 82.9147 44.2068 82.752C43.845 82.6504 43.4578 82.6391 43.1127 82.4895C42.9248 82.397 42.7576 82.2669 42.6213 82.107C42.485 81.9471 42.3825 81.7608 42.3201 81.5596C42.2576 81.3584 42.2366 81.1465 42.2582 80.9368C42.2799 80.7271 42.3437 80.5241 42.4459 80.3401C42.6516 79.9709 42.731 79.5436 42.6719 79.1243C42.6128 78.705 42.4185 78.317 42.119 78.0201C41.5122 77.4709 40.6345 77.3383 39.8209 77.3932C39.6079 76.9244 39.9641 76.3956 40.3481 76.0549C40.732 75.7143 41.1982 75.3794 41.2818 74.8707C41.4133 74.0705 40.4007 73.4627 39.6318 73.7013C38.8629 73.9399 38.3721 74.6929 38.0477 75.4351C37.8616 75.861 37.7033 76.3094 37.4097 76.6685C37.1161 77.0276 36.6433 77.2847 36.1961 77.1695C35.563 77.0063 35.3184 76.248 35.1783 75.6044C34.9903 74.7411 34.8012 73.8657 34.8406 72.9826C34.88 72.0996 35.1753 71.1929 35.8211 70.5951C36.8736 69.6209 38.4881 69.7164 39.9085 69.8718C39.5729 69.4906 39.6559 68.8482 40.0149 68.4894C40.2045 68.3196 40.4322 68.199 40.6784 68.138C40.9246 68.077 41.1819 68.0775 41.4279 68.1394C41.8559 68.2292 42.2415 68.4617 42.5225 68.7993C42.9262 69.2954 43.041 69.9653 43.346 70.5285C43.6511 71.0916 44.3371 71.572 44.8987 71.2698C45.3836 71.0089 45.4606 70.3308 45.3399 69.7901C45.2192 69.2494 44.9628 68.7236 45.0066 68.1711C45.09 67.1169 46.1739 66.4823 47.1304 66.0481C48.0869 65.614 49.1822 65.0301 49.3337 63.9836C49.3389 63.7787 49.3772 63.576 49.4472 63.3836C49.5533 63.2136 49.7007 63.0738 49.8755 62.9775C52.667 61.1176 55.505 59.2349 58.6957 58.2185C58.8617 58.1657 58.8811 58.2244 59.0503 58.183C59.2871 58.045 59.1302 57.6634 58.9032 57.5097C58.6762 57.3559 58.3728 57.238 58.3152 56.9685C58.2729 56.7704 58.3887 56.5758 58.4187 56.3754C58.4926 55.883 57.9084 55.4284 57.4546 55.6252C57.1983 55.283 57.7055 54.8854 58.1155 54.7716C59.3469 54.4299 60.6109 54.2217 61.8861 54.1506C62.0332 54.127 62.184 54.1529 62.3151 54.2242C62.5293 54.3737 62.5019 54.7168 62.3501 54.9303C62.1984 55.1438 61.9622 55.2779 61.7731 55.4585C61.5664 55.6615 61.419 55.9178 61.347 56.1994C61.2749 56.4811 61.281 56.7773 61.3645 57.0557C62.0302 57.3971 62.754 57.7486 63.4913 57.6283C64.2286 57.508 64.883 56.6728 64.5364 56.0058C64.2137 55.3846 63.2443 55.2445 63.0776 54.5637C62.8824 53.7666 64.0016 53.0577 63.7495 52.277C63.639 51.9351 63.301 51.7338 63.0416 51.4869C62.7353 51.1842 62.5269 50.7952 62.4439 50.3709C62.3609 49.9467 62.407 49.507 62.5763 49.1097C62.1538 49.1846 61.7197 49.1563 61.3103 49.0272C60.9009 48.898 60.5282 48.6717 60.2234 48.3674C59.6606 47.7947 59.2117 46.8914 58.4125 46.917C57.6791 46.9406 57.0475 47.8032 56.3617 47.54C56.193 47.4753 56.0152 47.3435 55.8517 47.4207C55.7981 47.4558 55.7532 47.5026 55.7202 47.5578C55.6872 47.613 55.6672 47.6749 55.6614 47.7391C55.4872 48.5791 55.787 49.5361 55.3329 50.262C54.8387 51.0519 53.6958 51.1614 53.0967 51.8736C52.7716 52.2603 52.6456 52.7813 52.3467 53.1889C52.0478 53.5965 51.4134 53.8557 51.0547 53.5005C51.231 53.1351 51.2791 52.7202 51.1912 52.3237C51.1034 51.9271 50.8847 51.5723 50.5709 51.3173C50.2379 51.0983 49.8789 50.9222 49.5024 50.7933C49.0816 50.6138 48.6814 50.3889 48.3086 50.1226C48.1219 50.009 47.9702 49.8453 47.8704 49.6498C47.7915 49.405 47.8021 49.1398 47.9004 48.9022C48.0823 48.3764 48.4031 47.9108 48.8284 47.5554C49.2536 47.2001 49.767 46.9686 50.3132 46.886C50.7908 46.8204 51.3466 46.8435 51.6627 46.4766C51.8299 46.2825 51.9177 45.989 52.1604 45.9102C52.3157 45.8787 52.4769 45.8987 52.62 45.9672L54.4026 46.5998C54.6015 46.6904 54.8204 46.7269 55.0376 46.7057C55.1453 46.6911 55.2436 46.636 55.3126 46.5513C55.3817 46.4667 55.4164 46.3589 55.4099 46.2496C55.353 45.9511 54.8975 45.8079 54.9389 45.5068C54.9621 45.4093 55.0141 45.3211 55.0881 45.254C55.7314 44.5636 56.5182 44.0252 57.3921 43.6773C58.2659 43.3294 59.2053 43.1806 60.1429 43.2415C60.3679 43.614 60.012 44.0552 59.716 44.3733C59.4199 44.6913 59.1819 45.2596 59.54 45.5044C59.6867 45.5799 59.85 45.617 60.0146 45.6122C60.4535 45.6721 60.8801 45.8025 61.278 45.9985C61.894 46.2688 62.4982 46.5645 63.0905 46.8857C63.0382 46.4919 62.9883 46.0771 63.1363 45.7089C63.2843 45.3407 63.7051 45.0519 64.0726 45.1953C64.4268 45.3335 64.6084 45.8063 64.9857 45.8496C65.4891 45.9074 65.6876 45.1577 65.4774 44.693C65.2671 44.2283 64.8509 43.8392 64.8162 43.3297C64.7928 42.9859 64.9225 42.5596 64.6501 42.3515C64.5532 42.289 64.4432 42.2501 64.3288 42.2379L57.5284 40.9762C57.1246 40.9013 56.5411 40.9587 56.5232 41.3723C56.5132 41.6031 56.7178 41.8315 56.6272 42.0438C56.5305 42.2703 56.2128 42.2496 55.9815 42.3297C55.6225 42.454 55.4424 42.8838 55.4769 43.2649C55.54 43.6435 55.6855 44.0034 55.9028 44.3187C55.4605 44.1322 54.7907 44.0979 54.3484 43.9114Z" fill="#19241D"/>
<path d="M48.9211 38.0914C48.4923 37.9483 48.0302 37.9417 47.5975 38.0723C47.1648 38.203 46.7824 38.4646 46.5022 38.8218C46.3902 38.9704 46.2961 39.1754 46.3899 39.3363C46.5243 39.5671 46.8667 39.4759 47.1192 39.3934C47.4903 39.2597 47.8942 39.25 48.2712 39.3657C48.5082 39.4477 48.7203 39.5928 48.9584 39.6717C49.0743 39.7206 49.2013 39.7367 49.3256 39.7184C49.4499 39.7001 49.5669 39.648 49.6641 39.5678C49.8275 39.3997 49.8378 39.1385 49.8381 38.9032C49.8494 38.8244 49.8432 38.7441 49.8198 38.6681C49.7964 38.5921 49.7565 38.5223 49.703 38.4639C49.6077 38.4082 49.5006 38.3763 49.3906 38.3707C49.1442 38.3247 48.9215 38.1935 48.7608 37.9997" fill="#19241D"/>
<path d="M51.3739 37.4032C51.2779 37.3979 51.1822 37.4176 51.096 37.4604C51.0097 37.5032 50.9359 37.5677 50.8815 37.6476C50.8271 37.7274 50.794 37.8201 50.7854 37.9166C50.7769 38.0131 50.793 38.1102 50.8324 38.1986C51.1271 38.2796 51.435 38.2999 51.7377 38.2581C51.8887 38.2345 52.0293 38.1663 52.1419 38.0623C52.2545 37.9582 52.3341 37.8228 52.3705 37.6732C52.0141 37.7386 51.6464 37.6678 51.3391 37.4746" fill="#19241D"/>
<path d="M59.6007 36.2536C58.7986 36.4255 58.0194 36.6924 57.2793 37.0486C57.6282 37.1838 57.9248 37.4285 58.1253 37.7465C58.3259 38.0645 58.4198 38.439 58.3933 38.8149C58.362 38.9592 58.3656 39.109 58.4039 39.2516C58.4891 39.46 58.7362 39.5381 58.9534 39.5916C59.3436 39.7114 59.7511 39.7638 60.1586 39.7467C60.3625 39.736 60.5605 39.6741 60.7347 39.5668C60.9089 39.4595 61.0538 39.3101 61.1563 39.1321C61.2154 38.9632 61.2846 38.798 61.3638 38.6376C61.8844 37.8382 63.431 38.8048 63.99 38.0322C64.1869 37.76 64.1689 37.3503 64.4256 37.1347C64.5584 37.0407 64.7123 36.9815 64.8734 36.9624C65.9975 36.7372 67.1329 36.5742 68.2747 36.474C68.8157 36.4265 69.5208 36.2307 69.5253 35.6832C67.4876 35.2797 65.3748 35.5663 63.5153 36.4983C62.8454 36.8367 61.9593 37.5483 61.314 37.0998C61.0723 36.9318 61.0843 36.4796 60.7517 36.2908C60.4117 36.0977 59.9617 36.1763 59.6007 36.2536Z" fill="#19241D"/>
<path d="M66.2655 37.5099L67.2221 37.6952C67.046 37.6874 66.8703 37.7174 66.7067 37.7835C66.543 37.8495 66.3953 37.9499 66.2732 38.0781C66.1511 38.2063 66.0576 38.3592 65.9988 38.5267C65.94 38.6942 65.9173 38.8724 65.9322 39.0495C66.8279 39.3512 67.8045 39.0576 68.7481 39.0977C69.6916 39.1378 70.7895 39.8173 70.6284 40.7556C70.5797 41.0392 70.4172 41.3227 70.5017 41.5977C70.5609 41.7905 70.7295 41.9272 70.8247 42.1047C71.023 42.4747 70.8645 42.9425 70.6141 43.2788C70.3637 43.6151 70.0271 43.8834 69.8073 44.2407C69.2607 45.1295 69.5712 46.2785 69.8969 47.2715C69.9911 47.6467 70.1649 47.9967 70.4065 48.2975C70.889 48.8147 71.6752 48.8597 72.3793 48.87C72.8918 48.8776 73.4789 48.852 73.803 48.4517C74.2261 47.929 73.9303 47.1136 74.2088 46.5002C74.4618 45.9431 75.1064 45.7041 75.6904 45.5346C76.7604 45.224 77.8507 44.96 78.8622 44.491C80.1182 43.9085 81.292 43.0008 82.6726 42.9258C83.0599 42.9048 83.4568 42.9509 83.8298 42.8439C84.2029 42.7369 84.5573 42.4117 84.529 42.0217C84.5049 41.6885 84.2253 41.4438 84.0068 41.1926C83.7883 40.9414 83.6167 40.5551 83.8175 40.2893L87.436 39.6079C87.1795 38.9032 86.9797 37.975 87.5691 37.5163C87.7817 37.3507 88.0665 37.2846 88.2475 37.0845C88.5561 36.7435 88.401 36.156 88.0447 35.8659C87.6885 35.5759 87.2068 35.5086 86.7505 35.4704C85.1639 35.3375 83.5681 35.4253 81.9784 35.5132C78.8709 35.6849 75.7634 35.8566 72.6558 36.0284C72.0303 36.0629 71.308 36.0101 70.7342 36.2253C70.2485 36.4074 69.9032 36.7418 69.3476 36.8593C68.3221 37.0762 67.1935 36.9294 66.2655 37.5099Z" fill="#19241D"/>
<path d="M83.4001 45.1324C83.3027 45.1169 83.203 45.1397 83.1217 45.1961C83.068 45.2557 83.036 45.3321 83.0311 45.4125C82.9693 45.7676 83.0429 46.133 83.237 46.4357C83.3359 46.5841 83.4724 46.7032 83.6324 46.7805C83.7923 46.8578 83.9699 46.8906 84.1467 46.8753C84.5774 46.82 84.8948 46.4495 85.2907 46.2687C85.901 45.9904 88.4927 45.5564 86.6999 44.5799C86.0821 44.2434 85.6828 44.5405 85.1959 44.7621C84.6418 45.0479 84.021 45.1759 83.4001 45.1324Z" fill="#19241D"/>
<path d="M99.1032 36.9586C98.8938 37.0449 98.7187 37.1986 98.6051 37.3957C98.5528 37.4958 98.5407 37.6124 98.5712 37.7213C98.6017 37.8302 98.6726 37.9231 98.7692 37.9808C98.8474 38.0093 98.9303 38.0226 99.0134 38.0198L99.8646 38.0455C100.226 38.0564 100.678 38.134 100.775 38.4853C100.847 38.7462 100.686 39.0814 100.881 39.2679C100.964 39.3332 101.065 39.3727 101.17 39.3817C101.451 39.4544 101.743 39.4639 102.028 39.4096C102.647 39.2422 102.322 38.861 102.517 38.5217C102.815 38.0025 102.764 38.3168 103.289 38.0192C103.678 37.7994 104.18 37.4008 103.856 36.8407C103.292 35.8666 99.935 36.5402 99.1032 36.9586Z" fill="#19241D"/>
<path d="M115.905 36.4688L115.411 36.5353C114.296 36.6853 113.175 36.8366 112.102 37.1741C112.566 37.3593 113.054 37.4799 113.551 37.5326C113.824 37.5461 114.096 37.585 114.363 37.6489C114.837 37.7912 115.314 38.1587 115.773 37.9705C116.057 37.8537 116.149 37.5556 116.385 37.3976C116.547 37.2884 117.163 37.1118 117.232 37.0017C117.789 36.1114 116.333 36.4112 115.905 36.4688Z" fill="#19241D"/>
<path d="M118.074 38.7339C117.414 39.1061 116.802 39.5584 116.25 40.0807C116.018 40.3008 115.781 40.5745 115.802 40.8952C115.83 41.3213 116.28 41.5685 116.67 41.735L118.251 42.4095C118.442 42.1371 118.267 41.7611 118.069 41.4934C117.871 41.2258 117.635 40.9161 117.723 40.594C117.823 40.2264 118.267 40.1011 118.64 40.0378C119.247 39.9346 120.886 39.9429 120.689 38.956C120.457 37.7932 118.684 38.3903 118.074 38.7339Z" fill="#19241D"/>
<path d="M117.756 104.54C117.606 104.979 117.591 105.496 117.852 105.879C118.144 106.309 118.728 106.47 119.234 106.361C119.737 106.226 120.186 105.935 120.517 105.529C120.819 105.189 121.068 104.804 121.254 104.388C121.515 103.739 121.698 103.062 121.801 102.37L122.292 99.7733C122.402 99.1929 122.397 97.4135 121.339 97.9933C121.05 98.1516 120.381 99.4021 120.078 99.7567C119.532 100.396 119.46 101.016 119.173 101.79C118.813 102.76 118.089 103.568 117.756 104.54Z" fill="#19241D"/>
<path d="M173.64 117.829C173.294 117.693 172.958 117.531 172.635 117.346C172.311 118.245 172.138 119.191 172.125 120.147L174.494 118.795C174.85 118.592 175.254 118.31 175.247 117.897C175.25 117.846 175.24 117.795 175.216 117.749C175.193 117.704 175.159 117.666 175.116 117.638C175.063 117.617 175.006 117.61 174.95 117.619C174.598 117.648 174.278 117.822 173.947 117.944C173.615 118.065 173.228 118.129 172.924 117.949" fill="#3F3D56"/>
<path d="M186.138 118.631C185.878 118.703 185.624 118.795 185.379 118.906C184.835 119.185 184.465 119.715 183.976 120.082C183.508 120.434 182.944 120.627 182.391 120.814C182.228 120.959 182.303 121.252 182.48 121.379C182.67 121.488 182.887 121.537 183.105 121.521C183.68 121.534 184.286 121.539 184.789 121.259C185.073 121.074 185.338 120.861 185.582 120.625C186.17 120.13 186.877 119.803 187.577 119.487C187.832 119.39 188.067 119.248 188.273 119.068C188.712 118.631 188.743 117.958 188.109 117.809C187.597 117.689 186.626 118.472 186.138 118.631Z" fill="#19241D"/>
<path d="M191.661 114.995C191.69 114.694 191.65 114.391 191.545 114.108C191.44 113.826 191.273 113.57 191.056 113.362C191.05 113.964 191.032 114.604 190.696 115.101C190.457 115.456 190.083 115.695 189.821 116.032C189.559 116.37 189.443 116.905 189.75 117.201C189.946 117.352 190.185 117.435 190.432 117.438C191.043 117.51 191.751 117.551 192.18 117.105C192.414 116.862 192.528 116.502 192.813 116.324C192.92 116.279 193.014 116.21 193.091 116.123C193.209 115.934 193.022 115.685 192.811 115.617C192.6 115.549 192.368 115.581 192.156 115.517C191.944 115.452 191.75 115.212 191.858 115.017" fill="#19241D"/>
<path d="M181.847 92.9494C181.526 93.028 181.194 93.0477 180.866 93.0076C180.322 92.9068 179.898 92.4932 179.459 92.154C178.414 91.3522 177.144 90.9049 175.832 90.8764C174.638 90.8537 173.432 91.1799 172.26 90.9523C172.336 91.3819 172.701 91.7042 173.09 91.8957C173.479 92.0873 173.909 92.1836 174.3 92.3713C174.926 92.6748 175.422 93.1957 175.698 93.8384C175.824 94.1348 175.904 94.4572 176.094 94.716C176.484 95.2448 177.223 95.361 177.875 95.3177C178.726 95.2613 179.614 95.0148 180.405 95.3342C181.01 95.5785 181.443 96.1125 181.948 96.5277C182.453 96.9429 183.165 97.2511 183.745 96.9515C183.143 96.7548 182.618 96.369 182.248 95.8505C181.878 95.332 181.683 94.7079 181.69 94.0693C182.259 94.1221 183.898 94.1017 183.809 93.1268C183.735 92.3007 182.335 92.8602 181.847 92.9494Z" fill="#19241D"/>
<path d="M174.403 99.6711C174.504 99.1124 175.056 98.619 174.884 98.0783C174.765 97.7043 174.335 97.5197 173.946 97.5105C173.556 97.5013 173.174 97.6182 172.784 97.6293C172.531 97.6157 172.277 97.6193 172.024 97.6401C171.251 97.7682 170.774 98.5851 170.046 98.8755C169.603 99.0521 169.105 99.0184 168.645 99.1404C167.599 99.4176 166.937 100.414 166.206 101.217C165.025 102.509 163.487 103.414 161.79 103.814C161.195 103.953 160.556 104.041 160.083 104.431C159.458 104.946 159.304 105.83 159.164 106.633C158.78 108.849 158.192 111.025 157.408 113.132L159.891 113.452C160.363 113.513 160.852 113.572 161.307 113.431C161.638 113.306 161.951 113.137 162.239 112.931C163.345 112.239 164.582 111.788 165.872 111.609C166.522 111.519 167.204 111.502 167.814 111.746C168.424 111.99 168.947 112.542 168.999 113.202C169.262 113.119 169.544 113.11 169.812 113.176C170.081 113.242 170.326 113.38 170.523 113.576C170.912 113.975 171.167 114.488 171.251 115.041C171.316 115.383 171.382 115.794 171.697 115.937C171.954 116.055 172.249 115.928 172.531 115.906C173.485 115.829 174.277 116.951 175.216 116.758C176.222 116.55 176.469 115.031 177.451 114.727C178.015 114.552 178.805 114.764 179.075 114.235C179.313 113.769 178.839 113.232 178.888 112.71C178.948 112.067 179.7 111.794 180.279 111.52C182.277 110.575 183.226 107.863 182.257 105.864C181.684 104.679 180.555 103.746 180.346 102.445C180.186 101.443 180.578 100.275 179.944 99.4871C179.622 99.0861 179.077 98.8648 178.885 98.3863C178.764 98.0851 178.813 97.7434 178.748 97.4252C178.683 97.1071 178.408 96.7743 178.096 96.8567C177.191 97.0961 176.903 99.9134 176.418 100.598C175.682 101.638 174.171 100.953 174.403 99.6711Z" fill="#19241D"/>
<path d="M157.682 94.0138C157.373 93.9264 157.036 93.8403 156.739 93.9652C156.443 94.0901 156.27 94.5285 156.508 94.7461C158.368 94.673 160.239 94.6005 162.083 94.8551C164.207 95.1485 166.31 95.8752 168.444 95.6614C167.225 95.2989 165.986 95.009 164.733 94.7933L162.644 94.391C162.084 94.2727 161.517 94.1845 160.948 94.1267C159.756 94.0275 158.854 94.3451 157.682 94.0138Z" fill="#3F3D56"/>
<path d="M159.545 87.4836C159.391 87.4706 159.199 87.4594 159.119 87.5933C159.043 87.7211 159.13 87.8901 159.089 88.0335C159.033 88.2293 158.779 88.2794 158.578 88.2527C158.378 88.226 158.161 88.1622 157.984 88.2596C157.893 88.3217 157.826 88.4115 157.791 88.5156C157.755 88.6197 157.755 88.7325 157.789 88.8371C157.861 89.0447 157.979 89.2335 158.132 89.3898C158.395 89.7235 158.694 90.0262 159.025 90.292C159.664 90.7677 160.53 90.9969 160.932 91.6874C160.989 91.8213 161.076 91.9397 161.187 92.0332C161.38 92.1566 161.632 92.0627 161.84 91.9669L162.57 91.6308C162.701 91.5831 162.819 91.5027 162.911 91.397C163.077 91.1691 162.975 90.845 162.835 90.5994C162.695 90.3538 162.516 90.0997 162.546 89.8181C162.6 89.3161 163.24 89.1241 163.503 88.6946C163.769 88.2616 163.596 87.7038 163.627 87.1958C163.662 86.6016 164.033 85.8288 163.437 85.385C162.931 85.0077 162.447 85.3563 162.083 85.7728C161.317 86.6511 160.954 87.6023 159.545 87.4836Z" fill="#19241D"/>
<path d="M163.971 78.6067C164.22 79.0874 164.739 79.3743 165.01 79.8424C165.305 80.3499 165.271 81.0055 165.59 81.4973C165.918 82.0019 166.577 82.2698 166.761 82.8437C166.962 83.4703 166.506 84.2319 166.869 84.7794C166.937 84.8689 167.022 84.9433 167.12 84.9977C167.217 85.0522 167.325 85.0857 167.436 85.096C167.548 85.1063 167.66 85.0932 167.765 85.0576C167.871 85.0219 167.969 84.9645 168.051 84.8889C168.204 84.721 168.286 84.4995 168.28 84.2717C168.273 84.0438 168.178 83.8276 168.016 83.6691C167.801 83.4717 167.492 83.3863 167.313 83.1557C167.22 83.0226 167.157 82.8699 167.131 82.7091C167.033 82.2451 167.049 81.7641 167.177 81.3076C167.225 81.1917 167.237 81.0639 167.212 80.941C167.131 80.7044 166.813 80.6876 166.59 80.5778C166.084 80.3286 166.096 79.6078 166.184 79.0466C166.126 79.4203 164.805 78.7847 164.667 78.5731C164.393 78.1526 164.542 77.3416 164.488 76.877C163.895 77.165 163.666 78.019 163.971 78.6067Z" fill="#19241D"/>
<path d="M150.673 86.0028C150.429 85.7278 150.062 85.4401 149.735 85.606C149.486 85.7325 149.418 86.0802 149.515 86.3437C149.634 86.5997 149.818 86.8199 150.047 86.9826C150.728 87.5486 151.461 88.0595 152.055 88.7175C153.117 89.8951 153.68 91.484 154.836 92.5688C155.069 92.8203 155.376 92.9882 155.712 93.0467C156.049 93.0783 156.427 92.861 156.466 92.5223C156.498 92.2432 156.305 91.9935 156.116 91.7867C155.667 91.2943 155.176 90.8411 154.752 90.3266C154.556 90.1289 154.433 89.8699 154.403 89.5922C154.401 89.3152 154.651 89.0252 154.918 89.0938C154.594 89.0104 154.354 88.4666 153.879 88.3643C153.481 88.2789 153.385 88.5268 152.913 88.3224C152.011 87.9326 151.304 86.7153 150.673 86.0028Z" fill="#3F3D56"/>
<path d="M171.853 59.225C171.594 59.1475 171.34 59.0559 171.091 58.9507C170.422 58.7482 169.536 59.2442 169.625 59.9429C169.685 60.4072 170.113 60.7202 170.35 61.1229C170.701 61.7201 170.607 62.4776 170.423 63.1464C170.378 63.3535 170.292 63.5492 170.17 63.7221C169.999 63.9046 169.796 64.0523 169.57 64.1571C168.666 64.6681 167.869 65.3508 167.223 66.1675C167.153 66.2429 167.104 66.3359 167.081 66.4369C167.049 66.6728 167.284 66.8447 167.417 67.0414C167.713 67.4785 167.499 68.0667 167.528 68.5948C167.524 68.6695 167.538 68.7441 167.571 68.8115C167.603 68.8789 167.651 68.937 167.712 68.9801C167.89 69.0713 168.101 68.9164 168.198 68.7402C168.518 68.1552 168.277 67.2162 168.877 66.9341C168.991 66.8808 169.129 66.8583 169.205 66.7576C169.325 66.598 169.209 66.3616 169.27 66.1707C169.361 65.8842 169.75 65.8713 170.048 65.884C170.562 65.9057 171.076 65.8367 171.566 65.6803C171.759 65.6341 171.933 65.5321 172.069 65.3869C172.248 65.1609 172.232 64.8396 172.197 64.5523C172.017 63.12 171.567 61.7355 170.871 60.4738C171.399 60.5417 171.973 60.6006 172.428 60.3233C172.683 60.168 172.989 59.7037 172.862 59.3876C172.662 58.8878 172.301 59.3085 171.853 59.225Z" fill="#19241D"/>
<path d="M104.195 67.1028C104.258 67.4443 104.32 67.8039 104.209 68.1328C104.098 68.4616 103.749 68.7364 103.419 68.6357C103.163 68.5575 103.015 68.298 102.834 68.1002C101.823 67.0003 99.543 67.6371 98.9187 66.2763C98.6639 65.7209 98.837 65.0555 98.6632 64.4692C98.5536 64.1304 98.3354 63.8379 98.043 63.6376C97.7506 63.4373 97.4005 63.3406 97.0476 63.3627C96.7258 63.4096 96.4126 63.5038 96.1179 63.6425C94.1441 64.4395 92.0719 64.962 89.9583 65.1958C89.5566 65.2204 89.1593 65.2933 88.7748 65.4129C87.9069 65.7301 87.3139 66.5413 86.8919 67.369C86.4699 68.1968 86.1584 69.0929 85.5926 69.8283C84.998 70.6012 84.1648 71.1424 83.3876 71.7279C83.0882 71.9224 82.8388 72.1858 82.6601 72.4965C82.4916 72.8453 82.5011 73.2509 82.5142 73.6387L82.6731 78.3476C82.6935 78.9533 82.7192 79.5807 82.988 80.1227C83.3238 80.7996 83.9871 81.2429 84.4472 81.8408C84.9168 82.4553 85.1614 83.2144 85.1397 83.9898C85.1299 84.3016 85.0992 84.6703 85.34 84.8661C85.4865 84.9618 85.6579 85.0115 85.8325 85.0089L92.1505 85.5302C93.2619 85.6219 94.4936 85.7727 95.2192 86.6264C95.5616 87.0293 95.8367 87.6087 96.3613 87.6519C96.5863 87.6704 96.8052 87.5773 97.0302 87.5593C97.598 87.514 98.0967 87.9485 98.4115 88.427C98.8879 89.1564 99.1042 90.0274 99.0248 90.897C98.9731 91.4429 98.8053 91.9736 98.7691 92.5207C98.6314 94.6026 100.382 96.4114 100.416 98.4976C100.436 99.7247 99.858 100.871 99.2946 101.959C100.204 103.348 99.4593 105.197 99.8213 106.82C100.165 108.361 101.438 109.566 101.756 111.112C101.901 111.82 101.909 112.691 102.528 113.055C102.8 113.189 103.101 113.249 103.403 113.232C105.222 113.253 107.021 112.84 108.651 112.027C109.417 111.644 110.21 111.072 110.343 110.222C110.451 109.535 110.106 108.768 110.457 108.17C110.871 107.466 111.932 107.522 112.541 106.98C113.529 106.102 112.758 104.426 113.159 103.161C113.519 102.023 114.757 101.419 115.371 100.398C115.613 99.959 115.786 99.4852 115.885 98.9932C116.167 97.8171 116.342 96.6178 116.409 95.4099C116.425 94.676 116.479 93.9435 116.569 93.2151C117.231 89.0685 121.297 86.2919 122.617 82.3084C122.744 81.928 122.803 81.4213 122.467 81.206C122.268 81.1102 122.042 81.0864 121.828 81.1385L118.915 81.5087C118.554 81.5547 118.17 81.5977 117.838 81.4462C117.506 81.2947 117.268 80.871 117.444 80.5492C117.938 79.6458 116.921 78.5042 116.469 77.5785C115.251 75.0856 113.802 72.7151 112.139 70.499C112.033 70.385 111.966 70.2391 111.949 70.0834L112.776 70.1112C112.497 69.1017 112.036 67.9971 111.064 67.6279C110.515 67.4198 109.908 67.4917 109.324 67.5239C107.649 67.6162 105.853 67.3612 104.195 67.1028Z" fill="#19241D"/>
<path d="M109.324 44.3549C109.763 44.8242 110.254 45.3218 110.888 45.4036C112.008 45.548 112.814 44.3802 113.326 43.3657C113.345 43.6244 113.464 43.8653 113.656 44.0373C113.849 44.2094 114.1 44.2989 114.357 44.2869C114.633 44.24 114.897 44.136 115.132 43.9814C117.351 42.7586 119.837 42.1106 122.367 42.0959C122.342 41.9027 122.39 41.7073 122.5 41.5474C122.61 41.3875 122.775 41.2744 122.963 41.2299C123.477 41.1271 123.941 41.5754 124.189 42.041C124.437 42.5066 124.591 43.0463 124.986 43.3948C125.38 43.7433 126.143 43.7282 126.298 43.2235C126.448 42.7389 125.947 42.3257 125.531 42.0401C125.115 41.7544 124.677 41.2257 124.957 40.8041C127.082 40.3298 129.22 39.8538 131.395 39.7595C131.765 39.7725 132.134 39.7085 132.478 39.5713C132.81 39.4073 133.074 39.0348 132.984 38.6734C132.51 38.7859 132.013 38.7533 131.557 38.5799C131.101 38.4064 130.706 38.1 130.424 37.6995C133.441 37.4485 136.65 37.2346 139.324 38.6659C139.645 39.3604 138.009 39.9383 138.447 40.5647C138.586 40.7644 138.866 40.7879 139.108 40.7924C140.967 40.8272 142.836 40.8613 144.673 40.5784C145.344 40.4751 146.022 40.3292 146.696 40.413C147.819 40.5526 148.779 41.3079 149.884 41.5541C150.334 41.6543 150.838 41.6577 151.217 41.3941C151.596 41.1305 151.758 40.5302 151.448 40.1875C152.488 39.1598 154.214 39.4145 155.586 39.9065C156.958 40.3985 158.258 41.1919 159.71 41.3016C160.751 41.3802 161.807 41.0978 162.836 41.2773C163.482 41.3901 164.084 41.6801 164.716 41.8583C165.911 42.1953 167.176 42.1241 168.417 42.1404C171.583 42.1834 174.715 42.8108 177.657 43.9915C178.04 44.1171 178.39 44.326 178.684 44.6034C178.958 44.8989 179.098 45.3582 178.914 45.7176L175.873 45.2697C176.16 45.8382 176.901 45.9351 177.503 46.1312C178.104 46.3274 178.728 46.9974 178.367 47.5205C177.715 47.3112 177.124 47.9685 176.794 48.5732C176.465 49.178 176.064 49.9022 175.38 49.939C174.768 49.972 174.028 49.4467 173.63 49.9158C174.181 50.6166 174.652 51.3772 175.036 52.1834C175.43 53.011 175.711 54.0539 175.178 54.7986C175.095 54.9315 174.968 55.0309 174.819 55.0796C174.384 55.1906 174.101 54.6541 173.79 54.329C173.396 53.9192 172.802 53.8032 172.27 53.611C171.737 53.4188 171.177 53.0408 171.135 52.4723C171.109 52.1186 171.294 51.7898 171.431 51.4629C171.66 50.9119 171.76 50.315 171.724 49.7186C171.694 49.2387 171.56 48.7396 171.219 48.4044C170.877 48.0691 170.287 47.9627 169.92 48.2698C169.749 48.4131 169.611 48.6423 169.389 48.6508C168.996 48.666 168.695 47.9754 168.379 48.2112C168.416 48.4623 168.364 48.7186 168.233 48.9353C167.289 49.7623 165.841 49.4124 164.625 49.7046C164.046 49.8714 163.493 50.1151 162.979 50.4293C162.786 50.5123 162.622 50.6508 162.508 50.8275C162.356 51.1249 162.524 51.5057 162.791 51.7035C163.075 51.8789 163.394 51.9886 163.725 52.0247C165.207 52.3077 166.711 52.7459 167.881 53.7058C169.051 54.6658 169.819 56.2526 169.449 57.7271L166.525 54.911C166.636 56.0934 166.699 57.2791 166.714 58.4681C166.733 58.7002 166.702 58.9337 166.622 59.1523C166.413 59.6163 165.848 59.7725 165.354 59.875C165.216 59.9013 165.085 59.9568 164.97 60.0376C164.855 60.1185 164.759 60.2229 164.687 60.3441C164.615 60.4653 164.569 60.6005 164.552 60.7408C164.536 60.8811 164.549 61.0233 164.591 61.1581C164.767 61.736 165.205 62.1866 165.607 62.6355C166.008 63.0845 166.403 63.5947 166.456 64.1969C166.508 64.799 166.058 65.4777 165.46 65.4359C165.006 65.4041 164.67 64.9949 164.476 64.5802C164.283 64.1655 164.168 63.7036 163.877 63.3512C162.998 62.2847 161.022 62.7417 160.234 61.6047C160.034 61.8344 159.894 62.112 159.83 62.4113C159.765 62.7105 159.778 63.0214 159.866 63.3144C160.232 63.083 160.734 63.298 161.01 63.6341C161.285 63.9703 161.415 64.4013 161.631 64.7788C161.923 65.2883 162.388 65.74 162.428 66.3269C162.418 66.5488 162.421 66.7712 162.439 66.9927C162.512 67.3483 162.81 67.6036 163.017 67.9009C163.498 68.5925 163.474 69.5427 163.164 70.3274C162.854 71.1122 162.297 71.7679 161.745 72.4037C160.782 73.5141 159.799 74.618 158.656 75.5401C158.33 75.8033 157.982 76.062 157.779 76.4299C157.576 76.7978 157.566 77.3141 157.878 77.594C157.655 77.6052 157.254 77.7159 157.031 77.7272C156.953 76.8244 156.936 75.9173 156.98 75.0121C156.099 74.5857 155.151 75.7277 155.264 76.7062C155.378 77.6847 156.08 78.4699 156.58 79.3165C156.945 79.9355 157.217 80.6574 157.095 81.3672C156.973 82.0771 156.344 82.7319 155.633 82.6693C154.5 82.5697 154.027 80.9309 152.905 80.7433C152.806 80.7199 152.703 80.7303 152.61 80.7728C152.444 80.8649 152.415 81.0895 152.406 81.2807C152.36 82.219 152.32 83.1947 152.683 84.0598C153.215 85.3255 154.588 86.3885 154.3 87.7319C152.748 87.0047 151.941 85.2504 151.575 83.5652C151.209 81.88 151.148 80.111 150.491 78.5179C149.993 79.1622 148.945 78.6296 148.489 77.9537C148.057 77.3129 147.791 76.5716 147.372 75.9222C146.953 75.2727 146.311 74.6912 145.544 74.6555C144.739 74.6181 144.041 75.1749 143.427 75.701C142.922 76.1336 142.404 76.5833 142.109 77.1813C141.68 78.0516 141.792 79.0775 141.771 80.0493C141.749 81.0998 141.528 82.2082 140.818 82.9773C140.108 83.7463 138.797 84.0142 138.014 83.3211C137.605 82.9592 137.407 82.4186 137.23 81.8996C136.38 79.398 135.672 76.8496 135.11 74.2668C134.978 74.8563 134.465 75.6161 133.974 75.2689C133.864 75.1755 133.775 75.0597 133.713 74.929C132.798 73.3657 131.103 72.4279 129.391 71.8656C127.68 71.3034 125.878 71.0411 124.185 70.4232C123.237 70.0767 122.331 69.6217 121.485 69.0669C121.269 69.3863 121.143 69.7585 121.12 70.1441C121.098 70.5297 121.179 70.9144 121.355 71.2574C121.731 71.9277 122.58 72.3156 123.308 72.0813C123.684 71.9602 124.001 71.6971 124.374 71.5672C124.747 71.4372 125.248 71.501 125.411 71.8633C125.567 72.2101 125.331 72.6296 125.448 72.9917C125.626 73.5432 126.451 73.5857 126.74 74.0875C126.954 74.4609 126.778 74.9567 126.471 75.258C126.165 75.5593 125.756 75.7245 125.382 75.9343C124.168 76.6148 123.305 77.7765 122.244 78.6803C121.183 79.5841 119.687 80.244 118.422 79.6642C118.724 78.1258 116.906 76.9963 116.572 75.4647C116.462 74.9606 116.519 74.4252 116.361 73.9339C116.134 73.2227 115.508 72.7337 114.995 72.1947C114.372 71.5338 113.887 70.7539 113.568 69.901C113.249 69.048 113.103 68.1393 113.138 67.2284C113.165 66.5955 113.281 65.9522 113.138 65.3352C112.995 64.7183 112.488 64.1212 111.86 64.1491C110.426 64.213 108.62 64.3205 107.868 63.0881C107.599 62.6483 107.482 62.0041 107.87 61.6671C108.144 61.4294 108.548 61.4518 108.908 61.4875L112.139 61.8079C112.895 61.8828 113.711 61.9447 114.36 61.5464C115.008 61.1481 115.289 60.0909 114.689 59.6224C114.25 59.28 113.464 59.2985 113.337 58.7542C113.23 58.3008 113.728 57.7864 113.459 57.4075C113.267 57.1359 112.833 57.2112 112.571 57.4149C112.308 57.6186 112.117 57.9164 111.824 58.0706C111.308 58.3411 110.692 58.0836 110.137 57.9087C109.583 57.7337 108.839 57.7189 108.57 58.2382C108.269 58.8191 108.837 59.5802 108.538 60.1623C108.144 60.9318 106.807 60.4937 106.252 61.1556C105.616 61.9152 106.685 63.0478 106.471 64.0181C106.197 64.1549 105.892 64.2177 105.587 64.2004C105.282 64.1831 104.986 64.0863 104.729 63.9195C104.477 63.7462 104.275 63.507 104.146 63.2274C104.018 62.9479 103.967 62.6384 103.999 62.3318C104.052 61.8953 104.277 61.4497 104.126 61.0372C104.004 60.7037 103.672 60.5052 103.363 60.3332L100.223 58.5841C99.9319 59.1292 100.3 59.8051 100.761 60.2146C101.222 60.624 101.799 60.9324 102.102 61.4713C102.294 61.8447 102.337 62.2777 102.222 62.6819C102.108 63.0861 101.845 63.431 101.487 63.6462C101.442 63.6774 101.391 63.6985 101.337 63.7079C101.283 63.7174 101.228 63.715 101.175 63.7009C101.125 63.6712 101.082 63.6317 101.047 63.5847C101.012 63.5377 100.987 63.4842 100.973 63.4273C100.42 61.998 99.5878 60.5889 98.2581 59.8423C96.9284 59.0956 95.0178 59.2492 94.1458 60.5069C93.9387 60.8056 93.7997 61.1461 93.6193 61.4619C92.6608 63.1399 90.6058 63.9345 88.6859 63.8826C88.4981 63.8931 88.3113 63.8488 88.1477 63.7551C87.8374 63.539 87.8514 63.0805 87.8989 62.7034L88.1004 61.1028C88.1409 60.7814 88.1995 60.4261 88.4519 60.2255C88.8075 59.9426 89.3206 60.1211 89.7736 60.1145C90.1167 60.0983 90.4467 59.9762 90.7186 59.7645C90.9906 59.5529 91.1914 59.2621 91.2939 58.9316C91.3854 58.5977 91.3849 58.2451 91.2923 57.9115C91.1996 57.578 91.0185 57.2763 90.7684 57.0389C90.5608 56.8423 90.2822 56.5953 90.3918 56.3303C90.4356 56.257 90.4947 56.1943 90.5651 56.1465C90.6355 56.0987 90.7154 56.067 90.7992 56.0537C91.6128 55.8155 92.4725 55.7531 93.2726 55.472C94.0726 55.1909 94.8485 54.6159 95.038 53.7833C95.0961 53.5282 95.1225 53.2191 95.3498 53.0926C95.4639 53.0441 95.5863 53.0189 95.7101 53.0184C96.1439 52.9562 96.5388 52.7325 96.8172 52.3914C97.0956 52.0504 97.2372 51.6166 97.2142 51.1755C97.5976 50.9054 98.1348 51.104 98.5057 51.3913C98.8767 51.6786 99.2042 52.0582 99.6555 52.1821C100.497 52.4129 101.309 51.662 102.181 51.6585C102.548 51.6571 102.927 51.7878 103.272 51.6625C103.622 51.5354 103.83 51.1846 104.099 50.9253C104.367 50.6661 104.838 50.508 105.086 50.7873L104.875 49.2116C105.3 49.3198 105.743 49.3352 106.174 49.2565C106.605 49.1779 107.015 49.0072 107.375 48.7558L104.648 47.8269C104.553 47.803 104.466 47.7558 104.393 47.6895C104.195 47.4742 104.392 47.1389 104.553 46.8942C104.939 46.3089 105.004 45.3448 104.369 45.0534C103.937 44.8545 103.44 45.0933 103.024 45.3268L101.034 46.4457C100.971 46.8271 101.433 47.0433 101.72 47.3002C101.893 47.4556 102.016 47.6603 102.072 47.8874C102.128 48.1145 102.115 48.3533 102.033 48.5725C101.952 48.7917 101.807 48.981 101.617 49.1156C101.428 49.2502 101.202 49.3237 100.97 49.3266C101.101 49.4984 101.192 49.6977 101.236 49.9098C101.281 50.1219 101.277 50.3413 101.226 50.5518L99.8867 50.6489C99.7364 50.6793 99.5803 50.6486 99.4524 50.5634C99.3091 50.4352 99.3286 50.2104 99.2954 50.0202C99.2153 49.5612 98.7694 49.2394 98.3144 49.1569C97.8593 49.0744 97.3938 49.1802 96.9433 49.2846C96.7519 49.354 96.5418 49.3491 96.3539 49.2709C96.2461 49.2003 96.1642 49.0961 96.1207 48.9741C95.9232 48.4912 96.1078 47.9237 96.4251 47.5107C96.7424 47.0977 97.1767 46.7958 97.5667 46.4521C98.4995 45.6269 99.1849 44.5552 99.5453 43.358C100.282 43.0466 101.046 42.6235 101.783 42.3121C102.919 41.732 104.194 41.483 105.463 41.5932L107.96 41.6413C108.699 41.6555 109.458 41.6738 110.141 41.9579C110.825 42.242 111.425 42.8564 111.472 43.6002C111.487 43.6844 111.479 43.7709 111.451 43.8515C111.423 43.9322 111.376 44.0043 111.312 44.0611C111.216 44.1143 111.107 44.1391 110.997 44.1329C110.307 44.1573 110.014 44.3305 109.324 44.3549Z" fill="#19241D"/>
<path d="M89.4271 52.243C89.5246 52.15 89.5948 52.0316 89.6299 51.9009C89.6651 51.7702 89.6638 51.6323 89.6263 51.5023C89.3889 51.41 89.1307 51.3862 88.8808 51.4338C88.6308 51.4814 88.3989 51.5984 88.2114 51.7717C88.0635 51.9225 87.936 52.0924 87.8323 52.2769C87.5042 52.8165 87.2141 53.461 87.4042 54.0642C87.4197 54.13 87.4481 54.192 87.4876 54.2466C87.5272 54.3011 87.5772 54.3472 87.6347 54.382C87.7199 54.4165 87.8118 54.431 87.9033 54.4245C88.2647 54.424 88.6258 54.4016 88.9845 54.3574C89.2048 54.3302 89.4606 54.2675 89.5458 54.0609C89.6577 53.7892 89.3868 53.4818 89.4658 53.1987C89.5177 53.0721 89.5964 52.9584 89.6965 52.8656C89.7461 52.8189 89.7842 52.7612 89.8078 52.697C89.8314 52.6328 89.8399 52.564 89.8325 52.496C89.8006 52.3631 89.5989 52.2877 89.5262 52.4031" fill="#19241D"/>
<path d="M91.3004 49.7937C90.9794 49.7193 90.6484 49.6984 90.3207 49.7316C90.2482 49.7294 90.1764 49.7459 90.1119 49.7795C90.0495 49.8259 90.0042 49.892 89.9833 49.9673C89.9141 50.1913 89.9311 50.4333 90.031 50.6453C90.1308 50.8572 90.3062 51.0234 90.5221 51.1108C90.6398 51.1381 90.7526 51.1838 90.8563 51.2462C91.1334 51.4629 90.9567 51.906 91.0092 52.2556C91.0681 52.6482 91.445 52.9777 91.3759 53.3686C91.3215 53.6765 90.9952 53.9204 91.0477 54.2287C91.1028 54.5516 91.5092 54.6486 91.8331 54.6744C92.0209 54.7076 92.2141 54.6853 92.3895 54.6102C92.5654 54.4889 92.6904 54.3063 92.7406 54.0976C92.8732 53.6996 92.9289 53.2797 92.9047 52.8605C92.9033 52.6699 92.8558 52.4825 92.7664 52.3145C92.6688 52.1814 92.5607 52.0566 92.4431 51.9412C91.8224 51.2134 92.4759 50.1277 91.3004 49.7937Z" fill="#19241D"/>
<path opacity="0.8" d="M172.914 106.812C172.914 106.812 125.379 79.3019 104.914 84.5144C104.914 84.5144 61.5428 89.2201 56.5164 99.5726C56.5164 99.5726 42.7296 56.1354 37.7031 54.6875" stroke="#A0DBB8" stroke-width="2" stroke-miterlimit="10"/>
<path opacity="0.8" d="M56.5164 99.5726C64.4869 78.1436 136.293 54.3979 136.293 54.3979C126.097 57.0042 104.914 84.5144 104.914 84.5144C104.914 84.5144 60.1067 51.6469 37.7031 54.6875C37.7031 54.6875 136.365 57.9453 172.914 106.812" stroke="#B0E0C4" stroke-width="2" stroke-miterlimit="10"/>
<path d="M37.7035 56.7868C38.8535 56.7868 39.7859 55.8469 39.7859 54.6874C39.7859 53.5279 38.8535 52.5879 37.7035 52.5879C36.5534 52.5879 35.6211 53.5279 35.6211 54.6874C35.6211 55.8469 36.5534 56.7868 37.7035 56.7868Z" fill="#A0DBB8"/>
<path d="M56.516 101.672C57.666 101.672 58.5984 100.732 58.5984 99.5726C58.5984 98.4131 57.666 97.4731 56.516 97.4731C55.3659 97.4731 54.4336 98.4131 54.4336 99.5726C54.4336 100.732 55.3659 101.672 56.516 101.672Z" fill="#A0DBB8"/>
<path d="M136.293 56.4973C137.443 56.4973 138.376 55.5573 138.376 54.3978C138.376 53.2383 137.443 52.2983 136.293 52.2983C135.143 52.2983 134.211 53.2383 134.211 54.3978C134.211 55.5573 135.143 56.4973 136.293 56.4973Z" fill="#A0DBB8"/>
<path d="M172.914 108.912C174.064 108.912 174.997 107.972 174.997 106.812C174.997 105.653 174.064 104.713 172.914 104.713C171.764 104.713 170.832 105.653 170.832 106.812C170.832 107.972 171.764 108.912 172.914 108.912Z" fill="#A0DBB8"/>
<path d="M104.914 86.6137C106.064 86.6137 106.997 85.6738 106.997 84.5143C106.997 83.3548 106.064 82.4148 104.914 82.4148C103.764 82.4148 102.832 83.3548 102.832 84.5143C102.832 85.6738 103.764 86.6137 104.914 86.6137Z" fill="#A0DBB8"/>
</svg>
