<svg width="40" height="41" viewBox="0 0 40 41" fill="none" xmlns="http://www.w3.org/2000/svg">
<path d="M36.5577 36.1937L23.3603 17.0206L21.8682 14.852L12.4279 1.13676L11.6458 0H0.0454102L2.87434 4.11122L15.4261 22.349L16.9182 24.5148L27.0035 39.1688L27.7855 40.3042H39.386L36.557 36.193L36.5577 36.1937ZM29.165 37.6809L18.6874 22.4567L17.1953 20.2896L5.0366 2.62399H10.2663L20.099 16.9101L21.5911 19.0772L34.3948 37.6802H29.165V37.6809Z" fill="black"/>
<path d="M17.1953 20.2903L18.6874 22.4575L16.9183 24.5162L3.34658 40.3049H0L15.4262 22.3497L17.1953 20.2903Z" fill="black"/>
<path d="M37.9898 0.000732422L23.3604 17.0206L21.5912 19.0787L20.0991 16.9115L21.8682 14.8527L31.7786 3.31797L34.6432 0.000732422H37.9898Z" fill="black"/>
</svg>
